M48
; DRILL file {KiCad 9.0.2} date 2025-06-03T05:25:37-0700
; FORMAT={-:-/ absolute / metric / decimal}
; #@! TF.CreationDate,2025-06-03T05:25:37-07:00
; #@! TF.GenerationSoftware,Kicad,Pcbnew,9.0.2
; #@! TF.FileFunction,Plated,1,4,PTH
FMAT,2
METRIC
; #@! TA.AperFunction,Plated,PTH,ViaDrill
T1C0.400
; #@! TA.AperFunction,Plated,PTH,ComponentDrill
T2C0.800
; #@! TA.AperFunction,Plated,PTH,ComponentDrill
T3C1.000
; #@! TA.AperFunction,Plated,PTH,ComponentDrill
T4C1.130
; #@! TA.AperFunction,Plated,PTH,ComponentDrill
T5C3.230
%
G90
G05
T1
X81.95Y-112.5
X81.95Y-116.25
X81.95Y-120.0
X81.95Y-123.75
X81.95Y-127.5
X81.95Y-131.25
X81.95Y-135.0
X81.95Y-139.0
X81.95Y-142.5
X81.95Y-146.0
X81.98Y-100.91
X82.0Y-104.6
X82.0Y-108.7
X82.03Y-93.01
X82.03Y-97.11
X83.3Y-96.9
X83.39Y-147.56
X84.1Y-96.0
X85.0Y-96.9
X85.9Y-96.0
X86.27Y-91.38
X86.3Y-87.8
X86.8Y-96.9
X87.7Y-95.99
X88.6Y-96.9
X89.4Y-96.0
X89.75Y-87.8
X91.825Y-97.3
X91.83Y-126.5
X92.0Y-133.25
X92.0Y-138.1
X93.25Y-87.8
X93.7Y-117.0
X93.7Y-118.39
X93.7Y-119.6
X93.7Y-121.0
X93.74Y-113.288
X93.74Y-114.58
X94.0Y-104.42
X95.5Y-99.25
X95.5Y-121.4
X95.55Y-115.9
X95.55Y-119.4
X96.75Y-87.8
X98.8Y-99.3
X99.65Y-104.44
X99.75Y-103.2
X99.75Y-105.675
X99.75Y-107.0
X99.75Y-108.7
X100.25Y-87.8
X102.4Y-96.8
X102.5Y-147.75
X103.75Y-87.8
X105.0Y-144.5
X105.6Y-116.175
X106.975Y-99.95
X107.0Y-87.8
X107.5Y-147.75
X107.75Y-121.15
X109.231Y-106.981
X109.25Y-104.25
X109.4Y-121.05
X110.2Y-119.4
X110.25Y-87.8
X110.55Y-117.8
X111.35Y-109.52
X111.4Y-99.95
X113.8Y-87.8
X113.8Y-110.775
X114.05Y-99.15
X114.05Y-103.3
X114.253Y-122.6
X114.475Y-120.175
X114.5Y-95.525
X114.5Y-118.611
X114.5Y-129.75
X115.374Y-94.943
X116.322Y-94.491
X116.5Y-126.5
X116.5Y-133.25
X116.5Y-138.1
X117.1Y-97.1
X117.25Y-87.8
X117.371Y-94.025
X118.39Y-117.09
X118.4Y-113.32
X118.4Y-114.57
X118.5Y-99.318
X118.5Y-100.588
X118.5Y-101.858
X118.5Y-103.128
X118.75Y-128.05
X118.8Y-105.5
X119.4Y-123.1
X119.5Y-133.25
X119.65Y-120.275
X119.9Y-105.5
X120.75Y-87.8
X120.9Y-122.6
X121.0Y-105.5
X121.3Y-117.968
X121.5Y-98.15
X122.1Y-105.5
X122.3Y-118.75
X122.85Y-120.9
X122.95Y-113.13
X124.223Y-120.923
X124.25Y-87.8
X124.26Y-103.99
X124.905Y-148.453
X126.028Y-148.45
X126.5Y-123.75
X126.803Y-115.84
X127.75Y-87.8
X128.6Y-97.45
X128.75Y-111.225
X128.9Y-121.8
X128.95Y-114.75
X129.0Y-123.75
X130.16Y-121.4
X130.25Y-123.75
X130.25Y-138.05
X130.5Y-109.1
X130.988Y-96.588
X131.25Y-87.8
X131.5Y-107.903
X131.6Y-121.1
X131.7Y-122.3
X131.75Y-129.0
X132.232Y-107.128
X132.51Y-111.08
X132.905Y-120.97
X133.034Y-106.45
X133.196Y-96.621
X133.2Y-112.0
X133.475Y-108.95
X133.5Y-114.75
X133.708Y-105.624
X133.9Y-97.4
X134.3Y-125.3
X134.5Y-87.8
X134.5Y-132.25
X134.785Y-108.91
X135.575Y-121.775
X135.72Y-109.387
X136.45Y-98.4
X136.7Y-112.9
X136.723Y-109.698
X137.343Y-113.8
X137.75Y-87.8
X137.75Y-126.5
X137.75Y-129.0
X139.475Y-99.5
X139.5Y-127.9
X140.6Y-130.15
X140.925Y-98.8
X141.05Y-87.8
X141.153Y-122.07
X141.17Y-123.25
X141.195Y-114.995
X141.245Y-104.595
X141.5Y-100.1
X142.494Y-99.698
X143.3Y-125.7
X143.5Y-100.0
X144.025Y-142.9
X144.297Y-100.683
X144.5Y-87.8
X145.4Y-141.3
X145.65Y-148.225
X146.539Y-94.022
X147.5Y-107.0
X147.5Y-113.0
X147.583Y-94.134
X148.0Y-87.8
X148.231Y-131.025
X148.35Y-148.0
X148.5Y-108.0
X148.5Y-112.0
X148.657Y-94.022
X149.114Y-130.034
X149.5Y-109.0
X149.5Y-111.0
X149.5Y-115.0
X149.65Y-138.3
X149.718Y-94.022
X150.325Y-95.075
X150.5Y-110.0
X150.55Y-148.0
X151.5Y-87.8
X151.5Y-115.0
X151.5Y-117.0
X152.5Y-119.0
X153.175Y-148.0
X153.5Y-115.0
X153.5Y-120.0
X154.325Y-99.675
X154.5Y-116.0
X154.5Y-117.0
X154.5Y-120.0
X155.0Y-87.8
X155.5Y-115.0
X155.5Y-120.0
X155.675Y-148.0
X156.5Y-119.0
X157.3Y-132.6
X157.5Y-115.0
X157.5Y-117.0
X158.25Y-147.975
X158.5Y-87.8
X158.5Y-110.0
X158.8Y-126.3
X159.155Y-130.982
X159.5Y-109.0
X159.5Y-111.0
X159.5Y-115.0
X160.001Y-131.603
X160.287Y-132.614
X160.4Y-93.35
X160.5Y-108.0
X160.5Y-112.0
X160.725Y-147.975
X160.882Y-133.479
X161.075Y-99.7
X161.5Y-107.0
X161.5Y-113.0
X161.75Y-87.8
X161.888Y-133.78
X162.466Y-134.656
X163.25Y-135.5
X163.35Y-147.975
X163.791Y-124.216
X164.305Y-123.3
X165.0Y-87.8
X165.068Y-122.34
X165.2Y-93.35
X165.36Y-113.775
X165.575Y-137.6
X165.855Y-123.25
X165.875Y-147.975
X166.15Y-99.75
X166.596Y-136.541
X166.85Y-91.9
X167.05Y-120.65
X167.3Y-110.3
X167.3Y-115.6
X167.625Y-128.825
X167.7Y-141.4
X167.75Y-96.095
X167.9Y-116.5
X168.129Y-111.545
X168.244Y-106.506
X168.25Y-87.8
X168.475Y-148.0
X168.537Y-142.637
X169.025Y-126.325
X169.5Y-98.25
X170.5Y-126.75
X170.8Y-143.1
X170.85Y-145.237
X170.9Y-148.0
X171.0Y-130.3
X171.0Y-137.1
X171.5Y-87.8
X171.5Y-128.25
X171.75Y-105.24
X172.05Y-120.7
X172.234Y-113.562
X172.45Y-108.29
X172.525Y-125.925
X172.62Y-111.365
X172.75Y-96.25
X173.284Y-113.541
X173.373Y-108.791
X173.4Y-148.3
X173.95Y-97.7
X174.0Y-94.0
X174.0Y-104.25
X174.8Y-87.8
X174.85Y-127.0
X174.85Y-130.3
X174.85Y-137.1
X174.9Y-140.25
X175.95Y-148.45
X176.5Y-97.8
X176.5Y-100.6
X176.5Y-103.225
X176.55Y-99.15
X176.55Y-101.925
X176.75Y-127.0
X177.0Y-96.3
X177.5Y-108.625
X177.525Y-129.75
X177.525Y-137.95
X177.6Y-109.9
X177.875Y-116.04
X178.25Y-87.8
X178.425Y-126.0
X178.6Y-142.7
X178.802Y-121.748
X178.975Y-108.0
X179.0Y-105.9
X179.2Y-117.15
X179.362Y-112.225
X179.5Y-104.25
X180.06Y-108.83
X180.2Y-127.15
X180.7Y-146.325
X181.0Y-96.3
X181.0Y-99.0
X181.0Y-102.0
X181.0Y-104.6
X181.05Y-140.2
X181.75Y-87.8
X181.975Y-138.15
X182.052Y-124.998
X182.1Y-111.325
X182.25Y-128.5
X182.26Y-108.83
X182.35Y-136.9
X182.37Y-146.325
X184.45Y-141.1
X184.46Y-108.83
X184.602Y-127.548
X184.64Y-121.58
X185.0Y-96.3
X185.0Y-99.0
X185.0Y-102.0
X185.0Y-104.6
X185.25Y-87.8
X185.75Y-121.55
X186.2Y-146.2
X186.727Y-129.673
X186.95Y-109.537
X187.05Y-136.95
X187.4Y-142.3
X188.2Y-148.175
X188.25Y-116.25
X188.5Y-124.75
X188.75Y-87.8
X189.0Y-96.3
X189.0Y-99.0
X189.0Y-102.0
X189.0Y-104.6
X189.65Y-140.0
X189.675Y-142.175
X190.05Y-121.45
X190.85Y-135.95
X191.1Y-109.0
X192.2Y-140.0
X192.2Y-142.175
X192.25Y-87.8
X192.4Y-146.7
X192.7Y-135.3
X192.789Y-116.289
X192.9Y-96.3
X192.9Y-99.0
X192.9Y-102.0
X192.9Y-104.6
X192.9Y-106.9
X194.0Y-110.1
X194.01Y-135.175
X194.085Y-147.915
X194.5Y-129.75
X194.575Y-142.175
X194.6Y-140.0
X195.5Y-87.8
X196.4Y-147.9
X196.525Y-133.975
X196.9Y-96.3
X196.9Y-99.0
X196.9Y-102.0
X196.9Y-104.6
X196.9Y-106.9
X196.9Y-109.15
X197.2Y-140.0
X197.2Y-142.15
X197.2Y-144.1
X197.4Y-120.6
X198.5Y-124.75
X198.75Y-87.8
X199.2Y-147.9
X199.5Y-129.75
X199.8Y-144.1
X200.397Y-116.025
X200.9Y-96.3
X200.9Y-99.0
X200.9Y-102.0
X200.9Y-104.6
X200.9Y-106.9
X200.9Y-109.15
X201.259Y-115.425
X202.1Y-142.1
X202.21Y-114.98
X202.25Y-87.8
X202.25Y-132.25
X202.3Y-144.1
X202.3Y-147.9
X202.58Y-127.67
X203.059Y-114.362
X204.15Y-106.9
X204.15Y-109.15
X204.7Y-120.6
X204.9Y-96.3
X204.9Y-99.0
X204.9Y-102.0
X204.9Y-105.8
X204.9Y-144.1
X204.9Y-146.8
X204.96Y-125.92
X205.65Y-104.6
X205.75Y-87.8
X205.8Y-135.4
X207.2Y-120.6
X207.3Y-142.1
X207.3Y-144.1
X207.3Y-146.8
X207.777Y-135.317
X208.85Y-135.34
X208.9Y-106.9
X209.0Y-87.8
X209.575Y-97.8
X209.575Y-100.6
X209.575Y-103.225
X209.8Y-120.6
X209.8Y-146.0
X209.928Y-135.358
X210.1Y-125.9
X210.722Y-130.882
X210.75Y-108.55
X210.95Y-110.25
X210.975Y-129.25
X210.978Y-135.327
X211.489Y-130.165
X212.1Y-99.4
X212.3Y-120.5
X212.5Y-87.8
X212.5Y-116.714
X212.6Y-111.95
X212.85Y-147.5
X213.4Y-142.4
X213.7Y-140.4
X214.25Y-110.25
X214.276Y-133.13
X214.3Y-100.8
X214.3Y-113.65
X215.0Y-136.6
X215.15Y-145.1
X215.9Y-120.5
X215.9Y-127.0
X216.0Y-87.8
X216.8Y-100.8
X217.428Y-129.105
X217.5Y-99.5
X217.53Y-132.231
X217.8Y-111.3
X218.15Y-145.1
X218.58Y-132.23
X218.83Y-140.43
X219.2Y-100.8
X219.5Y-87.8
X219.63Y-132.253
X219.7Y-110.2
X220.0Y-97.775
X220.075Y-107.175
X220.25Y-102.46
X221.15Y-145.1
X221.369Y-127.931
X221.778Y-133.005
X222.0Y-138.5
X222.7Y-124.5
X222.75Y-87.8
X223.0Y-103.0
X223.25Y-99.25
X223.9Y-145.1
X224.25Y-138.5
X224.282Y-132.355
X224.294Y-129.746
X224.3Y-126.3
X224.312Y-131.08
X226.25Y-87.8
X226.5Y-132.9
X226.65Y-145.1
X226.96Y-135.69
X229.4Y-145.1
X229.75Y-87.8
X231.75Y-90.0
X233.625Y-92.0
X233.625Y-112.0
X233.625Y-116.4
X233.625Y-120.9
X233.625Y-125.15
X233.625Y-129.65
X233.625Y-133.9
X233.625Y-138.4
X233.65Y-95.0
X233.65Y-98.0
X233.65Y-102.775
T2
X187.1Y-123.25
X187.1Y-138.49
X189.64Y-123.25
X189.64Y-138.49
X192.18Y-123.25
X192.18Y-138.49
X194.72Y-123.25
X194.72Y-138.49
X197.26Y-123.25
X197.26Y-138.49
X199.8Y-123.25
X199.8Y-138.49
X202.34Y-123.25
X202.34Y-138.49
X204.88Y-123.25
X204.88Y-138.49
X207.42Y-123.25
X207.42Y-138.49
X209.96Y-123.25
X209.96Y-138.49
X212.5Y-123.25
X212.5Y-138.49
X215.04Y-123.25
X215.04Y-138.49
X217.58Y-123.25
X217.58Y-138.49
X220.12Y-123.25
X220.12Y-138.49
T3
X192.06Y-144.5
X194.6Y-144.5
T4
X226.0Y-103.14
X226.0Y-105.43
X226.0Y-107.72
X226.0Y-110.01
X226.0Y-112.3
X228.5Y-101.995
X228.5Y-104.285
X228.5Y-106.575
X228.5Y-108.865
X228.5Y-111.155
X231.0Y-103.14
X231.0Y-105.43
X231.0Y-107.72
X231.0Y-110.01
X231.0Y-112.3
T5
X228.5Y-95.0
X228.5Y-119.99
M30
