%TF.GenerationSoftware,KiCad,Pcbnew,8.0.5-dirty*%
%TF.CreationDate,2025-03-27T10:06:15-07:00*%
%TF.ProjectId,nightshade,6e696768-7473-4686-9164-652e6b696361,rev?*%
%TF.SameCoordinates,Original*%
%TF.FileFunction,Paste,Bot*%
%TF.FilePolarity,Positive*%
%FSLAX46Y46*%
G04 Gerber Fmt 4.6, Leading zero omitted, Abs format (unit mm)*
G04 Created by KiCad (PCBNEW 8.0.5-dirty) date 2025-03-27 10:06:15*
%MOMM*%
%LPD*%
G01*
G04 APERTURE LIST*
G04 Aperture macros list*
%AMRoundRect*
0 Rectangle with rounded corners*
0 $1 Rounding radius*
0 $2 $3 $4 $5 $6 $7 $8 $9 X,Y pos of 4 corners*
0 Add a 4 corners polygon primitive as box body*
4,1,4,$2,$3,$4,$5,$6,$7,$8,$9,$2,$3,0*
0 Add four circle primitives for the rounded corners*
1,1,$1+$1,$2,$3*
1,1,$1+$1,$4,$5*
1,1,$1+$1,$6,$7*
1,1,$1+$1,$8,$9*
0 Add four rect primitives between the rounded corners*
20,1,$1+$1,$2,$3,$4,$5,0*
20,1,$1+$1,$4,$5,$6,$7,0*
20,1,$1+$1,$6,$7,$8,$9,0*
20,1,$1+$1,$8,$9,$2,$3,0*%
G04 Aperture macros list end*
%ADD10RoundRect,0.250000X-0.325000X-0.650000X0.325000X-0.650000X0.325000X0.650000X-0.325000X0.650000X0*%
%ADD11RoundRect,0.250000X-0.250000X-0.475000X0.250000X-0.475000X0.250000X0.475000X-0.250000X0.475000X0*%
%ADD12RoundRect,0.250000X-0.475000X0.250000X-0.475000X-0.250000X0.475000X-0.250000X0.475000X0.250000X0*%
%ADD13RoundRect,0.250000X0.250000X0.475000X-0.250000X0.475000X-0.250000X-0.475000X0.250000X-0.475000X0*%
%ADD14RoundRect,0.250000X0.475000X-0.250000X0.475000X0.250000X-0.475000X0.250000X-0.475000X-0.250000X0*%
%ADD15RoundRect,0.250000X-0.450000X0.262500X-0.450000X-0.262500X0.450000X-0.262500X0.450000X0.262500X0*%
%ADD16RoundRect,0.249998X0.450002X-0.262502X0.450002X0.262502X-0.450002X0.262502X-0.450002X-0.262502X0*%
%ADD17RoundRect,0.250100X0.449900X-0.262400X0.449900X0.262400X-0.449900X0.262400X-0.449900X-0.262400X0*%
%ADD18RoundRect,0.249998X-0.262502X-0.450002X0.262502X-0.450002X0.262502X0.450002X-0.262502X0.450002X0*%
%ADD19RoundRect,0.250100X-0.262400X-0.449900X0.262400X-0.449900X0.262400X0.449900X-0.262400X0.449900X0*%
%ADD20RoundRect,0.249998X0.262502X0.450002X-0.262502X0.450002X-0.262502X-0.450002X0.262502X-0.450002X0*%
%ADD21RoundRect,0.249998X-0.450002X0.262502X-0.450002X-0.262502X0.450002X-0.262502X0.450002X0.262502X0*%
%ADD22RoundRect,0.125000X-0.825000X-0.125000X0.825000X-0.125000X0.825000X0.125000X-0.825000X0.125000X0*%
G04 APERTURE END LIST*
D10*
%TO.C,C7*%
X168025000Y-104250000D03*
X170975000Y-104250000D03*
%TD*%
D11*
%TO.C,C31*%
X144550000Y-120250000D03*
X146450000Y-120250000D03*
%TD*%
%TO.C,C36*%
X144550000Y-122220000D03*
X146450000Y-122220000D03*
%TD*%
D12*
%TO.C,C38*%
X151325000Y-93200000D03*
X151325000Y-95100000D03*
%TD*%
D10*
%TO.C,C18*%
X209725000Y-145000000D03*
X212675000Y-145000000D03*
%TD*%
D13*
%TO.C,C2*%
X115950000Y-98100000D03*
X114050000Y-98100000D03*
%TD*%
D11*
%TO.C,C3*%
X114550000Y-127750000D03*
X116450000Y-127750000D03*
%TD*%
D14*
%TO.C,C1*%
X93250000Y-99950000D03*
X93250000Y-98050000D03*
%TD*%
D13*
%TO.C,C5*%
X115950000Y-104300000D03*
X114050000Y-104300000D03*
%TD*%
D11*
%TO.C,C6*%
X91050000Y-104500000D03*
X92950000Y-104500000D03*
%TD*%
%TO.C,C4*%
X90050000Y-128000000D03*
X91950000Y-128000000D03*
%TD*%
D15*
%TO.C,JP2*%
X88500000Y-98750000D03*
X88500000Y-100575000D03*
%TD*%
D16*
%TO.C,R14*%
X142840000Y-122075000D03*
X142840000Y-120250000D03*
%TD*%
D17*
%TO.C,R15*%
X88500000Y-104075000D03*
D16*
X88500000Y-102250000D03*
%TD*%
D18*
%TO.C,R18*%
X96987500Y-107575000D03*
X98812500Y-107575000D03*
%TD*%
%TO.C,R19*%
X96987500Y-109475000D03*
X98812500Y-109475000D03*
%TD*%
%TO.C,R16*%
X97000000Y-103200000D03*
X98825000Y-103200000D03*
%TD*%
D19*
%TO.C,R17*%
X96987500Y-105675000D03*
D18*
X98812500Y-105675000D03*
%TD*%
D20*
%TO.C,R7*%
X179512500Y-103300000D03*
X177687500Y-103300000D03*
%TD*%
%TO.C,R8*%
X179512500Y-100600000D03*
X177687500Y-100600000D03*
%TD*%
%TO.C,R9*%
X179512500Y-97800000D03*
X177687500Y-97800000D03*
%TD*%
D21*
%TO.C,R1*%
X170325000Y-108300000D03*
X170325000Y-110125000D03*
%TD*%
D22*
%TO.C,U7*%
X216030000Y-133655000D03*
X216030000Y-133005000D03*
X216030000Y-132355000D03*
X216030000Y-131705000D03*
X216030000Y-131055000D03*
X216030000Y-130405000D03*
X216030000Y-129755000D03*
X216030000Y-129105000D03*
X216030000Y-128455000D03*
X216030000Y-127805000D03*
X223030000Y-127805000D03*
X223030000Y-128455000D03*
X223030000Y-129105000D03*
X223030000Y-129755000D03*
X223030000Y-130405000D03*
X223030000Y-131055000D03*
X223030000Y-131705000D03*
X223030000Y-132355000D03*
X223030000Y-133005000D03*
X223030000Y-133655000D03*
%TD*%
D14*
%TO.C,C32*%
X225570000Y-135590000D03*
X225570000Y-133690000D03*
%TD*%
M02*
