%TF.GenerationSoftware,KiCad,Pcbnew,9.0.6+1*%
%TF.CreationDate,2026-01-26T06:25:30-08:00*%
%TF.ProjectId,nightshade,6e696768-7473-4686-9164-652e6b696361,rev?*%
%TF.SameCoordinates,Original*%
%TF.FileFunction,Soldermask,Bot*%
%TF.FilePolarity,Negative*%
%FSLAX46Y46*%
G04 Gerber Fmt 4.6, Leading zero omitted, Abs format (unit mm)*
G04 Created by KiCad (PCBNEW 9.0.6+1) date 2026-01-26 06:25:30*
%MOMM*%
%LPD*%
G01*
G04 APERTURE LIST*
G04 Aperture macros list*
%AMRoundRect*
0 Rectangle with rounded corners*
0 $1 Rounding radius*
0 $2 $3 $4 $5 $6 $7 $8 $9 X,Y pos of 4 corners*
0 Add a 4 corners polygon primitive as box body*
4,1,4,$2,$3,$4,$5,$6,$7,$8,$9,$2,$3,0*
0 Add four circle primitives for the rounded corners*
1,1,$1+$1,$2,$3*
1,1,$1+$1,$4,$5*
1,1,$1+$1,$6,$7*
1,1,$1+$1,$8,$9*
0 Add four rect primitives between the rounded corners*
20,1,$1+$1,$2,$3,$4,$5,0*
20,1,$1+$1,$4,$5,$6,$7,0*
20,1,$1+$1,$6,$7,$8,$9,0*
20,1,$1+$1,$8,$9,$2,$3,0*%
G04 Aperture macros list end*
%ADD10C,1.450000*%
%ADD11R,1.780000X7.620000*%
%ADD12R,1.700000X1.700000*%
%ADD13O,1.700000X1.700000*%
%ADD14C,1.700000*%
%ADD15R,1.600000X1.600000*%
%ADD16O,1.600000X1.600000*%
%ADD17RoundRect,0.250000X0.550000X-0.550000X0.550000X0.550000X-0.550000X0.550000X-0.550000X-0.550000X0*%
%ADD18C,1.600000*%
%ADD19C,4.450000*%
%ADD20RoundRect,0.102000X0.847500X-0.847500X0.847500X0.847500X-0.847500X0.847500X-0.847500X-0.847500X0*%
%ADD21C,1.899000*%
%ADD22RoundRect,0.250000X-0.475000X0.250000X-0.475000X-0.250000X0.475000X-0.250000X0.475000X0.250000X0*%
%ADD23RoundRect,0.243750X-0.243750X-0.456250X0.243750X-0.456250X0.243750X0.456250X-0.243750X0.456250X0*%
G04 APERTURE END LIST*
D10*
X202525000Y-102790000D02*
G75*
G02*
X201075000Y-102790000I-725000J0D01*
G01*
X201075000Y-102790000D02*
G75*
G02*
X202525000Y-102790000I725000J0D01*
G01*
D11*
%TO.C,J1*%
X212850000Y-152910000D03*
X210310000Y-152910000D03*
X207770000Y-152910000D03*
X205230000Y-152910000D03*
X202690000Y-152910000D03*
X200150000Y-152910000D03*
X197610000Y-152910000D03*
X195070000Y-152910000D03*
X192530000Y-152910000D03*
X189990000Y-152910000D03*
X187450000Y-152910000D03*
X184910000Y-152910000D03*
X182370000Y-152910000D03*
X179830000Y-152910000D03*
X177290000Y-152910000D03*
X174750000Y-152910000D03*
X172210000Y-152910000D03*
X169670000Y-152910000D03*
X167130000Y-152910000D03*
X164590000Y-152910000D03*
X162050000Y-152910000D03*
X159510000Y-152910000D03*
X156970000Y-152910000D03*
X154430000Y-152910000D03*
X151890000Y-152910000D03*
X149350000Y-152910000D03*
X146810000Y-152910000D03*
X144270000Y-152910000D03*
X141730000Y-152910000D03*
X139190000Y-152910000D03*
X136650000Y-152910000D03*
X126490000Y-152910000D03*
X123950000Y-152910000D03*
X121410000Y-152910000D03*
X118870000Y-152910000D03*
X116330000Y-152910000D03*
X113790000Y-152910000D03*
X111250000Y-152910000D03*
X108710000Y-152910000D03*
X106170000Y-152910000D03*
X103630000Y-152910000D03*
X101090000Y-152910000D03*
X98550000Y-152910000D03*
X96010000Y-152910000D03*
X93470000Y-152910000D03*
X90930000Y-152910000D03*
X88390000Y-152910000D03*
X85850000Y-152910000D03*
X83310000Y-152910000D03*
%TD*%
D12*
%TO.C,JP1*%
X179200000Y-131900000D03*
D13*
X179200000Y-129360000D03*
%TD*%
D12*
%TO.C,JP2*%
X51250000Y-100750000D03*
D14*
X51250000Y-103290000D03*
%TD*%
D15*
%TO.C,U6*%
X188250000Y-125400000D03*
D16*
X190790000Y-125400000D03*
X193330000Y-125400000D03*
X195870000Y-125400000D03*
X198410000Y-125400000D03*
X200950000Y-125400000D03*
X203490000Y-125400000D03*
X206030000Y-125400000D03*
X208570000Y-125400000D03*
X211110000Y-125400000D03*
X213650000Y-125400000D03*
X216190000Y-125400000D03*
X218730000Y-125400000D03*
X221270000Y-125400000D03*
X221270000Y-110160000D03*
X218730000Y-110160000D03*
X216190000Y-110160000D03*
X213650000Y-110160000D03*
X211110000Y-110160000D03*
X208570000Y-110160000D03*
X206030000Y-110160000D03*
X203490000Y-110160000D03*
X200950000Y-110160000D03*
X198410000Y-110160000D03*
X195870000Y-110160000D03*
X193330000Y-110160000D03*
X190790000Y-110160000D03*
X188250000Y-110160000D03*
%TD*%
D17*
%TO.C,U9*%
X188250000Y-143800000D03*
D18*
X190790000Y-143800000D03*
X193330000Y-143800000D03*
X195870000Y-143800000D03*
X198410000Y-143800000D03*
X200950000Y-143800000D03*
X203490000Y-143800000D03*
X206030000Y-143800000D03*
X208570000Y-143800000D03*
X211110000Y-143800000D03*
X213650000Y-143800000D03*
X216190000Y-143800000D03*
X218730000Y-143800000D03*
X221270000Y-143800000D03*
X221270000Y-128560000D03*
X218730000Y-128560000D03*
X216190000Y-128560000D03*
X213650000Y-128560000D03*
X211110000Y-128560000D03*
X208570000Y-128560000D03*
X206030000Y-128560000D03*
X203490000Y-128560000D03*
X200950000Y-128560000D03*
X198410000Y-128560000D03*
X195870000Y-128560000D03*
X193330000Y-128560000D03*
X190790000Y-128560000D03*
X188250000Y-128560000D03*
%TD*%
D12*
%TO.C,JP3*%
X51200000Y-110300000D03*
D14*
X51200000Y-112840000D03*
%TD*%
D12*
%TO.C,J3*%
X186240000Y-85210000D03*
D14*
X186240000Y-87750000D03*
X183700000Y-85210000D03*
X183700000Y-87750000D03*
X181160000Y-85210000D03*
X181160000Y-87750000D03*
X178620000Y-85210000D03*
X178620000Y-87750000D03*
X176080000Y-85210000D03*
X176080000Y-87750000D03*
X173540000Y-85210000D03*
X173540000Y-87750000D03*
X171000000Y-85210000D03*
X171000000Y-87750000D03*
X168460000Y-85210000D03*
X168460000Y-87750000D03*
X165920000Y-85210000D03*
X165920000Y-87750000D03*
X163380000Y-85210000D03*
X163380000Y-87750000D03*
X160840000Y-85210000D03*
X160840000Y-87750000D03*
X158300000Y-85210000D03*
X158300000Y-87750000D03*
X155760000Y-85210000D03*
X155760000Y-87750000D03*
%TD*%
D19*
%TO.C,J2*%
X228500000Y-119990000D03*
X228500000Y-95000000D03*
D20*
X226000000Y-103140000D03*
D21*
X226000000Y-105430000D03*
X226000000Y-107720000D03*
X226000000Y-110010000D03*
X226000000Y-112300000D03*
X228500000Y-101995000D03*
X228500000Y-104285000D03*
X228500000Y-106575000D03*
X228500000Y-108865000D03*
X228500000Y-111155000D03*
X231000000Y-103140000D03*
X231000000Y-105430000D03*
X231000000Y-107720000D03*
X231000000Y-110010000D03*
X231000000Y-112300000D03*
%TD*%
D22*
%TO.C,C25*%
X185800000Y-126650000D03*
X185800000Y-128550000D03*
%TD*%
D23*
%TO.C,F1*%
X226687500Y-115125000D03*
X228562500Y-115125000D03*
%TD*%
G36*
X215117121Y-149120002D02*
G01*
X215163614Y-149173658D01*
X215175000Y-149226000D01*
X215175000Y-156956258D01*
X215154998Y-157024379D01*
X215147895Y-157034333D01*
X214462836Y-157902075D01*
X214404926Y-157943148D01*
X214363941Y-157950000D01*
X135106335Y-157950000D01*
X135038214Y-157929998D01*
X135012435Y-157908016D01*
X134232100Y-157035876D01*
X134201583Y-156971772D01*
X134200000Y-156951860D01*
X134200000Y-149226000D01*
X134220002Y-149157879D01*
X134273658Y-149111386D01*
X134326000Y-149100000D01*
X215049000Y-149100000D01*
X215117121Y-149120002D01*
G37*
G36*
X128867121Y-149120002D02*
G01*
X128913614Y-149173658D01*
X128925000Y-149226000D01*
X128925000Y-156951860D01*
X128904998Y-157019981D01*
X128892900Y-157035876D01*
X128112565Y-157908016D01*
X128052237Y-157945445D01*
X128018665Y-157950000D01*
X81806335Y-157950000D01*
X81738214Y-157929998D01*
X81712435Y-157908016D01*
X80932118Y-157035896D01*
X80901601Y-156971792D01*
X80900018Y-156951833D01*
X80902926Y-149225953D01*
X80922954Y-149157839D01*
X80976627Y-149111367D01*
X81028926Y-149100000D01*
X128799000Y-149100000D01*
X128867121Y-149120002D01*
G37*
M02*
