M48
; DRILL file {KiCad 9.0.7+1} date 2026-05-06T09:31:57-0700
; FORMAT={-:-/ absolute / metric / decimal}
; #@! TF.CreationDate,2026-05-06T09:31:57-07:00
; #@! TF.GenerationSoftware,Kicad,Pcbnew,9.0.7+1
; #@! TF.FileFunction,Plated,1,4,PTH
FMAT,2
METRIC
; #@! TA.AperFunction,Plated,PTH,ViaDrill
T1C0.400
; #@! TA.AperFunction,Plated,PTH,ComponentDrill
T2C0.750
; #@! TA.AperFunction,Plated,PTH,ComponentDrill
T3C0.800
; #@! TA.AperFunction,Plated,PTH,ComponentDrill
T4C1.000
; #@! TA.AperFunction,Plated,PTH,ComponentDrill
T5C1.130
; #@! TA.AperFunction,Plated,PTH,ComponentDrill
T6C3.230
%
G90
G05
T1
X81.6Y-147.4
X82.25Y-96.5
X82.25Y-100.5
X82.25Y-105.0
X82.25Y-110.0
X82.25Y-115.0
X82.25Y-120.0
X82.25Y-125.0
X82.25Y-130.0
X82.25Y-135.0
X82.25Y-140.0
X82.25Y-145.0
X82.5Y-86.0
X82.5Y-89.25
X82.5Y-92.75
X87.171Y-104.289
X88.35Y-82.5
X88.375Y-141.725
X90.4Y-95.9
X90.421Y-123.0
X90.421Y-130.5
X91.171Y-90.0
X91.921Y-128.75
X92.0Y-138.1
X92.471Y-112.775
X92.8Y-117.108
X92.825Y-115.425
X92.825Y-120.425
X92.829Y-118.158
X92.836Y-107.064
X92.839Y-119.208
X92.875Y-108.2
X92.9Y-109.488
X92.921Y-111.25
X92.977Y-104.6
X93.35Y-82.5
X93.478Y-103.1
X93.671Y-87.5
X93.979Y-101.9
X94.48Y-100.6
X94.981Y-99.641
X95.05Y-136.825
X95.05Y-140.35
X95.8Y-147.2
X96.171Y-105.75
X96.171Y-132.5
X97.5Y-113.75
X97.671Y-99.75
X98.35Y-82.5
X98.8Y-140.975
X99.3Y-139.3
X99.3Y-144.1
X99.744Y-142.31
X100.25Y-146.25
X101.371Y-97.0
X102.171Y-121.0
X102.671Y-104.408
X102.671Y-110.75
X103.25Y-82.5
X103.4Y-116.225
X103.4Y-117.775
X103.404Y-121.044
X103.417Y-119.4
X105.6Y-147.75
X105.921Y-102.0
X106.171Y-125.0
X106.25Y-132.5
X106.55Y-139.55
X106.821Y-105.6
X106.821Y-113.7
X107.721Y-135.95
X108.25Y-82.5
X109.0Y-147.75
X109.6Y-99.8
X109.621Y-96.95
X110.2Y-142.245
X110.47Y-139.023
X110.529Y-140.693
X111.25Y-105.75
X111.25Y-113.75
X111.871Y-143.325
X112.1Y-134.1
X112.143Y-104.157
X112.8Y-141.0
X113.25Y-82.5
X113.3Y-122.7
X113.302Y-144.225
X113.5Y-97.0
X114.275Y-120.275
X114.4Y-117.0
X114.5Y-118.611
X115.6Y-125.5
X117.0Y-96.5
X118.0Y-136.0
X118.25Y-82.5
X118.5Y-113.25
X118.6Y-105.8
X118.75Y-115.0
X118.8Y-119.525
X119.375Y-107.974
X119.375Y-106.8
X119.4Y-123.1
X119.472Y-109.019
X119.6Y-98.398
X119.75Y-103.25
X119.875Y-99.971
X120.0Y-101.524
X120.7Y-145.35
X120.9Y-122.6
X121.0Y-104.75
X121.3Y-117.968
X121.425Y-127.025
X121.5Y-98.15
X121.75Y-111.0
X121.75Y-113.5
X122.3Y-118.75
X122.75Y-125.5
X122.85Y-120.9
X123.0Y-82.5
X124.223Y-120.923
X124.45Y-128.7
X124.5Y-116.1
X124.905Y-148.453
X125.0Y-136.0
X126.028Y-148.45
X126.4Y-96.4
X126.5Y-124.5
X128.0Y-82.5
X128.661Y-121.444
X128.75Y-110.0
X129.175Y-98.675
X129.213Y-99.971
X129.25Y-113.5
X130.16Y-121.4
X130.333Y-100.833
X131.4Y-107.738
X131.6Y-121.1
X131.925Y-112.984
X132.0Y-136.0
X132.552Y-110.123
X132.611Y-107.236
X132.905Y-120.97
X133.0Y-82.5
X133.5Y-105.675
X133.5Y-128.7
X133.644Y-108.824
X134.55Y-122.0
X134.56Y-109.338
X134.8Y-143.2
X135.15Y-126.45
X135.419Y-108.7
X135.7Y-133.7
X135.75Y-114.0
X136.048Y-109.735
X136.1Y-112.52
X137.098Y-109.732
X137.2Y-114.145
X137.5Y-99.922
X138.0Y-82.5
X138.075Y-141.75
X138.9Y-140.6
X139.2Y-127.8
X139.856Y-140.165
X140.909Y-121.365
X141.0Y-99.25
X141.5Y-104.25
X141.5Y-109.75
X141.5Y-115.75
X141.94Y-126.359
X141.95Y-101.3
X142.299Y-99.521
X143.0Y-82.5
X143.217Y-100.161
X143.25Y-122.75
X143.446Y-146.137
X143.93Y-100.932
X144.7Y-101.65
X144.942Y-124.905
X145.481Y-100.85
X145.732Y-143.957
X145.87Y-94.02
X146.0Y-125.68
X146.26Y-100.146
X146.969Y-100.921
X147.5Y-123.25
X148.01Y-101.55
X148.182Y-143.082
X148.555Y-100.623
X148.9Y-148.0
X148.95Y-94.15
X149.375Y-101.525
X150.0Y-107.5
X150.0Y-117.5
X150.15Y-100.725
X150.3Y-139.875
X153.5Y-145.2
X153.5Y-148.0
X154.3Y-99.675
X155.0Y-112.5
X155.5Y-122.0
X156.3Y-99.6
X156.3Y-106.1
X157.0Y-124.4
X157.3Y-105.3
X157.902Y-132.68
X158.2Y-125.9
X158.3Y-142.3
X158.5Y-148.0
X158.502Y-124.894
X158.7Y-99.6
X158.931Y-132.387
X159.025Y-89.852
X159.521Y-124.264
X159.863Y-131.71
X160.0Y-117.5
X160.079Y-123.375
X160.1Y-110.5
X161.104Y-123.0
X161.5Y-99.75
X161.6Y-94.7
X161.617Y-122.084
X161.7Y-107.65
X162.3Y-90.8
X162.3Y-105.9
X162.3Y-120.9
X162.547Y-99.278
X163.1Y-139.6
X163.3Y-148.0
X163.396Y-120.994
X163.758Y-99.513
X164.4Y-121.3
X164.4Y-122.8
X164.45Y-114.45
X164.55Y-110.85
X164.6Y-103.8
X165.216Y-107.08
X165.251Y-108.129
X165.45Y-121.3
X166.179Y-100.704
X166.2Y-90.6
X166.249Y-94.647
X166.355Y-121.877
X166.6Y-110.8
X166.65Y-93.603
X166.7Y-104.715
X166.755Y-95.604
X167.05Y-120.65
X167.5Y-106.0
X167.6Y-131.8
X167.7Y-139.875
X167.7Y-142.15
X167.75Y-116.0
X167.805Y-95.6
X167.973Y-124.525
X168.041Y-123.38
X168.041Y-113.4
X168.046Y-111.285
X168.475Y-148.0
X168.625Y-145.85
X169.7Y-98.1
X170.3Y-131.8
X170.9Y-148.0
X171.0Y-94.25
X171.0Y-142.1
X171.086Y-139.875
X171.753Y-113.235
X172.0Y-108.939
X172.0Y-111.5
X172.0Y-131.1
X172.4Y-95.9
X172.9Y-99.4
X173.86Y-111.44
X173.9Y-104.225
X173.9Y-106.1
X173.9Y-148.01
X174.9Y-129.8
X174.9Y-139.2
X174.9Y-142.1
X175.4Y-116.8
X176.4Y-99.4
X177.094Y-105.241
X177.2Y-108.8
X177.2Y-148.0
X177.5Y-139.2
X177.7Y-123.821
X177.75Y-117.25
X177.9Y-101.475
X177.9Y-142.1
X178.632Y-144.854
X178.75Y-92.5
X178.946Y-127.643
X179.0Y-123.7
X179.109Y-117.209
X179.475Y-107.85
X179.617Y-113.907
X179.862Y-116.477
X180.85Y-127.996
X181.275Y-107.85
X181.499Y-116.763
X181.5Y-139.2
X181.95Y-99.575
X182.075Y-130.579
X182.16Y-143.796
X182.375Y-144.824
X182.675Y-142.171
X183.05Y-116.848
X183.275Y-131.7
X183.425Y-144.8
X184.25Y-113.25
X184.774Y-117.33
X184.975Y-144.923
X185.0Y-99.575
X185.0Y-102.25
X185.025Y-97.3
X185.3Y-108.0
X185.4Y-132.525
X186.1Y-113.05
X186.2Y-114.7
X187.059Y-142.007
X187.2Y-114.1
X188.109Y-141.976
X188.2Y-113.63
X188.25Y-123.75
X188.741Y-120.791
X189.1Y-113.06
X189.187Y-141.678
X189.228Y-117.79
X189.575Y-147.75
X189.691Y-118.733
X189.788Y-120.867
X190.0Y-82.5
X190.9Y-97.3
X190.94Y-120.838
X191.525Y-147.75
X191.673Y-121.903
X193.25Y-123.45
X193.3Y-140.15
X193.6Y-108.0
X194.5Y-117.777
X194.8Y-103.55
X195.0Y-97.3
X195.0Y-99.625
X195.6Y-117.8
X196.0Y-140.2
X196.6Y-120.878
X197.5Y-82.5
X198.4Y-120.1
X198.5Y-140.8
X200.1Y-99.575
X200.5Y-108.0
X200.862Y-131.377
X200.9Y-146.925
X201.0Y-117.8
X201.2Y-140.8
X203.81Y-140.42
X205.0Y-82.5
X205.0Y-92.5
X205.7Y-142.0
X205.9Y-148.45
X206.0Y-102.25
X206.0Y-108.1
X207.2Y-123.5
X207.85Y-117.95
X211.0Y-148.45
X211.25Y-102.25
X211.25Y-123.5
X211.4Y-137.0
X212.0Y-115.225
X212.3Y-108.7
X212.5Y-82.5
X213.0Y-115.726
X214.25Y-116.0
X214.69Y-96.35
X214.75Y-99.25
X216.5Y-89.5
X217.461Y-145.339
X217.5Y-108.7
X217.75Y-104.5
X217.8Y-141.6
X218.3Y-117.9
X218.8Y-107.5
X220.0Y-82.5
X221.4Y-137.0
X224.0Y-102.25
X224.0Y-106.25
X224.55Y-138.5
X224.6Y-108.9
X225.4Y-85.4
X227.95Y-139.75
X230.448Y-144.236
X230.75Y-90.0
X231.65Y-114.5
X231.65Y-115.95
X231.75Y-120.8
X231.75Y-125.65
X231.75Y-130.15
X231.75Y-134.4
X232.2Y-97.99
X233.7Y-96.5
X233.7Y-101.55
X233.7Y-106.05
X233.7Y-110.3
X233.7Y-114.5
X233.7Y-143.4
T2
X201.0Y-105.1
X202.27Y-105.1
X203.54Y-105.1
T3
X188.25Y-110.16
X188.25Y-125.4
X188.25Y-128.56
X188.25Y-143.8
X190.79Y-110.16
X190.79Y-125.4
X190.79Y-128.56
X190.79Y-143.8
X193.33Y-110.16
X193.33Y-125.4
X193.33Y-128.56
X193.33Y-143.8
X195.87Y-110.16
X195.87Y-125.4
X195.87Y-128.56
X195.87Y-143.8
X198.41Y-110.16
X198.41Y-125.4
X198.41Y-128.56
X198.41Y-143.8
X200.95Y-110.16
X200.95Y-125.4
X200.95Y-128.56
X200.95Y-143.8
X203.49Y-110.16
X203.49Y-125.4
X203.49Y-128.56
X203.49Y-143.8
X206.03Y-110.16
X206.03Y-125.4
X206.03Y-128.56
X206.03Y-143.8
X208.57Y-110.16
X208.57Y-125.4
X208.57Y-128.56
X208.57Y-143.8
X211.11Y-110.16
X211.11Y-125.4
X211.11Y-128.56
X211.11Y-143.8
X213.65Y-110.16
X213.65Y-125.4
X213.65Y-128.56
X213.65Y-143.8
X216.19Y-110.16
X216.19Y-125.4
X216.19Y-128.56
X216.19Y-143.8
X218.73Y-110.16
X218.73Y-125.4
X218.73Y-128.56
X218.73Y-143.8
X221.27Y-110.16
X221.27Y-125.4
X221.27Y-128.56
X221.27Y-143.8
T4
X84.75Y-97.96
X84.75Y-100.5
X84.75Y-112.25
X84.75Y-114.79
X155.76Y-85.21
X155.76Y-87.75
X158.3Y-85.21
X158.3Y-87.75
X160.84Y-85.21
X160.84Y-87.75
X163.38Y-85.21
X163.38Y-87.75
X165.92Y-85.21
X165.92Y-87.75
X168.46Y-85.21
X168.46Y-87.75
X171.0Y-85.21
X171.0Y-87.75
X173.54Y-85.21
X173.54Y-87.75
X176.08Y-85.21
X176.08Y-87.75
X178.62Y-85.21
X178.62Y-87.75
X179.2Y-129.36
X179.2Y-131.9
X181.16Y-85.21
X181.16Y-87.75
X183.7Y-85.21
X183.7Y-87.75
X186.24Y-85.21
X186.24Y-87.75
T5
X226.0Y-103.14
X226.0Y-105.43
X226.0Y-107.72
X226.0Y-110.01
X226.0Y-112.3
X228.5Y-101.995
X228.5Y-104.285
X228.5Y-106.575
X228.5Y-108.865
X228.5Y-111.155
X231.0Y-103.14
X231.0Y-105.43
X231.0Y-107.72
X231.0Y-110.01
X231.0Y-112.3
T6
X228.5Y-95.0
X228.5Y-119.99
M30
