%TF.GenerationSoftware,KiCad,Pcbnew,9.0.7+1*%
%TF.CreationDate,2026-05-06T09:31:55-07:00*%
%TF.ProjectId,nightshade,6e696768-7473-4686-9164-652e6b696361,rev?*%
%TF.SameCoordinates,Original*%
%TF.FileFunction,Paste,Top*%
%TF.FilePolarity,Positive*%
%FSLAX46Y46*%
G04 Gerber Fmt 4.6, Leading zero omitted, Abs format (unit mm)*
G04 Created by KiCad (PCBNEW 9.0.7+1) date 2026-05-06 09:31:55*
%MOMM*%
%LPD*%
G01*
G04 APERTURE LIST*
G04 Aperture macros list*
%AMRoundRect*
0 Rectangle with rounded corners*
0 $1 Rounding radius*
0 $2 $3 $4 $5 $6 $7 $8 $9 X,Y pos of 4 corners*
0 Add a 4 corners polygon primitive as box body*
4,1,4,$2,$3,$4,$5,$6,$7,$8,$9,$2,$3,0*
0 Add four circle primitives for the rounded corners*
1,1,$1+$1,$2,$3*
1,1,$1+$1,$4,$5*
1,1,$1+$1,$6,$7*
1,1,$1+$1,$8,$9*
0 Add four rect primitives between the rounded corners*
20,1,$1+$1,$2,$3,$4,$5,0*
20,1,$1+$1,$4,$5,$6,$7,0*
20,1,$1+$1,$6,$7,$8,$9,0*
20,1,$1+$1,$8,$9,$2,$3,0*%
G04 Aperture macros list end*
%ADD10RoundRect,0.250000X-0.325000X-0.650000X0.325000X-0.650000X0.325000X0.650000X-0.325000X0.650000X0*%
%ADD11RoundRect,0.250000X0.250000X0.475000X-0.250000X0.475000X-0.250000X-0.475000X0.250000X-0.475000X0*%
%ADD12RoundRect,0.250000X0.475000X-0.250000X0.475000X0.250000X-0.475000X0.250000X-0.475000X-0.250000X0*%
%ADD13RoundRect,0.250000X-0.229810X0.689429X-0.689429X0.229810X0.229810X-0.689429X0.689429X-0.229810X0*%
%ADD14RoundRect,0.250000X-0.475000X0.250000X-0.475000X-0.250000X0.475000X-0.250000X0.475000X0.250000X0*%
%ADD15RoundRect,0.250000X-0.250000X-0.475000X0.250000X-0.475000X0.250000X0.475000X-0.250000X0.475000X0*%
%ADD16RoundRect,0.250000X0.159099X-0.512652X0.512652X-0.159099X-0.159099X0.512652X-0.512652X0.159099X0*%
%ADD17RoundRect,0.225000X0.250000X-0.225000X0.250000X0.225000X-0.250000X0.225000X-0.250000X-0.225000X0*%
%ADD18RoundRect,0.249998X-0.262502X-0.450002X0.262502X-0.450002X0.262502X0.450002X-0.262502X0.450002X0*%
%ADD19RoundRect,0.249998X0.262502X0.450002X-0.262502X0.450002X-0.262502X-0.450002X0.262502X-0.450002X0*%
%ADD20RoundRect,0.250100X-0.449900X0.262400X-0.449900X-0.262400X0.449900X-0.262400X0.449900X0.262400X0*%
%ADD21RoundRect,0.249998X-0.450002X0.262502X-0.450002X-0.262502X0.450002X-0.262502X0.450002X0.262502X0*%
%ADD22RoundRect,0.249998X0.450002X-0.262502X0.450002X0.262502X-0.450002X0.262502X-0.450002X-0.262502X0*%
%ADD23R,3.500000X2.400000*%
%ADD24RoundRect,0.100000X0.100000X-1.150000X0.100000X1.150000X-0.100000X1.150000X-0.100000X-1.150000X0*%
%ADD25RoundRect,0.100000X1.150000X-0.100000X1.150000X0.100000X-1.150000X0.100000X-1.150000X-0.100000X0*%
%ADD26RoundRect,0.200000X0.200000X0.275000X-0.200000X0.275000X-0.200000X-0.275000X0.200000X-0.275000X0*%
%ADD27RoundRect,0.150000X-1.475000X-0.150000X1.475000X-0.150000X1.475000X0.150000X-1.475000X0.150000X0*%
%ADD28RoundRect,0.250000X-0.650000X0.325000X-0.650000X-0.325000X0.650000X-0.325000X0.650000X0.325000X0*%
%ADD29RoundRect,0.200000X0.275000X-0.200000X0.275000X0.200000X-0.275000X0.200000X-0.275000X-0.200000X0*%
%ADD30RoundRect,0.250000X-0.275000X-0.700000X0.275000X-0.700000X0.275000X0.700000X-0.275000X0.700000X0*%
%ADD31RoundRect,0.250000X-0.262500X-0.450000X0.262500X-0.450000X0.262500X0.450000X-0.262500X0.450000X0*%
%ADD32RoundRect,0.250000X0.450000X-0.262500X0.450000X0.262500X-0.450000X0.262500X-0.450000X-0.262500X0*%
%ADD33RoundRect,0.250000X0.229810X-0.689429X0.689429X-0.229810X-0.229810X0.689429X-0.689429X0.229810X0*%
%ADD34RoundRect,0.250000X0.325000X0.650000X-0.325000X0.650000X-0.325000X-0.650000X0.325000X-0.650000X0*%
%ADD35RoundRect,0.200000X-0.275000X0.200000X-0.275000X-0.200000X0.275000X-0.200000X0.275000X0.200000X0*%
%ADD36RoundRect,0.100000X-1.075000X-0.100000X1.075000X-0.100000X1.075000X0.100000X-1.075000X0.100000X0*%
%ADD37RoundRect,0.250000X-0.550000X0.850000X-0.550000X-0.850000X0.550000X-0.850000X0.550000X0.850000X0*%
%ADD38RoundRect,0.100000X0.100000X-1.075000X0.100000X1.075000X-0.100000X1.075000X-0.100000X-1.075000X0*%
G04 APERTURE END LIST*
D10*
%TO.C,C8*%
X162295100Y-92400000D03*
X165245100Y-92400000D03*
%TD*%
D11*
%TO.C,C9*%
X124200000Y-127100000D03*
X122300000Y-127100000D03*
%TD*%
D12*
%TO.C,C10*%
X175400000Y-110730000D03*
X175400000Y-108830000D03*
%TD*%
D13*
%TO.C,C19*%
X139142983Y-130957017D03*
X137057017Y-133042983D03*
%TD*%
D10*
%TO.C,C20*%
X93525000Y-138250000D03*
X96475000Y-138250000D03*
%TD*%
D14*
%TO.C,C30*%
X184250000Y-110100000D03*
X184250000Y-112000000D03*
%TD*%
%TO.C,C31*%
X126400000Y-126950000D03*
X126400000Y-128850000D03*
%TD*%
%TO.C,C17*%
X207000000Y-105050001D03*
X207000000Y-106949999D03*
%TD*%
%TO.C,C34*%
X178750000Y-110050000D03*
X178750000Y-111950000D03*
%TD*%
%TO.C,C36*%
X131950000Y-126950000D03*
X131950000Y-128850000D03*
%TD*%
D12*
%TO.C,C37*%
X133300000Y-114750000D03*
X133300000Y-112850000D03*
%TD*%
D15*
%TO.C,C38*%
X145010001Y-92950000D03*
X146909999Y-92950000D03*
%TD*%
D14*
%TO.C,C39*%
X175400000Y-112300000D03*
X175400000Y-114200000D03*
%TD*%
%TO.C,C40*%
X133300000Y-97050000D03*
X133300000Y-98950000D03*
%TD*%
D11*
%TO.C,C41*%
X169699999Y-94250000D03*
X167800001Y-94250000D03*
%TD*%
D16*
%TO.C,C42*%
X155128249Y-134971751D03*
X156471751Y-133628249D03*
%TD*%
D12*
%TO.C,C11*%
X134200000Y-134050000D03*
X134200000Y-132150000D03*
%TD*%
%TO.C,C12*%
X122650000Y-134050000D03*
X122650000Y-132150000D03*
%TD*%
D17*
%TO.C,C26*%
X217800000Y-102775000D03*
X217800000Y-101225000D03*
%TD*%
%TO.C,C28*%
X217800000Y-99575000D03*
X217800000Y-98025000D03*
%TD*%
%TO.C,C29*%
X217800000Y-96200000D03*
X217800000Y-94650000D03*
%TD*%
D11*
%TO.C,C2*%
X118950000Y-94750000D03*
X117050000Y-94750000D03*
%TD*%
D15*
%TO.C,C1*%
X88470900Y-94750000D03*
X90370900Y-94750000D03*
%TD*%
D12*
%TO.C,C5*%
X113700000Y-128950000D03*
X113700000Y-127050000D03*
%TD*%
%TO.C,C4*%
X90420900Y-128700000D03*
X90420900Y-126800000D03*
%TD*%
D18*
%TO.C,R13*%
X180662500Y-110400000D03*
X182487500Y-110400000D03*
%TD*%
D19*
%TO.C,R14*%
X130100000Y-127100000D03*
X128275000Y-127100000D03*
%TD*%
D20*
%TO.C,R15*%
X84750000Y-93587500D03*
D21*
X84750000Y-95412500D03*
%TD*%
D22*
%TO.C,R18*%
X105030339Y-108047898D03*
X105030339Y-106222898D03*
%TD*%
%TO.C,R19*%
X105031232Y-111424586D03*
X105031232Y-109599586D03*
%TD*%
%TO.C,R16*%
X105030904Y-101198021D03*
X105030904Y-99373021D03*
%TD*%
D23*
%TO.C,Y1*%
X131050000Y-133000000D03*
X125850000Y-133000000D03*
%TD*%
D24*
%TO.C,U1*%
X141930000Y-128071600D03*
X142580000Y-128071600D03*
X143230000Y-128071600D03*
X143880000Y-128071600D03*
X144530000Y-128071600D03*
X145180000Y-128071600D03*
X145830000Y-128071600D03*
X146480000Y-128071600D03*
X147130000Y-128071600D03*
X147780000Y-128071600D03*
X148430000Y-128071600D03*
X149080000Y-128071600D03*
X149730000Y-128071600D03*
X150380000Y-128071600D03*
X151030000Y-128071600D03*
X151680000Y-128071600D03*
X152330000Y-128071600D03*
X152980000Y-128071600D03*
X153630000Y-128071600D03*
X154280000Y-128071600D03*
X154930000Y-128071600D03*
X155580000Y-128071600D03*
X156230000Y-128071600D03*
X156880000Y-128071600D03*
X157530000Y-128071600D03*
X158180000Y-128071600D03*
X158830000Y-128071600D03*
X159480000Y-128071600D03*
X160130000Y-128071600D03*
X160780000Y-128071600D03*
X161430000Y-128071600D03*
X162080000Y-128071600D03*
X162730000Y-128071600D03*
X163380000Y-128071600D03*
X164030000Y-128071600D03*
X164680000Y-128071600D03*
X165330000Y-128071600D03*
X165980000Y-128071600D03*
X166630000Y-128071600D03*
X167280000Y-128071600D03*
D25*
X169940800Y-125390000D03*
X169940800Y-124740000D03*
X169940800Y-124090000D03*
X169940800Y-123440000D03*
X169940800Y-122790000D03*
X169940800Y-122140000D03*
X169940800Y-121490000D03*
X169940800Y-120840000D03*
X169940800Y-120190000D03*
X169940800Y-119540000D03*
X169940800Y-118890000D03*
X169940800Y-118240000D03*
X169940800Y-117590000D03*
X169940800Y-116940000D03*
X169940800Y-116290000D03*
X169940800Y-115640000D03*
X169940800Y-114990000D03*
X169940800Y-114340000D03*
X169940800Y-113690000D03*
X169940800Y-113040000D03*
X169940800Y-112390000D03*
X169940800Y-111740000D03*
X169940800Y-111090000D03*
X169940800Y-110440000D03*
X169940800Y-109790000D03*
X169940800Y-109140000D03*
X169940800Y-108490000D03*
X169940800Y-107840000D03*
X169940800Y-107190000D03*
X169940800Y-106540000D03*
X169940800Y-105890000D03*
X169940800Y-105240000D03*
X169940800Y-104590000D03*
X169940800Y-103940000D03*
X169940800Y-103290000D03*
X169940800Y-102640000D03*
X169940800Y-101990000D03*
X169940800Y-101340000D03*
X169940800Y-100690000D03*
X169940800Y-100040000D03*
D24*
X167280000Y-97371600D03*
X166630000Y-97371600D03*
X165980000Y-97371600D03*
X165330000Y-97371600D03*
X164680000Y-97371600D03*
X164030000Y-97371600D03*
X163380000Y-97371600D03*
X162730000Y-97371600D03*
X162080000Y-97371600D03*
X161430000Y-97371600D03*
X160780000Y-97371600D03*
X160130000Y-97371600D03*
X159480000Y-97371600D03*
X158830000Y-97371600D03*
X158180000Y-97371600D03*
X157530000Y-97371600D03*
X156880000Y-97371600D03*
X156230000Y-97371600D03*
X155580000Y-97371600D03*
X154930000Y-97371600D03*
X154280000Y-97371600D03*
X153630000Y-97371600D03*
X152980000Y-97371600D03*
X152330000Y-97371600D03*
X151680000Y-97371600D03*
X151030000Y-97371600D03*
X150380000Y-97371600D03*
X149730000Y-97371600D03*
X149080000Y-97371600D03*
X148430000Y-97371600D03*
X147780000Y-97371600D03*
X147130000Y-97371600D03*
X146480000Y-97371600D03*
X145830000Y-97371600D03*
X145180000Y-97371600D03*
X144530000Y-97371600D03*
X143880000Y-97371600D03*
X143230000Y-97371600D03*
X142580000Y-97371600D03*
X141930000Y-97371600D03*
D25*
X139140800Y-100040000D03*
X139140800Y-100690000D03*
X139140800Y-101340000D03*
X139140800Y-101990000D03*
X139140800Y-102640000D03*
X139140800Y-103290000D03*
X139140800Y-103940000D03*
X139140800Y-104590000D03*
X139140800Y-105240000D03*
X139140800Y-105890000D03*
X139140800Y-106540000D03*
X139140800Y-107190000D03*
X139140800Y-107840000D03*
X139140800Y-108490000D03*
X139140800Y-109140000D03*
X139140800Y-109790000D03*
X139140800Y-110440000D03*
X139140800Y-111090000D03*
X139140800Y-111740000D03*
X139140800Y-112390000D03*
X139140800Y-113040000D03*
X139140800Y-113690000D03*
X139140800Y-114340000D03*
X139140800Y-114990000D03*
X139140800Y-115640000D03*
X139140800Y-116290000D03*
X139140800Y-116940000D03*
X139140800Y-117590000D03*
X139140800Y-118240000D03*
X139140800Y-118890000D03*
X139140800Y-119540000D03*
X139140800Y-120190000D03*
X139140800Y-120840000D03*
X139140800Y-121490000D03*
X139140800Y-122140000D03*
X139140800Y-122790000D03*
X139140800Y-123440000D03*
X139140800Y-124090000D03*
X139140800Y-124740000D03*
X139140800Y-125390000D03*
%TD*%
D20*
%TO.C,R17*%
X105028156Y-102784137D03*
D21*
X105028156Y-104609137D03*
%TD*%
D26*
%TO.C,R12*%
X178725000Y-114200000D03*
X177075000Y-114200000D03*
%TD*%
%TO.C,R11*%
X117300000Y-127000000D03*
X115650000Y-127000000D03*
%TD*%
D27*
%TO.C,U2*%
X116500000Y-98072000D03*
X116500000Y-99340000D03*
X116500000Y-100610000D03*
X116500000Y-101880000D03*
X116500000Y-103150000D03*
X116500000Y-104420000D03*
X116500000Y-105690000D03*
X116500000Y-106960000D03*
X116500000Y-108230000D03*
X116500000Y-109500000D03*
X116500000Y-110770000D03*
X116500000Y-112040000D03*
X116500000Y-113310000D03*
X116500000Y-114580000D03*
X116500000Y-115850000D03*
X116500000Y-117120000D03*
X116500000Y-118390000D03*
X116500000Y-119660000D03*
X116500000Y-120930000D03*
X116500000Y-122200000D03*
X126470000Y-122200000D03*
X126470000Y-120930000D03*
X126470000Y-119660000D03*
X126470000Y-118390000D03*
X126470000Y-117120000D03*
X126470000Y-115850000D03*
X126470000Y-114580000D03*
X126470000Y-113310000D03*
X126470000Y-112040000D03*
X126470000Y-110770000D03*
X126470000Y-109500000D03*
X126470000Y-108230000D03*
X126470000Y-106960000D03*
X126470000Y-105690000D03*
X126470000Y-104420000D03*
X126470000Y-103150000D03*
X126470000Y-101880000D03*
X126470000Y-100610000D03*
X126470000Y-99340000D03*
X126470000Y-98070000D03*
%TD*%
%TO.C,U3*%
X90370900Y-98060000D03*
X90370900Y-99328000D03*
X90370900Y-100598000D03*
X90370900Y-101868000D03*
X90370900Y-103138000D03*
X90370900Y-104408000D03*
X90370900Y-105678000D03*
X90370900Y-106948000D03*
X90370900Y-108218000D03*
X90370900Y-109488000D03*
X90370900Y-110758000D03*
X90370900Y-112028000D03*
X90370900Y-113298000D03*
X90370900Y-114568000D03*
X90370900Y-115838000D03*
X90370900Y-117108000D03*
X90370900Y-118378000D03*
X90370900Y-119648000D03*
X90370900Y-120918000D03*
X90370900Y-122188000D03*
X100340900Y-122188000D03*
X100340900Y-120918000D03*
X100340900Y-119648000D03*
X100340900Y-118378000D03*
X100340900Y-117108000D03*
X100340900Y-115838000D03*
X100340900Y-114568000D03*
X100340900Y-113298000D03*
X100340900Y-112028000D03*
X100340900Y-110758000D03*
X100340900Y-109488000D03*
X100340900Y-108218000D03*
X100340900Y-106948000D03*
X100340900Y-105678000D03*
X100340900Y-104408000D03*
X100340900Y-103138000D03*
X100340900Y-101868000D03*
X100340900Y-100598000D03*
X100340900Y-99328000D03*
X100340900Y-98058000D03*
%TD*%
D28*
%TO.C,C27*%
X119750000Y-127025000D03*
X119750000Y-129975000D03*
%TD*%
D29*
%TO.C,R7*%
X180900000Y-102725000D03*
X180900000Y-101075000D03*
%TD*%
%TO.C,R8*%
X179200000Y-100450000D03*
X179200000Y-98800000D03*
%TD*%
%TO.C,R9*%
X177300000Y-98725000D03*
X177300000Y-97075000D03*
%TD*%
D11*
%TO.C,C13*%
X181525000Y-141700000D03*
X179625000Y-141700000D03*
%TD*%
%TO.C,C14*%
X185650000Y-141700000D03*
X183750000Y-141700000D03*
%TD*%
D19*
%TO.C,R3*%
X181487500Y-143650000D03*
X179662500Y-143650000D03*
%TD*%
D15*
%TO.C,C23*%
X179700000Y-146075000D03*
X181600000Y-146075000D03*
%TD*%
D30*
%TO.C,L2*%
X213125000Y-97900000D03*
X216275000Y-97900000D03*
%TD*%
D15*
%TO.C,C35*%
X180600000Y-113300000D03*
X182500000Y-113300000D03*
%TD*%
D30*
%TO.C,L3*%
X213125000Y-101300000D03*
X216275000Y-101300000D03*
%TD*%
D29*
%TO.C,R2*%
X160700000Y-92225000D03*
X160700000Y-90575000D03*
%TD*%
D31*
%TO.C,R22*%
X183787500Y-143650000D03*
X185612500Y-143650000D03*
%TD*%
D32*
%TO.C,R21*%
X84750000Y-119162500D03*
X84750000Y-117337500D03*
%TD*%
D33*
%TO.C,C43*%
X144557017Y-145442983D03*
X146642983Y-143357017D03*
%TD*%
D14*
%TO.C,C32*%
X176750000Y-116050000D03*
X176750000Y-117950000D03*
%TD*%
D34*
%TO.C,C15*%
X231975000Y-139750000D03*
X229025000Y-139750000D03*
%TD*%
D35*
%TO.C,R23*%
X158900000Y-90575000D03*
X158900000Y-92225000D03*
%TD*%
D12*
%TO.C,C22*%
X111900000Y-141050000D03*
X111900000Y-139150000D03*
%TD*%
D36*
%TO.C,U10*%
X101675000Y-138900000D03*
X101675000Y-139550000D03*
X101675000Y-140200000D03*
X101675000Y-140850000D03*
X101675000Y-141500000D03*
X101675000Y-142150000D03*
X101675000Y-142800000D03*
X101675000Y-143450000D03*
X101675000Y-144100000D03*
X101675000Y-144750000D03*
X108230000Y-144750000D03*
X108230000Y-144100000D03*
X108230000Y-143450000D03*
X108230000Y-142800000D03*
X108230000Y-142150000D03*
X108230000Y-141500000D03*
X108230000Y-140850000D03*
X108230000Y-140200000D03*
X108230000Y-139550000D03*
X108230000Y-138895000D03*
%TD*%
D37*
%TO.C,C16*%
X197000000Y-104250000D03*
X197000000Y-107250000D03*
%TD*%
D31*
%TO.C,R10*%
X183912500Y-146125000D03*
X185737500Y-146125000D03*
%TD*%
D10*
%TO.C,C18*%
X223800000Y-139750000D03*
X226750000Y-139750000D03*
%TD*%
D35*
%TO.C,R24*%
X157100000Y-90550000D03*
X157100000Y-92200000D03*
%TD*%
D30*
%TO.C,L1*%
X213125000Y-94500000D03*
X216275000Y-94500000D03*
%TD*%
D38*
%TO.C,U8*%
X178775000Y-125775000D03*
X179425000Y-125775000D03*
X180075000Y-125775000D03*
X180725000Y-125775000D03*
X181375000Y-125775000D03*
X182025000Y-125775000D03*
X182675000Y-125775000D03*
X183325000Y-125775000D03*
X183975000Y-125775000D03*
X184625000Y-125775000D03*
X184625000Y-119220000D03*
X183975000Y-119220000D03*
X183325000Y-119220000D03*
X182675000Y-119220000D03*
X182025000Y-119220000D03*
X181375000Y-119220000D03*
X180725000Y-119220000D03*
X180075000Y-119220000D03*
X179425000Y-119220000D03*
X178770000Y-119220000D03*
%TD*%
M02*
