%TF.GenerationSoftware,KiCad,Pcbnew,9.0.7+1*%
%TF.CreationDate,2026-05-06T09:31:55-07:00*%
%TF.ProjectId,nightshade,6e696768-7473-4686-9164-652e6b696361,rev?*%
%TF.SameCoordinates,Original*%
%TF.FileFunction,Legend,Bot*%
%TF.FilePolarity,Positive*%
%FSLAX46Y46*%
G04 Gerber Fmt 4.6, Leading zero omitted, Abs format (unit mm)*
G04 Created by KiCad (PCBNEW 9.0.7+1) date 2026-05-06 09:31:55*
%MOMM*%
%LPD*%
G01*
G04 APERTURE LIST*
%ADD10C,0.100000*%
%ADD11C,0.150000*%
%ADD12C,0.120000*%
G04 APERTURE END LIST*
D10*
X154910895Y-104391716D02*
X154910895Y-104544097D01*
X154910895Y-104544097D02*
X154863276Y-104620287D01*
X154863276Y-104620287D02*
X154815656Y-104658383D01*
X154815656Y-104658383D02*
X154672799Y-104734573D01*
X154672799Y-104734573D02*
X154482323Y-104772668D01*
X154482323Y-104772668D02*
X154101371Y-104772668D01*
X154101371Y-104772668D02*
X154006133Y-104734573D01*
X154006133Y-104734573D02*
X153958514Y-104696478D01*
X153958514Y-104696478D02*
X153910895Y-104620287D01*
X153910895Y-104620287D02*
X153910895Y-104467906D01*
X153910895Y-104467906D02*
X153958514Y-104391716D01*
X153958514Y-104391716D02*
X154006133Y-104353621D01*
X154006133Y-104353621D02*
X154101371Y-104315525D01*
X154101371Y-104315525D02*
X154339466Y-104315525D01*
X154339466Y-104315525D02*
X154434704Y-104353621D01*
X154434704Y-104353621D02*
X154482323Y-104391716D01*
X154482323Y-104391716D02*
X154529942Y-104467906D01*
X154529942Y-104467906D02*
X154529942Y-104620287D01*
X154529942Y-104620287D02*
X154482323Y-104696478D01*
X154482323Y-104696478D02*
X154434704Y-104734573D01*
X154434704Y-104734573D02*
X154339466Y-104772668D01*
X153910895Y-105039335D02*
X153910895Y-105534573D01*
X153910895Y-105534573D02*
X154291847Y-105267907D01*
X154291847Y-105267907D02*
X154291847Y-105382192D01*
X154291847Y-105382192D02*
X154339466Y-105458383D01*
X154339466Y-105458383D02*
X154387085Y-105496478D01*
X154387085Y-105496478D02*
X154482323Y-105534573D01*
X154482323Y-105534573D02*
X154720418Y-105534573D01*
X154720418Y-105534573D02*
X154815656Y-105496478D01*
X154815656Y-105496478D02*
X154863276Y-105458383D01*
X154863276Y-105458383D02*
X154910895Y-105382192D01*
X154910895Y-105382192D02*
X154910895Y-105153621D01*
X154910895Y-105153621D02*
X154863276Y-105077430D01*
X154863276Y-105077430D02*
X154815656Y-105039335D01*
X154815656Y-106334574D02*
X154863276Y-106296478D01*
X154863276Y-106296478D02*
X154910895Y-106182193D01*
X154910895Y-106182193D02*
X154910895Y-106106002D01*
X154910895Y-106106002D02*
X154863276Y-105991716D01*
X154863276Y-105991716D02*
X154768037Y-105915526D01*
X154768037Y-105915526D02*
X154672799Y-105877431D01*
X154672799Y-105877431D02*
X154482323Y-105839335D01*
X154482323Y-105839335D02*
X154339466Y-105839335D01*
X154339466Y-105839335D02*
X154148990Y-105877431D01*
X154148990Y-105877431D02*
X154053752Y-105915526D01*
X154053752Y-105915526D02*
X153958514Y-105991716D01*
X153958514Y-105991716D02*
X153910895Y-106106002D01*
X153910895Y-106106002D02*
X153910895Y-106182193D01*
X153910895Y-106182193D02*
X153958514Y-106296478D01*
X153958514Y-106296478D02*
X154006133Y-106334574D01*
X154244228Y-107020288D02*
X154910895Y-107020288D01*
X153863276Y-106829812D02*
X154577561Y-106639335D01*
X154577561Y-106639335D02*
X154577561Y-107134574D01*
X153910895Y-107782193D02*
X153910895Y-107629812D01*
X153910895Y-107629812D02*
X153958514Y-107553621D01*
X153958514Y-107553621D02*
X154006133Y-107515526D01*
X154006133Y-107515526D02*
X154148990Y-107439336D01*
X154148990Y-107439336D02*
X154339466Y-107401240D01*
X154339466Y-107401240D02*
X154720418Y-107401240D01*
X154720418Y-107401240D02*
X154815656Y-107439336D01*
X154815656Y-107439336D02*
X154863276Y-107477431D01*
X154863276Y-107477431D02*
X154910895Y-107553621D01*
X154910895Y-107553621D02*
X154910895Y-107706002D01*
X154910895Y-107706002D02*
X154863276Y-107782193D01*
X154863276Y-107782193D02*
X154815656Y-107820288D01*
X154815656Y-107820288D02*
X154720418Y-107858383D01*
X154720418Y-107858383D02*
X154482323Y-107858383D01*
X154482323Y-107858383D02*
X154387085Y-107820288D01*
X154387085Y-107820288D02*
X154339466Y-107782193D01*
X154339466Y-107782193D02*
X154291847Y-107706002D01*
X154291847Y-107706002D02*
X154291847Y-107553621D01*
X154291847Y-107553621D02*
X154339466Y-107477431D01*
X154339466Y-107477431D02*
X154387085Y-107439336D01*
X154387085Y-107439336D02*
X154482323Y-107401240D01*
X206290477Y-90847475D02*
X206290477Y-89847475D01*
X206290477Y-89847475D02*
X206100001Y-89847475D01*
X206100001Y-89847475D02*
X205985715Y-89895094D01*
X205985715Y-89895094D02*
X205909525Y-89990332D01*
X205909525Y-89990332D02*
X205871430Y-90085570D01*
X205871430Y-90085570D02*
X205833334Y-90276046D01*
X205833334Y-90276046D02*
X205833334Y-90418903D01*
X205833334Y-90418903D02*
X205871430Y-90609379D01*
X205871430Y-90609379D02*
X205909525Y-90704617D01*
X205909525Y-90704617D02*
X205985715Y-90799856D01*
X205985715Y-90799856D02*
X206100001Y-90847475D01*
X206100001Y-90847475D02*
X206290477Y-90847475D01*
X205185715Y-90799856D02*
X205261906Y-90847475D01*
X205261906Y-90847475D02*
X205414287Y-90847475D01*
X205414287Y-90847475D02*
X205490477Y-90799856D01*
X205490477Y-90799856D02*
X205528573Y-90704617D01*
X205528573Y-90704617D02*
X205528573Y-90323665D01*
X205528573Y-90323665D02*
X205490477Y-90228427D01*
X205490477Y-90228427D02*
X205414287Y-90180808D01*
X205414287Y-90180808D02*
X205261906Y-90180808D01*
X205261906Y-90180808D02*
X205185715Y-90228427D01*
X205185715Y-90228427D02*
X205147620Y-90323665D01*
X205147620Y-90323665D02*
X205147620Y-90418903D01*
X205147620Y-90418903D02*
X205528573Y-90514141D01*
X204842859Y-90799856D02*
X204766668Y-90847475D01*
X204766668Y-90847475D02*
X204614287Y-90847475D01*
X204614287Y-90847475D02*
X204538097Y-90799856D01*
X204538097Y-90799856D02*
X204500001Y-90704617D01*
X204500001Y-90704617D02*
X204500001Y-90656998D01*
X204500001Y-90656998D02*
X204538097Y-90561760D01*
X204538097Y-90561760D02*
X204614287Y-90514141D01*
X204614287Y-90514141D02*
X204728573Y-90514141D01*
X204728573Y-90514141D02*
X204804763Y-90466522D01*
X204804763Y-90466522D02*
X204842859Y-90371284D01*
X204842859Y-90371284D02*
X204842859Y-90323665D01*
X204842859Y-90323665D02*
X204804763Y-90228427D01*
X204804763Y-90228427D02*
X204728573Y-90180808D01*
X204728573Y-90180808D02*
X204614287Y-90180808D01*
X204614287Y-90180808D02*
X204538097Y-90228427D01*
X204157144Y-90847475D02*
X204157144Y-90180808D01*
X204157144Y-89847475D02*
X204195240Y-89895094D01*
X204195240Y-89895094D02*
X204157144Y-89942713D01*
X204157144Y-89942713D02*
X204119049Y-89895094D01*
X204119049Y-89895094D02*
X204157144Y-89847475D01*
X204157144Y-89847475D02*
X204157144Y-89942713D01*
X203433335Y-90180808D02*
X203433335Y-90990332D01*
X203433335Y-90990332D02*
X203471430Y-91085570D01*
X203471430Y-91085570D02*
X203509526Y-91133189D01*
X203509526Y-91133189D02*
X203585716Y-91180808D01*
X203585716Y-91180808D02*
X203700002Y-91180808D01*
X203700002Y-91180808D02*
X203776192Y-91133189D01*
X203433335Y-90799856D02*
X203509526Y-90847475D01*
X203509526Y-90847475D02*
X203661907Y-90847475D01*
X203661907Y-90847475D02*
X203738097Y-90799856D01*
X203738097Y-90799856D02*
X203776192Y-90752236D01*
X203776192Y-90752236D02*
X203814288Y-90656998D01*
X203814288Y-90656998D02*
X203814288Y-90371284D01*
X203814288Y-90371284D02*
X203776192Y-90276046D01*
X203776192Y-90276046D02*
X203738097Y-90228427D01*
X203738097Y-90228427D02*
X203661907Y-90180808D01*
X203661907Y-90180808D02*
X203509526Y-90180808D01*
X203509526Y-90180808D02*
X203433335Y-90228427D01*
X203052382Y-90180808D02*
X203052382Y-90847475D01*
X203052382Y-90276046D02*
X203014287Y-90228427D01*
X203014287Y-90228427D02*
X202938097Y-90180808D01*
X202938097Y-90180808D02*
X202823811Y-90180808D01*
X202823811Y-90180808D02*
X202747620Y-90228427D01*
X202747620Y-90228427D02*
X202709525Y-90323665D01*
X202709525Y-90323665D02*
X202709525Y-90847475D01*
X202023810Y-90799856D02*
X202100001Y-90847475D01*
X202100001Y-90847475D02*
X202252382Y-90847475D01*
X202252382Y-90847475D02*
X202328572Y-90799856D01*
X202328572Y-90799856D02*
X202366668Y-90704617D01*
X202366668Y-90704617D02*
X202366668Y-90323665D01*
X202366668Y-90323665D02*
X202328572Y-90228427D01*
X202328572Y-90228427D02*
X202252382Y-90180808D01*
X202252382Y-90180808D02*
X202100001Y-90180808D01*
X202100001Y-90180808D02*
X202023810Y-90228427D01*
X202023810Y-90228427D02*
X201985715Y-90323665D01*
X201985715Y-90323665D02*
X201985715Y-90418903D01*
X201985715Y-90418903D02*
X202366668Y-90514141D01*
X201300001Y-90847475D02*
X201300001Y-89847475D01*
X201300001Y-90799856D02*
X201376192Y-90847475D01*
X201376192Y-90847475D02*
X201528573Y-90847475D01*
X201528573Y-90847475D02*
X201604763Y-90799856D01*
X201604763Y-90799856D02*
X201642858Y-90752236D01*
X201642858Y-90752236D02*
X201680954Y-90656998D01*
X201680954Y-90656998D02*
X201680954Y-90371284D01*
X201680954Y-90371284D02*
X201642858Y-90276046D01*
X201642858Y-90276046D02*
X201604763Y-90228427D01*
X201604763Y-90228427D02*
X201528573Y-90180808D01*
X201528573Y-90180808D02*
X201376192Y-90180808D01*
X201376192Y-90180808D02*
X201300001Y-90228427D01*
X200309524Y-90847475D02*
X200309524Y-89847475D01*
X200309524Y-90228427D02*
X200233334Y-90180808D01*
X200233334Y-90180808D02*
X200080953Y-90180808D01*
X200080953Y-90180808D02*
X200004762Y-90228427D01*
X200004762Y-90228427D02*
X199966667Y-90276046D01*
X199966667Y-90276046D02*
X199928572Y-90371284D01*
X199928572Y-90371284D02*
X199928572Y-90656998D01*
X199928572Y-90656998D02*
X199966667Y-90752236D01*
X199966667Y-90752236D02*
X200004762Y-90799856D01*
X200004762Y-90799856D02*
X200080953Y-90847475D01*
X200080953Y-90847475D02*
X200233334Y-90847475D01*
X200233334Y-90847475D02*
X200309524Y-90799856D01*
X199661905Y-90180808D02*
X199471429Y-90847475D01*
X199280952Y-90180808D02*
X199471429Y-90847475D01*
X199471429Y-90847475D02*
X199547619Y-91085570D01*
X199547619Y-91085570D02*
X199585714Y-91133189D01*
X199585714Y-91133189D02*
X199661905Y-91180808D01*
X198404762Y-90561760D02*
X198023809Y-90561760D01*
X198480952Y-90847475D02*
X198214285Y-89847475D01*
X198214285Y-89847475D02*
X197947619Y-90847475D01*
X197414286Y-90323665D02*
X197300000Y-90371284D01*
X197300000Y-90371284D02*
X197261905Y-90418903D01*
X197261905Y-90418903D02*
X197223809Y-90514141D01*
X197223809Y-90514141D02*
X197223809Y-90656998D01*
X197223809Y-90656998D02*
X197261905Y-90752236D01*
X197261905Y-90752236D02*
X197300000Y-90799856D01*
X197300000Y-90799856D02*
X197376190Y-90847475D01*
X197376190Y-90847475D02*
X197680952Y-90847475D01*
X197680952Y-90847475D02*
X197680952Y-89847475D01*
X197680952Y-89847475D02*
X197414286Y-89847475D01*
X197414286Y-89847475D02*
X197338095Y-89895094D01*
X197338095Y-89895094D02*
X197300000Y-89942713D01*
X197300000Y-89942713D02*
X197261905Y-90037951D01*
X197261905Y-90037951D02*
X197261905Y-90133189D01*
X197261905Y-90133189D02*
X197300000Y-90228427D01*
X197300000Y-90228427D02*
X197338095Y-90276046D01*
X197338095Y-90276046D02*
X197414286Y-90323665D01*
X197414286Y-90323665D02*
X197680952Y-90323665D01*
X196271428Y-90847475D02*
X196271428Y-90180808D01*
X196271428Y-89847475D02*
X196309524Y-89895094D01*
X196309524Y-89895094D02*
X196271428Y-89942713D01*
X196271428Y-89942713D02*
X196233333Y-89895094D01*
X196233333Y-89895094D02*
X196271428Y-89847475D01*
X196271428Y-89847475D02*
X196271428Y-89942713D01*
X195890476Y-90180808D02*
X195890476Y-90847475D01*
X195890476Y-90276046D02*
X195852381Y-90228427D01*
X195852381Y-90228427D02*
X195776191Y-90180808D01*
X195776191Y-90180808D02*
X195661905Y-90180808D01*
X195661905Y-90180808D02*
X195585714Y-90228427D01*
X195585714Y-90228427D02*
X195547619Y-90323665D01*
X195547619Y-90323665D02*
X195547619Y-90847475D01*
X194099999Y-90752236D02*
X194138095Y-90799856D01*
X194138095Y-90799856D02*
X194252380Y-90847475D01*
X194252380Y-90847475D02*
X194328571Y-90847475D01*
X194328571Y-90847475D02*
X194442857Y-90799856D01*
X194442857Y-90799856D02*
X194519047Y-90704617D01*
X194519047Y-90704617D02*
X194557142Y-90609379D01*
X194557142Y-90609379D02*
X194595238Y-90418903D01*
X194595238Y-90418903D02*
X194595238Y-90276046D01*
X194595238Y-90276046D02*
X194557142Y-90085570D01*
X194557142Y-90085570D02*
X194519047Y-89990332D01*
X194519047Y-89990332D02*
X194442857Y-89895094D01*
X194442857Y-89895094D02*
X194328571Y-89847475D01*
X194328571Y-89847475D02*
X194252380Y-89847475D01*
X194252380Y-89847475D02*
X194138095Y-89895094D01*
X194138095Y-89895094D02*
X194099999Y-89942713D01*
X193414285Y-90847475D02*
X193414285Y-90323665D01*
X193414285Y-90323665D02*
X193452380Y-90228427D01*
X193452380Y-90228427D02*
X193528571Y-90180808D01*
X193528571Y-90180808D02*
X193680952Y-90180808D01*
X193680952Y-90180808D02*
X193757142Y-90228427D01*
X193414285Y-90799856D02*
X193490476Y-90847475D01*
X193490476Y-90847475D02*
X193680952Y-90847475D01*
X193680952Y-90847475D02*
X193757142Y-90799856D01*
X193757142Y-90799856D02*
X193795238Y-90704617D01*
X193795238Y-90704617D02*
X193795238Y-90609379D01*
X193795238Y-90609379D02*
X193757142Y-90514141D01*
X193757142Y-90514141D02*
X193680952Y-90466522D01*
X193680952Y-90466522D02*
X193490476Y-90466522D01*
X193490476Y-90466522D02*
X193414285Y-90418903D01*
X192919047Y-90847475D02*
X192995237Y-90799856D01*
X192995237Y-90799856D02*
X193033332Y-90704617D01*
X193033332Y-90704617D02*
X193033332Y-89847475D01*
X192614284Y-90847475D02*
X192614284Y-90180808D01*
X192614284Y-89847475D02*
X192652380Y-89895094D01*
X192652380Y-89895094D02*
X192614284Y-89942713D01*
X192614284Y-89942713D02*
X192576189Y-89895094D01*
X192576189Y-89895094D02*
X192614284Y-89847475D01*
X192614284Y-89847475D02*
X192614284Y-89942713D01*
X192347618Y-90180808D02*
X192042856Y-90180808D01*
X192233332Y-90847475D02*
X192233332Y-89990332D01*
X192233332Y-89990332D02*
X192195237Y-89895094D01*
X192195237Y-89895094D02*
X192119047Y-89847475D01*
X192119047Y-89847475D02*
X192042856Y-89847475D01*
X191661904Y-90847475D02*
X191738094Y-90799856D01*
X191738094Y-90799856D02*
X191776189Y-90752236D01*
X191776189Y-90752236D02*
X191814285Y-90656998D01*
X191814285Y-90656998D02*
X191814285Y-90371284D01*
X191814285Y-90371284D02*
X191776189Y-90276046D01*
X191776189Y-90276046D02*
X191738094Y-90228427D01*
X191738094Y-90228427D02*
X191661904Y-90180808D01*
X191661904Y-90180808D02*
X191547618Y-90180808D01*
X191547618Y-90180808D02*
X191471427Y-90228427D01*
X191471427Y-90228427D02*
X191433332Y-90276046D01*
X191433332Y-90276046D02*
X191395237Y-90371284D01*
X191395237Y-90371284D02*
X191395237Y-90656998D01*
X191395237Y-90656998D02*
X191433332Y-90752236D01*
X191433332Y-90752236D02*
X191471427Y-90799856D01*
X191471427Y-90799856D02*
X191547618Y-90847475D01*
X191547618Y-90847475D02*
X191661904Y-90847475D01*
X191052379Y-90847475D02*
X191052379Y-90180808D01*
X191052379Y-90371284D02*
X191014284Y-90276046D01*
X191014284Y-90276046D02*
X190976189Y-90228427D01*
X190976189Y-90228427D02*
X190899998Y-90180808D01*
X190899998Y-90180808D02*
X190823808Y-90180808D01*
X190557141Y-90180808D02*
X190557141Y-90847475D01*
X190557141Y-90276046D02*
X190519046Y-90228427D01*
X190519046Y-90228427D02*
X190442856Y-90180808D01*
X190442856Y-90180808D02*
X190328570Y-90180808D01*
X190328570Y-90180808D02*
X190252379Y-90228427D01*
X190252379Y-90228427D02*
X190214284Y-90323665D01*
X190214284Y-90323665D02*
X190214284Y-90847475D01*
X189833331Y-90847475D02*
X189833331Y-90180808D01*
X189833331Y-89847475D02*
X189871427Y-89895094D01*
X189871427Y-89895094D02*
X189833331Y-89942713D01*
X189833331Y-89942713D02*
X189795236Y-89895094D01*
X189795236Y-89895094D02*
X189833331Y-89847475D01*
X189833331Y-89847475D02*
X189833331Y-89942713D01*
X189109522Y-90847475D02*
X189109522Y-90323665D01*
X189109522Y-90323665D02*
X189147617Y-90228427D01*
X189147617Y-90228427D02*
X189223808Y-90180808D01*
X189223808Y-90180808D02*
X189376189Y-90180808D01*
X189376189Y-90180808D02*
X189452379Y-90228427D01*
X189109522Y-90799856D02*
X189185713Y-90847475D01*
X189185713Y-90847475D02*
X189376189Y-90847475D01*
X189376189Y-90847475D02*
X189452379Y-90799856D01*
X189452379Y-90799856D02*
X189490475Y-90704617D01*
X189490475Y-90704617D02*
X189490475Y-90609379D01*
X189490475Y-90609379D02*
X189452379Y-90514141D01*
X189452379Y-90514141D02*
X189376189Y-90466522D01*
X189376189Y-90466522D02*
X189185713Y-90466522D01*
X189185713Y-90466522D02*
X189109522Y-90418903D01*
X205509523Y-94067363D02*
X205776190Y-93591172D01*
X205966666Y-94067363D02*
X205966666Y-93067363D01*
X205966666Y-93067363D02*
X205661904Y-93067363D01*
X205661904Y-93067363D02*
X205585714Y-93114982D01*
X205585714Y-93114982D02*
X205547619Y-93162601D01*
X205547619Y-93162601D02*
X205509523Y-93257839D01*
X205509523Y-93257839D02*
X205509523Y-93400696D01*
X205509523Y-93400696D02*
X205547619Y-93495934D01*
X205547619Y-93495934D02*
X205585714Y-93543553D01*
X205585714Y-93543553D02*
X205661904Y-93591172D01*
X205661904Y-93591172D02*
X205966666Y-93591172D01*
X204861904Y-94019744D02*
X204938095Y-94067363D01*
X204938095Y-94067363D02*
X205090476Y-94067363D01*
X205090476Y-94067363D02*
X205166666Y-94019744D01*
X205166666Y-94019744D02*
X205204762Y-93924505D01*
X205204762Y-93924505D02*
X205204762Y-93543553D01*
X205204762Y-93543553D02*
X205166666Y-93448315D01*
X205166666Y-93448315D02*
X205090476Y-93400696D01*
X205090476Y-93400696D02*
X204938095Y-93400696D01*
X204938095Y-93400696D02*
X204861904Y-93448315D01*
X204861904Y-93448315D02*
X204823809Y-93543553D01*
X204823809Y-93543553D02*
X204823809Y-93638791D01*
X204823809Y-93638791D02*
X205204762Y-93734029D01*
X204366667Y-94067363D02*
X204442857Y-94019744D01*
X204442857Y-94019744D02*
X204480952Y-93924505D01*
X204480952Y-93924505D02*
X204480952Y-93067363D01*
X203757142Y-94019744D02*
X203833333Y-94067363D01*
X203833333Y-94067363D02*
X203985714Y-94067363D01*
X203985714Y-94067363D02*
X204061904Y-94019744D01*
X204061904Y-94019744D02*
X204100000Y-93924505D01*
X204100000Y-93924505D02*
X204100000Y-93543553D01*
X204100000Y-93543553D02*
X204061904Y-93448315D01*
X204061904Y-93448315D02*
X203985714Y-93400696D01*
X203985714Y-93400696D02*
X203833333Y-93400696D01*
X203833333Y-93400696D02*
X203757142Y-93448315D01*
X203757142Y-93448315D02*
X203719047Y-93543553D01*
X203719047Y-93543553D02*
X203719047Y-93638791D01*
X203719047Y-93638791D02*
X204100000Y-93734029D01*
X203033333Y-94067363D02*
X203033333Y-93543553D01*
X203033333Y-93543553D02*
X203071428Y-93448315D01*
X203071428Y-93448315D02*
X203147619Y-93400696D01*
X203147619Y-93400696D02*
X203300000Y-93400696D01*
X203300000Y-93400696D02*
X203376190Y-93448315D01*
X203033333Y-94019744D02*
X203109524Y-94067363D01*
X203109524Y-94067363D02*
X203300000Y-94067363D01*
X203300000Y-94067363D02*
X203376190Y-94019744D01*
X203376190Y-94019744D02*
X203414286Y-93924505D01*
X203414286Y-93924505D02*
X203414286Y-93829267D01*
X203414286Y-93829267D02*
X203376190Y-93734029D01*
X203376190Y-93734029D02*
X203300000Y-93686410D01*
X203300000Y-93686410D02*
X203109524Y-93686410D01*
X203109524Y-93686410D02*
X203033333Y-93638791D01*
X202690476Y-94019744D02*
X202614285Y-94067363D01*
X202614285Y-94067363D02*
X202461904Y-94067363D01*
X202461904Y-94067363D02*
X202385714Y-94019744D01*
X202385714Y-94019744D02*
X202347618Y-93924505D01*
X202347618Y-93924505D02*
X202347618Y-93876886D01*
X202347618Y-93876886D02*
X202385714Y-93781648D01*
X202385714Y-93781648D02*
X202461904Y-93734029D01*
X202461904Y-93734029D02*
X202576190Y-93734029D01*
X202576190Y-93734029D02*
X202652380Y-93686410D01*
X202652380Y-93686410D02*
X202690476Y-93591172D01*
X202690476Y-93591172D02*
X202690476Y-93543553D01*
X202690476Y-93543553D02*
X202652380Y-93448315D01*
X202652380Y-93448315D02*
X202576190Y-93400696D01*
X202576190Y-93400696D02*
X202461904Y-93400696D01*
X202461904Y-93400696D02*
X202385714Y-93448315D01*
X201699999Y-94019744D02*
X201776190Y-94067363D01*
X201776190Y-94067363D02*
X201928571Y-94067363D01*
X201928571Y-94067363D02*
X202004761Y-94019744D01*
X202004761Y-94019744D02*
X202042857Y-93924505D01*
X202042857Y-93924505D02*
X202042857Y-93543553D01*
X202042857Y-93543553D02*
X202004761Y-93448315D01*
X202004761Y-93448315D02*
X201928571Y-93400696D01*
X201928571Y-93400696D02*
X201776190Y-93400696D01*
X201776190Y-93400696D02*
X201699999Y-93448315D01*
X201699999Y-93448315D02*
X201661904Y-93543553D01*
X201661904Y-93543553D02*
X201661904Y-93638791D01*
X201661904Y-93638791D02*
X202042857Y-93734029D01*
X200976190Y-94067363D02*
X200976190Y-93067363D01*
X200976190Y-94019744D02*
X201052381Y-94067363D01*
X201052381Y-94067363D02*
X201204762Y-94067363D01*
X201204762Y-94067363D02*
X201280952Y-94019744D01*
X201280952Y-94019744D02*
X201319047Y-93972124D01*
X201319047Y-93972124D02*
X201357143Y-93876886D01*
X201357143Y-93876886D02*
X201357143Y-93591172D01*
X201357143Y-93591172D02*
X201319047Y-93495934D01*
X201319047Y-93495934D02*
X201280952Y-93448315D01*
X201280952Y-93448315D02*
X201204762Y-93400696D01*
X201204762Y-93400696D02*
X201052381Y-93400696D01*
X201052381Y-93400696D02*
X200976190Y-93448315D01*
X199642856Y-93400696D02*
X199642856Y-94067363D01*
X199985713Y-93400696D02*
X199985713Y-93924505D01*
X199985713Y-93924505D02*
X199947618Y-94019744D01*
X199947618Y-94019744D02*
X199871428Y-94067363D01*
X199871428Y-94067363D02*
X199757142Y-94067363D01*
X199757142Y-94067363D02*
X199680951Y-94019744D01*
X199680951Y-94019744D02*
X199642856Y-93972124D01*
X199261903Y-93400696D02*
X199261903Y-94067363D01*
X199261903Y-93495934D02*
X199223808Y-93448315D01*
X199223808Y-93448315D02*
X199147618Y-93400696D01*
X199147618Y-93400696D02*
X199033332Y-93400696D01*
X199033332Y-93400696D02*
X198957141Y-93448315D01*
X198957141Y-93448315D02*
X198919046Y-93543553D01*
X198919046Y-93543553D02*
X198919046Y-94067363D01*
X198195236Y-94067363D02*
X198195236Y-93067363D01*
X198195236Y-94019744D02*
X198271427Y-94067363D01*
X198271427Y-94067363D02*
X198423808Y-94067363D01*
X198423808Y-94067363D02*
X198499998Y-94019744D01*
X198499998Y-94019744D02*
X198538093Y-93972124D01*
X198538093Y-93972124D02*
X198576189Y-93876886D01*
X198576189Y-93876886D02*
X198576189Y-93591172D01*
X198576189Y-93591172D02*
X198538093Y-93495934D01*
X198538093Y-93495934D02*
X198499998Y-93448315D01*
X198499998Y-93448315D02*
X198423808Y-93400696D01*
X198423808Y-93400696D02*
X198271427Y-93400696D01*
X198271427Y-93400696D02*
X198195236Y-93448315D01*
X197509521Y-94019744D02*
X197585712Y-94067363D01*
X197585712Y-94067363D02*
X197738093Y-94067363D01*
X197738093Y-94067363D02*
X197814283Y-94019744D01*
X197814283Y-94019744D02*
X197852379Y-93924505D01*
X197852379Y-93924505D02*
X197852379Y-93543553D01*
X197852379Y-93543553D02*
X197814283Y-93448315D01*
X197814283Y-93448315D02*
X197738093Y-93400696D01*
X197738093Y-93400696D02*
X197585712Y-93400696D01*
X197585712Y-93400696D02*
X197509521Y-93448315D01*
X197509521Y-93448315D02*
X197471426Y-93543553D01*
X197471426Y-93543553D02*
X197471426Y-93638791D01*
X197471426Y-93638791D02*
X197852379Y-93734029D01*
X197128569Y-94067363D02*
X197128569Y-93400696D01*
X197128569Y-93591172D02*
X197090474Y-93495934D01*
X197090474Y-93495934D02*
X197052379Y-93448315D01*
X197052379Y-93448315D02*
X196976188Y-93400696D01*
X196976188Y-93400696D02*
X196899998Y-93400696D01*
X196023807Y-94067363D02*
X196023807Y-93067363D01*
X196023807Y-93067363D02*
X195757141Y-93781648D01*
X195757141Y-93781648D02*
X195490474Y-93067363D01*
X195490474Y-93067363D02*
X195490474Y-94067363D01*
X195109521Y-94067363D02*
X195109521Y-93067363D01*
X194842855Y-93067363D02*
X194385712Y-93067363D01*
X194614284Y-94067363D02*
X194614284Y-93067363D01*
X193128569Y-94067363D02*
X193509521Y-94067363D01*
X193509521Y-94067363D02*
X193509521Y-93067363D01*
X192861902Y-94067363D02*
X192861902Y-93400696D01*
X192861902Y-93067363D02*
X192899998Y-93114982D01*
X192899998Y-93114982D02*
X192861902Y-93162601D01*
X192861902Y-93162601D02*
X192823807Y-93114982D01*
X192823807Y-93114982D02*
X192861902Y-93067363D01*
X192861902Y-93067363D02*
X192861902Y-93162601D01*
X192138093Y-94019744D02*
X192214284Y-94067363D01*
X192214284Y-94067363D02*
X192366665Y-94067363D01*
X192366665Y-94067363D02*
X192442855Y-94019744D01*
X192442855Y-94019744D02*
X192480950Y-93972124D01*
X192480950Y-93972124D02*
X192519046Y-93876886D01*
X192519046Y-93876886D02*
X192519046Y-93591172D01*
X192519046Y-93591172D02*
X192480950Y-93495934D01*
X192480950Y-93495934D02*
X192442855Y-93448315D01*
X192442855Y-93448315D02*
X192366665Y-93400696D01*
X192366665Y-93400696D02*
X192214284Y-93400696D01*
X192214284Y-93400696D02*
X192138093Y-93448315D01*
X191490474Y-94019744D02*
X191566665Y-94067363D01*
X191566665Y-94067363D02*
X191719046Y-94067363D01*
X191719046Y-94067363D02*
X191795236Y-94019744D01*
X191795236Y-94019744D02*
X191833332Y-93924505D01*
X191833332Y-93924505D02*
X191833332Y-93543553D01*
X191833332Y-93543553D02*
X191795236Y-93448315D01*
X191795236Y-93448315D02*
X191719046Y-93400696D01*
X191719046Y-93400696D02*
X191566665Y-93400696D01*
X191566665Y-93400696D02*
X191490474Y-93448315D01*
X191490474Y-93448315D02*
X191452379Y-93543553D01*
X191452379Y-93543553D02*
X191452379Y-93638791D01*
X191452379Y-93638791D02*
X191833332Y-93734029D01*
X191109522Y-93400696D02*
X191109522Y-94067363D01*
X191109522Y-93495934D02*
X191071427Y-93448315D01*
X191071427Y-93448315D02*
X190995237Y-93400696D01*
X190995237Y-93400696D02*
X190880951Y-93400696D01*
X190880951Y-93400696D02*
X190804760Y-93448315D01*
X190804760Y-93448315D02*
X190766665Y-93543553D01*
X190766665Y-93543553D02*
X190766665Y-94067363D01*
X190423808Y-94019744D02*
X190347617Y-94067363D01*
X190347617Y-94067363D02*
X190195236Y-94067363D01*
X190195236Y-94067363D02*
X190119046Y-94019744D01*
X190119046Y-94019744D02*
X190080950Y-93924505D01*
X190080950Y-93924505D02*
X190080950Y-93876886D01*
X190080950Y-93876886D02*
X190119046Y-93781648D01*
X190119046Y-93781648D02*
X190195236Y-93734029D01*
X190195236Y-93734029D02*
X190309522Y-93734029D01*
X190309522Y-93734029D02*
X190385712Y-93686410D01*
X190385712Y-93686410D02*
X190423808Y-93591172D01*
X190423808Y-93591172D02*
X190423808Y-93543553D01*
X190423808Y-93543553D02*
X190385712Y-93448315D01*
X190385712Y-93448315D02*
X190309522Y-93400696D01*
X190309522Y-93400696D02*
X190195236Y-93400696D01*
X190195236Y-93400696D02*
X190119046Y-93448315D01*
X189433331Y-94019744D02*
X189509522Y-94067363D01*
X189509522Y-94067363D02*
X189661903Y-94067363D01*
X189661903Y-94067363D02*
X189738093Y-94019744D01*
X189738093Y-94019744D02*
X189776189Y-93924505D01*
X189776189Y-93924505D02*
X189776189Y-93543553D01*
X189776189Y-93543553D02*
X189738093Y-93448315D01*
X189738093Y-93448315D02*
X189661903Y-93400696D01*
X189661903Y-93400696D02*
X189509522Y-93400696D01*
X189509522Y-93400696D02*
X189433331Y-93448315D01*
X189433331Y-93448315D02*
X189395236Y-93543553D01*
X189395236Y-93543553D02*
X189395236Y-93638791D01*
X189395236Y-93638791D02*
X189776189Y-93734029D01*
D11*
X141006077Y-145669819D02*
X140434649Y-145669819D01*
X140720363Y-146669819D02*
X140720363Y-145669819D01*
X140101315Y-146669819D02*
X140101315Y-145669819D01*
X140101315Y-146146009D02*
X139529887Y-146146009D01*
X139529887Y-146669819D02*
X139529887Y-145669819D01*
X139053696Y-146146009D02*
X138720363Y-146146009D01*
X138577506Y-146669819D02*
X139053696Y-146669819D01*
X139053696Y-146669819D02*
X139053696Y-145669819D01*
X139053696Y-145669819D02*
X138577506Y-145669819D01*
X136863220Y-146669819D02*
X137434648Y-146669819D01*
X137148934Y-146669819D02*
X137148934Y-145669819D01*
X137148934Y-145669819D02*
X137244172Y-145812676D01*
X137244172Y-145812676D02*
X137339410Y-145907914D01*
X137339410Y-145907914D02*
X137434648Y-145955533D01*
X136006077Y-145669819D02*
X136196553Y-145669819D01*
X136196553Y-145669819D02*
X136291791Y-145717438D01*
X136291791Y-145717438D02*
X136339410Y-145765057D01*
X136339410Y-145765057D02*
X136434648Y-145907914D01*
X136434648Y-145907914D02*
X136482267Y-146098390D01*
X136482267Y-146098390D02*
X136482267Y-146479342D01*
X136482267Y-146479342D02*
X136434648Y-146574580D01*
X136434648Y-146574580D02*
X136387029Y-146622200D01*
X136387029Y-146622200D02*
X136291791Y-146669819D01*
X136291791Y-146669819D02*
X136101315Y-146669819D01*
X136101315Y-146669819D02*
X136006077Y-146622200D01*
X136006077Y-146622200D02*
X135958458Y-146574580D01*
X135958458Y-146574580D02*
X135910839Y-146479342D01*
X135910839Y-146479342D02*
X135910839Y-146241247D01*
X135910839Y-146241247D02*
X135958458Y-146146009D01*
X135958458Y-146146009D02*
X136006077Y-146098390D01*
X136006077Y-146098390D02*
X136101315Y-146050771D01*
X136101315Y-146050771D02*
X136291791Y-146050771D01*
X136291791Y-146050771D02*
X136387029Y-146098390D01*
X136387029Y-146098390D02*
X136434648Y-146146009D01*
X136434648Y-146146009D02*
X136482267Y-146241247D01*
X135482267Y-146288866D02*
X134720363Y-146288866D01*
X133910839Y-146146009D02*
X133767982Y-146193628D01*
X133767982Y-146193628D02*
X133720363Y-146241247D01*
X133720363Y-146241247D02*
X133672744Y-146336485D01*
X133672744Y-146336485D02*
X133672744Y-146479342D01*
X133672744Y-146479342D02*
X133720363Y-146574580D01*
X133720363Y-146574580D02*
X133767982Y-146622200D01*
X133767982Y-146622200D02*
X133863220Y-146669819D01*
X133863220Y-146669819D02*
X134244172Y-146669819D01*
X134244172Y-146669819D02*
X134244172Y-145669819D01*
X134244172Y-145669819D02*
X133910839Y-145669819D01*
X133910839Y-145669819D02*
X133815601Y-145717438D01*
X133815601Y-145717438D02*
X133767982Y-145765057D01*
X133767982Y-145765057D02*
X133720363Y-145860295D01*
X133720363Y-145860295D02*
X133720363Y-145955533D01*
X133720363Y-145955533D02*
X133767982Y-146050771D01*
X133767982Y-146050771D02*
X133815601Y-146098390D01*
X133815601Y-146098390D02*
X133910839Y-146146009D01*
X133910839Y-146146009D02*
X134244172Y-146146009D01*
X133244172Y-146669819D02*
X133244172Y-145669819D01*
X132910839Y-145669819D02*
X132339411Y-145669819D01*
X132625125Y-146669819D02*
X132625125Y-145669819D01*
X131291791Y-146622200D02*
X131148934Y-146669819D01*
X131148934Y-146669819D02*
X130910839Y-146669819D01*
X130910839Y-146669819D02*
X130815601Y-146622200D01*
X130815601Y-146622200D02*
X130767982Y-146574580D01*
X130767982Y-146574580D02*
X130720363Y-146479342D01*
X130720363Y-146479342D02*
X130720363Y-146384104D01*
X130720363Y-146384104D02*
X130767982Y-146288866D01*
X130767982Y-146288866D02*
X130815601Y-146241247D01*
X130815601Y-146241247D02*
X130910839Y-146193628D01*
X130910839Y-146193628D02*
X131101315Y-146146009D01*
X131101315Y-146146009D02*
X131196553Y-146098390D01*
X131196553Y-146098390D02*
X131244172Y-146050771D01*
X131244172Y-146050771D02*
X131291791Y-145955533D01*
X131291791Y-145955533D02*
X131291791Y-145860295D01*
X131291791Y-145860295D02*
X131244172Y-145765057D01*
X131244172Y-145765057D02*
X131196553Y-145717438D01*
X131196553Y-145717438D02*
X131101315Y-145669819D01*
X131101315Y-145669819D02*
X130863220Y-145669819D01*
X130863220Y-145669819D02*
X130720363Y-145717438D01*
X130434648Y-145669819D02*
X129863220Y-145669819D01*
X130148934Y-146669819D02*
X130148934Y-145669819D01*
X128958458Y-146669819D02*
X129291791Y-146193628D01*
X129529886Y-146669819D02*
X129529886Y-145669819D01*
X129529886Y-145669819D02*
X129148934Y-145669819D01*
X129148934Y-145669819D02*
X129053696Y-145717438D01*
X129053696Y-145717438D02*
X129006077Y-145765057D01*
X129006077Y-145765057D02*
X128958458Y-145860295D01*
X128958458Y-145860295D02*
X128958458Y-146003152D01*
X128958458Y-146003152D02*
X129006077Y-146098390D01*
X129006077Y-146098390D02*
X129053696Y-146146009D01*
X129053696Y-146146009D02*
X129148934Y-146193628D01*
X129148934Y-146193628D02*
X129529886Y-146193628D01*
X128577505Y-146384104D02*
X128101315Y-146384104D01*
X128672743Y-146669819D02*
X128339410Y-145669819D01*
X128339410Y-145669819D02*
X128006077Y-146669819D01*
X127767981Y-145669819D02*
X127529886Y-146669819D01*
X127529886Y-146669819D02*
X127339410Y-145955533D01*
X127339410Y-145955533D02*
X127148934Y-146669819D01*
X127148934Y-146669819D02*
X126910839Y-145669819D01*
X125577505Y-145669819D02*
X125387029Y-145669819D01*
X125387029Y-145669819D02*
X125291791Y-145717438D01*
X125291791Y-145717438D02*
X125196553Y-145812676D01*
X125196553Y-145812676D02*
X125148934Y-146003152D01*
X125148934Y-146003152D02*
X125148934Y-146336485D01*
X125148934Y-146336485D02*
X125196553Y-146526961D01*
X125196553Y-146526961D02*
X125291791Y-146622200D01*
X125291791Y-146622200D02*
X125387029Y-146669819D01*
X125387029Y-146669819D02*
X125577505Y-146669819D01*
X125577505Y-146669819D02*
X125672743Y-146622200D01*
X125672743Y-146622200D02*
X125767981Y-146526961D01*
X125767981Y-146526961D02*
X125815600Y-146336485D01*
X125815600Y-146336485D02*
X125815600Y-146003152D01*
X125815600Y-146003152D02*
X125767981Y-145812676D01*
X125767981Y-145812676D02*
X125672743Y-145717438D01*
X125672743Y-145717438D02*
X125577505Y-145669819D01*
X124387029Y-146146009D02*
X124720362Y-146146009D01*
X124720362Y-146669819D02*
X124720362Y-145669819D01*
X124720362Y-145669819D02*
X124244172Y-145669819D01*
X123101314Y-146669819D02*
X123101314Y-145669819D01*
X123101314Y-145669819D02*
X122720362Y-145669819D01*
X122720362Y-145669819D02*
X122625124Y-145717438D01*
X122625124Y-145717438D02*
X122577505Y-145765057D01*
X122577505Y-145765057D02*
X122529886Y-145860295D01*
X122529886Y-145860295D02*
X122529886Y-146003152D01*
X122529886Y-146003152D02*
X122577505Y-146098390D01*
X122577505Y-146098390D02*
X122625124Y-146146009D01*
X122625124Y-146146009D02*
X122720362Y-146193628D01*
X122720362Y-146193628D02*
X123101314Y-146193628D01*
X122101314Y-145669819D02*
X122101314Y-146479342D01*
X122101314Y-146479342D02*
X122053695Y-146574580D01*
X122053695Y-146574580D02*
X122006076Y-146622200D01*
X122006076Y-146622200D02*
X121910838Y-146669819D01*
X121910838Y-146669819D02*
X121720362Y-146669819D01*
X121720362Y-146669819D02*
X121625124Y-146622200D01*
X121625124Y-146622200D02*
X121577505Y-146574580D01*
X121577505Y-146574580D02*
X121529886Y-146479342D01*
X121529886Y-146479342D02*
X121529886Y-145669819D01*
X120482267Y-146669819D02*
X120815600Y-146193628D01*
X121053695Y-146669819D02*
X121053695Y-145669819D01*
X121053695Y-145669819D02*
X120672743Y-145669819D01*
X120672743Y-145669819D02*
X120577505Y-145717438D01*
X120577505Y-145717438D02*
X120529886Y-145765057D01*
X120529886Y-145765057D02*
X120482267Y-145860295D01*
X120482267Y-145860295D02*
X120482267Y-146003152D01*
X120482267Y-146003152D02*
X120529886Y-146098390D01*
X120529886Y-146098390D02*
X120577505Y-146146009D01*
X120577505Y-146146009D02*
X120672743Y-146193628D01*
X120672743Y-146193628D02*
X121053695Y-146193628D01*
X120053695Y-146146009D02*
X119720362Y-146146009D01*
X119577505Y-146669819D02*
X120053695Y-146669819D01*
X120053695Y-146669819D02*
X120053695Y-145669819D01*
X120053695Y-145669819D02*
X119577505Y-145669819D01*
X117815600Y-146574580D02*
X117863219Y-146622200D01*
X117863219Y-146622200D02*
X118006076Y-146669819D01*
X118006076Y-146669819D02*
X118101314Y-146669819D01*
X118101314Y-146669819D02*
X118244171Y-146622200D01*
X118244171Y-146622200D02*
X118339409Y-146526961D01*
X118339409Y-146526961D02*
X118387028Y-146431723D01*
X118387028Y-146431723D02*
X118434647Y-146241247D01*
X118434647Y-146241247D02*
X118434647Y-146098390D01*
X118434647Y-146098390D02*
X118387028Y-145907914D01*
X118387028Y-145907914D02*
X118339409Y-145812676D01*
X118339409Y-145812676D02*
X118244171Y-145717438D01*
X118244171Y-145717438D02*
X118101314Y-145669819D01*
X118101314Y-145669819D02*
X118006076Y-145669819D01*
X118006076Y-145669819D02*
X117863219Y-145717438D01*
X117863219Y-145717438D02*
X117815600Y-145765057D01*
X117387028Y-146669819D02*
X117387028Y-145669819D01*
X117387028Y-146146009D02*
X116815600Y-146146009D01*
X116815600Y-146669819D02*
X116815600Y-145669819D01*
X116148933Y-145669819D02*
X115958457Y-145669819D01*
X115958457Y-145669819D02*
X115863219Y-145717438D01*
X115863219Y-145717438D02*
X115767981Y-145812676D01*
X115767981Y-145812676D02*
X115720362Y-146003152D01*
X115720362Y-146003152D02*
X115720362Y-146336485D01*
X115720362Y-146336485D02*
X115767981Y-146526961D01*
X115767981Y-146526961D02*
X115863219Y-146622200D01*
X115863219Y-146622200D02*
X115958457Y-146669819D01*
X115958457Y-146669819D02*
X116148933Y-146669819D01*
X116148933Y-146669819D02*
X116244171Y-146622200D01*
X116244171Y-146622200D02*
X116339409Y-146526961D01*
X116339409Y-146526961D02*
X116387028Y-146336485D01*
X116387028Y-146336485D02*
X116387028Y-146003152D01*
X116387028Y-146003152D02*
X116339409Y-145812676D01*
X116339409Y-145812676D02*
X116244171Y-145717438D01*
X116244171Y-145717438D02*
X116148933Y-145669819D01*
X115291790Y-146669819D02*
X115291790Y-145669819D01*
X114720362Y-146669819D02*
X115148933Y-146098390D01*
X114720362Y-145669819D02*
X115291790Y-146241247D01*
X114291790Y-146146009D02*
X113958457Y-146146009D01*
X113815600Y-146669819D02*
X114291790Y-146669819D01*
X114291790Y-146669819D02*
X114291790Y-145669819D01*
X114291790Y-145669819D02*
X113815600Y-145669819D01*
X113387028Y-146669819D02*
X113387028Y-145669819D01*
X113387028Y-146146009D02*
X112815600Y-146146009D01*
X112815600Y-146669819D02*
X112815600Y-145669819D01*
X112148933Y-145669819D02*
X111958457Y-145669819D01*
X111958457Y-145669819D02*
X111863219Y-145717438D01*
X111863219Y-145717438D02*
X111767981Y-145812676D01*
X111767981Y-145812676D02*
X111720362Y-146003152D01*
X111720362Y-146003152D02*
X111720362Y-146336485D01*
X111720362Y-146336485D02*
X111767981Y-146526961D01*
X111767981Y-146526961D02*
X111863219Y-146622200D01*
X111863219Y-146622200D02*
X111958457Y-146669819D01*
X111958457Y-146669819D02*
X112148933Y-146669819D01*
X112148933Y-146669819D02*
X112244171Y-146622200D01*
X112244171Y-146622200D02*
X112339409Y-146526961D01*
X112339409Y-146526961D02*
X112387028Y-146336485D01*
X112387028Y-146336485D02*
X112387028Y-146003152D01*
X112387028Y-146003152D02*
X112339409Y-145812676D01*
X112339409Y-145812676D02*
X112244171Y-145717438D01*
X112244171Y-145717438D02*
X112148933Y-145669819D01*
X110815600Y-146669819D02*
X111291790Y-146669819D01*
X111291790Y-146669819D02*
X111291790Y-145669819D01*
X110482266Y-146669819D02*
X110482266Y-145669819D01*
X110482266Y-145669819D02*
X110244171Y-145669819D01*
X110244171Y-145669819D02*
X110101314Y-145717438D01*
X110101314Y-145717438D02*
X110006076Y-145812676D01*
X110006076Y-145812676D02*
X109958457Y-145907914D01*
X109958457Y-145907914D02*
X109910838Y-146098390D01*
X109910838Y-146098390D02*
X109910838Y-146241247D01*
X109910838Y-146241247D02*
X109958457Y-146431723D01*
X109958457Y-146431723D02*
X110006076Y-146526961D01*
X110006076Y-146526961D02*
X110101314Y-146622200D01*
X110101314Y-146622200D02*
X110244171Y-146669819D01*
X110244171Y-146669819D02*
X110482266Y-146669819D01*
D10*
X221300877Y-147096895D02*
X221300877Y-146677847D01*
X221300877Y-146677847D02*
X221338972Y-146601657D01*
X221338972Y-146601657D02*
X221415163Y-146563561D01*
X221415163Y-146563561D02*
X221567544Y-146563561D01*
X221567544Y-146563561D02*
X221643734Y-146601657D01*
X221300877Y-147058800D02*
X221377068Y-147096895D01*
X221377068Y-147096895D02*
X221567544Y-147096895D01*
X221567544Y-147096895D02*
X221643734Y-147058800D01*
X221643734Y-147058800D02*
X221681830Y-146982609D01*
X221681830Y-146982609D02*
X221681830Y-146906419D01*
X221681830Y-146906419D02*
X221643734Y-146830228D01*
X221643734Y-146830228D02*
X221567544Y-146792133D01*
X221567544Y-146792133D02*
X221377068Y-146792133D01*
X221377068Y-146792133D02*
X221300877Y-146754038D01*
X220958020Y-146373085D02*
X220919924Y-146334990D01*
X220919924Y-146334990D02*
X220843734Y-146296895D01*
X220843734Y-146296895D02*
X220653258Y-146296895D01*
X220653258Y-146296895D02*
X220577067Y-146334990D01*
X220577067Y-146334990D02*
X220538972Y-146373085D01*
X220538972Y-146373085D02*
X220500877Y-146449276D01*
X220500877Y-146449276D02*
X220500877Y-146525466D01*
X220500877Y-146525466D02*
X220538972Y-146639752D01*
X220538972Y-146639752D02*
X220996115Y-147096895D01*
X220996115Y-147096895D02*
X220500877Y-147096895D01*
X220234210Y-146296895D02*
X219700876Y-146296895D01*
X219700876Y-146296895D02*
X220043734Y-147096895D01*
X219243733Y-146296895D02*
X219167543Y-146296895D01*
X219167543Y-146296895D02*
X219091352Y-146334990D01*
X219091352Y-146334990D02*
X219053257Y-146373085D01*
X219053257Y-146373085D02*
X219015162Y-146449276D01*
X219015162Y-146449276D02*
X218977067Y-146601657D01*
X218977067Y-146601657D02*
X218977067Y-146792133D01*
X218977067Y-146792133D02*
X219015162Y-146944514D01*
X219015162Y-146944514D02*
X219053257Y-147020704D01*
X219053257Y-147020704D02*
X219091352Y-147058800D01*
X219091352Y-147058800D02*
X219167543Y-147096895D01*
X219167543Y-147096895D02*
X219243733Y-147096895D01*
X219243733Y-147096895D02*
X219319924Y-147058800D01*
X219319924Y-147058800D02*
X219358019Y-147020704D01*
X219358019Y-147020704D02*
X219396114Y-146944514D01*
X219396114Y-146944514D02*
X219434210Y-146792133D01*
X219434210Y-146792133D02*
X219434210Y-146601657D01*
X219434210Y-146601657D02*
X219396114Y-146449276D01*
X219396114Y-146449276D02*
X219358019Y-146373085D01*
X219358019Y-146373085D02*
X219319924Y-146334990D01*
X219319924Y-146334990D02*
X219243733Y-146296895D01*
X218481828Y-146296895D02*
X218405638Y-146296895D01*
X218405638Y-146296895D02*
X218329447Y-146334990D01*
X218329447Y-146334990D02*
X218291352Y-146373085D01*
X218291352Y-146373085D02*
X218253257Y-146449276D01*
X218253257Y-146449276D02*
X218215162Y-146601657D01*
X218215162Y-146601657D02*
X218215162Y-146792133D01*
X218215162Y-146792133D02*
X218253257Y-146944514D01*
X218253257Y-146944514D02*
X218291352Y-147020704D01*
X218291352Y-147020704D02*
X218329447Y-147058800D01*
X218329447Y-147058800D02*
X218405638Y-147096895D01*
X218405638Y-147096895D02*
X218481828Y-147096895D01*
X218481828Y-147096895D02*
X218558019Y-147058800D01*
X218558019Y-147058800D02*
X218596114Y-147020704D01*
X218596114Y-147020704D02*
X218634209Y-146944514D01*
X218634209Y-146944514D02*
X218672305Y-146792133D01*
X218672305Y-146792133D02*
X218672305Y-146601657D01*
X218672305Y-146601657D02*
X218634209Y-146449276D01*
X218634209Y-146449276D02*
X218596114Y-146373085D01*
X218596114Y-146373085D02*
X218558019Y-146334990D01*
X218558019Y-146334990D02*
X218481828Y-146296895D01*
X217529447Y-146563561D02*
X217529447Y-147096895D01*
X217719923Y-146258800D02*
X217910400Y-146830228D01*
X217910400Y-146830228D02*
X217415161Y-146830228D01*
X216767542Y-147096895D02*
X216767542Y-146677847D01*
X216767542Y-146677847D02*
X216805637Y-146601657D01*
X216805637Y-146601657D02*
X216881828Y-146563561D01*
X216881828Y-146563561D02*
X217034209Y-146563561D01*
X217034209Y-146563561D02*
X217110399Y-146601657D01*
X216767542Y-147058800D02*
X216843733Y-147096895D01*
X216843733Y-147096895D02*
X217034209Y-147096895D01*
X217034209Y-147096895D02*
X217110399Y-147058800D01*
X217110399Y-147058800D02*
X217148495Y-146982609D01*
X217148495Y-146982609D02*
X217148495Y-146906419D01*
X217148495Y-146906419D02*
X217110399Y-146830228D01*
X217110399Y-146830228D02*
X217034209Y-146792133D01*
X217034209Y-146792133D02*
X216843733Y-146792133D01*
X216843733Y-146792133D02*
X216767542Y-146754038D01*
X216462780Y-146296895D02*
X215929446Y-146296895D01*
X215929446Y-146296895D02*
X216272304Y-147096895D01*
X215205637Y-147096895D02*
X215662780Y-147096895D01*
X215434208Y-147096895D02*
X215434208Y-146296895D01*
X215434208Y-146296895D02*
X215510399Y-146411180D01*
X215510399Y-146411180D02*
X215586589Y-146487371D01*
X215586589Y-146487371D02*
X215662780Y-146525466D01*
X214519922Y-146563561D02*
X214519922Y-147096895D01*
X214710398Y-146258800D02*
X214900875Y-146830228D01*
X214900875Y-146830228D02*
X214405636Y-146830228D01*
X214215160Y-146563561D02*
X213910398Y-146563561D01*
X214100874Y-147096895D02*
X214100874Y-146411180D01*
X214100874Y-146411180D02*
X214062779Y-146334990D01*
X214062779Y-146334990D02*
X213986589Y-146296895D01*
X213986589Y-146296895D02*
X213910398Y-146296895D01*
X213262779Y-146296895D02*
X213643731Y-146296895D01*
X213643731Y-146296895D02*
X213681827Y-146677847D01*
X213681827Y-146677847D02*
X213643731Y-146639752D01*
X213643731Y-146639752D02*
X213567541Y-146601657D01*
X213567541Y-146601657D02*
X213377065Y-146601657D01*
X213377065Y-146601657D02*
X213300874Y-146639752D01*
X213300874Y-146639752D02*
X213262779Y-146677847D01*
X213262779Y-146677847D02*
X213224684Y-146754038D01*
X213224684Y-146754038D02*
X213224684Y-146944514D01*
X213224684Y-146944514D02*
X213262779Y-147020704D01*
X213262779Y-147020704D02*
X213300874Y-147058800D01*
X213300874Y-147058800D02*
X213377065Y-147096895D01*
X213377065Y-147096895D02*
X213567541Y-147096895D01*
X213567541Y-147096895D02*
X213643731Y-147058800D01*
X213643731Y-147058800D02*
X213681827Y-147020704D01*
X212538969Y-146563561D02*
X212538969Y-147096895D01*
X212729445Y-146258800D02*
X212919922Y-146830228D01*
X212919922Y-146830228D02*
X212424683Y-146830228D01*
X211815159Y-147058800D02*
X211891350Y-147096895D01*
X211891350Y-147096895D02*
X212043731Y-147096895D01*
X212043731Y-147096895D02*
X212119921Y-147058800D01*
X212119921Y-147058800D02*
X212158017Y-146982609D01*
X212158017Y-146982609D02*
X212158017Y-146677847D01*
X212158017Y-146677847D02*
X212119921Y-146601657D01*
X212119921Y-146601657D02*
X212043731Y-146563561D01*
X212043731Y-146563561D02*
X211891350Y-146563561D01*
X211891350Y-146563561D02*
X211815159Y-146601657D01*
X211815159Y-146601657D02*
X211777064Y-146677847D01*
X211777064Y-146677847D02*
X211777064Y-146754038D01*
X211777064Y-146754038D02*
X212158017Y-146830228D01*
X211091350Y-147058800D02*
X211167541Y-147096895D01*
X211167541Y-147096895D02*
X211319922Y-147096895D01*
X211319922Y-147096895D02*
X211396112Y-147058800D01*
X211396112Y-147058800D02*
X211434207Y-147020704D01*
X211434207Y-147020704D02*
X211472303Y-146944514D01*
X211472303Y-146944514D02*
X211472303Y-146715942D01*
X211472303Y-146715942D02*
X211434207Y-146639752D01*
X211434207Y-146639752D02*
X211396112Y-146601657D01*
X211396112Y-146601657D02*
X211319922Y-146563561D01*
X211319922Y-146563561D02*
X211167541Y-146563561D01*
X211167541Y-146563561D02*
X211091350Y-146601657D01*
X210443731Y-147058800D02*
X210519922Y-147096895D01*
X210519922Y-147096895D02*
X210672303Y-147096895D01*
X210672303Y-147096895D02*
X210748493Y-147058800D01*
X210748493Y-147058800D02*
X210786589Y-146982609D01*
X210786589Y-146982609D02*
X210786589Y-146677847D01*
X210786589Y-146677847D02*
X210748493Y-146601657D01*
X210748493Y-146601657D02*
X210672303Y-146563561D01*
X210672303Y-146563561D02*
X210519922Y-146563561D01*
X210519922Y-146563561D02*
X210443731Y-146601657D01*
X210443731Y-146601657D02*
X210405636Y-146677847D01*
X210405636Y-146677847D02*
X210405636Y-146754038D01*
X210405636Y-146754038D02*
X210786589Y-146830228D01*
X209719922Y-147058800D02*
X209796113Y-147096895D01*
X209796113Y-147096895D02*
X209948494Y-147096895D01*
X209948494Y-147096895D02*
X210024684Y-147058800D01*
X210024684Y-147058800D02*
X210062779Y-147020704D01*
X210062779Y-147020704D02*
X210100875Y-146944514D01*
X210100875Y-146944514D02*
X210100875Y-146715942D01*
X210100875Y-146715942D02*
X210062779Y-146639752D01*
X210062779Y-146639752D02*
X210024684Y-146601657D01*
X210024684Y-146601657D02*
X209948494Y-146563561D01*
X209948494Y-146563561D02*
X209796113Y-146563561D01*
X209796113Y-146563561D02*
X209719922Y-146601657D01*
X209338970Y-147096895D02*
X209186589Y-147096895D01*
X209186589Y-147096895D02*
X209110399Y-147058800D01*
X209110399Y-147058800D02*
X209072303Y-147020704D01*
X209072303Y-147020704D02*
X208996113Y-146906419D01*
X208996113Y-146906419D02*
X208958018Y-146754038D01*
X208958018Y-146754038D02*
X208958018Y-146449276D01*
X208958018Y-146449276D02*
X208996113Y-146373085D01*
X208996113Y-146373085D02*
X209034208Y-146334990D01*
X209034208Y-146334990D02*
X209110399Y-146296895D01*
X209110399Y-146296895D02*
X209262780Y-146296895D01*
X209262780Y-146296895D02*
X209338970Y-146334990D01*
X209338970Y-146334990D02*
X209377065Y-146373085D01*
X209377065Y-146373085D02*
X209415161Y-146449276D01*
X209415161Y-146449276D02*
X209415161Y-146639752D01*
X209415161Y-146639752D02*
X209377065Y-146715942D01*
X209377065Y-146715942D02*
X209338970Y-146754038D01*
X209338970Y-146754038D02*
X209262780Y-146792133D01*
X209262780Y-146792133D02*
X209110399Y-146792133D01*
X209110399Y-146792133D02*
X209034208Y-146754038D01*
X209034208Y-146754038D02*
X208996113Y-146715942D01*
X208996113Y-146715942D02*
X208958018Y-146639752D01*
X208310398Y-147058800D02*
X208386589Y-147096895D01*
X208386589Y-147096895D02*
X208538970Y-147096895D01*
X208538970Y-147096895D02*
X208615160Y-147058800D01*
X208615160Y-147058800D02*
X208653256Y-146982609D01*
X208653256Y-146982609D02*
X208653256Y-146677847D01*
X208653256Y-146677847D02*
X208615160Y-146601657D01*
X208615160Y-146601657D02*
X208538970Y-146563561D01*
X208538970Y-146563561D02*
X208386589Y-146563561D01*
X208386589Y-146563561D02*
X208310398Y-146601657D01*
X208310398Y-146601657D02*
X208272303Y-146677847D01*
X208272303Y-146677847D02*
X208272303Y-146754038D01*
X208272303Y-146754038D02*
X208653256Y-146830228D01*
X207624684Y-147058800D02*
X207700875Y-147096895D01*
X207700875Y-147096895D02*
X207853256Y-147096895D01*
X207853256Y-147096895D02*
X207929446Y-147058800D01*
X207929446Y-147058800D02*
X207967542Y-146982609D01*
X207967542Y-146982609D02*
X207967542Y-146677847D01*
X207967542Y-146677847D02*
X207929446Y-146601657D01*
X207929446Y-146601657D02*
X207853256Y-146563561D01*
X207853256Y-146563561D02*
X207700875Y-146563561D01*
X207700875Y-146563561D02*
X207624684Y-146601657D01*
X207624684Y-146601657D02*
X207586589Y-146677847D01*
X207586589Y-146677847D02*
X207586589Y-146754038D01*
X207586589Y-146754038D02*
X207967542Y-146830228D01*
X206900875Y-147096895D02*
X206900875Y-146296895D01*
X206900875Y-147058800D02*
X206977066Y-147096895D01*
X206977066Y-147096895D02*
X207129447Y-147096895D01*
X207129447Y-147096895D02*
X207205637Y-147058800D01*
X207205637Y-147058800D02*
X207243732Y-147020704D01*
X207243732Y-147020704D02*
X207281828Y-146944514D01*
X207281828Y-146944514D02*
X207281828Y-146715942D01*
X207281828Y-146715942D02*
X207243732Y-146639752D01*
X207243732Y-146639752D02*
X207205637Y-146601657D01*
X207205637Y-146601657D02*
X207129447Y-146563561D01*
X207129447Y-146563561D02*
X206977066Y-146563561D01*
X206977066Y-146563561D02*
X206900875Y-146601657D01*
X206367541Y-146296895D02*
X206291351Y-146296895D01*
X206291351Y-146296895D02*
X206215160Y-146334990D01*
X206215160Y-146334990D02*
X206177065Y-146373085D01*
X206177065Y-146373085D02*
X206138970Y-146449276D01*
X206138970Y-146449276D02*
X206100875Y-146601657D01*
X206100875Y-146601657D02*
X206100875Y-146792133D01*
X206100875Y-146792133D02*
X206138970Y-146944514D01*
X206138970Y-146944514D02*
X206177065Y-147020704D01*
X206177065Y-147020704D02*
X206215160Y-147058800D01*
X206215160Y-147058800D02*
X206291351Y-147096895D01*
X206291351Y-147096895D02*
X206367541Y-147096895D01*
X206367541Y-147096895D02*
X206443732Y-147058800D01*
X206443732Y-147058800D02*
X206481827Y-147020704D01*
X206481827Y-147020704D02*
X206519922Y-146944514D01*
X206519922Y-146944514D02*
X206558018Y-146792133D01*
X206558018Y-146792133D02*
X206558018Y-146601657D01*
X206558018Y-146601657D02*
X206519922Y-146449276D01*
X206519922Y-146449276D02*
X206481827Y-146373085D01*
X206481827Y-146373085D02*
X206443732Y-146334990D01*
X206443732Y-146334990D02*
X206367541Y-146296895D01*
X205834208Y-146296895D02*
X205300874Y-146296895D01*
X205300874Y-146296895D02*
X205643732Y-147096895D01*
X204653255Y-147096895D02*
X204653255Y-146677847D01*
X204653255Y-146677847D02*
X204691350Y-146601657D01*
X204691350Y-146601657D02*
X204767541Y-146563561D01*
X204767541Y-146563561D02*
X204919922Y-146563561D01*
X204919922Y-146563561D02*
X204996112Y-146601657D01*
X204653255Y-147058800D02*
X204729446Y-147096895D01*
X204729446Y-147096895D02*
X204919922Y-147096895D01*
X204919922Y-147096895D02*
X204996112Y-147058800D01*
X204996112Y-147058800D02*
X205034208Y-146982609D01*
X205034208Y-146982609D02*
X205034208Y-146906419D01*
X205034208Y-146906419D02*
X204996112Y-146830228D01*
X204996112Y-146830228D02*
X204919922Y-146792133D01*
X204919922Y-146792133D02*
X204729446Y-146792133D01*
X204729446Y-146792133D02*
X204653255Y-146754038D01*
X203929445Y-147096895D02*
X203929445Y-146677847D01*
X203929445Y-146677847D02*
X203967540Y-146601657D01*
X203967540Y-146601657D02*
X204043731Y-146563561D01*
X204043731Y-146563561D02*
X204196112Y-146563561D01*
X204196112Y-146563561D02*
X204272302Y-146601657D01*
X203929445Y-147058800D02*
X204005636Y-147096895D01*
X204005636Y-147096895D02*
X204196112Y-147096895D01*
X204196112Y-147096895D02*
X204272302Y-147058800D01*
X204272302Y-147058800D02*
X204310398Y-146982609D01*
X204310398Y-146982609D02*
X204310398Y-146906419D01*
X204310398Y-146906419D02*
X204272302Y-146830228D01*
X204272302Y-146830228D02*
X204196112Y-146792133D01*
X204196112Y-146792133D02*
X204005636Y-146792133D01*
X204005636Y-146792133D02*
X203929445Y-146754038D01*
X203243730Y-147058800D02*
X203319921Y-147096895D01*
X203319921Y-147096895D02*
X203472302Y-147096895D01*
X203472302Y-147096895D02*
X203548492Y-147058800D01*
X203548492Y-147058800D02*
X203586588Y-146982609D01*
X203586588Y-146982609D02*
X203586588Y-146677847D01*
X203586588Y-146677847D02*
X203548492Y-146601657D01*
X203548492Y-146601657D02*
X203472302Y-146563561D01*
X203472302Y-146563561D02*
X203319921Y-146563561D01*
X203319921Y-146563561D02*
X203243730Y-146601657D01*
X203243730Y-146601657D02*
X203205635Y-146677847D01*
X203205635Y-146677847D02*
X203205635Y-146754038D01*
X203205635Y-146754038D02*
X203586588Y-146830228D01*
X202938969Y-146296895D02*
X202443731Y-146296895D01*
X202443731Y-146296895D02*
X202710397Y-146601657D01*
X202710397Y-146601657D02*
X202596112Y-146601657D01*
X202596112Y-146601657D02*
X202519921Y-146639752D01*
X202519921Y-146639752D02*
X202481826Y-146677847D01*
X202481826Y-146677847D02*
X202443731Y-146754038D01*
X202443731Y-146754038D02*
X202443731Y-146944514D01*
X202443731Y-146944514D02*
X202481826Y-147020704D01*
X202481826Y-147020704D02*
X202519921Y-147058800D01*
X202519921Y-147058800D02*
X202596112Y-147096895D01*
X202596112Y-147096895D02*
X202824683Y-147096895D01*
X202824683Y-147096895D02*
X202900874Y-147058800D01*
X202900874Y-147058800D02*
X202938969Y-147020704D01*
X201796111Y-147058800D02*
X201872302Y-147096895D01*
X201872302Y-147096895D02*
X202024683Y-147096895D01*
X202024683Y-147096895D02*
X202100873Y-147058800D01*
X202100873Y-147058800D02*
X202138969Y-146982609D01*
X202138969Y-146982609D02*
X202138969Y-146677847D01*
X202138969Y-146677847D02*
X202100873Y-146601657D01*
X202100873Y-146601657D02*
X202024683Y-146563561D01*
X202024683Y-146563561D02*
X201872302Y-146563561D01*
X201872302Y-146563561D02*
X201796111Y-146601657D01*
X201796111Y-146601657D02*
X201758016Y-146677847D01*
X201758016Y-146677847D02*
X201758016Y-146754038D01*
X201758016Y-146754038D02*
X202138969Y-146830228D01*
X201453255Y-146373085D02*
X201415159Y-146334990D01*
X201415159Y-146334990D02*
X201338969Y-146296895D01*
X201338969Y-146296895D02*
X201148493Y-146296895D01*
X201148493Y-146296895D02*
X201072302Y-146334990D01*
X201072302Y-146334990D02*
X201034207Y-146373085D01*
X201034207Y-146373085D02*
X200996112Y-146449276D01*
X200996112Y-146449276D02*
X200996112Y-146525466D01*
X200996112Y-146525466D02*
X201034207Y-146639752D01*
X201034207Y-146639752D02*
X201491350Y-147096895D01*
X201491350Y-147096895D02*
X200996112Y-147096895D01*
X200538969Y-146639752D02*
X200615159Y-146601657D01*
X200615159Y-146601657D02*
X200653254Y-146563561D01*
X200653254Y-146563561D02*
X200691350Y-146487371D01*
X200691350Y-146487371D02*
X200691350Y-146449276D01*
X200691350Y-146449276D02*
X200653254Y-146373085D01*
X200653254Y-146373085D02*
X200615159Y-146334990D01*
X200615159Y-146334990D02*
X200538969Y-146296895D01*
X200538969Y-146296895D02*
X200386588Y-146296895D01*
X200386588Y-146296895D02*
X200310397Y-146334990D01*
X200310397Y-146334990D02*
X200272302Y-146373085D01*
X200272302Y-146373085D02*
X200234207Y-146449276D01*
X200234207Y-146449276D02*
X200234207Y-146487371D01*
X200234207Y-146487371D02*
X200272302Y-146563561D01*
X200272302Y-146563561D02*
X200310397Y-146601657D01*
X200310397Y-146601657D02*
X200386588Y-146639752D01*
X200386588Y-146639752D02*
X200538969Y-146639752D01*
X200538969Y-146639752D02*
X200615159Y-146677847D01*
X200615159Y-146677847D02*
X200653254Y-146715942D01*
X200653254Y-146715942D02*
X200691350Y-146792133D01*
X200691350Y-146792133D02*
X200691350Y-146944514D01*
X200691350Y-146944514D02*
X200653254Y-147020704D01*
X200653254Y-147020704D02*
X200615159Y-147058800D01*
X200615159Y-147058800D02*
X200538969Y-147096895D01*
X200538969Y-147096895D02*
X200386588Y-147096895D01*
X200386588Y-147096895D02*
X200310397Y-147058800D01*
X200310397Y-147058800D02*
X200272302Y-147020704D01*
X200272302Y-147020704D02*
X200234207Y-146944514D01*
X200234207Y-146944514D02*
X200234207Y-146792133D01*
X200234207Y-146792133D02*
X200272302Y-146715942D01*
X200272302Y-146715942D02*
X200310397Y-146677847D01*
X200310397Y-146677847D02*
X200386588Y-146639752D01*
X199891349Y-147096895D02*
X199891349Y-146296895D01*
X199891349Y-146601657D02*
X199815159Y-146563561D01*
X199815159Y-146563561D02*
X199662778Y-146563561D01*
X199662778Y-146563561D02*
X199586587Y-146601657D01*
X199586587Y-146601657D02*
X199548492Y-146639752D01*
X199548492Y-146639752D02*
X199510397Y-146715942D01*
X199510397Y-146715942D02*
X199510397Y-146944514D01*
X199510397Y-146944514D02*
X199548492Y-147020704D01*
X199548492Y-147020704D02*
X199586587Y-147058800D01*
X199586587Y-147058800D02*
X199662778Y-147096895D01*
X199662778Y-147096895D02*
X199815159Y-147096895D01*
X199815159Y-147096895D02*
X199891349Y-147058800D01*
X199281825Y-146563561D02*
X198977063Y-146563561D01*
X199167539Y-147096895D02*
X199167539Y-146411180D01*
X199167539Y-146411180D02*
X199129444Y-146334990D01*
X199129444Y-146334990D02*
X199053254Y-146296895D01*
X199053254Y-146296895D02*
X198977063Y-146296895D01*
X153553371Y-103384836D02*
X153505752Y-103346741D01*
X153505752Y-103346741D02*
X153362895Y-103270550D01*
X153362895Y-103270550D02*
X153267657Y-103232455D01*
X153267657Y-103232455D02*
X153124800Y-103194360D01*
X153124800Y-103194360D02*
X152886704Y-103156265D01*
X152886704Y-103156265D02*
X152696228Y-103156265D01*
X152696228Y-103156265D02*
X152458133Y-103194360D01*
X152458133Y-103194360D02*
X152315276Y-103232455D01*
X152315276Y-103232455D02*
X152220038Y-103270550D01*
X152220038Y-103270550D02*
X152077180Y-103346741D01*
X152077180Y-103346741D02*
X152029561Y-103384836D01*
X152172419Y-103841979D02*
X152172419Y-103994360D01*
X152172419Y-103994360D02*
X152220038Y-104070550D01*
X152220038Y-104070550D02*
X152315276Y-104146741D01*
X152315276Y-104146741D02*
X152505752Y-104184836D01*
X152505752Y-104184836D02*
X152839085Y-104184836D01*
X152839085Y-104184836D02*
X153029561Y-104146741D01*
X153029561Y-104146741D02*
X153124800Y-104070550D01*
X153124800Y-104070550D02*
X153172419Y-103994360D01*
X153172419Y-103994360D02*
X153172419Y-103841979D01*
X153172419Y-103841979D02*
X153124800Y-103765788D01*
X153124800Y-103765788D02*
X153029561Y-103689598D01*
X153029561Y-103689598D02*
X152839085Y-103651502D01*
X152839085Y-103651502D02*
X152505752Y-103651502D01*
X152505752Y-103651502D02*
X152315276Y-103689598D01*
X152315276Y-103689598D02*
X152220038Y-103765788D01*
X152220038Y-103765788D02*
X152172419Y-103841979D01*
X152505752Y-104527693D02*
X153505752Y-104527693D01*
X152553371Y-104527693D02*
X152505752Y-104603883D01*
X152505752Y-104603883D02*
X152505752Y-104756264D01*
X152505752Y-104756264D02*
X152553371Y-104832455D01*
X152553371Y-104832455D02*
X152600990Y-104870550D01*
X152600990Y-104870550D02*
X152696228Y-104908645D01*
X152696228Y-104908645D02*
X152981942Y-104908645D01*
X152981942Y-104908645D02*
X153077180Y-104870550D01*
X153077180Y-104870550D02*
X153124800Y-104832455D01*
X153124800Y-104832455D02*
X153172419Y-104756264D01*
X153172419Y-104756264D02*
X153172419Y-104603883D01*
X153172419Y-104603883D02*
X153124800Y-104527693D01*
X152505752Y-105137217D02*
X152505752Y-105441979D01*
X152172419Y-105251503D02*
X153029561Y-105251503D01*
X153029561Y-105251503D02*
X153124800Y-105289598D01*
X153124800Y-105289598D02*
X153172419Y-105365788D01*
X153172419Y-105365788D02*
X153172419Y-105441979D01*
X153172419Y-105708646D02*
X152505752Y-105708646D01*
X152172419Y-105708646D02*
X152220038Y-105670550D01*
X152220038Y-105670550D02*
X152267657Y-105708646D01*
X152267657Y-105708646D02*
X152220038Y-105746741D01*
X152220038Y-105746741D02*
X152172419Y-105708646D01*
X152172419Y-105708646D02*
X152267657Y-105708646D01*
X153172419Y-106203883D02*
X153124800Y-106127693D01*
X153124800Y-106127693D02*
X153077180Y-106089598D01*
X153077180Y-106089598D02*
X152981942Y-106051502D01*
X152981942Y-106051502D02*
X152696228Y-106051502D01*
X152696228Y-106051502D02*
X152600990Y-106089598D01*
X152600990Y-106089598D02*
X152553371Y-106127693D01*
X152553371Y-106127693D02*
X152505752Y-106203883D01*
X152505752Y-106203883D02*
X152505752Y-106318169D01*
X152505752Y-106318169D02*
X152553371Y-106394360D01*
X152553371Y-106394360D02*
X152600990Y-106432455D01*
X152600990Y-106432455D02*
X152696228Y-106470550D01*
X152696228Y-106470550D02*
X152981942Y-106470550D01*
X152981942Y-106470550D02*
X153077180Y-106432455D01*
X153077180Y-106432455D02*
X153124800Y-106394360D01*
X153124800Y-106394360D02*
X153172419Y-106318169D01*
X153172419Y-106318169D02*
X153172419Y-106203883D01*
X152505752Y-106813408D02*
X153172419Y-106813408D01*
X152600990Y-106813408D02*
X152553371Y-106851503D01*
X152553371Y-106851503D02*
X152505752Y-106927693D01*
X152505752Y-106927693D02*
X152505752Y-107041979D01*
X152505752Y-107041979D02*
X152553371Y-107118170D01*
X152553371Y-107118170D02*
X152648609Y-107156265D01*
X152648609Y-107156265D02*
X153172419Y-107156265D01*
X153172419Y-107880075D02*
X152648609Y-107880075D01*
X152648609Y-107880075D02*
X152553371Y-107841980D01*
X152553371Y-107841980D02*
X152505752Y-107765789D01*
X152505752Y-107765789D02*
X152505752Y-107613408D01*
X152505752Y-107613408D02*
X152553371Y-107537218D01*
X153124800Y-107880075D02*
X153172419Y-107803884D01*
X153172419Y-107803884D02*
X153172419Y-107613408D01*
X153172419Y-107613408D02*
X153124800Y-107537218D01*
X153124800Y-107537218D02*
X153029561Y-107499122D01*
X153029561Y-107499122D02*
X152934323Y-107499122D01*
X152934323Y-107499122D02*
X152839085Y-107537218D01*
X152839085Y-107537218D02*
X152791466Y-107613408D01*
X152791466Y-107613408D02*
X152791466Y-107803884D01*
X152791466Y-107803884D02*
X152743847Y-107880075D01*
X153172419Y-108375313D02*
X153124800Y-108299123D01*
X153124800Y-108299123D02*
X153029561Y-108261028D01*
X153029561Y-108261028D02*
X152172419Y-108261028D01*
X153553371Y-108603885D02*
X153505752Y-108641980D01*
X153505752Y-108641980D02*
X153362895Y-108718171D01*
X153362895Y-108718171D02*
X153267657Y-108756266D01*
X153267657Y-108756266D02*
X153124800Y-108794361D01*
X153124800Y-108794361D02*
X152886704Y-108832457D01*
X152886704Y-108832457D02*
X152696228Y-108832457D01*
X152696228Y-108832457D02*
X152458133Y-108794361D01*
X152458133Y-108794361D02*
X152315276Y-108756266D01*
X152315276Y-108756266D02*
X152220038Y-108718171D01*
X152220038Y-108718171D02*
X152077180Y-108641980D01*
X152077180Y-108641980D02*
X152029561Y-108603885D01*
X183058020Y-100372419D02*
X182600877Y-100372419D01*
X182829449Y-101372419D02*
X182829449Y-100372419D01*
X181953258Y-101372419D02*
X182334210Y-101372419D01*
X182334210Y-101372419D02*
X182334210Y-100372419D01*
X181343734Y-100705752D02*
X181343734Y-101372419D01*
X181534210Y-100324800D02*
X181724687Y-101039085D01*
X181724687Y-101039085D02*
X181229448Y-101039085D01*
X181000877Y-100372419D02*
X180505639Y-100372419D01*
X180505639Y-100372419D02*
X180772305Y-100753371D01*
X180772305Y-100753371D02*
X180658020Y-100753371D01*
X180658020Y-100753371D02*
X180581829Y-100800990D01*
X180581829Y-100800990D02*
X180543734Y-100848609D01*
X180543734Y-100848609D02*
X180505639Y-100943847D01*
X180505639Y-100943847D02*
X180505639Y-101181942D01*
X180505639Y-101181942D02*
X180543734Y-101277180D01*
X180543734Y-101277180D02*
X180581829Y-101324800D01*
X180581829Y-101324800D02*
X180658020Y-101372419D01*
X180658020Y-101372419D02*
X180886591Y-101372419D01*
X180886591Y-101372419D02*
X180962782Y-101324800D01*
X180962782Y-101324800D02*
X181000877Y-101277180D01*
X179743734Y-101372419D02*
X180200877Y-101372419D01*
X179972305Y-101372419D02*
X179972305Y-100372419D01*
X179972305Y-100372419D02*
X180048496Y-100515276D01*
X180048496Y-100515276D02*
X180124686Y-100610514D01*
X180124686Y-100610514D02*
X180200877Y-100658133D01*
X170919925Y-101072419D02*
X170424687Y-101072419D01*
X170424687Y-101072419D02*
X170691353Y-101453371D01*
X170691353Y-101453371D02*
X170577068Y-101453371D01*
X170577068Y-101453371D02*
X170500877Y-101500990D01*
X170500877Y-101500990D02*
X170462782Y-101548609D01*
X170462782Y-101548609D02*
X170424687Y-101643847D01*
X170424687Y-101643847D02*
X170424687Y-101881942D01*
X170424687Y-101881942D02*
X170462782Y-101977180D01*
X170462782Y-101977180D02*
X170500877Y-102024800D01*
X170500877Y-102024800D02*
X170577068Y-102072419D01*
X170577068Y-102072419D02*
X170805639Y-102072419D01*
X170805639Y-102072419D02*
X170881830Y-102024800D01*
X170881830Y-102024800D02*
X170919925Y-101977180D01*
X170043734Y-102072419D02*
X169891353Y-102072419D01*
X169891353Y-102072419D02*
X169815163Y-102024800D01*
X169815163Y-102024800D02*
X169777067Y-101977180D01*
X169777067Y-101977180D02*
X169700877Y-101834323D01*
X169700877Y-101834323D02*
X169662782Y-101643847D01*
X169662782Y-101643847D02*
X169662782Y-101262895D01*
X169662782Y-101262895D02*
X169700877Y-101167657D01*
X169700877Y-101167657D02*
X169738972Y-101120038D01*
X169738972Y-101120038D02*
X169815163Y-101072419D01*
X169815163Y-101072419D02*
X169967544Y-101072419D01*
X169967544Y-101072419D02*
X170043734Y-101120038D01*
X170043734Y-101120038D02*
X170081829Y-101167657D01*
X170081829Y-101167657D02*
X170119925Y-101262895D01*
X170119925Y-101262895D02*
X170119925Y-101500990D01*
X170119925Y-101500990D02*
X170081829Y-101596228D01*
X170081829Y-101596228D02*
X170043734Y-101643847D01*
X170043734Y-101643847D02*
X169967544Y-101691466D01*
X169967544Y-101691466D02*
X169815163Y-101691466D01*
X169815163Y-101691466D02*
X169738972Y-101643847D01*
X169738972Y-101643847D02*
X169700877Y-101596228D01*
X169700877Y-101596228D02*
X169662782Y-101500990D01*
X169167543Y-101072419D02*
X169091353Y-101072419D01*
X169091353Y-101072419D02*
X169015162Y-101120038D01*
X169015162Y-101120038D02*
X168977067Y-101167657D01*
X168977067Y-101167657D02*
X168938972Y-101262895D01*
X168938972Y-101262895D02*
X168900877Y-101453371D01*
X168900877Y-101453371D02*
X168900877Y-101691466D01*
X168900877Y-101691466D02*
X168938972Y-101881942D01*
X168938972Y-101881942D02*
X168977067Y-101977180D01*
X168977067Y-101977180D02*
X169015162Y-102024800D01*
X169015162Y-102024800D02*
X169091353Y-102072419D01*
X169091353Y-102072419D02*
X169167543Y-102072419D01*
X169167543Y-102072419D02*
X169243734Y-102024800D01*
X169243734Y-102024800D02*
X169281829Y-101977180D01*
X169281829Y-101977180D02*
X169319924Y-101881942D01*
X169319924Y-101881942D02*
X169358020Y-101691466D01*
X169358020Y-101691466D02*
X169358020Y-101453371D01*
X169358020Y-101453371D02*
X169319924Y-101262895D01*
X169319924Y-101262895D02*
X169281829Y-101167657D01*
X169281829Y-101167657D02*
X169243734Y-101120038D01*
X169243734Y-101120038D02*
X169167543Y-101072419D01*
X168215162Y-101405752D02*
X168215162Y-102072419D01*
X168405638Y-101024800D02*
X168596115Y-101739085D01*
X168596115Y-101739085D02*
X168100876Y-101739085D01*
D11*
X177759580Y-106133333D02*
X177807200Y-106085714D01*
X177807200Y-106085714D02*
X177854819Y-105942857D01*
X177854819Y-105942857D02*
X177854819Y-105847619D01*
X177854819Y-105847619D02*
X177807200Y-105704762D01*
X177807200Y-105704762D02*
X177711961Y-105609524D01*
X177711961Y-105609524D02*
X177616723Y-105561905D01*
X177616723Y-105561905D02*
X177426247Y-105514286D01*
X177426247Y-105514286D02*
X177283390Y-105514286D01*
X177283390Y-105514286D02*
X177092914Y-105561905D01*
X177092914Y-105561905D02*
X176997676Y-105609524D01*
X176997676Y-105609524D02*
X176902438Y-105704762D01*
X176902438Y-105704762D02*
X176854819Y-105847619D01*
X176854819Y-105847619D02*
X176854819Y-105942857D01*
X176854819Y-105942857D02*
X176902438Y-106085714D01*
X176902438Y-106085714D02*
X176950057Y-106133333D01*
X176854819Y-106466667D02*
X176854819Y-107133333D01*
X176854819Y-107133333D02*
X177854819Y-106704762D01*
D10*
X177757419Y-96233333D02*
X177281228Y-95900000D01*
X177757419Y-95661905D02*
X176757419Y-95661905D01*
X176757419Y-95661905D02*
X176757419Y-96042857D01*
X176757419Y-96042857D02*
X176805038Y-96138095D01*
X176805038Y-96138095D02*
X176852657Y-96185714D01*
X176852657Y-96185714D02*
X176947895Y-96233333D01*
X176947895Y-96233333D02*
X177090752Y-96233333D01*
X177090752Y-96233333D02*
X177185990Y-96185714D01*
X177185990Y-96185714D02*
X177233609Y-96138095D01*
X177233609Y-96138095D02*
X177281228Y-96042857D01*
X177281228Y-96042857D02*
X177281228Y-95661905D01*
X176757419Y-97090476D02*
X176757419Y-96900000D01*
X176757419Y-96900000D02*
X176805038Y-96804762D01*
X176805038Y-96804762D02*
X176852657Y-96757143D01*
X176852657Y-96757143D02*
X176995514Y-96661905D01*
X176995514Y-96661905D02*
X177185990Y-96614286D01*
X177185990Y-96614286D02*
X177566942Y-96614286D01*
X177566942Y-96614286D02*
X177662180Y-96661905D01*
X177662180Y-96661905D02*
X177709800Y-96709524D01*
X177709800Y-96709524D02*
X177757419Y-96804762D01*
X177757419Y-96804762D02*
X177757419Y-96995238D01*
X177757419Y-96995238D02*
X177709800Y-97090476D01*
X177709800Y-97090476D02*
X177662180Y-97138095D01*
X177662180Y-97138095D02*
X177566942Y-97185714D01*
X177566942Y-97185714D02*
X177328847Y-97185714D01*
X177328847Y-97185714D02*
X177233609Y-97138095D01*
X177233609Y-97138095D02*
X177185990Y-97090476D01*
X177185990Y-97090476D02*
X177138371Y-96995238D01*
X177138371Y-96995238D02*
X177138371Y-96804762D01*
X177138371Y-96804762D02*
X177185990Y-96709524D01*
X177185990Y-96709524D02*
X177233609Y-96661905D01*
X177233609Y-96661905D02*
X177328847Y-96614286D01*
X177657419Y-102233333D02*
X177181228Y-101900000D01*
X177657419Y-101661905D02*
X176657419Y-101661905D01*
X176657419Y-101661905D02*
X176657419Y-102042857D01*
X176657419Y-102042857D02*
X176705038Y-102138095D01*
X176705038Y-102138095D02*
X176752657Y-102185714D01*
X176752657Y-102185714D02*
X176847895Y-102233333D01*
X176847895Y-102233333D02*
X176990752Y-102233333D01*
X176990752Y-102233333D02*
X177085990Y-102185714D01*
X177085990Y-102185714D02*
X177133609Y-102138095D01*
X177133609Y-102138095D02*
X177181228Y-102042857D01*
X177181228Y-102042857D02*
X177181228Y-101661905D01*
X176657419Y-103138095D02*
X176657419Y-102661905D01*
X176657419Y-102661905D02*
X177133609Y-102614286D01*
X177133609Y-102614286D02*
X177085990Y-102661905D01*
X177085990Y-102661905D02*
X177038371Y-102757143D01*
X177038371Y-102757143D02*
X177038371Y-102995238D01*
X177038371Y-102995238D02*
X177085990Y-103090476D01*
X177085990Y-103090476D02*
X177133609Y-103138095D01*
X177133609Y-103138095D02*
X177228847Y-103185714D01*
X177228847Y-103185714D02*
X177466942Y-103185714D01*
X177466942Y-103185714D02*
X177562180Y-103138095D01*
X177562180Y-103138095D02*
X177609800Y-103090476D01*
X177609800Y-103090476D02*
X177657419Y-102995238D01*
X177657419Y-102995238D02*
X177657419Y-102757143D01*
X177657419Y-102757143D02*
X177609800Y-102661905D01*
X177609800Y-102661905D02*
X177562180Y-102614286D01*
X186262180Y-114335714D02*
X186309800Y-114297618D01*
X186309800Y-114297618D02*
X186357419Y-114183333D01*
X186357419Y-114183333D02*
X186357419Y-114107142D01*
X186357419Y-114107142D02*
X186309800Y-113992856D01*
X186309800Y-113992856D02*
X186214561Y-113916666D01*
X186214561Y-113916666D02*
X186119323Y-113878571D01*
X186119323Y-113878571D02*
X185928847Y-113840475D01*
X185928847Y-113840475D02*
X185785990Y-113840475D01*
X185785990Y-113840475D02*
X185595514Y-113878571D01*
X185595514Y-113878571D02*
X185500276Y-113916666D01*
X185500276Y-113916666D02*
X185405038Y-113992856D01*
X185405038Y-113992856D02*
X185357419Y-114107142D01*
X185357419Y-114107142D02*
X185357419Y-114183333D01*
X185357419Y-114183333D02*
X185405038Y-114297618D01*
X185405038Y-114297618D02*
X185452657Y-114335714D01*
X185357419Y-114602380D02*
X185357419Y-115097618D01*
X185357419Y-115097618D02*
X185738371Y-114830952D01*
X185738371Y-114830952D02*
X185738371Y-114945237D01*
X185738371Y-114945237D02*
X185785990Y-115021428D01*
X185785990Y-115021428D02*
X185833609Y-115059523D01*
X185833609Y-115059523D02*
X185928847Y-115097618D01*
X185928847Y-115097618D02*
X186166942Y-115097618D01*
X186166942Y-115097618D02*
X186262180Y-115059523D01*
X186262180Y-115059523D02*
X186309800Y-115021428D01*
X186309800Y-115021428D02*
X186357419Y-114945237D01*
X186357419Y-114945237D02*
X186357419Y-114716666D01*
X186357419Y-114716666D02*
X186309800Y-114640475D01*
X186309800Y-114640475D02*
X186262180Y-114602380D01*
X185357419Y-115364285D02*
X185357419Y-115859523D01*
X185357419Y-115859523D02*
X185738371Y-115592857D01*
X185738371Y-115592857D02*
X185738371Y-115707142D01*
X185738371Y-115707142D02*
X185785990Y-115783333D01*
X185785990Y-115783333D02*
X185833609Y-115821428D01*
X185833609Y-115821428D02*
X185928847Y-115859523D01*
X185928847Y-115859523D02*
X186166942Y-115859523D01*
X186166942Y-115859523D02*
X186262180Y-115821428D01*
X186262180Y-115821428D02*
X186309800Y-115783333D01*
X186309800Y-115783333D02*
X186357419Y-115707142D01*
X186357419Y-115707142D02*
X186357419Y-115478571D01*
X186357419Y-115478571D02*
X186309800Y-115402380D01*
X186309800Y-115402380D02*
X186262180Y-115364285D01*
X164857419Y-110216667D02*
X164381228Y-109950000D01*
X164857419Y-109759524D02*
X163857419Y-109759524D01*
X163857419Y-109759524D02*
X163857419Y-110064286D01*
X163857419Y-110064286D02*
X163905038Y-110140476D01*
X163905038Y-110140476D02*
X163952657Y-110178571D01*
X163952657Y-110178571D02*
X164047895Y-110216667D01*
X164047895Y-110216667D02*
X164190752Y-110216667D01*
X164190752Y-110216667D02*
X164285990Y-110178571D01*
X164285990Y-110178571D02*
X164333609Y-110140476D01*
X164333609Y-110140476D02*
X164381228Y-110064286D01*
X164381228Y-110064286D02*
X164381228Y-109759524D01*
X164857419Y-110978571D02*
X164857419Y-110521428D01*
X164857419Y-110750000D02*
X163857419Y-110750000D01*
X163857419Y-110750000D02*
X164000276Y-110673809D01*
X164000276Y-110673809D02*
X164095514Y-110597619D01*
X164095514Y-110597619D02*
X164143133Y-110521428D01*
D11*
X157438095Y-105995180D02*
X157438095Y-105185657D01*
X157438095Y-105185657D02*
X157485714Y-105090419D01*
X157485714Y-105090419D02*
X157533333Y-105042800D01*
X157533333Y-105042800D02*
X157628571Y-104995180D01*
X157628571Y-104995180D02*
X157819047Y-104995180D01*
X157819047Y-104995180D02*
X157914285Y-105042800D01*
X157914285Y-105042800D02*
X157961904Y-105090419D01*
X157961904Y-105090419D02*
X158009523Y-105185657D01*
X158009523Y-105185657D02*
X158009523Y-105995180D01*
X158961904Y-105995180D02*
X158485714Y-105995180D01*
X158485714Y-105995180D02*
X158438095Y-105518990D01*
X158438095Y-105518990D02*
X158485714Y-105566609D01*
X158485714Y-105566609D02*
X158580952Y-105614228D01*
X158580952Y-105614228D02*
X158819047Y-105614228D01*
X158819047Y-105614228D02*
X158914285Y-105566609D01*
X158914285Y-105566609D02*
X158961904Y-105518990D01*
X158961904Y-105518990D02*
X159009523Y-105423752D01*
X159009523Y-105423752D02*
X159009523Y-105185657D01*
X159009523Y-105185657D02*
X158961904Y-105090419D01*
X158961904Y-105090419D02*
X158914285Y-105042800D01*
X158914285Y-105042800D02*
X158819047Y-104995180D01*
X158819047Y-104995180D02*
X158580952Y-104995180D01*
X158580952Y-104995180D02*
X158485714Y-105042800D01*
X158485714Y-105042800D02*
X158438095Y-105090419D01*
X184329580Y-126307142D02*
X184377200Y-126259523D01*
X184377200Y-126259523D02*
X184424819Y-126116666D01*
X184424819Y-126116666D02*
X184424819Y-126021428D01*
X184424819Y-126021428D02*
X184377200Y-125878571D01*
X184377200Y-125878571D02*
X184281961Y-125783333D01*
X184281961Y-125783333D02*
X184186723Y-125735714D01*
X184186723Y-125735714D02*
X183996247Y-125688095D01*
X183996247Y-125688095D02*
X183853390Y-125688095D01*
X183853390Y-125688095D02*
X183662914Y-125735714D01*
X183662914Y-125735714D02*
X183567676Y-125783333D01*
X183567676Y-125783333D02*
X183472438Y-125878571D01*
X183472438Y-125878571D02*
X183424819Y-126021428D01*
X183424819Y-126021428D02*
X183424819Y-126116666D01*
X183424819Y-126116666D02*
X183472438Y-126259523D01*
X183472438Y-126259523D02*
X183520057Y-126307142D01*
X183520057Y-126688095D02*
X183472438Y-126735714D01*
X183472438Y-126735714D02*
X183424819Y-126830952D01*
X183424819Y-126830952D02*
X183424819Y-127069047D01*
X183424819Y-127069047D02*
X183472438Y-127164285D01*
X183472438Y-127164285D02*
X183520057Y-127211904D01*
X183520057Y-127211904D02*
X183615295Y-127259523D01*
X183615295Y-127259523D02*
X183710533Y-127259523D01*
X183710533Y-127259523D02*
X183853390Y-127211904D01*
X183853390Y-127211904D02*
X184424819Y-126640476D01*
X184424819Y-126640476D02*
X184424819Y-127259523D01*
X183424819Y-128164285D02*
X183424819Y-127688095D01*
X183424819Y-127688095D02*
X183901009Y-127640476D01*
X183901009Y-127640476D02*
X183853390Y-127688095D01*
X183853390Y-127688095D02*
X183805771Y-127783333D01*
X183805771Y-127783333D02*
X183805771Y-128021428D01*
X183805771Y-128021428D02*
X183853390Y-128116666D01*
X183853390Y-128116666D02*
X183901009Y-128164285D01*
X183901009Y-128164285D02*
X183996247Y-128211904D01*
X183996247Y-128211904D02*
X184234342Y-128211904D01*
X184234342Y-128211904D02*
X184329580Y-128164285D01*
X184329580Y-128164285D02*
X184377200Y-128116666D01*
X184377200Y-128116666D02*
X184424819Y-128021428D01*
X184424819Y-128021428D02*
X184424819Y-127783333D01*
X184424819Y-127783333D02*
X184377200Y-127688095D01*
X184377200Y-127688095D02*
X184329580Y-127640476D01*
X166692857Y-108729819D02*
X167026190Y-108253628D01*
X167264285Y-108729819D02*
X167264285Y-107729819D01*
X167264285Y-107729819D02*
X166883333Y-107729819D01*
X166883333Y-107729819D02*
X166788095Y-107777438D01*
X166788095Y-107777438D02*
X166740476Y-107825057D01*
X166740476Y-107825057D02*
X166692857Y-107920295D01*
X166692857Y-107920295D02*
X166692857Y-108063152D01*
X166692857Y-108063152D02*
X166740476Y-108158390D01*
X166740476Y-108158390D02*
X166788095Y-108206009D01*
X166788095Y-108206009D02*
X166883333Y-108253628D01*
X166883333Y-108253628D02*
X167264285Y-108253628D01*
X166311904Y-107825057D02*
X166264285Y-107777438D01*
X166264285Y-107777438D02*
X166169047Y-107729819D01*
X166169047Y-107729819D02*
X165930952Y-107729819D01*
X165930952Y-107729819D02*
X165835714Y-107777438D01*
X165835714Y-107777438D02*
X165788095Y-107825057D01*
X165788095Y-107825057D02*
X165740476Y-107920295D01*
X165740476Y-107920295D02*
X165740476Y-108015533D01*
X165740476Y-108015533D02*
X165788095Y-108158390D01*
X165788095Y-108158390D02*
X166359523Y-108729819D01*
X166359523Y-108729819D02*
X165740476Y-108729819D01*
X165121428Y-107729819D02*
X165026190Y-107729819D01*
X165026190Y-107729819D02*
X164930952Y-107777438D01*
X164930952Y-107777438D02*
X164883333Y-107825057D01*
X164883333Y-107825057D02*
X164835714Y-107920295D01*
X164835714Y-107920295D02*
X164788095Y-108110771D01*
X164788095Y-108110771D02*
X164788095Y-108348866D01*
X164788095Y-108348866D02*
X164835714Y-108539342D01*
X164835714Y-108539342D02*
X164883333Y-108634580D01*
X164883333Y-108634580D02*
X164930952Y-108682200D01*
X164930952Y-108682200D02*
X165026190Y-108729819D01*
X165026190Y-108729819D02*
X165121428Y-108729819D01*
X165121428Y-108729819D02*
X165216666Y-108682200D01*
X165216666Y-108682200D02*
X165264285Y-108634580D01*
X165264285Y-108634580D02*
X165311904Y-108539342D01*
X165311904Y-108539342D02*
X165359523Y-108348866D01*
X165359523Y-108348866D02*
X165359523Y-108110771D01*
X165359523Y-108110771D02*
X165311904Y-107920295D01*
X165311904Y-107920295D02*
X165264285Y-107825057D01*
X165264285Y-107825057D02*
X165216666Y-107777438D01*
X165216666Y-107777438D02*
X165121428Y-107729819D01*
X187330357Y-106479819D02*
X187663690Y-106003628D01*
X187901785Y-106479819D02*
X187901785Y-105479819D01*
X187901785Y-105479819D02*
X187520833Y-105479819D01*
X187520833Y-105479819D02*
X187425595Y-105527438D01*
X187425595Y-105527438D02*
X187377976Y-105575057D01*
X187377976Y-105575057D02*
X187330357Y-105670295D01*
X187330357Y-105670295D02*
X187330357Y-105813152D01*
X187330357Y-105813152D02*
X187377976Y-105908390D01*
X187377976Y-105908390D02*
X187425595Y-105956009D01*
X187425595Y-105956009D02*
X187520833Y-106003628D01*
X187520833Y-106003628D02*
X187901785Y-106003628D01*
X186949404Y-105575057D02*
X186901785Y-105527438D01*
X186901785Y-105527438D02*
X186806547Y-105479819D01*
X186806547Y-105479819D02*
X186568452Y-105479819D01*
X186568452Y-105479819D02*
X186473214Y-105527438D01*
X186473214Y-105527438D02*
X186425595Y-105575057D01*
X186425595Y-105575057D02*
X186377976Y-105670295D01*
X186377976Y-105670295D02*
X186377976Y-105765533D01*
X186377976Y-105765533D02*
X186425595Y-105908390D01*
X186425595Y-105908390D02*
X186997023Y-106479819D01*
X186997023Y-106479819D02*
X186377976Y-106479819D01*
X185520833Y-105479819D02*
X185711309Y-105479819D01*
X185711309Y-105479819D02*
X185806547Y-105527438D01*
X185806547Y-105527438D02*
X185854166Y-105575057D01*
X185854166Y-105575057D02*
X185949404Y-105717914D01*
X185949404Y-105717914D02*
X185997023Y-105908390D01*
X185997023Y-105908390D02*
X185997023Y-106289342D01*
X185997023Y-106289342D02*
X185949404Y-106384580D01*
X185949404Y-106384580D02*
X185901785Y-106432200D01*
X185901785Y-106432200D02*
X185806547Y-106479819D01*
X185806547Y-106479819D02*
X185616071Y-106479819D01*
X185616071Y-106479819D02*
X185520833Y-106432200D01*
X185520833Y-106432200D02*
X185473214Y-106384580D01*
X185473214Y-106384580D02*
X185425595Y-106289342D01*
X185425595Y-106289342D02*
X185425595Y-106051247D01*
X185425595Y-106051247D02*
X185473214Y-105956009D01*
X185473214Y-105956009D02*
X185520833Y-105908390D01*
X185520833Y-105908390D02*
X185616071Y-105860771D01*
X185616071Y-105860771D02*
X185806547Y-105860771D01*
X185806547Y-105860771D02*
X185901785Y-105908390D01*
X185901785Y-105908390D02*
X185949404Y-105956009D01*
X185949404Y-105956009D02*
X185997023Y-106051247D01*
X165716666Y-107279819D02*
X166049999Y-106803628D01*
X166288094Y-107279819D02*
X166288094Y-106279819D01*
X166288094Y-106279819D02*
X165907142Y-106279819D01*
X165907142Y-106279819D02*
X165811904Y-106327438D01*
X165811904Y-106327438D02*
X165764285Y-106375057D01*
X165764285Y-106375057D02*
X165716666Y-106470295D01*
X165716666Y-106470295D02*
X165716666Y-106613152D01*
X165716666Y-106613152D02*
X165764285Y-106708390D01*
X165764285Y-106708390D02*
X165811904Y-106756009D01*
X165811904Y-106756009D02*
X165907142Y-106803628D01*
X165907142Y-106803628D02*
X166288094Y-106803628D01*
X164859523Y-106613152D02*
X164859523Y-107279819D01*
X165097618Y-106232200D02*
X165335713Y-106946485D01*
X165335713Y-106946485D02*
X164716666Y-106946485D01*
X226681009Y-114666666D02*
X226681009Y-114333333D01*
X227204819Y-114333333D02*
X226204819Y-114333333D01*
X226204819Y-114333333D02*
X226204819Y-114809523D01*
X227204819Y-115714285D02*
X227204819Y-115142857D01*
X227204819Y-115428571D02*
X226204819Y-115428571D01*
X226204819Y-115428571D02*
X226347676Y-115333333D01*
X226347676Y-115333333D02*
X226442914Y-115238095D01*
X226442914Y-115238095D02*
X226490533Y-115142857D01*
X160842857Y-111909580D02*
X160890476Y-111957200D01*
X160890476Y-111957200D02*
X161033333Y-112004819D01*
X161033333Y-112004819D02*
X161128571Y-112004819D01*
X161128571Y-112004819D02*
X161271428Y-111957200D01*
X161271428Y-111957200D02*
X161366666Y-111861961D01*
X161366666Y-111861961D02*
X161414285Y-111766723D01*
X161414285Y-111766723D02*
X161461904Y-111576247D01*
X161461904Y-111576247D02*
X161461904Y-111433390D01*
X161461904Y-111433390D02*
X161414285Y-111242914D01*
X161414285Y-111242914D02*
X161366666Y-111147676D01*
X161366666Y-111147676D02*
X161271428Y-111052438D01*
X161271428Y-111052438D02*
X161128571Y-111004819D01*
X161128571Y-111004819D02*
X161033333Y-111004819D01*
X161033333Y-111004819D02*
X160890476Y-111052438D01*
X160890476Y-111052438D02*
X160842857Y-111100057D01*
X160461904Y-111100057D02*
X160414285Y-111052438D01*
X160414285Y-111052438D02*
X160319047Y-111004819D01*
X160319047Y-111004819D02*
X160080952Y-111004819D01*
X160080952Y-111004819D02*
X159985714Y-111052438D01*
X159985714Y-111052438D02*
X159938095Y-111100057D01*
X159938095Y-111100057D02*
X159890476Y-111195295D01*
X159890476Y-111195295D02*
X159890476Y-111290533D01*
X159890476Y-111290533D02*
X159938095Y-111433390D01*
X159938095Y-111433390D02*
X160509523Y-112004819D01*
X160509523Y-112004819D02*
X159890476Y-112004819D01*
X159033333Y-111338152D02*
X159033333Y-112004819D01*
X159271428Y-110957200D02*
X159509523Y-111671485D01*
X159509523Y-111671485D02*
X158890476Y-111671485D01*
X182249404Y-98804819D02*
X182249404Y-99614342D01*
X182249404Y-99614342D02*
X182201785Y-99709580D01*
X182201785Y-99709580D02*
X182154166Y-99757200D01*
X182154166Y-99757200D02*
X182058928Y-99804819D01*
X182058928Y-99804819D02*
X181868452Y-99804819D01*
X181868452Y-99804819D02*
X181773214Y-99757200D01*
X181773214Y-99757200D02*
X181725595Y-99709580D01*
X181725595Y-99709580D02*
X181677976Y-99614342D01*
X181677976Y-99614342D02*
X181677976Y-98804819D01*
X180773214Y-99138152D02*
X180773214Y-99804819D01*
X181011309Y-98757200D02*
X181249404Y-99471485D01*
X181249404Y-99471485D02*
X180630357Y-99471485D01*
X187330357Y-104504819D02*
X187663690Y-104028628D01*
X187901785Y-104504819D02*
X187901785Y-103504819D01*
X187901785Y-103504819D02*
X187520833Y-103504819D01*
X187520833Y-103504819D02*
X187425595Y-103552438D01*
X187425595Y-103552438D02*
X187377976Y-103600057D01*
X187377976Y-103600057D02*
X187330357Y-103695295D01*
X187330357Y-103695295D02*
X187330357Y-103838152D01*
X187330357Y-103838152D02*
X187377976Y-103933390D01*
X187377976Y-103933390D02*
X187425595Y-103981009D01*
X187425595Y-103981009D02*
X187520833Y-104028628D01*
X187520833Y-104028628D02*
X187901785Y-104028628D01*
X186949404Y-103600057D02*
X186901785Y-103552438D01*
X186901785Y-103552438D02*
X186806547Y-103504819D01*
X186806547Y-103504819D02*
X186568452Y-103504819D01*
X186568452Y-103504819D02*
X186473214Y-103552438D01*
X186473214Y-103552438D02*
X186425595Y-103600057D01*
X186425595Y-103600057D02*
X186377976Y-103695295D01*
X186377976Y-103695295D02*
X186377976Y-103790533D01*
X186377976Y-103790533D02*
X186425595Y-103933390D01*
X186425595Y-103933390D02*
X186997023Y-104504819D01*
X186997023Y-104504819D02*
X186377976Y-104504819D01*
X185473214Y-103504819D02*
X185949404Y-103504819D01*
X185949404Y-103504819D02*
X185997023Y-103981009D01*
X185997023Y-103981009D02*
X185949404Y-103933390D01*
X185949404Y-103933390D02*
X185854166Y-103885771D01*
X185854166Y-103885771D02*
X185616071Y-103885771D01*
X185616071Y-103885771D02*
X185520833Y-103933390D01*
X185520833Y-103933390D02*
X185473214Y-103981009D01*
X185473214Y-103981009D02*
X185425595Y-104076247D01*
X185425595Y-104076247D02*
X185425595Y-104314342D01*
X185425595Y-104314342D02*
X185473214Y-104409580D01*
X185473214Y-104409580D02*
X185520833Y-104457200D01*
X185520833Y-104457200D02*
X185616071Y-104504819D01*
X185616071Y-104504819D02*
X185854166Y-104504819D01*
X185854166Y-104504819D02*
X185949404Y-104457200D01*
X185949404Y-104457200D02*
X185997023Y-104409580D01*
X170457738Y-100800057D02*
X170552976Y-100752438D01*
X170552976Y-100752438D02*
X170648214Y-100657200D01*
X170648214Y-100657200D02*
X170791071Y-100514342D01*
X170791071Y-100514342D02*
X170886309Y-100466723D01*
X170886309Y-100466723D02*
X170981547Y-100466723D01*
X170933928Y-100704819D02*
X171029166Y-100657200D01*
X171029166Y-100657200D02*
X171124404Y-100561961D01*
X171124404Y-100561961D02*
X171172023Y-100371485D01*
X171172023Y-100371485D02*
X171172023Y-100038152D01*
X171172023Y-100038152D02*
X171124404Y-99847676D01*
X171124404Y-99847676D02*
X171029166Y-99752438D01*
X171029166Y-99752438D02*
X170933928Y-99704819D01*
X170933928Y-99704819D02*
X170743452Y-99704819D01*
X170743452Y-99704819D02*
X170648214Y-99752438D01*
X170648214Y-99752438D02*
X170552976Y-99847676D01*
X170552976Y-99847676D02*
X170505357Y-100038152D01*
X170505357Y-100038152D02*
X170505357Y-100371485D01*
X170505357Y-100371485D02*
X170552976Y-100561961D01*
X170552976Y-100561961D02*
X170648214Y-100657200D01*
X170648214Y-100657200D02*
X170743452Y-100704819D01*
X170743452Y-100704819D02*
X170933928Y-100704819D01*
X169552976Y-100704819D02*
X170124404Y-100704819D01*
X169838690Y-100704819D02*
X169838690Y-99704819D01*
X169838690Y-99704819D02*
X169933928Y-99847676D01*
X169933928Y-99847676D02*
X170029166Y-99942914D01*
X170029166Y-99942914D02*
X170124404Y-99990533D01*
D12*
%TO.C,C7*%
X174690000Y-105538748D02*
X174690000Y-106961252D01*
X176510000Y-105538748D02*
X176510000Y-106961252D01*
%TO.C,R6*%
X174765000Y-97314564D02*
X174765000Y-96860436D01*
X176235000Y-97314564D02*
X176235000Y-96860436D01*
%TO.C,R5*%
X174765000Y-101939564D02*
X174765000Y-101485436D01*
X176235000Y-101939564D02*
X176235000Y-101485436D01*
%TO.C,C33*%
X184915000Y-111361252D02*
X184915000Y-110838748D01*
X186385000Y-111361252D02*
X186385000Y-110838748D01*
%TO.C,R1*%
X163715000Y-112927064D02*
X163715000Y-112472936D01*
X165185000Y-112927064D02*
X165185000Y-112472936D01*
%TO.C,U5*%
X155640000Y-105050000D02*
X155640000Y-103100000D01*
X155640000Y-105050000D02*
X155640000Y-107000000D01*
X160760000Y-105050000D02*
X160760000Y-103100000D01*
X160760000Y-105050000D02*
X160760000Y-107000000D01*
X155735000Y-102350000D02*
X155405000Y-102590000D01*
X155405000Y-102110000D01*
X155735000Y-102350000D01*
G36*
X155735000Y-102350000D02*
G01*
X155405000Y-102590000D01*
X155405000Y-102110000D01*
X155735000Y-102350000D01*
G37*
%TO.C,C25*%
X184915000Y-126688748D02*
X184915000Y-127211252D01*
X186385000Y-126688748D02*
X186385000Y-127211252D01*
%TO.C,R20*%
X163437258Y-107602500D02*
X162962742Y-107602500D01*
X163437258Y-108647500D02*
X162962742Y-108647500D01*
%TO.C,R26*%
X183937258Y-105477500D02*
X183462742Y-105477500D01*
X183937258Y-106522500D02*
X183462742Y-106522500D01*
%TO.C,R4*%
X163437258Y-106102500D02*
X162962742Y-106102500D01*
X163437258Y-107147500D02*
X162962742Y-107147500D01*
%TO.C,F1*%
X227790000Y-115383578D02*
X227790000Y-114866422D01*
X229210000Y-115383578D02*
X229210000Y-114866422D01*
%TO.C,C24*%
X157461252Y-110565000D02*
X156938748Y-110565000D01*
X157461252Y-112035000D02*
X156938748Y-112035000D01*
%TO.C,U4*%
X178437500Y-97790000D02*
X177787500Y-97790000D01*
X178437500Y-97790000D02*
X179087500Y-97790000D01*
X178437500Y-100910000D02*
X177787500Y-100910000D01*
X178437500Y-100910000D02*
X179087500Y-100910000D01*
X177515000Y-101190000D02*
X177035000Y-101190000D01*
X177275000Y-100860000D01*
X177515000Y-101190000D01*
G36*
X177515000Y-101190000D02*
G01*
X177035000Y-101190000D01*
X177275000Y-100860000D01*
X177515000Y-101190000D01*
G37*
%TO.C,R25*%
X183937258Y-103502500D02*
X183462742Y-103502500D01*
X183937258Y-104547500D02*
X183462742Y-104547500D01*
%TO.C,Q1*%
X173500000Y-97840000D02*
X172850000Y-97840000D01*
X173500000Y-97840000D02*
X174150000Y-97840000D01*
X173500000Y-100960000D02*
X172850000Y-100960000D01*
X173500000Y-100960000D02*
X174150000Y-100960000D01*
X172577500Y-101240000D02*
X172097500Y-101240000D01*
X172337500Y-100910000D01*
X172577500Y-101240000D01*
G36*
X172577500Y-101240000D02*
G01*
X172097500Y-101240000D01*
X172337500Y-100910000D01*
X172577500Y-101240000D01*
G37*
%TD*%
M02*
