M48
; DRILL file {KiCad 8.0.5-dirty} date 2025-03-27T10:06:17-0700
; FORMAT={-:-/ absolute / inch / decimal}
; #@! TF.CreationDate,2025-03-27T10:06:17-07:00
; #@! TF.GenerationSoftware,Kicad,Pcbnew,8.0.5-dirty
; #@! TF.FileFunction,Plated,1,4,PTH
FMAT,2
INCH
; #@! TA.AperFunction,Plated,PTH,ViaDrill
T1C0.0157
; #@! TA.AperFunction,Plated,PTH,ComponentDrill
T2C0.0315
; #@! TA.AperFunction,Plated,PTH,ComponentDrill
T3C0.0394
; #@! TA.AperFunction,Plated,PTH,ComponentDrill
T4C0.0445
; #@! TA.AperFunction,Plated,PTH,ComponentDrill
T5C0.1272
%
G90
G05
T1
X3.2264Y-4.4291
X3.2264Y-4.5768
X3.2264Y-4.7244
X3.2264Y-4.872
X3.2264Y-5.0197
X3.2264Y-5.1673
X3.2264Y-5.315
X3.2264Y-5.4724
X3.2264Y-5.6102
X3.2264Y-5.748
X3.2276Y-3.9728
X3.2283Y-4.1181
X3.2283Y-4.2795
X3.2295Y-3.6618
X3.2295Y-3.8232
X3.2795Y-3.815
X3.2831Y-5.8094
X3.311Y-3.7795
X3.3465Y-3.815
X3.3819Y-3.7795
X3.3965Y-3.5976
X3.3976Y-3.4567
X3.4173Y-3.815
X3.4528Y-3.7791
X3.4882Y-3.815
X3.5197Y-3.7795
X3.5335Y-3.4567
X3.6152Y-3.8307
X3.6154Y-4.9803
X3.622Y-5.2461
X3.622Y-5.437
X3.6713Y-3.4567
X3.689Y-4.6063
X3.689Y-4.661
X3.689Y-4.7087
X3.689Y-4.7638
X3.6906Y-4.4602
X3.6906Y-4.511
X3.7008Y-4.111
X3.7598Y-3.9075
X3.7598Y-4.7795
X3.7618Y-4.563
X3.7618Y-4.7008
X3.8091Y-3.4567
X3.8898Y-3.9094
X3.9232Y-4.1118
X3.9272Y-4.063
X3.9272Y-4.1604
X3.9272Y-4.2126
X3.9272Y-4.2795
X3.9469Y-3.4567
X4.0315Y-3.811
X4.0354Y-5.8169
X4.0846Y-3.4567
X4.1339Y-5.689
X4.1575Y-4.5738
X4.2116Y-3.935
X4.2126Y-3.4567
X4.2323Y-5.8169
X4.2421Y-4.7697
X4.3004Y-4.2118
X4.3012Y-4.1043
X4.3071Y-4.7657
X4.3386Y-4.7008
X4.3406Y-3.4567
X4.3524Y-4.6378
X4.3839Y-4.3118
X4.3858Y-3.935
X4.4803Y-3.4567
X4.4803Y-4.3612
X4.4902Y-3.9035
X4.4902Y-4.0669
X4.4981Y-4.8268
X4.5069Y-4.7313
X4.5079Y-3.7608
X4.5079Y-4.6697
X4.5079Y-5.1083
X4.5423Y-3.7379
X4.5796Y-3.7201
X4.5866Y-4.9803
X4.5866Y-5.2461
X4.5866Y-5.437
X4.6102Y-3.8228
X4.6161Y-3.4567
X4.6209Y-3.7018
X4.661Y-4.6098
X4.6614Y-4.4614
X4.6614Y-4.5106
X4.6654Y-3.9102
X4.6654Y-3.9602
X4.6654Y-4.0102
X4.6654Y-4.0602
X4.6752Y-5.0413
X4.6772Y-4.1535
X4.7008Y-4.8465
X4.7047Y-5.2461
X4.7106Y-4.7352
X4.7205Y-4.1535
X4.7539Y-3.4567
X4.7598Y-4.8268
X4.7638Y-4.1535
X4.7756Y-4.6444
X4.7835Y-3.8642
X4.8071Y-4.1535
X4.815Y-4.6752
X4.8366Y-4.7598
X4.8406Y-4.4539
X4.8907Y-4.7607
X4.8917Y-3.4567
X4.8921Y-4.0941
X4.9175Y-5.8446
X4.9617Y-5.8445
X4.9803Y-4.872
X4.9922Y-4.5606
X5.0295Y-3.4567
X5.063Y-3.8366
X5.0689Y-4.3789
X5.0748Y-4.7953
X5.0768Y-4.5177
X5.0787Y-4.872
X5.1244Y-4.7795
X5.128Y-4.872
X5.128Y-5.435
X5.1378Y-4.2953
X5.157Y-3.8027
X5.1673Y-3.4567
X5.1772Y-4.2481
X5.1811Y-4.7677
X5.185Y-4.815
X5.187Y-5.0787
X5.206Y-4.2176
X5.2169Y-4.3732
X5.2325Y-4.7626
X5.2376Y-4.191
X5.2439Y-3.804
X5.2441Y-4.4094
X5.2549Y-4.2894
X5.2559Y-4.5177
X5.2641Y-4.1584
X5.2717Y-3.8346
X5.2874Y-4.9331
X5.2953Y-3.4567
X5.2953Y-5.2067
X5.3065Y-4.2878
X5.3376Y-4.7943
X5.3433Y-4.3066
X5.372Y-3.874
X5.3819Y-4.4449
X5.3828Y-4.3188
X5.4072Y-4.4803
X5.4232Y-3.4567
X5.4232Y-4.9803
X5.4232Y-5.0787
X5.4911Y-3.9173
X5.4921Y-5.0354
X5.5354Y-5.124
X5.5482Y-3.8898
X5.5531Y-3.4567
X5.5572Y-4.8059
X5.5579Y-4.8524
X5.5589Y-4.5274
X5.5608Y-4.1179
X5.5709Y-3.9409
X5.61Y-3.9251
X5.6417Y-4.9488
X5.6496Y-3.937
X5.6703Y-5.626
X5.681Y-3.9639
X5.689Y-3.4567
X5.7244Y-5.563
X5.7343Y-5.8356
X5.7692Y-3.7016
X5.8071Y-4.2126
X5.8071Y-4.4488
X5.8104Y-3.7061
X5.8268Y-3.4567
X5.8358Y-5.1585
X5.8406Y-5.8268
X5.8465Y-4.252
X5.8465Y-4.4094
X5.8526Y-3.7016
X5.8706Y-5.1195
X5.8858Y-4.2913
X5.8858Y-4.3701
X5.8858Y-4.5276
X5.8917Y-5.4449
X5.8944Y-3.7016
X5.9183Y-3.7431
X5.9252Y-4.3307
X5.9272Y-5.8268
X5.9646Y-3.4567
X5.9646Y-4.5276
X5.9646Y-4.6063
X6.0039Y-4.685
X6.0305Y-5.8268
X6.0433Y-4.5276
X6.0433Y-4.7244
X6.0758Y-3.9242
X6.0827Y-4.5669
X6.0827Y-4.6063
X6.0827Y-4.7244
X6.1024Y-3.4567
X6.122Y-4.5276
X6.122Y-4.7244
X6.1289Y-5.8268
X6.1614Y-4.685
X6.1929Y-5.2205
X6.2008Y-4.5276
X6.2008Y-4.6063
X6.2303Y-5.8258
X6.2402Y-3.4567
X6.2402Y-4.3307
X6.252Y-4.9724
X6.2659Y-5.1568
X6.2795Y-4.2913
X6.2795Y-4.3701
X6.2795Y-4.5276
X6.2993Y-5.1812
X6.3105Y-5.221
X6.315Y-3.6752
X6.3189Y-4.252
X6.3189Y-4.4094
X6.3278Y-5.8258
X6.334Y-5.2551
X6.3415Y-3.9252
X6.3583Y-4.2126
X6.3583Y-4.4488
X6.3681Y-3.4567
X6.3736Y-5.2669
X6.3963Y-5.3014
X6.4272Y-5.3346
X6.4311Y-5.8258
X6.4485Y-4.8904
X6.4687Y-4.8543
X6.4961Y-3.4567
X6.4987Y-4.8165
X6.5039Y-3.6752
X6.5102Y-4.4793
X6.5187Y-5.4173
X6.5297Y-4.8524
X6.5305Y-5.8258
X6.5413Y-3.9272
X6.5589Y-5.3756
X6.5689Y-3.6181
X6.5768Y-4.75
X6.5866Y-4.3425
X6.5866Y-4.5512
X6.5994Y-5.0719
X6.6024Y-5.5669
X6.6043Y-3.7833
X6.6102Y-4.5866
X6.6192Y-4.3915
X6.6238Y-4.1931
X6.624Y-3.4567
X6.6329Y-5.8268
X6.6353Y-5.6156
X6.6545Y-4.9734
X6.6732Y-3.8681
X6.7126Y-4.9902
X6.7244Y-5.6339
X6.7264Y-5.718
X6.7283Y-5.8268
X6.7323Y-5.1299
X6.7323Y-5.3976
X6.752Y-3.4567
X6.752Y-5.0492
X6.7618Y-4.1433
X6.7736Y-4.752
X6.7809Y-4.471
X6.7894Y-4.2634
X6.7923Y-4.9577
X6.7961Y-4.3844
X6.8012Y-3.7894
X6.8222Y-4.4701
X6.8257Y-4.2831
X6.8268Y-5.8386
X6.8484Y-3.8465
X6.8504Y-3.7008
X6.8504Y-4.1043
X6.8819Y-3.4567
X6.8839Y-5.0
X6.8839Y-5.1299
X6.8839Y-5.3976
X6.8858Y-5.5217
X6.9272Y-5.8445
X6.9488Y-3.8504
X6.9488Y-3.9606
X6.9488Y-4.064
X6.9508Y-3.9035
X6.9508Y-4.0128
X6.9587Y-5.0
X6.9685Y-3.7913
X6.9882Y-4.2766
X6.9892Y-5.1083
X6.9892Y-5.4311
X6.9921Y-4.3268
X7.003Y-4.5685
X7.0177Y-3.4567
X7.0246Y-4.9606
X7.0315Y-5.6181
X7.0394Y-4.7932
X7.0463Y-4.252
X7.0472Y-4.1693
X7.0551Y-4.6122
X7.0615Y-4.4183
X7.0669Y-4.1043
X7.089Y-4.2846
X7.0945Y-5.0059
X7.1142Y-5.7608
X7.126Y-3.7913
X7.126Y-3.8976
X7.126Y-4.0157
X7.126Y-4.1181
X7.128Y-5.5197
X7.1555Y-3.4567
X7.1644Y-5.439
X7.1674Y-4.9212
X7.1693Y-4.3829
X7.1752Y-5.0591
X7.1756Y-4.2846
X7.1791Y-5.3898
X7.1799Y-5.7608
X7.2618Y-5.5551
X7.2622Y-4.2846
X7.2678Y-5.0216
X7.2693Y-4.7866
X7.2835Y-3.7913
X7.2835Y-3.8976
X7.2835Y-4.0157
X7.2835Y-4.1181
X7.2933Y-3.4567
X7.313Y-4.7854
X7.3307Y-5.7559
X7.3514Y-5.1053
X7.3602Y-4.3125
X7.3642Y-5.3917
X7.378Y-5.6024
X7.4094Y-5.8337
X7.4114Y-4.5768
X7.4213Y-4.9114
X7.4311Y-3.4567
X7.4409Y-3.7913
X7.4409Y-3.8976
X7.4409Y-4.0157
X7.4409Y-4.1181
X7.4665Y-5.5118
X7.4675Y-5.5974
X7.4823Y-4.7815
X7.5138Y-5.3524
X7.5236Y-4.2913
X7.5669Y-5.5118
X7.5669Y-5.5974
X7.5689Y-3.4567
X7.5748Y-5.7756
X7.5866Y-5.3268
X7.5901Y-4.5783
X7.5945Y-3.7913
X7.5945Y-3.8976
X7.5945Y-4.0157
X7.5945Y-4.1181
X7.5945Y-4.2087
X7.6378Y-4.3346
X7.6382Y-5.3219
X7.6411Y-5.8234
X7.6575Y-5.1083
X7.6604Y-5.5974
X7.6614Y-5.5118
X7.6969Y-3.4567
X7.7323Y-5.8228
X7.7372Y-5.2746
X7.752Y-3.7913
X7.752Y-3.8976
X7.752Y-4.0157
X7.752Y-4.1181
X7.752Y-4.2087
X7.752Y-4.2972
X7.7638Y-5.5118
X7.7638Y-5.5965
X7.7638Y-5.6732
X7.7717Y-4.748
X7.815Y-4.9114
X7.8248Y-3.4567
X7.8425Y-5.8228
X7.8543Y-5.1083
X7.8661Y-5.6732
X7.8897Y-4.5679
X7.9094Y-3.7913
X7.9094Y-3.8976
X7.9094Y-4.0157
X7.9094Y-4.1181
X7.9094Y-4.2087
X7.9094Y-4.2972
X7.9236Y-4.5443
X7.9567Y-5.5945
X7.961Y-4.5268
X7.9626Y-3.4567
X7.9626Y-5.2067
X7.9646Y-5.6732
X7.9646Y-5.8228
X7.9756Y-5.0264
X7.9944Y-4.5024
X8.0374Y-4.2087
X8.0374Y-4.2972
X8.0591Y-4.748
X8.0669Y-3.7913
X8.0669Y-3.8976
X8.0669Y-4.0157
X8.0669Y-4.1654
X8.0669Y-5.6732
X8.0669Y-5.7795
X8.0693Y-4.9575
X8.0965Y-4.1181
X8.1004Y-3.4567
X8.1024Y-5.3307
X8.1575Y-4.748
X8.1614Y-5.5945
X8.1614Y-5.6732
X8.1614Y-5.7795
X8.1802Y-5.3274
X8.2224Y-5.3283
X8.2244Y-4.2087
X8.2283Y-3.4567
X8.251Y-3.8504
X8.251Y-3.9606
X8.251Y-4.064
X8.2598Y-4.748
X8.2598Y-5.748
X8.2649Y-5.3291
X8.2717Y-4.9567
X8.2961Y-5.1528
X8.2972Y-4.2736
X8.3051Y-4.3406
X8.3061Y-5.0886
X8.3062Y-5.3279
X8.3264Y-5.1246
X8.3504Y-3.9134
X8.3583Y-4.7441
X8.3661Y-3.4567
X8.3661Y-4.5951
X8.3701Y-4.4075
X8.3799Y-5.8071
X8.4016Y-5.6063
X8.4134Y-5.5276
X8.435Y-4.3406
X8.4361Y-5.2413
X8.437Y-3.9685
X8.437Y-4.4744
X8.4646Y-5.378
X8.4705Y-5.7126
X8.5Y-4.7441
X8.5Y-5.0
X8.5039Y-3.4567
X8.5354Y-3.9685
X8.5602Y-5.0829
X8.563Y-3.9173
X8.5642Y-5.206
X8.5748Y-4.3819
X8.5886Y-5.7126
X8.6055Y-5.2059
X8.6154Y-5.5287
X8.6299Y-3.9685
X8.6417Y-3.4567
X8.6468Y-5.2068
X8.6496Y-4.3386
X8.6614Y-3.8494
X8.6644Y-4.2195
X8.6713Y-4.0339
X8.7067Y-5.7126
X8.7153Y-5.0367
X8.7314Y-5.2364
X8.7402Y-5.4528
X8.7677Y-4.9016
X8.7697Y-3.4567
X8.7795Y-4.0551
X8.7894Y-3.9075
X8.815Y-5.7126
X8.8287Y-5.4528
X8.83Y-5.2108
X8.8305Y-5.1081
X8.8307Y-4.9724
X8.8312Y-5.1606
X8.9075Y-3.4567
X8.9173Y-5.2323
X8.9232Y-5.7126
X8.9354Y-5.3421
X9.0315Y-5.7126
X9.0453Y-3.4567
X9.124Y-3.5433
X9.1978Y-3.622
X9.1978Y-4.4094
X9.1978Y-4.5827
X9.1978Y-4.7598
X9.1978Y-4.9272
X9.1978Y-5.1043
X9.1978Y-5.2717
X9.1978Y-5.4488
X9.1988Y-3.7402
X9.1988Y-3.8583
X9.1988Y-4.0463
T2
X7.3661Y-4.8524
X7.3661Y-5.4524
X7.4661Y-4.8524
X7.4661Y-5.4524
X7.5661Y-4.8524
X7.5661Y-5.4524
X7.6661Y-4.8524
X7.6661Y-5.4524
X7.7661Y-4.8524
X7.7661Y-5.4524
X7.8661Y-4.8524
X7.8661Y-5.4524
X7.9661Y-4.8524
X7.9661Y-5.4524
X8.0661Y-4.8524
X8.0661Y-5.4524
X8.1661Y-4.8524
X8.1661Y-5.4524
X8.2661Y-4.8524
X8.2661Y-5.4524
X8.3661Y-4.8524
X8.3661Y-5.4524
X8.4661Y-4.8524
X8.4661Y-5.4524
X8.5661Y-4.8524
X8.5661Y-5.4524
X8.6661Y-4.8524
X8.6661Y-5.4524
T3
X7.5614Y-5.689
X7.6614Y-5.689
T4
X8.8976Y-4.0606
X8.8976Y-4.1508
X8.8976Y-4.2409
X8.8976Y-4.3311
X8.8976Y-4.4213
X8.9961Y-4.0156
X8.9961Y-4.1057
X8.9961Y-4.1959
X8.9961Y-4.286
X8.9961Y-4.3762
X9.0945Y-4.0606
X9.0945Y-4.1508
X9.0945Y-4.2409
X9.0945Y-4.3311
X9.0945Y-4.4213
T5
X8.9961Y-3.7402
X8.9961Y-4.724
M30
