%TF.GenerationSoftware,KiCad,Pcbnew,9.0.7+1*%
%TF.CreationDate,2026-03-20T14:12:52-07:00*%
%TF.ProjectId,nightshade,6e696768-7473-4686-9164-652e6b696361,rev?*%
%TF.SameCoordinates,Original*%
%TF.FileFunction,Legend,Bot*%
%TF.FilePolarity,Positive*%
%FSLAX46Y46*%
G04 Gerber Fmt 4.6, Leading zero omitted, Abs format (unit mm)*
G04 Created by KiCad (PCBNEW 9.0.7+1) date 2026-03-20 14:12:52*
%MOMM*%
%LPD*%
G01*
G04 APERTURE LIST*
%ADD10C,0.150000*%
%ADD11C,0.100000*%
%ADD12C,0.120000*%
%ADD13C,0.000000*%
G04 APERTURE END LIST*
D10*
G36*
X125966405Y-121106623D02*
G01*
X126131463Y-120064484D01*
X123750466Y-119687372D01*
X123415477Y-121802407D01*
X123837343Y-122171185D01*
X124203582Y-122439883D01*
X124521551Y-122625484D01*
X124859607Y-122770673D01*
X125260745Y-122892937D01*
X125734139Y-122988786D01*
X126186082Y-123038392D01*
X126579603Y-123038937D01*
X126922590Y-122996790D01*
X127222188Y-122916597D01*
X127510607Y-122790278D01*
X127772635Y-122623564D01*
X128011135Y-122414423D01*
X128227770Y-122159048D01*
X128459405Y-121779453D01*
X128634155Y-121344488D01*
X128749919Y-120845192D01*
X128791551Y-120437066D01*
X128784711Y-120060386D01*
X128732791Y-119710753D01*
X128637593Y-119384171D01*
X128495455Y-119073873D01*
X128310126Y-118794836D01*
X128079446Y-118543764D01*
X127799252Y-118318808D01*
X127473656Y-118138913D01*
X127042076Y-117985040D01*
X126480222Y-117864462D01*
X125924324Y-117797379D01*
X125517074Y-117787325D01*
X125226675Y-117818310D01*
X124948292Y-117896005D01*
X124699267Y-118013783D01*
X124475428Y-118172261D01*
X124280357Y-118366805D01*
X124101828Y-118610388D01*
X123940301Y-118910354D01*
X125390886Y-119414284D01*
X125497166Y-119246972D01*
X125622078Y-119120738D01*
X125767045Y-119029981D01*
X125929562Y-118974566D01*
X126118253Y-118953100D01*
X126339766Y-118969846D01*
X126579225Y-119031205D01*
X126778184Y-119129827D01*
X126943543Y-119265192D01*
X127079398Y-119440613D01*
X127170433Y-119636971D01*
X127226158Y-119883782D01*
X127240101Y-120193605D01*
X127201987Y-120581169D01*
X127113419Y-120988086D01*
X127000680Y-121291922D01*
X126869637Y-121513481D01*
X126722943Y-121669710D01*
X126539348Y-121790093D01*
X126334201Y-121865281D01*
X126101723Y-121895643D01*
X125834490Y-121877049D01*
X125586823Y-121818740D01*
X125359751Y-121726436D01*
X125139148Y-121595784D01*
X124872958Y-121394320D01*
X124944168Y-120944717D01*
X125966405Y-121106623D01*
G37*
G36*
X123137132Y-117414100D02*
G01*
X121586287Y-117168470D01*
X120800730Y-122128279D01*
X122351575Y-122373908D01*
X123137132Y-117414100D01*
G37*
G36*
X121004004Y-117076246D02*
G01*
X119383804Y-116819631D01*
X117718229Y-120177045D01*
X117188558Y-116471939D01*
X115615700Y-116222822D01*
X116672583Y-121474444D01*
X118342236Y-121738891D01*
X121004004Y-117076246D01*
G37*
G36*
X115139260Y-116147362D02*
G01*
X111024380Y-115495629D01*
X110853208Y-116576365D01*
X113417243Y-116982468D01*
X113294978Y-117754423D01*
X110916694Y-117377740D01*
X110754692Y-118400580D01*
X113132976Y-118777263D01*
X112983200Y-119722907D01*
X110344985Y-119305055D01*
X110164643Y-120443688D01*
X114353703Y-121107170D01*
X115139260Y-116147362D01*
G37*
G36*
X107862683Y-114994865D02*
G01*
X105834794Y-114673679D01*
X104595258Y-117527027D01*
X104301439Y-114430820D01*
X102280486Y-114110732D01*
X101494930Y-119070540D01*
X102762322Y-119271276D01*
X103351583Y-115488376D01*
X103713395Y-119421911D01*
X104858662Y-119603303D01*
X106414675Y-115973522D01*
X105806115Y-119753365D01*
X107077127Y-119954673D01*
X107862683Y-114994865D01*
G37*
G36*
X101326097Y-113959572D02*
G01*
X97211217Y-113307839D01*
X97040045Y-114388575D01*
X99604081Y-114794678D01*
X99481815Y-115566633D01*
X97103531Y-115189950D01*
X96941529Y-116212790D01*
X99319813Y-116589473D01*
X99170038Y-117535117D01*
X96531823Y-117117265D01*
X96351481Y-118255898D01*
X100540541Y-118919380D01*
X101326097Y-113959572D01*
G37*
G36*
X94380013Y-112859420D02*
G01*
X89715417Y-112120621D01*
X89519793Y-113355748D01*
X91078477Y-113602619D01*
X90488546Y-117327300D01*
X92036074Y-117572405D01*
X92626005Y-113847724D01*
X94184388Y-114094547D01*
X94380013Y-112859420D01*
G37*
G36*
X89036942Y-112013161D02*
G01*
X87489716Y-111768104D01*
X87217675Y-113485703D01*
X85567019Y-113224265D01*
X85839059Y-111506666D01*
X84284596Y-111260463D01*
X83499040Y-116220271D01*
X85053503Y-116466474D01*
X85371394Y-114459392D01*
X87022050Y-114720830D01*
X86704159Y-116727912D01*
X88251385Y-116972969D01*
X89036942Y-112013161D01*
G37*
G36*
X83291308Y-111103142D02*
G01*
X79176428Y-110451409D01*
X79005256Y-111532145D01*
X81569291Y-111938248D01*
X81447026Y-112710203D01*
X79068742Y-112333520D01*
X78906740Y-113356360D01*
X81285024Y-113733043D01*
X81135248Y-114678687D01*
X78497033Y-114260835D01*
X78316691Y-115399468D01*
X82505751Y-116062950D01*
X83291308Y-111103142D01*
G37*
G36*
X135607899Y-127893983D02*
G01*
X130943303Y-127155183D01*
X130747678Y-128390311D01*
X132306363Y-128637182D01*
X131716432Y-132361863D01*
X133263960Y-132606967D01*
X133853891Y-128882286D01*
X135412274Y-129129110D01*
X135607899Y-127893983D01*
G37*
G36*
X130783485Y-127129871D02*
G01*
X129313152Y-126896993D01*
X128365542Y-129532907D01*
X128042744Y-126695780D01*
X126581157Y-126464287D01*
X125394583Y-129057408D01*
X125307432Y-126262549D01*
X123843733Y-126030722D01*
X124151880Y-131163756D01*
X125665031Y-131403415D01*
X127013225Y-128455379D01*
X127381123Y-131675218D01*
X128893973Y-131914830D01*
X130783485Y-127129871D01*
G37*
G36*
X121061846Y-125510982D02*
G01*
X121545921Y-125618815D01*
X121956626Y-125772422D01*
X122304224Y-125968148D01*
X122596975Y-126205026D01*
X122840773Y-126484832D01*
X123032471Y-126802319D01*
X123168021Y-127153413D01*
X123247298Y-127544337D01*
X123266786Y-127982750D01*
X123219748Y-128477407D01*
X123126926Y-128909939D01*
X122999091Y-129280526D01*
X122839361Y-129597204D01*
X122649169Y-129866742D01*
X122417051Y-130111652D01*
X122169780Y-130307834D01*
X121905822Y-130459479D01*
X121622663Y-130569047D01*
X121223651Y-130651202D01*
X120751409Y-130670416D01*
X120191226Y-130615582D01*
X119778111Y-130528143D01*
X119423371Y-130409399D01*
X119119625Y-130262276D01*
X118860565Y-130088298D01*
X118625147Y-129875479D01*
X118429866Y-129639634D01*
X118272005Y-129378862D01*
X118150358Y-129090214D01*
X118072742Y-128792363D01*
X118032349Y-128452999D01*
X118032883Y-128283394D01*
X119586555Y-128283394D01*
X119594144Y-128609957D01*
X119641747Y-128852560D01*
X119719919Y-129030317D01*
X119842526Y-129188845D01*
X119997102Y-129313375D01*
X120188627Y-129406121D01*
X120424983Y-129465626D01*
X120660455Y-129480849D01*
X120868601Y-129450824D01*
X121055702Y-129378400D01*
X121226583Y-129262149D01*
X121362561Y-129113812D01*
X121484047Y-128905149D01*
X121588540Y-128620787D01*
X121670692Y-128241952D01*
X121710004Y-127852599D01*
X121698347Y-127547812D01*
X121646843Y-127310956D01*
X121562771Y-127127830D01*
X121435502Y-126963281D01*
X121281869Y-126836872D01*
X121098310Y-126745281D01*
X120878708Y-126688738D01*
X120641050Y-126672916D01*
X120431174Y-126701891D01*
X120242847Y-126772664D01*
X120071238Y-126886340D01*
X119932747Y-127032332D01*
X119811665Y-127232634D01*
X119709998Y-127500065D01*
X119632600Y-127850527D01*
X119586555Y-128283394D01*
X118032883Y-128283394D01*
X118033569Y-128065435D01*
X118082397Y-127622310D01*
X118189130Y-127144187D01*
X118341296Y-126739379D01*
X118535227Y-126397540D01*
X118769980Y-126110365D01*
X119047393Y-125871965D01*
X119360929Y-125686451D01*
X119711642Y-125555076D01*
X120106318Y-125478690D01*
X120553241Y-125461523D01*
X121061846Y-125510982D01*
G37*
G36*
X115438173Y-124699412D02*
G01*
X113410285Y-124378226D01*
X112170748Y-127231574D01*
X111876929Y-124135366D01*
X109855976Y-123815279D01*
X109070420Y-128775087D01*
X110337813Y-128975822D01*
X110927074Y-125192923D01*
X111288885Y-129126457D01*
X112434152Y-129307850D01*
X113990165Y-125678069D01*
X113381605Y-129457912D01*
X114652617Y-129659220D01*
X115438173Y-124699412D01*
G37*
G36*
X108901587Y-123664118D02*
G01*
X104786707Y-123012386D01*
X104615536Y-124093122D01*
X107179571Y-124499225D01*
X107057305Y-125271180D01*
X104679022Y-124894497D01*
X104517020Y-125917337D01*
X106895303Y-126294020D01*
X106745528Y-127239664D01*
X104107313Y-126821812D01*
X103926971Y-127960445D01*
X108116031Y-128623927D01*
X108901587Y-123664118D01*
G37*
G36*
X100921988Y-125644684D02*
G01*
X101087047Y-124602546D01*
X98706049Y-124225433D01*
X98371061Y-126340468D01*
X98792926Y-126709246D01*
X99159166Y-126977945D01*
X99477135Y-127163546D01*
X99815191Y-127308734D01*
X100216329Y-127430998D01*
X100689723Y-127526847D01*
X101141666Y-127576453D01*
X101535187Y-127576998D01*
X101878174Y-127534851D01*
X102177771Y-127454658D01*
X102466191Y-127328339D01*
X102728218Y-127161625D01*
X102966719Y-126952485D01*
X103183353Y-126697109D01*
X103414988Y-126317514D01*
X103589738Y-125882550D01*
X103705502Y-125383254D01*
X103747135Y-124975127D01*
X103740295Y-124598447D01*
X103688374Y-124248814D01*
X103593176Y-123922232D01*
X103451038Y-123611935D01*
X103265710Y-123332898D01*
X103035029Y-123081825D01*
X102754835Y-122856869D01*
X102429240Y-122676975D01*
X101997660Y-122523101D01*
X101435805Y-122402523D01*
X100879907Y-122335440D01*
X100472658Y-122325386D01*
X100182258Y-122356371D01*
X99903875Y-122434066D01*
X99654851Y-122551844D01*
X99431011Y-122710323D01*
X99235940Y-122904866D01*
X99057411Y-123148450D01*
X98895884Y-123448415D01*
X100346469Y-123952345D01*
X100452749Y-123785033D01*
X100577662Y-123658799D01*
X100722628Y-123568042D01*
X100885146Y-123512628D01*
X101073836Y-123491161D01*
X101295350Y-123507907D01*
X101534808Y-123569266D01*
X101733767Y-123667888D01*
X101899126Y-123803254D01*
X102034981Y-123978674D01*
X102126017Y-124175032D01*
X102181741Y-124421843D01*
X102195684Y-124731666D01*
X102157571Y-125119230D01*
X102069003Y-125526147D01*
X101956263Y-125829983D01*
X101825220Y-126051543D01*
X101678527Y-126207771D01*
X101494931Y-126328154D01*
X101289785Y-126403342D01*
X101057307Y-126433704D01*
X100790073Y-126415111D01*
X100542407Y-126356801D01*
X100315335Y-126264497D01*
X100094732Y-126133845D01*
X99828541Y-125932381D01*
X99899751Y-125482778D01*
X100921988Y-125644684D01*
G37*
G36*
X96790946Y-121745981D02*
G01*
X97871650Y-127001376D01*
X96288540Y-126750636D01*
X96177191Y-125902115D01*
X94451149Y-125628737D01*
X94079725Y-126400794D01*
X92459525Y-126144180D01*
X93337644Y-124599676D01*
X94948592Y-124599676D01*
X96012141Y-124768126D01*
X95757648Y-122943949D01*
X94948592Y-124599676D01*
X93337644Y-124599676D01*
X95111342Y-121479958D01*
X96790946Y-121745981D01*
G37*
G36*
X89905172Y-120655382D02*
G01*
X92775576Y-121110009D01*
X91990020Y-126069818D01*
X89342155Y-125650437D01*
X88666839Y-125474237D01*
X88315923Y-125344315D01*
X88108934Y-125218336D01*
X87936114Y-125052468D01*
X87798544Y-124864128D01*
X87694074Y-124650636D01*
X87628428Y-124422112D01*
X87604696Y-124181564D01*
X87607036Y-124150726D01*
X89197130Y-124150726D01*
X89230768Y-124280267D01*
X89302313Y-124395325D01*
X89406561Y-124483310D01*
X89574643Y-124559893D01*
X89830552Y-124619944D01*
X90600094Y-124741828D01*
X90755983Y-123757585D01*
X89989758Y-123636227D01*
X89722579Y-123612744D01*
X89538326Y-123631374D01*
X89414188Y-123679219D01*
X89311570Y-123761849D01*
X89241576Y-123867161D01*
X89201953Y-124000462D01*
X89197130Y-124150726D01*
X87607036Y-124150726D01*
X87624171Y-123924904D01*
X87703044Y-123621138D01*
X87829658Y-123374150D01*
X88003093Y-123173816D01*
X88220057Y-123021525D01*
X88491157Y-122914735D01*
X88829380Y-122857406D01*
X88637498Y-122736127D01*
X88487726Y-122602279D01*
X88374348Y-122455517D01*
X88287615Y-122272670D01*
X89693246Y-122272670D01*
X89721595Y-122392279D01*
X89781810Y-122492044D01*
X89871998Y-122567746D01*
X90021526Y-122634938D01*
X90253860Y-122688908D01*
X90908815Y-122792642D01*
X91052477Y-121885596D01*
X90387571Y-121780285D01*
X90156821Y-121760561D01*
X89996752Y-121778061D01*
X89887981Y-121821710D01*
X89799353Y-121896373D01*
X89736710Y-121995736D01*
X89699451Y-122125997D01*
X89693246Y-122272670D01*
X88287615Y-122272670D01*
X88257055Y-122208244D01*
X88205022Y-121944403D01*
X88218471Y-121655891D01*
X88283464Y-121405116D01*
X88391475Y-121188272D01*
X88543393Y-120999701D01*
X88743955Y-120836212D01*
X88969040Y-120719522D01*
X89231590Y-120647563D01*
X89540196Y-120623700D01*
X89905172Y-120655382D01*
G37*
G36*
X87911961Y-120339688D02*
G01*
X86191346Y-120067170D01*
X84936109Y-121565678D01*
X84205071Y-119752575D01*
X82495011Y-119481728D01*
X83969327Y-122671557D01*
X83640547Y-124747391D01*
X85191693Y-124993068D01*
X85520473Y-122917234D01*
X87911961Y-120339688D01*
G37*
G36*
X82376805Y-119463006D02*
G01*
X77712209Y-118724206D01*
X77516584Y-119959334D01*
X79075269Y-120206205D01*
X78485337Y-123930886D01*
X80032865Y-124175990D01*
X80622797Y-120451309D01*
X82181180Y-120698133D01*
X82376805Y-119463006D01*
G37*
G36*
X77043986Y-118618370D02*
G01*
X72929106Y-117966637D01*
X72757934Y-119047374D01*
X75321969Y-119453477D01*
X75199704Y-120225431D01*
X72821420Y-119848748D01*
X72659418Y-120871588D01*
X75037702Y-121248271D01*
X74887926Y-122193916D01*
X72249711Y-121776063D01*
X72069369Y-122914697D01*
X76258429Y-123578178D01*
X77043986Y-118618370D01*
G37*
G36*
X71797318Y-121166252D02*
G01*
X70339030Y-120839767D01*
X70253940Y-121071791D01*
X70160444Y-121240560D01*
X70060482Y-121359156D01*
X69912513Y-121468805D01*
X69747639Y-121537560D01*
X69560973Y-121566840D01*
X69345944Y-121553548D01*
X69138104Y-121501278D01*
X68983999Y-121424141D01*
X68872132Y-121324876D01*
X68789951Y-121200025D01*
X68751820Y-121076769D01*
X68752811Y-120950193D01*
X68788964Y-120835357D01*
X68859703Y-120733465D01*
X68971071Y-120641651D01*
X69109335Y-120580496D01*
X69365232Y-120524062D01*
X69794506Y-120481816D01*
X70336450Y-120425953D01*
X70759166Y-120340640D01*
X71083382Y-120233150D01*
X71327409Y-120108859D01*
X71551366Y-119936222D01*
X71721011Y-119733210D01*
X71841826Y-119496012D01*
X71914606Y-119217658D01*
X71929696Y-118964508D01*
X71894472Y-118712848D01*
X71806786Y-118458101D01*
X71671499Y-118225632D01*
X71479882Y-118012456D01*
X71223384Y-117816721D01*
X70935103Y-117667573D01*
X70546405Y-117536151D01*
X70033536Y-117428892D01*
X69543508Y-117378494D01*
X69138027Y-117389079D01*
X68802937Y-117450212D01*
X68525845Y-117554846D01*
X68277465Y-117716286D01*
X68065894Y-117937511D01*
X67888690Y-118228035D01*
X67747919Y-118602231D01*
X69193879Y-118918727D01*
X69285657Y-118710016D01*
X69391545Y-118564579D01*
X69510582Y-118468749D01*
X69651891Y-118409362D01*
X69823951Y-118384155D01*
X70035740Y-118398607D01*
X70272159Y-118467446D01*
X70413379Y-118570935D01*
X70493510Y-118709769D01*
X70502982Y-118858070D01*
X70461002Y-118958604D01*
X70362695Y-119045118D01*
X70203243Y-119102106D01*
X69825620Y-119143665D01*
X69126754Y-119199275D01*
X68640650Y-119271177D01*
X68318238Y-119351582D01*
X68017466Y-119474519D01*
X67780578Y-119624104D01*
X67597309Y-119799049D01*
X67451792Y-120007066D01*
X67347051Y-120239340D01*
X67282534Y-120500329D01*
X67263034Y-120814360D01*
X67304611Y-121118859D01*
X67408357Y-121419456D01*
X67567481Y-121694687D01*
X67779866Y-121935536D01*
X68051365Y-122145081D01*
X68356930Y-122306112D01*
X68739443Y-122439945D01*
X69213576Y-122541515D01*
X69755615Y-122601183D01*
X70193038Y-122599363D01*
X70543653Y-122548228D01*
X70823233Y-122456829D01*
X71045081Y-122330531D01*
X71301554Y-122106289D01*
X71511214Y-121841156D01*
X71676633Y-121530232D01*
X71797318Y-121166252D01*
G37*
G36*
X67150905Y-117051460D02*
G01*
X65663988Y-116815956D01*
X65484601Y-117948558D01*
X65410678Y-120257641D01*
X66334912Y-120404026D01*
X66971519Y-118184062D01*
X67150905Y-117051460D01*
G37*
G36*
X66510314Y-120768117D02*
G01*
X65121399Y-120548135D01*
X64925774Y-121783262D01*
X66314689Y-122003245D01*
X66510314Y-120768117D01*
G37*
G36*
X126636309Y-109654113D02*
G01*
X125696499Y-109588395D01*
X125486324Y-112594035D01*
X126426134Y-112659753D01*
X126636309Y-109654113D01*
G37*
G36*
X125177529Y-109552105D02*
G01*
X124335847Y-109493249D01*
X124300886Y-109993214D01*
X124390091Y-110613509D01*
X124963882Y-110653633D01*
X125142555Y-110052253D01*
X125177529Y-109552105D01*
G37*
G36*
X123872744Y-110283526D02*
G01*
X123084239Y-110228388D01*
X123062810Y-110534836D01*
X122907638Y-110358859D01*
X122751624Y-110242406D01*
X122637272Y-110189028D01*
X122502302Y-110150857D01*
X122343044Y-110129549D01*
X122169843Y-110129222D01*
X122032114Y-110151682D01*
X121922877Y-110192901D01*
X121824106Y-110255753D01*
X121736224Y-110338184D01*
X121658441Y-110442509D01*
X121476382Y-110247169D01*
X121324041Y-110135418D01*
X121215867Y-110086619D01*
X121085333Y-110051056D01*
X120928303Y-110030621D01*
X120753096Y-110032862D01*
X120603670Y-110063332D01*
X120475098Y-110119565D01*
X120363624Y-110201574D01*
X120275155Y-110305143D01*
X120203632Y-110441084D01*
X120150636Y-110616794D01*
X120120001Y-110841565D01*
X120024165Y-112212084D01*
X120870049Y-112271234D01*
X120957541Y-111020041D01*
X120982767Y-110886956D01*
X121028613Y-110807226D01*
X121094194Y-110748376D01*
X121163736Y-110717250D01*
X121240303Y-110710566D01*
X121330923Y-110729033D01*
X121404931Y-110769161D01*
X121465931Y-110832114D01*
X121506046Y-110910997D01*
X121529378Y-111022594D01*
X121530438Y-111177992D01*
X121451149Y-112311868D01*
X122297034Y-112371018D01*
X122381433Y-111164048D01*
X122395633Y-111033134D01*
X122410838Y-110972008D01*
X122451793Y-110901544D01*
X122509986Y-110848747D01*
X122581399Y-110816890D01*
X122663267Y-110810070D01*
X122751046Y-110828340D01*
X122824417Y-110868833D01*
X122886575Y-110933292D01*
X122927493Y-111013620D01*
X122951420Y-111129289D01*
X122952342Y-111292663D01*
X122874114Y-112411372D01*
X123719816Y-112470509D01*
X123872744Y-110283526D01*
G37*
G36*
X118544896Y-109910966D02*
G01*
X117664840Y-109849427D01*
X117152409Y-111184939D01*
X116816945Y-109790136D01*
X115963569Y-109730462D01*
X116737659Y-111982269D01*
X117483404Y-112034417D01*
X118544896Y-109910966D01*
G37*
G36*
X114666857Y-109592778D02*
G01*
X114899362Y-109623351D01*
X115099731Y-109678073D01*
X115272494Y-109754843D01*
X115421402Y-109852832D01*
X115549268Y-109972529D01*
X115679432Y-110150582D01*
X115767558Y-110348438D01*
X115814920Y-110570647D01*
X115819211Y-110823246D01*
X115783664Y-111056906D01*
X115714201Y-111259974D01*
X115612093Y-111437510D01*
X115479161Y-111593722D01*
X115333216Y-111712195D01*
X115172687Y-111796997D01*
X114997660Y-111848755D01*
X114771700Y-111875864D01*
X114482716Y-111871597D01*
X114152584Y-111829316D01*
X113906779Y-111761081D01*
X113727538Y-111673356D01*
X113572066Y-111549148D01*
X113429910Y-111379254D01*
X113301034Y-111155077D01*
X114137818Y-111142159D01*
X114212279Y-111236829D01*
X114273603Y-111290661D01*
X114382945Y-111344143D01*
X114499608Y-111367430D01*
X114621888Y-111359832D01*
X114727043Y-111320516D01*
X114819915Y-111248434D01*
X114871238Y-111181799D01*
X114914031Y-111089250D01*
X114946504Y-110963846D01*
X113279039Y-110847245D01*
X113285990Y-110747837D01*
X113319306Y-110497948D01*
X114166156Y-110497948D01*
X114973117Y-110554377D01*
X114949005Y-110382395D01*
X114898546Y-110268393D01*
X114817303Y-110176727D01*
X114718439Y-110119207D01*
X114596971Y-110093240D01*
X114487340Y-110097662D01*
X114395369Y-110125477D01*
X114316859Y-110175750D01*
X114255379Y-110246326D01*
X114204338Y-110350278D01*
X114166156Y-110497948D01*
X113319306Y-110497948D01*
X113323571Y-110465960D01*
X113388491Y-110240659D01*
X113476453Y-110061894D01*
X113597118Y-109904877D01*
X113743344Y-109779104D01*
X113918191Y-109682188D01*
X114109835Y-109621474D01*
X114355140Y-109589253D01*
X114666857Y-109592778D01*
G37*
G36*
X113043997Y-109526306D02*
G01*
X112253481Y-109471028D01*
X112229982Y-109807079D01*
X112163492Y-109667577D01*
X112095925Y-109566438D01*
X112027707Y-109496006D01*
X111946372Y-109442559D01*
X111849931Y-109406204D01*
X111735042Y-109387766D01*
X111612958Y-109390823D01*
X111474703Y-109418242D01*
X111316736Y-109474385D01*
X111536612Y-110095737D01*
X111684958Y-110055666D01*
X111777141Y-110048837D01*
X111875963Y-110070895D01*
X111954195Y-110120067D01*
X112016372Y-110199065D01*
X112069561Y-110338562D01*
X112100358Y-110566206D01*
X112094631Y-110918121D01*
X112043174Y-111653999D01*
X112891068Y-111713289D01*
X113043997Y-109526306D01*
G37*
G36*
X111316960Y-109405540D02*
G01*
X110424660Y-109343144D01*
X109881281Y-110745720D01*
X109570735Y-109283432D01*
X108738191Y-109225215D01*
X109438470Y-111621334D01*
X109531988Y-111893504D01*
X109620367Y-112072938D01*
X109702684Y-112183721D01*
X109810492Y-112273174D01*
X109949902Y-112345237D01*
X110127853Y-112398391D01*
X110353026Y-112428986D01*
X110558858Y-112433310D01*
X110917790Y-112419632D01*
X111025766Y-111836631D01*
X110829378Y-111870140D01*
X110613844Y-111871362D01*
X110480266Y-111843316D01*
X110384105Y-111784967D01*
X110312862Y-111690713D01*
X110249876Y-111524927D01*
X111316960Y-109405540D01*
G37*
G36*
X107057253Y-108285012D02*
G01*
X106213561Y-108226015D01*
X106137097Y-109319507D01*
X105980255Y-109159173D01*
X105825099Y-109051810D01*
X105650305Y-108982678D01*
X105431383Y-108946971D01*
X105261674Y-108949399D01*
X105115762Y-108979720D01*
X104989061Y-109035766D01*
X104878098Y-109117803D01*
X104789597Y-109220901D01*
X104718552Y-109354559D01*
X104666326Y-109525524D01*
X104636475Y-109742324D01*
X104539489Y-111129290D01*
X105387383Y-111188581D01*
X105471234Y-109989467D01*
X105490743Y-109856682D01*
X105523274Y-109767295D01*
X105565175Y-109709575D01*
X105622727Y-109668274D01*
X105692797Y-109645151D01*
X105779478Y-109641192D01*
X105872330Y-109660527D01*
X105948855Y-109703112D01*
X106012636Y-109770612D01*
X106053161Y-109855252D01*
X106077227Y-109986832D01*
X106076656Y-110183848D01*
X106003386Y-111231656D01*
X106847078Y-111290652D01*
X107057253Y-108285012D01*
G37*
G36*
X101755507Y-110934615D02*
G01*
X102544013Y-110989753D01*
X102568138Y-110644747D01*
X102675391Y-110782769D01*
X102782372Y-110888834D01*
X102889510Y-110967454D01*
X103008082Y-111025952D01*
X103150072Y-111067790D01*
X103319927Y-111091019D01*
X103491988Y-111088754D01*
X103639309Y-111058616D01*
X103766619Y-111002929D01*
X103877522Y-110921590D01*
X103965876Y-110818929D01*
X104036840Y-110685605D01*
X104089040Y-110514818D01*
X104118898Y-110297970D01*
X104216025Y-108908994D01*
X103368130Y-108849703D01*
X103284395Y-110047172D01*
X103264920Y-110179825D01*
X103232386Y-110269529D01*
X103190402Y-110327796D01*
X103132742Y-110369631D01*
X103062650Y-110393037D01*
X102976035Y-110397092D01*
X102884571Y-110377961D01*
X102808338Y-110335528D01*
X102743962Y-110267931D01*
X102702835Y-110183052D01*
X102678403Y-110051565D01*
X102678807Y-109855167D01*
X102752128Y-108806628D01*
X101908436Y-108747632D01*
X101755507Y-110934615D01*
G37*
G36*
X101415597Y-108713169D02*
G01*
X100629102Y-108658172D01*
X100604913Y-109004091D01*
X100497664Y-108866462D01*
X100390374Y-108760329D01*
X100282627Y-108681320D01*
X100163353Y-108622167D01*
X100021609Y-108580088D01*
X99853187Y-108556905D01*
X99680028Y-108559128D01*
X99532090Y-108589277D01*
X99404560Y-108644956D01*
X99293765Y-108726206D01*
X99205401Y-108828864D01*
X99134357Y-108962452D01*
X99082039Y-109133866D01*
X99052065Y-109351824D01*
X98955079Y-110738790D01*
X99802974Y-110798081D01*
X99886824Y-109598967D01*
X99906334Y-109466182D01*
X99938865Y-109376795D01*
X99980766Y-109319075D01*
X100038317Y-109277774D01*
X100108388Y-109254651D01*
X100195069Y-109250692D01*
X100287921Y-109270027D01*
X100364445Y-109312612D01*
X100428226Y-109380112D01*
X100468751Y-109464752D01*
X100492817Y-109596332D01*
X100492246Y-109793348D01*
X100418977Y-110841156D01*
X101262668Y-110900152D01*
X101415597Y-108713169D01*
G37*
G36*
X97112532Y-108412269D02*
G01*
X97090643Y-108725296D01*
X97194651Y-108615483D01*
X97300476Y-108532609D01*
X97408859Y-108473389D01*
X97525898Y-108435020D01*
X97666565Y-108414825D01*
X97835783Y-108415835D01*
X98029762Y-108447154D01*
X98195969Y-108509764D01*
X98339367Y-108602784D01*
X98463255Y-108728178D01*
X98556228Y-108874720D01*
X98621147Y-109051084D01*
X98655974Y-109263772D01*
X98655914Y-109520790D01*
X98626747Y-109743939D01*
X98575421Y-109932010D01*
X98504376Y-110090251D01*
X98414733Y-110223018D01*
X98286324Y-110356233D01*
X98150699Y-110453057D01*
X98006293Y-110517674D01*
X97850508Y-110552012D01*
X97679912Y-110555603D01*
X97533760Y-110533877D01*
X97397499Y-110490306D01*
X97269295Y-110424609D01*
X97157210Y-110337308D01*
X97046440Y-110210889D01*
X97024397Y-110526108D01*
X97025467Y-110684487D01*
X97048943Y-110793047D01*
X97088438Y-110865527D01*
X97149161Y-110920587D01*
X97232756Y-110958957D01*
X97346225Y-110978856D01*
X97476086Y-110971158D01*
X97578335Y-110931551D01*
X97633302Y-110879130D01*
X97682244Y-110779611D01*
X98506619Y-110741953D01*
X98502737Y-110860490D01*
X98475211Y-111022398D01*
X98419014Y-111160068D01*
X98334527Y-111278089D01*
X98219113Y-111379242D01*
X98088555Y-111447495D01*
X97903719Y-111497800D01*
X97648162Y-111523834D01*
X97302576Y-111516409D01*
X97025105Y-111483279D01*
X96796529Y-111429240D01*
X96654847Y-111375813D01*
X96537223Y-111311232D01*
X96440386Y-111236131D01*
X96320304Y-111095566D01*
X96228924Y-110917254D01*
X96176691Y-110720845D01*
X96168905Y-110517703D01*
X96177662Y-110421359D01*
X96244123Y-109470922D01*
X97091940Y-109470922D01*
X97094611Y-109624996D01*
X97122506Y-109741018D01*
X97171081Y-109828107D01*
X97241847Y-109897998D01*
X97323610Y-109941825D01*
X97419566Y-109961536D01*
X97522778Y-109955809D01*
X97610497Y-109924828D01*
X97686833Y-109868395D01*
X97743875Y-109791629D01*
X97785871Y-109682618D01*
X97809389Y-109531191D01*
X97808868Y-109354824D01*
X97784356Y-109231092D01*
X97742475Y-109146215D01*
X97677765Y-109078533D01*
X97598323Y-109035246D01*
X97500062Y-109015230D01*
X97399964Y-109022000D01*
X97309685Y-109056335D01*
X97225713Y-109120363D01*
X97161903Y-109204972D01*
X97116386Y-109319020D01*
X97091940Y-109470922D01*
X96244123Y-109470922D01*
X96322016Y-108356991D01*
X97112532Y-108412269D01*
G37*
G36*
X95784955Y-108319436D02*
G01*
X94994440Y-108264158D01*
X94970941Y-108600209D01*
X94904451Y-108460707D01*
X94836884Y-108359569D01*
X94768665Y-108289136D01*
X94687330Y-108235690D01*
X94590890Y-108199335D01*
X94476000Y-108180896D01*
X94353917Y-108183954D01*
X94215661Y-108211373D01*
X94057695Y-108267515D01*
X94277570Y-108888868D01*
X94425917Y-108848796D01*
X94518099Y-108841968D01*
X94616922Y-108864025D01*
X94695153Y-108913197D01*
X94757330Y-108992195D01*
X94810519Y-109131693D01*
X94841316Y-109359336D01*
X94835590Y-109711251D01*
X94784132Y-110447129D01*
X95632027Y-110506420D01*
X95784955Y-108319436D01*
G37*
G36*
X94019909Y-108196012D02*
G01*
X93127610Y-108133616D01*
X92584231Y-109536193D01*
X92273685Y-108073904D01*
X91441140Y-108015687D01*
X92141420Y-110411807D01*
X92234938Y-110683976D01*
X92323316Y-110863410D01*
X92405633Y-110974193D01*
X92513442Y-111063646D01*
X92652851Y-111135710D01*
X92830803Y-111188863D01*
X93055976Y-111219458D01*
X93261807Y-111223783D01*
X93620740Y-111210105D01*
X93728715Y-110627103D01*
X93532328Y-110660612D01*
X93316793Y-110661834D01*
X93183215Y-110633788D01*
X93087054Y-110575439D01*
X93015811Y-110481186D01*
X92952826Y-110315399D01*
X94019909Y-108196012D01*
G37*
G36*
X91152833Y-107172867D02*
G01*
X90251762Y-107109858D01*
X90203767Y-107796214D01*
X90280331Y-109180257D01*
X90840417Y-109219422D01*
X91104838Y-107859223D01*
X91152833Y-107172867D01*
G37*
G36*
X90964297Y-109427874D02*
G01*
X90122616Y-109369018D01*
X90070276Y-110117504D01*
X90911958Y-110176360D01*
X90964297Y-109427874D01*
G37*
D11*
X203988097Y-91597475D02*
X203988097Y-91787951D01*
X203683335Y-91597475D02*
X203683335Y-91787951D01*
X203340477Y-92597475D02*
X203340477Y-91597475D01*
X203340477Y-91597475D02*
X203150001Y-91597475D01*
X203150001Y-91597475D02*
X203035715Y-91645094D01*
X203035715Y-91645094D02*
X202959525Y-91740332D01*
X202959525Y-91740332D02*
X202921430Y-91835570D01*
X202921430Y-91835570D02*
X202883334Y-92026046D01*
X202883334Y-92026046D02*
X202883334Y-92168903D01*
X202883334Y-92168903D02*
X202921430Y-92359379D01*
X202921430Y-92359379D02*
X202959525Y-92454617D01*
X202959525Y-92454617D02*
X203035715Y-92549856D01*
X203035715Y-92549856D02*
X203150001Y-92597475D01*
X203150001Y-92597475D02*
X203340477Y-92597475D01*
X202235715Y-92549856D02*
X202311906Y-92597475D01*
X202311906Y-92597475D02*
X202464287Y-92597475D01*
X202464287Y-92597475D02*
X202540477Y-92549856D01*
X202540477Y-92549856D02*
X202578573Y-92454617D01*
X202578573Y-92454617D02*
X202578573Y-92073665D01*
X202578573Y-92073665D02*
X202540477Y-91978427D01*
X202540477Y-91978427D02*
X202464287Y-91930808D01*
X202464287Y-91930808D02*
X202311906Y-91930808D01*
X202311906Y-91930808D02*
X202235715Y-91978427D01*
X202235715Y-91978427D02*
X202197620Y-92073665D01*
X202197620Y-92073665D02*
X202197620Y-92168903D01*
X202197620Y-92168903D02*
X202578573Y-92264141D01*
X201892859Y-92549856D02*
X201816668Y-92597475D01*
X201816668Y-92597475D02*
X201664287Y-92597475D01*
X201664287Y-92597475D02*
X201588097Y-92549856D01*
X201588097Y-92549856D02*
X201550001Y-92454617D01*
X201550001Y-92454617D02*
X201550001Y-92406998D01*
X201550001Y-92406998D02*
X201588097Y-92311760D01*
X201588097Y-92311760D02*
X201664287Y-92264141D01*
X201664287Y-92264141D02*
X201778573Y-92264141D01*
X201778573Y-92264141D02*
X201854763Y-92216522D01*
X201854763Y-92216522D02*
X201892859Y-92121284D01*
X201892859Y-92121284D02*
X201892859Y-92073665D01*
X201892859Y-92073665D02*
X201854763Y-91978427D01*
X201854763Y-91978427D02*
X201778573Y-91930808D01*
X201778573Y-91930808D02*
X201664287Y-91930808D01*
X201664287Y-91930808D02*
X201588097Y-91978427D01*
X201207144Y-92597475D02*
X201207144Y-91930808D01*
X201207144Y-91597475D02*
X201245240Y-91645094D01*
X201245240Y-91645094D02*
X201207144Y-91692713D01*
X201207144Y-91692713D02*
X201169049Y-91645094D01*
X201169049Y-91645094D02*
X201207144Y-91597475D01*
X201207144Y-91597475D02*
X201207144Y-91692713D01*
X200483335Y-91930808D02*
X200483335Y-92740332D01*
X200483335Y-92740332D02*
X200521430Y-92835570D01*
X200521430Y-92835570D02*
X200559526Y-92883189D01*
X200559526Y-92883189D02*
X200635716Y-92930808D01*
X200635716Y-92930808D02*
X200750002Y-92930808D01*
X200750002Y-92930808D02*
X200826192Y-92883189D01*
X200483335Y-92549856D02*
X200559526Y-92597475D01*
X200559526Y-92597475D02*
X200711907Y-92597475D01*
X200711907Y-92597475D02*
X200788097Y-92549856D01*
X200788097Y-92549856D02*
X200826192Y-92502236D01*
X200826192Y-92502236D02*
X200864288Y-92406998D01*
X200864288Y-92406998D02*
X200864288Y-92121284D01*
X200864288Y-92121284D02*
X200826192Y-92026046D01*
X200826192Y-92026046D02*
X200788097Y-91978427D01*
X200788097Y-91978427D02*
X200711907Y-91930808D01*
X200711907Y-91930808D02*
X200559526Y-91930808D01*
X200559526Y-91930808D02*
X200483335Y-91978427D01*
X200102382Y-91930808D02*
X200102382Y-92597475D01*
X200102382Y-92026046D02*
X200064287Y-91978427D01*
X200064287Y-91978427D02*
X199988097Y-91930808D01*
X199988097Y-91930808D02*
X199873811Y-91930808D01*
X199873811Y-91930808D02*
X199797620Y-91978427D01*
X199797620Y-91978427D02*
X199759525Y-92073665D01*
X199759525Y-92073665D02*
X199759525Y-92597475D01*
X199073810Y-92549856D02*
X199150001Y-92597475D01*
X199150001Y-92597475D02*
X199302382Y-92597475D01*
X199302382Y-92597475D02*
X199378572Y-92549856D01*
X199378572Y-92549856D02*
X199416668Y-92454617D01*
X199416668Y-92454617D02*
X199416668Y-92073665D01*
X199416668Y-92073665D02*
X199378572Y-91978427D01*
X199378572Y-91978427D02*
X199302382Y-91930808D01*
X199302382Y-91930808D02*
X199150001Y-91930808D01*
X199150001Y-91930808D02*
X199073810Y-91978427D01*
X199073810Y-91978427D02*
X199035715Y-92073665D01*
X199035715Y-92073665D02*
X199035715Y-92168903D01*
X199035715Y-92168903D02*
X199416668Y-92264141D01*
X198350001Y-92597475D02*
X198350001Y-91597475D01*
X198350001Y-92549856D02*
X198426192Y-92597475D01*
X198426192Y-92597475D02*
X198578573Y-92597475D01*
X198578573Y-92597475D02*
X198654763Y-92549856D01*
X198654763Y-92549856D02*
X198692858Y-92502236D01*
X198692858Y-92502236D02*
X198730954Y-92406998D01*
X198730954Y-92406998D02*
X198730954Y-92121284D01*
X198730954Y-92121284D02*
X198692858Y-92026046D01*
X198692858Y-92026046D02*
X198654763Y-91978427D01*
X198654763Y-91978427D02*
X198578573Y-91930808D01*
X198578573Y-91930808D02*
X198426192Y-91930808D01*
X198426192Y-91930808D02*
X198350001Y-91978427D01*
X198007144Y-91597475D02*
X198007144Y-91787951D01*
X197702382Y-91597475D02*
X197702382Y-91787951D01*
X196750000Y-92597475D02*
X196750000Y-91597475D01*
X196750000Y-91978427D02*
X196673810Y-91930808D01*
X196673810Y-91930808D02*
X196521429Y-91930808D01*
X196521429Y-91930808D02*
X196445238Y-91978427D01*
X196445238Y-91978427D02*
X196407143Y-92026046D01*
X196407143Y-92026046D02*
X196369048Y-92121284D01*
X196369048Y-92121284D02*
X196369048Y-92406998D01*
X196369048Y-92406998D02*
X196407143Y-92502236D01*
X196407143Y-92502236D02*
X196445238Y-92549856D01*
X196445238Y-92549856D02*
X196521429Y-92597475D01*
X196521429Y-92597475D02*
X196673810Y-92597475D01*
X196673810Y-92597475D02*
X196750000Y-92549856D01*
X196102381Y-91930808D02*
X195911905Y-92597475D01*
X195721428Y-91930808D02*
X195911905Y-92597475D01*
X195911905Y-92597475D02*
X195988095Y-92835570D01*
X195988095Y-92835570D02*
X196026190Y-92883189D01*
X196026190Y-92883189D02*
X196102381Y-92930808D01*
X194845238Y-92311760D02*
X194464285Y-92311760D01*
X194921428Y-92597475D02*
X194654761Y-91597475D01*
X194654761Y-91597475D02*
X194388095Y-92597475D01*
X193854762Y-92073665D02*
X193740476Y-92121284D01*
X193740476Y-92121284D02*
X193702381Y-92168903D01*
X193702381Y-92168903D02*
X193664285Y-92264141D01*
X193664285Y-92264141D02*
X193664285Y-92406998D01*
X193664285Y-92406998D02*
X193702381Y-92502236D01*
X193702381Y-92502236D02*
X193740476Y-92549856D01*
X193740476Y-92549856D02*
X193816666Y-92597475D01*
X193816666Y-92597475D02*
X194121428Y-92597475D01*
X194121428Y-92597475D02*
X194121428Y-91597475D01*
X194121428Y-91597475D02*
X193854762Y-91597475D01*
X193854762Y-91597475D02*
X193778571Y-91645094D01*
X193778571Y-91645094D02*
X193740476Y-91692713D01*
X193740476Y-91692713D02*
X193702381Y-91787951D01*
X193702381Y-91787951D02*
X193702381Y-91883189D01*
X193702381Y-91883189D02*
X193740476Y-91978427D01*
X193740476Y-91978427D02*
X193778571Y-92026046D01*
X193778571Y-92026046D02*
X193854762Y-92073665D01*
X193854762Y-92073665D02*
X194121428Y-92073665D01*
X192711904Y-92597475D02*
X192711904Y-91930808D01*
X192711904Y-91597475D02*
X192750000Y-91645094D01*
X192750000Y-91645094D02*
X192711904Y-91692713D01*
X192711904Y-91692713D02*
X192673809Y-91645094D01*
X192673809Y-91645094D02*
X192711904Y-91597475D01*
X192711904Y-91597475D02*
X192711904Y-91692713D01*
X192330952Y-91930808D02*
X192330952Y-92597475D01*
X192330952Y-92026046D02*
X192292857Y-91978427D01*
X192292857Y-91978427D02*
X192216667Y-91930808D01*
X192216667Y-91930808D02*
X192102381Y-91930808D01*
X192102381Y-91930808D02*
X192026190Y-91978427D01*
X192026190Y-91978427D02*
X191988095Y-92073665D01*
X191988095Y-92073665D02*
X191988095Y-92597475D01*
X190540475Y-92502236D02*
X190578571Y-92549856D01*
X190578571Y-92549856D02*
X190692856Y-92597475D01*
X190692856Y-92597475D02*
X190769047Y-92597475D01*
X190769047Y-92597475D02*
X190883333Y-92549856D01*
X190883333Y-92549856D02*
X190959523Y-92454617D01*
X190959523Y-92454617D02*
X190997618Y-92359379D01*
X190997618Y-92359379D02*
X191035714Y-92168903D01*
X191035714Y-92168903D02*
X191035714Y-92026046D01*
X191035714Y-92026046D02*
X190997618Y-91835570D01*
X190997618Y-91835570D02*
X190959523Y-91740332D01*
X190959523Y-91740332D02*
X190883333Y-91645094D01*
X190883333Y-91645094D02*
X190769047Y-91597475D01*
X190769047Y-91597475D02*
X190692856Y-91597475D01*
X190692856Y-91597475D02*
X190578571Y-91645094D01*
X190578571Y-91645094D02*
X190540475Y-91692713D01*
X189854761Y-92597475D02*
X189854761Y-92073665D01*
X189854761Y-92073665D02*
X189892856Y-91978427D01*
X189892856Y-91978427D02*
X189969047Y-91930808D01*
X189969047Y-91930808D02*
X190121428Y-91930808D01*
X190121428Y-91930808D02*
X190197618Y-91978427D01*
X189854761Y-92549856D02*
X189930952Y-92597475D01*
X189930952Y-92597475D02*
X190121428Y-92597475D01*
X190121428Y-92597475D02*
X190197618Y-92549856D01*
X190197618Y-92549856D02*
X190235714Y-92454617D01*
X190235714Y-92454617D02*
X190235714Y-92359379D01*
X190235714Y-92359379D02*
X190197618Y-92264141D01*
X190197618Y-92264141D02*
X190121428Y-92216522D01*
X190121428Y-92216522D02*
X189930952Y-92216522D01*
X189930952Y-92216522D02*
X189854761Y-92168903D01*
X189359523Y-92597475D02*
X189435713Y-92549856D01*
X189435713Y-92549856D02*
X189473808Y-92454617D01*
X189473808Y-92454617D02*
X189473808Y-91597475D01*
X189054760Y-92597475D02*
X189054760Y-91930808D01*
X189054760Y-91597475D02*
X189092856Y-91645094D01*
X189092856Y-91645094D02*
X189054760Y-91692713D01*
X189054760Y-91692713D02*
X189016665Y-91645094D01*
X189016665Y-91645094D02*
X189054760Y-91597475D01*
X189054760Y-91597475D02*
X189054760Y-91692713D01*
X188788094Y-91930808D02*
X188483332Y-91930808D01*
X188673808Y-92597475D02*
X188673808Y-91740332D01*
X188673808Y-91740332D02*
X188635713Y-91645094D01*
X188635713Y-91645094D02*
X188559523Y-91597475D01*
X188559523Y-91597475D02*
X188483332Y-91597475D01*
X188102380Y-92597475D02*
X188178570Y-92549856D01*
X188178570Y-92549856D02*
X188216665Y-92502236D01*
X188216665Y-92502236D02*
X188254761Y-92406998D01*
X188254761Y-92406998D02*
X188254761Y-92121284D01*
X188254761Y-92121284D02*
X188216665Y-92026046D01*
X188216665Y-92026046D02*
X188178570Y-91978427D01*
X188178570Y-91978427D02*
X188102380Y-91930808D01*
X188102380Y-91930808D02*
X187988094Y-91930808D01*
X187988094Y-91930808D02*
X187911903Y-91978427D01*
X187911903Y-91978427D02*
X187873808Y-92026046D01*
X187873808Y-92026046D02*
X187835713Y-92121284D01*
X187835713Y-92121284D02*
X187835713Y-92406998D01*
X187835713Y-92406998D02*
X187873808Y-92502236D01*
X187873808Y-92502236D02*
X187911903Y-92549856D01*
X187911903Y-92549856D02*
X187988094Y-92597475D01*
X187988094Y-92597475D02*
X188102380Y-92597475D01*
X187492855Y-92597475D02*
X187492855Y-91930808D01*
X187492855Y-92121284D02*
X187454760Y-92026046D01*
X187454760Y-92026046D02*
X187416665Y-91978427D01*
X187416665Y-91978427D02*
X187340474Y-91930808D01*
X187340474Y-91930808D02*
X187264284Y-91930808D01*
X186997617Y-91930808D02*
X186997617Y-92597475D01*
X186997617Y-92026046D02*
X186959522Y-91978427D01*
X186959522Y-91978427D02*
X186883332Y-91930808D01*
X186883332Y-91930808D02*
X186769046Y-91930808D01*
X186769046Y-91930808D02*
X186692855Y-91978427D01*
X186692855Y-91978427D02*
X186654760Y-92073665D01*
X186654760Y-92073665D02*
X186654760Y-92597475D01*
X186273807Y-92597475D02*
X186273807Y-91930808D01*
X186273807Y-91597475D02*
X186311903Y-91645094D01*
X186311903Y-91645094D02*
X186273807Y-91692713D01*
X186273807Y-91692713D02*
X186235712Y-91645094D01*
X186235712Y-91645094D02*
X186273807Y-91597475D01*
X186273807Y-91597475D02*
X186273807Y-91692713D01*
X185549998Y-92597475D02*
X185549998Y-92073665D01*
X185549998Y-92073665D02*
X185588093Y-91978427D01*
X185588093Y-91978427D02*
X185664284Y-91930808D01*
X185664284Y-91930808D02*
X185816665Y-91930808D01*
X185816665Y-91930808D02*
X185892855Y-91978427D01*
X185549998Y-92549856D02*
X185626189Y-92597475D01*
X185626189Y-92597475D02*
X185816665Y-92597475D01*
X185816665Y-92597475D02*
X185892855Y-92549856D01*
X185892855Y-92549856D02*
X185930951Y-92454617D01*
X185930951Y-92454617D02*
X185930951Y-92359379D01*
X185930951Y-92359379D02*
X185892855Y-92264141D01*
X185892855Y-92264141D02*
X185816665Y-92216522D01*
X185816665Y-92216522D02*
X185626189Y-92216522D01*
X185626189Y-92216522D02*
X185549998Y-92168903D01*
X202559523Y-95817363D02*
X202826190Y-95341172D01*
X203016666Y-95817363D02*
X203016666Y-94817363D01*
X203016666Y-94817363D02*
X202711904Y-94817363D01*
X202711904Y-94817363D02*
X202635714Y-94864982D01*
X202635714Y-94864982D02*
X202597619Y-94912601D01*
X202597619Y-94912601D02*
X202559523Y-95007839D01*
X202559523Y-95007839D02*
X202559523Y-95150696D01*
X202559523Y-95150696D02*
X202597619Y-95245934D01*
X202597619Y-95245934D02*
X202635714Y-95293553D01*
X202635714Y-95293553D02*
X202711904Y-95341172D01*
X202711904Y-95341172D02*
X203016666Y-95341172D01*
X201911904Y-95769744D02*
X201988095Y-95817363D01*
X201988095Y-95817363D02*
X202140476Y-95817363D01*
X202140476Y-95817363D02*
X202216666Y-95769744D01*
X202216666Y-95769744D02*
X202254762Y-95674505D01*
X202254762Y-95674505D02*
X202254762Y-95293553D01*
X202254762Y-95293553D02*
X202216666Y-95198315D01*
X202216666Y-95198315D02*
X202140476Y-95150696D01*
X202140476Y-95150696D02*
X201988095Y-95150696D01*
X201988095Y-95150696D02*
X201911904Y-95198315D01*
X201911904Y-95198315D02*
X201873809Y-95293553D01*
X201873809Y-95293553D02*
X201873809Y-95388791D01*
X201873809Y-95388791D02*
X202254762Y-95484029D01*
X201416667Y-95817363D02*
X201492857Y-95769744D01*
X201492857Y-95769744D02*
X201530952Y-95674505D01*
X201530952Y-95674505D02*
X201530952Y-94817363D01*
X200807142Y-95769744D02*
X200883333Y-95817363D01*
X200883333Y-95817363D02*
X201035714Y-95817363D01*
X201035714Y-95817363D02*
X201111904Y-95769744D01*
X201111904Y-95769744D02*
X201150000Y-95674505D01*
X201150000Y-95674505D02*
X201150000Y-95293553D01*
X201150000Y-95293553D02*
X201111904Y-95198315D01*
X201111904Y-95198315D02*
X201035714Y-95150696D01*
X201035714Y-95150696D02*
X200883333Y-95150696D01*
X200883333Y-95150696D02*
X200807142Y-95198315D01*
X200807142Y-95198315D02*
X200769047Y-95293553D01*
X200769047Y-95293553D02*
X200769047Y-95388791D01*
X200769047Y-95388791D02*
X201150000Y-95484029D01*
X200083333Y-95817363D02*
X200083333Y-95293553D01*
X200083333Y-95293553D02*
X200121428Y-95198315D01*
X200121428Y-95198315D02*
X200197619Y-95150696D01*
X200197619Y-95150696D02*
X200350000Y-95150696D01*
X200350000Y-95150696D02*
X200426190Y-95198315D01*
X200083333Y-95769744D02*
X200159524Y-95817363D01*
X200159524Y-95817363D02*
X200350000Y-95817363D01*
X200350000Y-95817363D02*
X200426190Y-95769744D01*
X200426190Y-95769744D02*
X200464286Y-95674505D01*
X200464286Y-95674505D02*
X200464286Y-95579267D01*
X200464286Y-95579267D02*
X200426190Y-95484029D01*
X200426190Y-95484029D02*
X200350000Y-95436410D01*
X200350000Y-95436410D02*
X200159524Y-95436410D01*
X200159524Y-95436410D02*
X200083333Y-95388791D01*
X199740476Y-95769744D02*
X199664285Y-95817363D01*
X199664285Y-95817363D02*
X199511904Y-95817363D01*
X199511904Y-95817363D02*
X199435714Y-95769744D01*
X199435714Y-95769744D02*
X199397618Y-95674505D01*
X199397618Y-95674505D02*
X199397618Y-95626886D01*
X199397618Y-95626886D02*
X199435714Y-95531648D01*
X199435714Y-95531648D02*
X199511904Y-95484029D01*
X199511904Y-95484029D02*
X199626190Y-95484029D01*
X199626190Y-95484029D02*
X199702380Y-95436410D01*
X199702380Y-95436410D02*
X199740476Y-95341172D01*
X199740476Y-95341172D02*
X199740476Y-95293553D01*
X199740476Y-95293553D02*
X199702380Y-95198315D01*
X199702380Y-95198315D02*
X199626190Y-95150696D01*
X199626190Y-95150696D02*
X199511904Y-95150696D01*
X199511904Y-95150696D02*
X199435714Y-95198315D01*
X198749999Y-95769744D02*
X198826190Y-95817363D01*
X198826190Y-95817363D02*
X198978571Y-95817363D01*
X198978571Y-95817363D02*
X199054761Y-95769744D01*
X199054761Y-95769744D02*
X199092857Y-95674505D01*
X199092857Y-95674505D02*
X199092857Y-95293553D01*
X199092857Y-95293553D02*
X199054761Y-95198315D01*
X199054761Y-95198315D02*
X198978571Y-95150696D01*
X198978571Y-95150696D02*
X198826190Y-95150696D01*
X198826190Y-95150696D02*
X198749999Y-95198315D01*
X198749999Y-95198315D02*
X198711904Y-95293553D01*
X198711904Y-95293553D02*
X198711904Y-95388791D01*
X198711904Y-95388791D02*
X199092857Y-95484029D01*
X198026190Y-95817363D02*
X198026190Y-94817363D01*
X198026190Y-95769744D02*
X198102381Y-95817363D01*
X198102381Y-95817363D02*
X198254762Y-95817363D01*
X198254762Y-95817363D02*
X198330952Y-95769744D01*
X198330952Y-95769744D02*
X198369047Y-95722124D01*
X198369047Y-95722124D02*
X198407143Y-95626886D01*
X198407143Y-95626886D02*
X198407143Y-95341172D01*
X198407143Y-95341172D02*
X198369047Y-95245934D01*
X198369047Y-95245934D02*
X198330952Y-95198315D01*
X198330952Y-95198315D02*
X198254762Y-95150696D01*
X198254762Y-95150696D02*
X198102381Y-95150696D01*
X198102381Y-95150696D02*
X198026190Y-95198315D01*
X196692856Y-95150696D02*
X196692856Y-95817363D01*
X197035713Y-95150696D02*
X197035713Y-95674505D01*
X197035713Y-95674505D02*
X196997618Y-95769744D01*
X196997618Y-95769744D02*
X196921428Y-95817363D01*
X196921428Y-95817363D02*
X196807142Y-95817363D01*
X196807142Y-95817363D02*
X196730951Y-95769744D01*
X196730951Y-95769744D02*
X196692856Y-95722124D01*
X196311903Y-95150696D02*
X196311903Y-95817363D01*
X196311903Y-95245934D02*
X196273808Y-95198315D01*
X196273808Y-95198315D02*
X196197618Y-95150696D01*
X196197618Y-95150696D02*
X196083332Y-95150696D01*
X196083332Y-95150696D02*
X196007141Y-95198315D01*
X196007141Y-95198315D02*
X195969046Y-95293553D01*
X195969046Y-95293553D02*
X195969046Y-95817363D01*
X195245236Y-95817363D02*
X195245236Y-94817363D01*
X195245236Y-95769744D02*
X195321427Y-95817363D01*
X195321427Y-95817363D02*
X195473808Y-95817363D01*
X195473808Y-95817363D02*
X195549998Y-95769744D01*
X195549998Y-95769744D02*
X195588093Y-95722124D01*
X195588093Y-95722124D02*
X195626189Y-95626886D01*
X195626189Y-95626886D02*
X195626189Y-95341172D01*
X195626189Y-95341172D02*
X195588093Y-95245934D01*
X195588093Y-95245934D02*
X195549998Y-95198315D01*
X195549998Y-95198315D02*
X195473808Y-95150696D01*
X195473808Y-95150696D02*
X195321427Y-95150696D01*
X195321427Y-95150696D02*
X195245236Y-95198315D01*
X194559521Y-95769744D02*
X194635712Y-95817363D01*
X194635712Y-95817363D02*
X194788093Y-95817363D01*
X194788093Y-95817363D02*
X194864283Y-95769744D01*
X194864283Y-95769744D02*
X194902379Y-95674505D01*
X194902379Y-95674505D02*
X194902379Y-95293553D01*
X194902379Y-95293553D02*
X194864283Y-95198315D01*
X194864283Y-95198315D02*
X194788093Y-95150696D01*
X194788093Y-95150696D02*
X194635712Y-95150696D01*
X194635712Y-95150696D02*
X194559521Y-95198315D01*
X194559521Y-95198315D02*
X194521426Y-95293553D01*
X194521426Y-95293553D02*
X194521426Y-95388791D01*
X194521426Y-95388791D02*
X194902379Y-95484029D01*
X194178569Y-95817363D02*
X194178569Y-95150696D01*
X194178569Y-95341172D02*
X194140474Y-95245934D01*
X194140474Y-95245934D02*
X194102379Y-95198315D01*
X194102379Y-95198315D02*
X194026188Y-95150696D01*
X194026188Y-95150696D02*
X193949998Y-95150696D01*
X193073807Y-95817363D02*
X193073807Y-94817363D01*
X193073807Y-94817363D02*
X192807141Y-95531648D01*
X192807141Y-95531648D02*
X192540474Y-94817363D01*
X192540474Y-94817363D02*
X192540474Y-95817363D01*
X192159521Y-95817363D02*
X192159521Y-94817363D01*
X191892855Y-94817363D02*
X191435712Y-94817363D01*
X191664284Y-95817363D02*
X191664284Y-94817363D01*
X190178569Y-95817363D02*
X190559521Y-95817363D01*
X190559521Y-95817363D02*
X190559521Y-94817363D01*
X189911902Y-95817363D02*
X189911902Y-95150696D01*
X189911902Y-94817363D02*
X189949998Y-94864982D01*
X189949998Y-94864982D02*
X189911902Y-94912601D01*
X189911902Y-94912601D02*
X189873807Y-94864982D01*
X189873807Y-94864982D02*
X189911902Y-94817363D01*
X189911902Y-94817363D02*
X189911902Y-94912601D01*
X189188093Y-95769744D02*
X189264284Y-95817363D01*
X189264284Y-95817363D02*
X189416665Y-95817363D01*
X189416665Y-95817363D02*
X189492855Y-95769744D01*
X189492855Y-95769744D02*
X189530950Y-95722124D01*
X189530950Y-95722124D02*
X189569046Y-95626886D01*
X189569046Y-95626886D02*
X189569046Y-95341172D01*
X189569046Y-95341172D02*
X189530950Y-95245934D01*
X189530950Y-95245934D02*
X189492855Y-95198315D01*
X189492855Y-95198315D02*
X189416665Y-95150696D01*
X189416665Y-95150696D02*
X189264284Y-95150696D01*
X189264284Y-95150696D02*
X189188093Y-95198315D01*
X188540474Y-95769744D02*
X188616665Y-95817363D01*
X188616665Y-95817363D02*
X188769046Y-95817363D01*
X188769046Y-95817363D02*
X188845236Y-95769744D01*
X188845236Y-95769744D02*
X188883332Y-95674505D01*
X188883332Y-95674505D02*
X188883332Y-95293553D01*
X188883332Y-95293553D02*
X188845236Y-95198315D01*
X188845236Y-95198315D02*
X188769046Y-95150696D01*
X188769046Y-95150696D02*
X188616665Y-95150696D01*
X188616665Y-95150696D02*
X188540474Y-95198315D01*
X188540474Y-95198315D02*
X188502379Y-95293553D01*
X188502379Y-95293553D02*
X188502379Y-95388791D01*
X188502379Y-95388791D02*
X188883332Y-95484029D01*
X188159522Y-95150696D02*
X188159522Y-95817363D01*
X188159522Y-95245934D02*
X188121427Y-95198315D01*
X188121427Y-95198315D02*
X188045237Y-95150696D01*
X188045237Y-95150696D02*
X187930951Y-95150696D01*
X187930951Y-95150696D02*
X187854760Y-95198315D01*
X187854760Y-95198315D02*
X187816665Y-95293553D01*
X187816665Y-95293553D02*
X187816665Y-95817363D01*
X187473808Y-95769744D02*
X187397617Y-95817363D01*
X187397617Y-95817363D02*
X187245236Y-95817363D01*
X187245236Y-95817363D02*
X187169046Y-95769744D01*
X187169046Y-95769744D02*
X187130950Y-95674505D01*
X187130950Y-95674505D02*
X187130950Y-95626886D01*
X187130950Y-95626886D02*
X187169046Y-95531648D01*
X187169046Y-95531648D02*
X187245236Y-95484029D01*
X187245236Y-95484029D02*
X187359522Y-95484029D01*
X187359522Y-95484029D02*
X187435712Y-95436410D01*
X187435712Y-95436410D02*
X187473808Y-95341172D01*
X187473808Y-95341172D02*
X187473808Y-95293553D01*
X187473808Y-95293553D02*
X187435712Y-95198315D01*
X187435712Y-95198315D02*
X187359522Y-95150696D01*
X187359522Y-95150696D02*
X187245236Y-95150696D01*
X187245236Y-95150696D02*
X187169046Y-95198315D01*
X186483331Y-95769744D02*
X186559522Y-95817363D01*
X186559522Y-95817363D02*
X186711903Y-95817363D01*
X186711903Y-95817363D02*
X186788093Y-95769744D01*
X186788093Y-95769744D02*
X186826189Y-95674505D01*
X186826189Y-95674505D02*
X186826189Y-95293553D01*
X186826189Y-95293553D02*
X186788093Y-95198315D01*
X186788093Y-95198315D02*
X186711903Y-95150696D01*
X186711903Y-95150696D02*
X186559522Y-95150696D01*
X186559522Y-95150696D02*
X186483331Y-95198315D01*
X186483331Y-95198315D02*
X186445236Y-95293553D01*
X186445236Y-95293553D02*
X186445236Y-95388791D01*
X186445236Y-95388791D02*
X186826189Y-95484029D01*
D10*
X141006077Y-145669819D02*
X140434649Y-145669819D01*
X140720363Y-146669819D02*
X140720363Y-145669819D01*
X140101315Y-146669819D02*
X140101315Y-145669819D01*
X140101315Y-146146009D02*
X139529887Y-146146009D01*
X139529887Y-146669819D02*
X139529887Y-145669819D01*
X139053696Y-146146009D02*
X138720363Y-146146009D01*
X138577506Y-146669819D02*
X139053696Y-146669819D01*
X139053696Y-146669819D02*
X139053696Y-145669819D01*
X139053696Y-145669819D02*
X138577506Y-145669819D01*
X136863220Y-146669819D02*
X137434648Y-146669819D01*
X137148934Y-146669819D02*
X137148934Y-145669819D01*
X137148934Y-145669819D02*
X137244172Y-145812676D01*
X137244172Y-145812676D02*
X137339410Y-145907914D01*
X137339410Y-145907914D02*
X137434648Y-145955533D01*
X136006077Y-145669819D02*
X136196553Y-145669819D01*
X136196553Y-145669819D02*
X136291791Y-145717438D01*
X136291791Y-145717438D02*
X136339410Y-145765057D01*
X136339410Y-145765057D02*
X136434648Y-145907914D01*
X136434648Y-145907914D02*
X136482267Y-146098390D01*
X136482267Y-146098390D02*
X136482267Y-146479342D01*
X136482267Y-146479342D02*
X136434648Y-146574580D01*
X136434648Y-146574580D02*
X136387029Y-146622200D01*
X136387029Y-146622200D02*
X136291791Y-146669819D01*
X136291791Y-146669819D02*
X136101315Y-146669819D01*
X136101315Y-146669819D02*
X136006077Y-146622200D01*
X136006077Y-146622200D02*
X135958458Y-146574580D01*
X135958458Y-146574580D02*
X135910839Y-146479342D01*
X135910839Y-146479342D02*
X135910839Y-146241247D01*
X135910839Y-146241247D02*
X135958458Y-146146009D01*
X135958458Y-146146009D02*
X136006077Y-146098390D01*
X136006077Y-146098390D02*
X136101315Y-146050771D01*
X136101315Y-146050771D02*
X136291791Y-146050771D01*
X136291791Y-146050771D02*
X136387029Y-146098390D01*
X136387029Y-146098390D02*
X136434648Y-146146009D01*
X136434648Y-146146009D02*
X136482267Y-146241247D01*
X135482267Y-146288866D02*
X134720363Y-146288866D01*
X133910839Y-146146009D02*
X133767982Y-146193628D01*
X133767982Y-146193628D02*
X133720363Y-146241247D01*
X133720363Y-146241247D02*
X133672744Y-146336485D01*
X133672744Y-146336485D02*
X133672744Y-146479342D01*
X133672744Y-146479342D02*
X133720363Y-146574580D01*
X133720363Y-146574580D02*
X133767982Y-146622200D01*
X133767982Y-146622200D02*
X133863220Y-146669819D01*
X133863220Y-146669819D02*
X134244172Y-146669819D01*
X134244172Y-146669819D02*
X134244172Y-145669819D01*
X134244172Y-145669819D02*
X133910839Y-145669819D01*
X133910839Y-145669819D02*
X133815601Y-145717438D01*
X133815601Y-145717438D02*
X133767982Y-145765057D01*
X133767982Y-145765057D02*
X133720363Y-145860295D01*
X133720363Y-145860295D02*
X133720363Y-145955533D01*
X133720363Y-145955533D02*
X133767982Y-146050771D01*
X133767982Y-146050771D02*
X133815601Y-146098390D01*
X133815601Y-146098390D02*
X133910839Y-146146009D01*
X133910839Y-146146009D02*
X134244172Y-146146009D01*
X133244172Y-146669819D02*
X133244172Y-145669819D01*
X132910839Y-145669819D02*
X132339411Y-145669819D01*
X132625125Y-146669819D02*
X132625125Y-145669819D01*
X131291791Y-146622200D02*
X131148934Y-146669819D01*
X131148934Y-146669819D02*
X130910839Y-146669819D01*
X130910839Y-146669819D02*
X130815601Y-146622200D01*
X130815601Y-146622200D02*
X130767982Y-146574580D01*
X130767982Y-146574580D02*
X130720363Y-146479342D01*
X130720363Y-146479342D02*
X130720363Y-146384104D01*
X130720363Y-146384104D02*
X130767982Y-146288866D01*
X130767982Y-146288866D02*
X130815601Y-146241247D01*
X130815601Y-146241247D02*
X130910839Y-146193628D01*
X130910839Y-146193628D02*
X131101315Y-146146009D01*
X131101315Y-146146009D02*
X131196553Y-146098390D01*
X131196553Y-146098390D02*
X131244172Y-146050771D01*
X131244172Y-146050771D02*
X131291791Y-145955533D01*
X131291791Y-145955533D02*
X131291791Y-145860295D01*
X131291791Y-145860295D02*
X131244172Y-145765057D01*
X131244172Y-145765057D02*
X131196553Y-145717438D01*
X131196553Y-145717438D02*
X131101315Y-145669819D01*
X131101315Y-145669819D02*
X130863220Y-145669819D01*
X130863220Y-145669819D02*
X130720363Y-145717438D01*
X130434648Y-145669819D02*
X129863220Y-145669819D01*
X130148934Y-146669819D02*
X130148934Y-145669819D01*
X128958458Y-146669819D02*
X129291791Y-146193628D01*
X129529886Y-146669819D02*
X129529886Y-145669819D01*
X129529886Y-145669819D02*
X129148934Y-145669819D01*
X129148934Y-145669819D02*
X129053696Y-145717438D01*
X129053696Y-145717438D02*
X129006077Y-145765057D01*
X129006077Y-145765057D02*
X128958458Y-145860295D01*
X128958458Y-145860295D02*
X128958458Y-146003152D01*
X128958458Y-146003152D02*
X129006077Y-146098390D01*
X129006077Y-146098390D02*
X129053696Y-146146009D01*
X129053696Y-146146009D02*
X129148934Y-146193628D01*
X129148934Y-146193628D02*
X129529886Y-146193628D01*
X128577505Y-146384104D02*
X128101315Y-146384104D01*
X128672743Y-146669819D02*
X128339410Y-145669819D01*
X128339410Y-145669819D02*
X128006077Y-146669819D01*
X127767981Y-145669819D02*
X127529886Y-146669819D01*
X127529886Y-146669819D02*
X127339410Y-145955533D01*
X127339410Y-145955533D02*
X127148934Y-146669819D01*
X127148934Y-146669819D02*
X126910839Y-145669819D01*
X125577505Y-145669819D02*
X125387029Y-145669819D01*
X125387029Y-145669819D02*
X125291791Y-145717438D01*
X125291791Y-145717438D02*
X125196553Y-145812676D01*
X125196553Y-145812676D02*
X125148934Y-146003152D01*
X125148934Y-146003152D02*
X125148934Y-146336485D01*
X125148934Y-146336485D02*
X125196553Y-146526961D01*
X125196553Y-146526961D02*
X125291791Y-146622200D01*
X125291791Y-146622200D02*
X125387029Y-146669819D01*
X125387029Y-146669819D02*
X125577505Y-146669819D01*
X125577505Y-146669819D02*
X125672743Y-146622200D01*
X125672743Y-146622200D02*
X125767981Y-146526961D01*
X125767981Y-146526961D02*
X125815600Y-146336485D01*
X125815600Y-146336485D02*
X125815600Y-146003152D01*
X125815600Y-146003152D02*
X125767981Y-145812676D01*
X125767981Y-145812676D02*
X125672743Y-145717438D01*
X125672743Y-145717438D02*
X125577505Y-145669819D01*
X124387029Y-146146009D02*
X124720362Y-146146009D01*
X124720362Y-146669819D02*
X124720362Y-145669819D01*
X124720362Y-145669819D02*
X124244172Y-145669819D01*
X123101314Y-146669819D02*
X123101314Y-145669819D01*
X123101314Y-145669819D02*
X122720362Y-145669819D01*
X122720362Y-145669819D02*
X122625124Y-145717438D01*
X122625124Y-145717438D02*
X122577505Y-145765057D01*
X122577505Y-145765057D02*
X122529886Y-145860295D01*
X122529886Y-145860295D02*
X122529886Y-146003152D01*
X122529886Y-146003152D02*
X122577505Y-146098390D01*
X122577505Y-146098390D02*
X122625124Y-146146009D01*
X122625124Y-146146009D02*
X122720362Y-146193628D01*
X122720362Y-146193628D02*
X123101314Y-146193628D01*
X122101314Y-145669819D02*
X122101314Y-146479342D01*
X122101314Y-146479342D02*
X122053695Y-146574580D01*
X122053695Y-146574580D02*
X122006076Y-146622200D01*
X122006076Y-146622200D02*
X121910838Y-146669819D01*
X121910838Y-146669819D02*
X121720362Y-146669819D01*
X121720362Y-146669819D02*
X121625124Y-146622200D01*
X121625124Y-146622200D02*
X121577505Y-146574580D01*
X121577505Y-146574580D02*
X121529886Y-146479342D01*
X121529886Y-146479342D02*
X121529886Y-145669819D01*
X120482267Y-146669819D02*
X120815600Y-146193628D01*
X121053695Y-146669819D02*
X121053695Y-145669819D01*
X121053695Y-145669819D02*
X120672743Y-145669819D01*
X120672743Y-145669819D02*
X120577505Y-145717438D01*
X120577505Y-145717438D02*
X120529886Y-145765057D01*
X120529886Y-145765057D02*
X120482267Y-145860295D01*
X120482267Y-145860295D02*
X120482267Y-146003152D01*
X120482267Y-146003152D02*
X120529886Y-146098390D01*
X120529886Y-146098390D02*
X120577505Y-146146009D01*
X120577505Y-146146009D02*
X120672743Y-146193628D01*
X120672743Y-146193628D02*
X121053695Y-146193628D01*
X120053695Y-146146009D02*
X119720362Y-146146009D01*
X119577505Y-146669819D02*
X120053695Y-146669819D01*
X120053695Y-146669819D02*
X120053695Y-145669819D01*
X120053695Y-145669819D02*
X119577505Y-145669819D01*
X117815600Y-146574580D02*
X117863219Y-146622200D01*
X117863219Y-146622200D02*
X118006076Y-146669819D01*
X118006076Y-146669819D02*
X118101314Y-146669819D01*
X118101314Y-146669819D02*
X118244171Y-146622200D01*
X118244171Y-146622200D02*
X118339409Y-146526961D01*
X118339409Y-146526961D02*
X118387028Y-146431723D01*
X118387028Y-146431723D02*
X118434647Y-146241247D01*
X118434647Y-146241247D02*
X118434647Y-146098390D01*
X118434647Y-146098390D02*
X118387028Y-145907914D01*
X118387028Y-145907914D02*
X118339409Y-145812676D01*
X118339409Y-145812676D02*
X118244171Y-145717438D01*
X118244171Y-145717438D02*
X118101314Y-145669819D01*
X118101314Y-145669819D02*
X118006076Y-145669819D01*
X118006076Y-145669819D02*
X117863219Y-145717438D01*
X117863219Y-145717438D02*
X117815600Y-145765057D01*
X117387028Y-146669819D02*
X117387028Y-145669819D01*
X117387028Y-146146009D02*
X116815600Y-146146009D01*
X116815600Y-146669819D02*
X116815600Y-145669819D01*
X116148933Y-145669819D02*
X115958457Y-145669819D01*
X115958457Y-145669819D02*
X115863219Y-145717438D01*
X115863219Y-145717438D02*
X115767981Y-145812676D01*
X115767981Y-145812676D02*
X115720362Y-146003152D01*
X115720362Y-146003152D02*
X115720362Y-146336485D01*
X115720362Y-146336485D02*
X115767981Y-146526961D01*
X115767981Y-146526961D02*
X115863219Y-146622200D01*
X115863219Y-146622200D02*
X115958457Y-146669819D01*
X115958457Y-146669819D02*
X116148933Y-146669819D01*
X116148933Y-146669819D02*
X116244171Y-146622200D01*
X116244171Y-146622200D02*
X116339409Y-146526961D01*
X116339409Y-146526961D02*
X116387028Y-146336485D01*
X116387028Y-146336485D02*
X116387028Y-146003152D01*
X116387028Y-146003152D02*
X116339409Y-145812676D01*
X116339409Y-145812676D02*
X116244171Y-145717438D01*
X116244171Y-145717438D02*
X116148933Y-145669819D01*
X115291790Y-146669819D02*
X115291790Y-145669819D01*
X114720362Y-146669819D02*
X115148933Y-146098390D01*
X114720362Y-145669819D02*
X115291790Y-146241247D01*
X114291790Y-146146009D02*
X113958457Y-146146009D01*
X113815600Y-146669819D02*
X114291790Y-146669819D01*
X114291790Y-146669819D02*
X114291790Y-145669819D01*
X114291790Y-145669819D02*
X113815600Y-145669819D01*
X113387028Y-146669819D02*
X113387028Y-145669819D01*
X113387028Y-146146009D02*
X112815600Y-146146009D01*
X112815600Y-146669819D02*
X112815600Y-145669819D01*
X112148933Y-145669819D02*
X111958457Y-145669819D01*
X111958457Y-145669819D02*
X111863219Y-145717438D01*
X111863219Y-145717438D02*
X111767981Y-145812676D01*
X111767981Y-145812676D02*
X111720362Y-146003152D01*
X111720362Y-146003152D02*
X111720362Y-146336485D01*
X111720362Y-146336485D02*
X111767981Y-146526961D01*
X111767981Y-146526961D02*
X111863219Y-146622200D01*
X111863219Y-146622200D02*
X111958457Y-146669819D01*
X111958457Y-146669819D02*
X112148933Y-146669819D01*
X112148933Y-146669819D02*
X112244171Y-146622200D01*
X112244171Y-146622200D02*
X112339409Y-146526961D01*
X112339409Y-146526961D02*
X112387028Y-146336485D01*
X112387028Y-146336485D02*
X112387028Y-146003152D01*
X112387028Y-146003152D02*
X112339409Y-145812676D01*
X112339409Y-145812676D02*
X112244171Y-145717438D01*
X112244171Y-145717438D02*
X112148933Y-145669819D01*
X110815600Y-146669819D02*
X111291790Y-146669819D01*
X111291790Y-146669819D02*
X111291790Y-145669819D01*
X110482266Y-146669819D02*
X110482266Y-145669819D01*
X110482266Y-145669819D02*
X110244171Y-145669819D01*
X110244171Y-145669819D02*
X110101314Y-145717438D01*
X110101314Y-145717438D02*
X110006076Y-145812676D01*
X110006076Y-145812676D02*
X109958457Y-145907914D01*
X109958457Y-145907914D02*
X109910838Y-146098390D01*
X109910838Y-146098390D02*
X109910838Y-146241247D01*
X109910838Y-146241247D02*
X109958457Y-146431723D01*
X109958457Y-146431723D02*
X110006076Y-146526961D01*
X110006076Y-146526961D02*
X110101314Y-146622200D01*
X110101314Y-146622200D02*
X110244171Y-146669819D01*
X110244171Y-146669819D02*
X110482266Y-146669819D01*
X60858458Y-135149931D02*
X60620363Y-136149931D01*
X60620363Y-136149931D02*
X60429887Y-135435645D01*
X60429887Y-135435645D02*
X60239411Y-136149931D01*
X60239411Y-136149931D02*
X60001316Y-135149931D01*
X59620363Y-136149931D02*
X59620363Y-135149931D01*
X59620363Y-135626121D02*
X59048935Y-135626121D01*
X59048935Y-136149931D02*
X59048935Y-135149931D01*
X58620363Y-135864216D02*
X58144173Y-135864216D01*
X58715601Y-136149931D02*
X58382268Y-135149931D01*
X58382268Y-135149931D02*
X58048935Y-136149931D01*
X57858458Y-135149931D02*
X57287030Y-135149931D01*
X57572744Y-136149931D02*
X57572744Y-135149931D01*
X56906077Y-135149931D02*
X57001315Y-135340407D01*
X55906078Y-136149931D02*
X56239411Y-135673740D01*
X56477506Y-136149931D02*
X56477506Y-135149931D01*
X56477506Y-135149931D02*
X56096554Y-135149931D01*
X56096554Y-135149931D02*
X56001316Y-135197550D01*
X56001316Y-135197550D02*
X55953697Y-135245169D01*
X55953697Y-135245169D02*
X55906078Y-135340407D01*
X55906078Y-135340407D02*
X55906078Y-135483264D01*
X55906078Y-135483264D02*
X55953697Y-135578502D01*
X55953697Y-135578502D02*
X56001316Y-135626121D01*
X56001316Y-135626121D02*
X56096554Y-135673740D01*
X56096554Y-135673740D02*
X56477506Y-135673740D01*
X55477506Y-135626121D02*
X55144173Y-135626121D01*
X55001316Y-136149931D02*
X55477506Y-136149931D01*
X55477506Y-136149931D02*
X55477506Y-135149931D01*
X55477506Y-135149931D02*
X55001316Y-135149931D01*
X53620363Y-135673740D02*
X53620363Y-136149931D01*
X53953696Y-135149931D02*
X53620363Y-135673740D01*
X53620363Y-135673740D02*
X53287030Y-135149931D01*
X52763220Y-135149931D02*
X52572744Y-135149931D01*
X52572744Y-135149931D02*
X52477506Y-135197550D01*
X52477506Y-135197550D02*
X52382268Y-135292788D01*
X52382268Y-135292788D02*
X52334649Y-135483264D01*
X52334649Y-135483264D02*
X52334649Y-135816597D01*
X52334649Y-135816597D02*
X52382268Y-136007073D01*
X52382268Y-136007073D02*
X52477506Y-136102312D01*
X52477506Y-136102312D02*
X52572744Y-136149931D01*
X52572744Y-136149931D02*
X52763220Y-136149931D01*
X52763220Y-136149931D02*
X52858458Y-136102312D01*
X52858458Y-136102312D02*
X52953696Y-136007073D01*
X52953696Y-136007073D02*
X53001315Y-135816597D01*
X53001315Y-135816597D02*
X53001315Y-135483264D01*
X53001315Y-135483264D02*
X52953696Y-135292788D01*
X52953696Y-135292788D02*
X52858458Y-135197550D01*
X52858458Y-135197550D02*
X52763220Y-135149931D01*
X51906077Y-135149931D02*
X51906077Y-135959454D01*
X51906077Y-135959454D02*
X51858458Y-136054692D01*
X51858458Y-136054692D02*
X51810839Y-136102312D01*
X51810839Y-136102312D02*
X51715601Y-136149931D01*
X51715601Y-136149931D02*
X51525125Y-136149931D01*
X51525125Y-136149931D02*
X51429887Y-136102312D01*
X51429887Y-136102312D02*
X51382268Y-136054692D01*
X51382268Y-136054692D02*
X51334649Y-135959454D01*
X51334649Y-135959454D02*
X51334649Y-135149931D01*
X60287030Y-137759875D02*
X60763220Y-137759875D01*
X60763220Y-137759875D02*
X60763220Y-136759875D01*
X59763220Y-136759875D02*
X59572744Y-136759875D01*
X59572744Y-136759875D02*
X59477506Y-136807494D01*
X59477506Y-136807494D02*
X59382268Y-136902732D01*
X59382268Y-136902732D02*
X59334649Y-137093208D01*
X59334649Y-137093208D02*
X59334649Y-137426541D01*
X59334649Y-137426541D02*
X59382268Y-137617017D01*
X59382268Y-137617017D02*
X59477506Y-137712256D01*
X59477506Y-137712256D02*
X59572744Y-137759875D01*
X59572744Y-137759875D02*
X59763220Y-137759875D01*
X59763220Y-137759875D02*
X59858458Y-137712256D01*
X59858458Y-137712256D02*
X59953696Y-137617017D01*
X59953696Y-137617017D02*
X60001315Y-137426541D01*
X60001315Y-137426541D02*
X60001315Y-137093208D01*
X60001315Y-137093208D02*
X59953696Y-136902732D01*
X59953696Y-136902732D02*
X59858458Y-136807494D01*
X59858458Y-136807494D02*
X59763220Y-136759875D01*
X58715601Y-136759875D02*
X58525125Y-136759875D01*
X58525125Y-136759875D02*
X58429887Y-136807494D01*
X58429887Y-136807494D02*
X58334649Y-136902732D01*
X58334649Y-136902732D02*
X58287030Y-137093208D01*
X58287030Y-137093208D02*
X58287030Y-137426541D01*
X58287030Y-137426541D02*
X58334649Y-137617017D01*
X58334649Y-137617017D02*
X58429887Y-137712256D01*
X58429887Y-137712256D02*
X58525125Y-137759875D01*
X58525125Y-137759875D02*
X58715601Y-137759875D01*
X58715601Y-137759875D02*
X58810839Y-137712256D01*
X58810839Y-137712256D02*
X58906077Y-137617017D01*
X58906077Y-137617017D02*
X58953696Y-137426541D01*
X58953696Y-137426541D02*
X58953696Y-137093208D01*
X58953696Y-137093208D02*
X58906077Y-136902732D01*
X58906077Y-136902732D02*
X58810839Y-136807494D01*
X58810839Y-136807494D02*
X58715601Y-136759875D01*
X57858458Y-137759875D02*
X57858458Y-136759875D01*
X57287030Y-137759875D02*
X57715601Y-137188446D01*
X57287030Y-136759875D02*
X57858458Y-137331303D01*
X56858458Y-137759875D02*
X56858458Y-136759875D01*
X56382268Y-137759875D02*
X56382268Y-136759875D01*
X56382268Y-136759875D02*
X55810840Y-137759875D01*
X55810840Y-137759875D02*
X55810840Y-136759875D01*
X54810840Y-136807494D02*
X54906078Y-136759875D01*
X54906078Y-136759875D02*
X55048935Y-136759875D01*
X55048935Y-136759875D02*
X55191792Y-136807494D01*
X55191792Y-136807494D02*
X55287030Y-136902732D01*
X55287030Y-136902732D02*
X55334649Y-136997970D01*
X55334649Y-136997970D02*
X55382268Y-137188446D01*
X55382268Y-137188446D02*
X55382268Y-137331303D01*
X55382268Y-137331303D02*
X55334649Y-137521779D01*
X55334649Y-137521779D02*
X55287030Y-137617017D01*
X55287030Y-137617017D02*
X55191792Y-137712256D01*
X55191792Y-137712256D02*
X55048935Y-137759875D01*
X55048935Y-137759875D02*
X54953697Y-137759875D01*
X54953697Y-137759875D02*
X54810840Y-137712256D01*
X54810840Y-137712256D02*
X54763221Y-137664636D01*
X54763221Y-137664636D02*
X54763221Y-137331303D01*
X54763221Y-137331303D02*
X54953697Y-137331303D01*
X53620363Y-137474160D02*
X53144173Y-137474160D01*
X53715601Y-137759875D02*
X53382268Y-136759875D01*
X53382268Y-136759875D02*
X53048935Y-137759875D01*
X52858458Y-136759875D02*
X52287030Y-136759875D01*
X52572744Y-137759875D02*
X52572744Y-136759875D01*
X60572744Y-138369819D02*
X60382268Y-138369819D01*
X60382268Y-138369819D02*
X60287030Y-138417438D01*
X60287030Y-138417438D02*
X60191792Y-138512676D01*
X60191792Y-138512676D02*
X60144173Y-138703152D01*
X60144173Y-138703152D02*
X60144173Y-139036485D01*
X60144173Y-139036485D02*
X60191792Y-139226961D01*
X60191792Y-139226961D02*
X60287030Y-139322200D01*
X60287030Y-139322200D02*
X60382268Y-139369819D01*
X60382268Y-139369819D02*
X60572744Y-139369819D01*
X60572744Y-139369819D02*
X60667982Y-139322200D01*
X60667982Y-139322200D02*
X60763220Y-139226961D01*
X60763220Y-139226961D02*
X60810839Y-139036485D01*
X60810839Y-139036485D02*
X60810839Y-138703152D01*
X60810839Y-138703152D02*
X60763220Y-138512676D01*
X60763220Y-138512676D02*
X60667982Y-138417438D01*
X60667982Y-138417438D02*
X60572744Y-138369819D01*
X59858458Y-138369819D02*
X59525125Y-139369819D01*
X59525125Y-139369819D02*
X59191792Y-138369819D01*
X58858458Y-138846009D02*
X58525125Y-138846009D01*
X58382268Y-139369819D02*
X58858458Y-139369819D01*
X58858458Y-139369819D02*
X58858458Y-138369819D01*
X58858458Y-138369819D02*
X58382268Y-138369819D01*
X57382268Y-139369819D02*
X57715601Y-138893628D01*
X57953696Y-139369819D02*
X57953696Y-138369819D01*
X57953696Y-138369819D02*
X57572744Y-138369819D01*
X57572744Y-138369819D02*
X57477506Y-138417438D01*
X57477506Y-138417438D02*
X57429887Y-138465057D01*
X57429887Y-138465057D02*
X57382268Y-138560295D01*
X57382268Y-138560295D02*
X57382268Y-138703152D01*
X57382268Y-138703152D02*
X57429887Y-138798390D01*
X57429887Y-138798390D02*
X57477506Y-138846009D01*
X57477506Y-138846009D02*
X57572744Y-138893628D01*
X57572744Y-138893628D02*
X57953696Y-138893628D01*
X56191791Y-139369819D02*
X56191791Y-138369819D01*
X56191791Y-138846009D02*
X55620363Y-138846009D01*
X55620363Y-139369819D02*
X55620363Y-138369819D01*
X55144172Y-138846009D02*
X54810839Y-138846009D01*
X54667982Y-139369819D02*
X55144172Y-139369819D01*
X55144172Y-139369819D02*
X55144172Y-138369819D01*
X55144172Y-138369819D02*
X54667982Y-138369819D01*
X53667982Y-139369819D02*
X54001315Y-138893628D01*
X54239410Y-139369819D02*
X54239410Y-138369819D01*
X54239410Y-138369819D02*
X53858458Y-138369819D01*
X53858458Y-138369819D02*
X53763220Y-138417438D01*
X53763220Y-138417438D02*
X53715601Y-138465057D01*
X53715601Y-138465057D02*
X53667982Y-138560295D01*
X53667982Y-138560295D02*
X53667982Y-138703152D01*
X53667982Y-138703152D02*
X53715601Y-138798390D01*
X53715601Y-138798390D02*
X53763220Y-138846009D01*
X53763220Y-138846009D02*
X53858458Y-138893628D01*
X53858458Y-138893628D02*
X54239410Y-138893628D01*
X53239410Y-138846009D02*
X52906077Y-138846009D01*
X52763220Y-139369819D02*
X53239410Y-139369819D01*
X53239410Y-139369819D02*
X53239410Y-138369819D01*
X53239410Y-138369819D02*
X52763220Y-138369819D01*
X52191791Y-139274580D02*
X52144172Y-139322200D01*
X52144172Y-139322200D02*
X52191791Y-139369819D01*
X52191791Y-139369819D02*
X52239410Y-139322200D01*
X52239410Y-139322200D02*
X52191791Y-139274580D01*
X52191791Y-139274580D02*
X52191791Y-139369819D01*
X52382267Y-138417438D02*
X52287029Y-138369819D01*
X52287029Y-138369819D02*
X52048934Y-138369819D01*
X52048934Y-138369819D02*
X51953696Y-138417438D01*
X51953696Y-138417438D02*
X51906077Y-138512676D01*
X51906077Y-138512676D02*
X51906077Y-138607914D01*
X51906077Y-138607914D02*
X51953696Y-138703152D01*
X51953696Y-138703152D02*
X52001315Y-138750771D01*
X52001315Y-138750771D02*
X52096553Y-138798390D01*
X52096553Y-138798390D02*
X52144172Y-138846009D01*
X52144172Y-138846009D02*
X52191791Y-138941247D01*
X52191791Y-138941247D02*
X52191791Y-138988866D01*
X212963220Y-135249931D02*
X212963220Y-134249931D01*
X212963220Y-134249931D02*
X212725125Y-134249931D01*
X212725125Y-134249931D02*
X212582268Y-134297550D01*
X212582268Y-134297550D02*
X212487030Y-134392788D01*
X212487030Y-134392788D02*
X212439411Y-134488026D01*
X212439411Y-134488026D02*
X212391792Y-134678502D01*
X212391792Y-134678502D02*
X212391792Y-134821359D01*
X212391792Y-134821359D02*
X212439411Y-135011835D01*
X212439411Y-135011835D02*
X212487030Y-135107073D01*
X212487030Y-135107073D02*
X212582268Y-135202312D01*
X212582268Y-135202312D02*
X212725125Y-135249931D01*
X212725125Y-135249931D02*
X212963220Y-135249931D01*
X211820363Y-135249931D02*
X211915601Y-135202312D01*
X211915601Y-135202312D02*
X211963220Y-135154692D01*
X211963220Y-135154692D02*
X212010839Y-135059454D01*
X212010839Y-135059454D02*
X212010839Y-134773740D01*
X212010839Y-134773740D02*
X211963220Y-134678502D01*
X211963220Y-134678502D02*
X211915601Y-134630883D01*
X211915601Y-134630883D02*
X211820363Y-134583264D01*
X211820363Y-134583264D02*
X211677506Y-134583264D01*
X211677506Y-134583264D02*
X211582268Y-134630883D01*
X211582268Y-134630883D02*
X211534649Y-134678502D01*
X211534649Y-134678502D02*
X211487030Y-134773740D01*
X211487030Y-134773740D02*
X211487030Y-135059454D01*
X211487030Y-135059454D02*
X211534649Y-135154692D01*
X211534649Y-135154692D02*
X211582268Y-135202312D01*
X211582268Y-135202312D02*
X211677506Y-135249931D01*
X211677506Y-135249931D02*
X211820363Y-135249931D01*
X210629887Y-134583264D02*
X210629887Y-135249931D01*
X211058458Y-134583264D02*
X211058458Y-135107073D01*
X211058458Y-135107073D02*
X211010839Y-135202312D01*
X211010839Y-135202312D02*
X210915601Y-135249931D01*
X210915601Y-135249931D02*
X210772744Y-135249931D01*
X210772744Y-135249931D02*
X210677506Y-135202312D01*
X210677506Y-135202312D02*
X210629887Y-135154692D01*
X210153696Y-135249931D02*
X210153696Y-134249931D01*
X210153696Y-134630883D02*
X210058458Y-134583264D01*
X210058458Y-134583264D02*
X209867982Y-134583264D01*
X209867982Y-134583264D02*
X209772744Y-134630883D01*
X209772744Y-134630883D02*
X209725125Y-134678502D01*
X209725125Y-134678502D02*
X209677506Y-134773740D01*
X209677506Y-134773740D02*
X209677506Y-135059454D01*
X209677506Y-135059454D02*
X209725125Y-135154692D01*
X209725125Y-135154692D02*
X209772744Y-135202312D01*
X209772744Y-135202312D02*
X209867982Y-135249931D01*
X209867982Y-135249931D02*
X210058458Y-135249931D01*
X210058458Y-135249931D02*
X210153696Y-135202312D01*
X209106077Y-135249931D02*
X209201315Y-135202312D01*
X209201315Y-135202312D02*
X209248934Y-135107073D01*
X209248934Y-135107073D02*
X209248934Y-134249931D01*
X208344172Y-135202312D02*
X208439410Y-135249931D01*
X208439410Y-135249931D02*
X208629886Y-135249931D01*
X208629886Y-135249931D02*
X208725124Y-135202312D01*
X208725124Y-135202312D02*
X208772743Y-135107073D01*
X208772743Y-135107073D02*
X208772743Y-134726121D01*
X208772743Y-134726121D02*
X208725124Y-134630883D01*
X208725124Y-134630883D02*
X208629886Y-134583264D01*
X208629886Y-134583264D02*
X208439410Y-134583264D01*
X208439410Y-134583264D02*
X208344172Y-134630883D01*
X208344172Y-134630883D02*
X208296553Y-134726121D01*
X208296553Y-134726121D02*
X208296553Y-134821359D01*
X208296553Y-134821359D02*
X208772743Y-134916597D01*
X207248933Y-134583264D02*
X206867981Y-134583264D01*
X207106076Y-134249931D02*
X207106076Y-135107073D01*
X207106076Y-135107073D02*
X207058457Y-135202312D01*
X207058457Y-135202312D02*
X206963219Y-135249931D01*
X206963219Y-135249931D02*
X206867981Y-135249931D01*
X206534647Y-135249931D02*
X206534647Y-134249931D01*
X206106076Y-135249931D02*
X206106076Y-134726121D01*
X206106076Y-134726121D02*
X206153695Y-134630883D01*
X206153695Y-134630883D02*
X206248933Y-134583264D01*
X206248933Y-134583264D02*
X206391790Y-134583264D01*
X206391790Y-134583264D02*
X206487028Y-134630883D01*
X206487028Y-134630883D02*
X206534647Y-134678502D01*
X205248933Y-135202312D02*
X205344171Y-135249931D01*
X205344171Y-135249931D02*
X205534647Y-135249931D01*
X205534647Y-135249931D02*
X205629885Y-135202312D01*
X205629885Y-135202312D02*
X205677504Y-135107073D01*
X205677504Y-135107073D02*
X205677504Y-134726121D01*
X205677504Y-134726121D02*
X205629885Y-134630883D01*
X205629885Y-134630883D02*
X205534647Y-134583264D01*
X205534647Y-134583264D02*
X205344171Y-134583264D01*
X205344171Y-134583264D02*
X205248933Y-134630883D01*
X205248933Y-134630883D02*
X205201314Y-134726121D01*
X205201314Y-134726121D02*
X205201314Y-134821359D01*
X205201314Y-134821359D02*
X205677504Y-134916597D01*
X204010837Y-134726121D02*
X203677504Y-134726121D01*
X203534647Y-135249931D02*
X204010837Y-135249931D01*
X204010837Y-135249931D02*
X204010837Y-134249931D01*
X204010837Y-134249931D02*
X203534647Y-134249931D01*
X203106075Y-135249931D02*
X203106075Y-134249931D01*
X203106075Y-134249931D02*
X202725123Y-134249931D01*
X202725123Y-134249931D02*
X202629885Y-134297550D01*
X202629885Y-134297550D02*
X202582266Y-134345169D01*
X202582266Y-134345169D02*
X202534647Y-134440407D01*
X202534647Y-134440407D02*
X202534647Y-134583264D01*
X202534647Y-134583264D02*
X202582266Y-134678502D01*
X202582266Y-134678502D02*
X202629885Y-134726121D01*
X202629885Y-134726121D02*
X202725123Y-134773740D01*
X202725123Y-134773740D02*
X203106075Y-134773740D01*
X201534647Y-135249931D02*
X201867980Y-134773740D01*
X202106075Y-135249931D02*
X202106075Y-134249931D01*
X202106075Y-134249931D02*
X201725123Y-134249931D01*
X201725123Y-134249931D02*
X201629885Y-134297550D01*
X201629885Y-134297550D02*
X201582266Y-134345169D01*
X201582266Y-134345169D02*
X201534647Y-134440407D01*
X201534647Y-134440407D02*
X201534647Y-134583264D01*
X201534647Y-134583264D02*
X201582266Y-134678502D01*
X201582266Y-134678502D02*
X201629885Y-134726121D01*
X201629885Y-134726121D02*
X201725123Y-134773740D01*
X201725123Y-134773740D02*
X202106075Y-134773740D01*
X200915599Y-134249931D02*
X200725123Y-134249931D01*
X200725123Y-134249931D02*
X200629885Y-134297550D01*
X200629885Y-134297550D02*
X200534647Y-134392788D01*
X200534647Y-134392788D02*
X200487028Y-134583264D01*
X200487028Y-134583264D02*
X200487028Y-134916597D01*
X200487028Y-134916597D02*
X200534647Y-135107073D01*
X200534647Y-135107073D02*
X200629885Y-135202312D01*
X200629885Y-135202312D02*
X200725123Y-135249931D01*
X200725123Y-135249931D02*
X200915599Y-135249931D01*
X200915599Y-135249931D02*
X201010837Y-135202312D01*
X201010837Y-135202312D02*
X201106075Y-135107073D01*
X201106075Y-135107073D02*
X201153694Y-134916597D01*
X201153694Y-134916597D02*
X201153694Y-134583264D01*
X201153694Y-134583264D02*
X201106075Y-134392788D01*
X201106075Y-134392788D02*
X201010837Y-134297550D01*
X201010837Y-134297550D02*
X200915599Y-134249931D01*
X200058456Y-135249931D02*
X200058456Y-134249931D01*
X200058456Y-134249931D02*
X199725123Y-134964216D01*
X199725123Y-134964216D02*
X199391790Y-134249931D01*
X199391790Y-134249931D02*
X199391790Y-135249931D01*
X198487028Y-135249931D02*
X198487028Y-134726121D01*
X198487028Y-134726121D02*
X198534647Y-134630883D01*
X198534647Y-134630883D02*
X198629885Y-134583264D01*
X198629885Y-134583264D02*
X198820361Y-134583264D01*
X198820361Y-134583264D02*
X198915599Y-134630883D01*
X198487028Y-135202312D02*
X198582266Y-135249931D01*
X198582266Y-135249931D02*
X198820361Y-135249931D01*
X198820361Y-135249931D02*
X198915599Y-135202312D01*
X198915599Y-135202312D02*
X198963218Y-135107073D01*
X198963218Y-135107073D02*
X198963218Y-135011835D01*
X198963218Y-135011835D02*
X198915599Y-134916597D01*
X198915599Y-134916597D02*
X198820361Y-134868978D01*
X198820361Y-134868978D02*
X198582266Y-134868978D01*
X198582266Y-134868978D02*
X198487028Y-134821359D01*
X197582266Y-134583264D02*
X197582266Y-135392788D01*
X197582266Y-135392788D02*
X197629885Y-135488026D01*
X197629885Y-135488026D02*
X197677504Y-135535645D01*
X197677504Y-135535645D02*
X197772742Y-135583264D01*
X197772742Y-135583264D02*
X197915599Y-135583264D01*
X197915599Y-135583264D02*
X198010837Y-135535645D01*
X197582266Y-135202312D02*
X197677504Y-135249931D01*
X197677504Y-135249931D02*
X197867980Y-135249931D01*
X197867980Y-135249931D02*
X197963218Y-135202312D01*
X197963218Y-135202312D02*
X198010837Y-135154692D01*
X198010837Y-135154692D02*
X198058456Y-135059454D01*
X198058456Y-135059454D02*
X198058456Y-134773740D01*
X198058456Y-134773740D02*
X198010837Y-134678502D01*
X198010837Y-134678502D02*
X197963218Y-134630883D01*
X197963218Y-134630883D02*
X197867980Y-134583264D01*
X197867980Y-134583264D02*
X197677504Y-134583264D01*
X197677504Y-134583264D02*
X197582266Y-134630883D01*
X196725123Y-135202312D02*
X196820361Y-135249931D01*
X196820361Y-135249931D02*
X197010837Y-135249931D01*
X197010837Y-135249931D02*
X197106075Y-135202312D01*
X197106075Y-135202312D02*
X197153694Y-135107073D01*
X197153694Y-135107073D02*
X197153694Y-134726121D01*
X197153694Y-134726121D02*
X197106075Y-134630883D01*
X197106075Y-134630883D02*
X197010837Y-134583264D01*
X197010837Y-134583264D02*
X196820361Y-134583264D01*
X196820361Y-134583264D02*
X196725123Y-134630883D01*
X196725123Y-134630883D02*
X196677504Y-134726121D01*
X196677504Y-134726121D02*
X196677504Y-134821359D01*
X196677504Y-134821359D02*
X197153694Y-134916597D01*
X213106077Y-136193208D02*
X212725125Y-136193208D01*
X212963220Y-136859875D02*
X212963220Y-136002732D01*
X212963220Y-136002732D02*
X212915601Y-135907494D01*
X212915601Y-135907494D02*
X212820363Y-135859875D01*
X212820363Y-135859875D02*
X212725125Y-135859875D01*
X212248934Y-136859875D02*
X212344172Y-136812256D01*
X212344172Y-136812256D02*
X212391791Y-136764636D01*
X212391791Y-136764636D02*
X212439410Y-136669398D01*
X212439410Y-136669398D02*
X212439410Y-136383684D01*
X212439410Y-136383684D02*
X212391791Y-136288446D01*
X212391791Y-136288446D02*
X212344172Y-136240827D01*
X212344172Y-136240827D02*
X212248934Y-136193208D01*
X212248934Y-136193208D02*
X212106077Y-136193208D01*
X212106077Y-136193208D02*
X212010839Y-136240827D01*
X212010839Y-136240827D02*
X211963220Y-136288446D01*
X211963220Y-136288446D02*
X211915601Y-136383684D01*
X211915601Y-136383684D02*
X211915601Y-136669398D01*
X211915601Y-136669398D02*
X211963220Y-136764636D01*
X211963220Y-136764636D02*
X212010839Y-136812256D01*
X212010839Y-136812256D02*
X212106077Y-136859875D01*
X212106077Y-136859875D02*
X212248934Y-136859875D01*
X211487029Y-136859875D02*
X211487029Y-136193208D01*
X211487029Y-136383684D02*
X211439410Y-136288446D01*
X211439410Y-136288446D02*
X211391791Y-136240827D01*
X211391791Y-136240827D02*
X211296553Y-136193208D01*
X211296553Y-136193208D02*
X211201315Y-136193208D01*
X209677505Y-136859875D02*
X209677505Y-135859875D01*
X209677505Y-136812256D02*
X209772743Y-136859875D01*
X209772743Y-136859875D02*
X209963219Y-136859875D01*
X209963219Y-136859875D02*
X210058457Y-136812256D01*
X210058457Y-136812256D02*
X210106076Y-136764636D01*
X210106076Y-136764636D02*
X210153695Y-136669398D01*
X210153695Y-136669398D02*
X210153695Y-136383684D01*
X210153695Y-136383684D02*
X210106076Y-136288446D01*
X210106076Y-136288446D02*
X210058457Y-136240827D01*
X210058457Y-136240827D02*
X209963219Y-136193208D01*
X209963219Y-136193208D02*
X209772743Y-136193208D01*
X209772743Y-136193208D02*
X209677505Y-136240827D01*
X209058457Y-136859875D02*
X209153695Y-136812256D01*
X209153695Y-136812256D02*
X209201314Y-136764636D01*
X209201314Y-136764636D02*
X209248933Y-136669398D01*
X209248933Y-136669398D02*
X209248933Y-136383684D01*
X209248933Y-136383684D02*
X209201314Y-136288446D01*
X209201314Y-136288446D02*
X209153695Y-136240827D01*
X209153695Y-136240827D02*
X209058457Y-136193208D01*
X209058457Y-136193208D02*
X208915600Y-136193208D01*
X208915600Y-136193208D02*
X208820362Y-136240827D01*
X208820362Y-136240827D02*
X208772743Y-136288446D01*
X208772743Y-136288446D02*
X208725124Y-136383684D01*
X208725124Y-136383684D02*
X208725124Y-136669398D01*
X208725124Y-136669398D02*
X208772743Y-136764636D01*
X208772743Y-136764636D02*
X208820362Y-136812256D01*
X208820362Y-136812256D02*
X208915600Y-136859875D01*
X208915600Y-136859875D02*
X209058457Y-136859875D01*
X207867981Y-136193208D02*
X207867981Y-136859875D01*
X208296552Y-136193208D02*
X208296552Y-136717017D01*
X208296552Y-136717017D02*
X208248933Y-136812256D01*
X208248933Y-136812256D02*
X208153695Y-136859875D01*
X208153695Y-136859875D02*
X208010838Y-136859875D01*
X208010838Y-136859875D02*
X207915600Y-136812256D01*
X207915600Y-136812256D02*
X207867981Y-136764636D01*
X207391790Y-136859875D02*
X207391790Y-135859875D01*
X207391790Y-136240827D02*
X207296552Y-136193208D01*
X207296552Y-136193208D02*
X207106076Y-136193208D01*
X207106076Y-136193208D02*
X207010838Y-136240827D01*
X207010838Y-136240827D02*
X206963219Y-136288446D01*
X206963219Y-136288446D02*
X206915600Y-136383684D01*
X206915600Y-136383684D02*
X206915600Y-136669398D01*
X206915600Y-136669398D02*
X206963219Y-136764636D01*
X206963219Y-136764636D02*
X207010838Y-136812256D01*
X207010838Y-136812256D02*
X207106076Y-136859875D01*
X207106076Y-136859875D02*
X207296552Y-136859875D01*
X207296552Y-136859875D02*
X207391790Y-136812256D01*
X206344171Y-136859875D02*
X206439409Y-136812256D01*
X206439409Y-136812256D02*
X206487028Y-136717017D01*
X206487028Y-136717017D02*
X206487028Y-135859875D01*
X205582266Y-136812256D02*
X205677504Y-136859875D01*
X205677504Y-136859875D02*
X205867980Y-136859875D01*
X205867980Y-136859875D02*
X205963218Y-136812256D01*
X205963218Y-136812256D02*
X206010837Y-136717017D01*
X206010837Y-136717017D02*
X206010837Y-136336065D01*
X206010837Y-136336065D02*
X205963218Y-136240827D01*
X205963218Y-136240827D02*
X205867980Y-136193208D01*
X205867980Y-136193208D02*
X205677504Y-136193208D01*
X205677504Y-136193208D02*
X205582266Y-136240827D01*
X205582266Y-136240827D02*
X205534647Y-136336065D01*
X205534647Y-136336065D02*
X205534647Y-136431303D01*
X205534647Y-136431303D02*
X206010837Y-136526541D01*
X204487027Y-136193208D02*
X204106075Y-136193208D01*
X204344170Y-135859875D02*
X204344170Y-136717017D01*
X204344170Y-136717017D02*
X204296551Y-136812256D01*
X204296551Y-136812256D02*
X204201313Y-136859875D01*
X204201313Y-136859875D02*
X204106075Y-136859875D01*
X203772741Y-136859875D02*
X203772741Y-135859875D01*
X203344170Y-136859875D02*
X203344170Y-136336065D01*
X203344170Y-136336065D02*
X203391789Y-136240827D01*
X203391789Y-136240827D02*
X203487027Y-136193208D01*
X203487027Y-136193208D02*
X203629884Y-136193208D01*
X203629884Y-136193208D02*
X203725122Y-136240827D01*
X203725122Y-136240827D02*
X203772741Y-136288446D01*
X202487027Y-136812256D02*
X202582265Y-136859875D01*
X202582265Y-136859875D02*
X202772741Y-136859875D01*
X202772741Y-136859875D02*
X202867979Y-136812256D01*
X202867979Y-136812256D02*
X202915598Y-136717017D01*
X202915598Y-136717017D02*
X202915598Y-136336065D01*
X202915598Y-136336065D02*
X202867979Y-136240827D01*
X202867979Y-136240827D02*
X202772741Y-136193208D01*
X202772741Y-136193208D02*
X202582265Y-136193208D01*
X202582265Y-136193208D02*
X202487027Y-136240827D01*
X202487027Y-136240827D02*
X202439408Y-136336065D01*
X202439408Y-136336065D02*
X202439408Y-136431303D01*
X202439408Y-136431303D02*
X202915598Y-136526541D01*
X200915598Y-136336065D02*
X200772741Y-136383684D01*
X200772741Y-136383684D02*
X200725122Y-136431303D01*
X200725122Y-136431303D02*
X200677503Y-136526541D01*
X200677503Y-136526541D02*
X200677503Y-136669398D01*
X200677503Y-136669398D02*
X200725122Y-136764636D01*
X200725122Y-136764636D02*
X200772741Y-136812256D01*
X200772741Y-136812256D02*
X200867979Y-136859875D01*
X200867979Y-136859875D02*
X201248931Y-136859875D01*
X201248931Y-136859875D02*
X201248931Y-135859875D01*
X201248931Y-135859875D02*
X200915598Y-135859875D01*
X200915598Y-135859875D02*
X200820360Y-135907494D01*
X200820360Y-135907494D02*
X200772741Y-135955113D01*
X200772741Y-135955113D02*
X200725122Y-136050351D01*
X200725122Y-136050351D02*
X200725122Y-136145589D01*
X200725122Y-136145589D02*
X200772741Y-136240827D01*
X200772741Y-136240827D02*
X200820360Y-136288446D01*
X200820360Y-136288446D02*
X200915598Y-136336065D01*
X200915598Y-136336065D02*
X201248931Y-136336065D01*
X200248931Y-136859875D02*
X200248931Y-135859875D01*
X199582265Y-135859875D02*
X199391789Y-135859875D01*
X199391789Y-135859875D02*
X199296551Y-135907494D01*
X199296551Y-135907494D02*
X199201313Y-136002732D01*
X199201313Y-136002732D02*
X199153694Y-136193208D01*
X199153694Y-136193208D02*
X199153694Y-136526541D01*
X199153694Y-136526541D02*
X199201313Y-136717017D01*
X199201313Y-136717017D02*
X199296551Y-136812256D01*
X199296551Y-136812256D02*
X199391789Y-136859875D01*
X199391789Y-136859875D02*
X199582265Y-136859875D01*
X199582265Y-136859875D02*
X199677503Y-136812256D01*
X199677503Y-136812256D02*
X199772741Y-136717017D01*
X199772741Y-136717017D02*
X199820360Y-136526541D01*
X199820360Y-136526541D02*
X199820360Y-136193208D01*
X199820360Y-136193208D02*
X199772741Y-136002732D01*
X199772741Y-136002732D02*
X199677503Y-135907494D01*
X199677503Y-135907494D02*
X199582265Y-135859875D01*
X198772741Y-136812256D02*
X198629884Y-136859875D01*
X198629884Y-136859875D02*
X198391789Y-136859875D01*
X198391789Y-136859875D02*
X198296551Y-136812256D01*
X198296551Y-136812256D02*
X198248932Y-136764636D01*
X198248932Y-136764636D02*
X198201313Y-136669398D01*
X198201313Y-136669398D02*
X198201313Y-136574160D01*
X198201313Y-136574160D02*
X198248932Y-136478922D01*
X198248932Y-136478922D02*
X198296551Y-136431303D01*
X198296551Y-136431303D02*
X198391789Y-136383684D01*
X198391789Y-136383684D02*
X198582265Y-136336065D01*
X198582265Y-136336065D02*
X198677503Y-136288446D01*
X198677503Y-136288446D02*
X198725122Y-136240827D01*
X198725122Y-136240827D02*
X198772741Y-136145589D01*
X198772741Y-136145589D02*
X198772741Y-136050351D01*
X198772741Y-136050351D02*
X198725122Y-135955113D01*
X198725122Y-135955113D02*
X198677503Y-135907494D01*
X198677503Y-135907494D02*
X198582265Y-135859875D01*
X198582265Y-135859875D02*
X198344170Y-135859875D01*
X198344170Y-135859875D02*
X198201313Y-135907494D01*
X212963220Y-138469819D02*
X212963220Y-137469819D01*
X212963220Y-137850771D02*
X212867982Y-137803152D01*
X212867982Y-137803152D02*
X212677506Y-137803152D01*
X212677506Y-137803152D02*
X212582268Y-137850771D01*
X212582268Y-137850771D02*
X212534649Y-137898390D01*
X212534649Y-137898390D02*
X212487030Y-137993628D01*
X212487030Y-137993628D02*
X212487030Y-138279342D01*
X212487030Y-138279342D02*
X212534649Y-138374580D01*
X212534649Y-138374580D02*
X212582268Y-138422200D01*
X212582268Y-138422200D02*
X212677506Y-138469819D01*
X212677506Y-138469819D02*
X212867982Y-138469819D01*
X212867982Y-138469819D02*
X212963220Y-138422200D01*
X211677506Y-138422200D02*
X211772744Y-138469819D01*
X211772744Y-138469819D02*
X211963220Y-138469819D01*
X211963220Y-138469819D02*
X212058458Y-138422200D01*
X212058458Y-138422200D02*
X212106077Y-138326961D01*
X212106077Y-138326961D02*
X212106077Y-137946009D01*
X212106077Y-137946009D02*
X212058458Y-137850771D01*
X212058458Y-137850771D02*
X211963220Y-137803152D01*
X211963220Y-137803152D02*
X211772744Y-137803152D01*
X211772744Y-137803152D02*
X211677506Y-137850771D01*
X211677506Y-137850771D02*
X211629887Y-137946009D01*
X211629887Y-137946009D02*
X211629887Y-138041247D01*
X211629887Y-138041247D02*
X212106077Y-138136485D01*
X211201315Y-137803152D02*
X211201315Y-138469819D01*
X211201315Y-137898390D02*
X211153696Y-137850771D01*
X211153696Y-137850771D02*
X211058458Y-137803152D01*
X211058458Y-137803152D02*
X210915601Y-137803152D01*
X210915601Y-137803152D02*
X210820363Y-137850771D01*
X210820363Y-137850771D02*
X210772744Y-137946009D01*
X210772744Y-137946009D02*
X210772744Y-138469819D01*
X209867982Y-138422200D02*
X209963220Y-138469819D01*
X209963220Y-138469819D02*
X210153696Y-138469819D01*
X210153696Y-138469819D02*
X210248934Y-138422200D01*
X210248934Y-138422200D02*
X210296553Y-138374580D01*
X210296553Y-138374580D02*
X210344172Y-138279342D01*
X210344172Y-138279342D02*
X210344172Y-137993628D01*
X210344172Y-137993628D02*
X210296553Y-137898390D01*
X210296553Y-137898390D02*
X210248934Y-137850771D01*
X210248934Y-137850771D02*
X210153696Y-137803152D01*
X210153696Y-137803152D02*
X209963220Y-137803152D01*
X209963220Y-137803152D02*
X209867982Y-137850771D01*
X209439410Y-138469819D02*
X209439410Y-137469819D01*
X209010839Y-138469819D02*
X209010839Y-137946009D01*
X209010839Y-137946009D02*
X209058458Y-137850771D01*
X209058458Y-137850771D02*
X209153696Y-137803152D01*
X209153696Y-137803152D02*
X209296553Y-137803152D01*
X209296553Y-137803152D02*
X209391791Y-137850771D01*
X209391791Y-137850771D02*
X209439410Y-137898390D01*
X208534648Y-138469819D02*
X208534648Y-137803152D01*
X208534648Y-137898390D02*
X208487029Y-137850771D01*
X208487029Y-137850771D02*
X208391791Y-137803152D01*
X208391791Y-137803152D02*
X208248934Y-137803152D01*
X208248934Y-137803152D02*
X208153696Y-137850771D01*
X208153696Y-137850771D02*
X208106077Y-137946009D01*
X208106077Y-137946009D02*
X208106077Y-138469819D01*
X208106077Y-137946009D02*
X208058458Y-137850771D01*
X208058458Y-137850771D02*
X207963220Y-137803152D01*
X207963220Y-137803152D02*
X207820363Y-137803152D01*
X207820363Y-137803152D02*
X207725124Y-137850771D01*
X207725124Y-137850771D02*
X207677505Y-137946009D01*
X207677505Y-137946009D02*
X207677505Y-138469819D01*
X206772744Y-138469819D02*
X206772744Y-137946009D01*
X206772744Y-137946009D02*
X206820363Y-137850771D01*
X206820363Y-137850771D02*
X206915601Y-137803152D01*
X206915601Y-137803152D02*
X207106077Y-137803152D01*
X207106077Y-137803152D02*
X207201315Y-137850771D01*
X206772744Y-138422200D02*
X206867982Y-138469819D01*
X206867982Y-138469819D02*
X207106077Y-138469819D01*
X207106077Y-138469819D02*
X207201315Y-138422200D01*
X207201315Y-138422200D02*
X207248934Y-138326961D01*
X207248934Y-138326961D02*
X207248934Y-138231723D01*
X207248934Y-138231723D02*
X207201315Y-138136485D01*
X207201315Y-138136485D02*
X207106077Y-138088866D01*
X207106077Y-138088866D02*
X206867982Y-138088866D01*
X206867982Y-138088866D02*
X206772744Y-138041247D01*
X206296553Y-138469819D02*
X206296553Y-137803152D01*
X206296553Y-137993628D02*
X206248934Y-137898390D01*
X206248934Y-137898390D02*
X206201315Y-137850771D01*
X206201315Y-137850771D02*
X206106077Y-137803152D01*
X206106077Y-137803152D02*
X206010839Y-137803152D01*
X205677505Y-138469819D02*
X205677505Y-137469819D01*
X205582267Y-138088866D02*
X205296553Y-138469819D01*
X205296553Y-137803152D02*
X205677505Y-138184104D01*
X204153695Y-138422200D02*
X204058457Y-138469819D01*
X204058457Y-138469819D02*
X203867981Y-138469819D01*
X203867981Y-138469819D02*
X203772743Y-138422200D01*
X203772743Y-138422200D02*
X203725124Y-138326961D01*
X203725124Y-138326961D02*
X203725124Y-138279342D01*
X203725124Y-138279342D02*
X203772743Y-138184104D01*
X203772743Y-138184104D02*
X203867981Y-138136485D01*
X203867981Y-138136485D02*
X204010838Y-138136485D01*
X204010838Y-138136485D02*
X204106076Y-138088866D01*
X204106076Y-138088866D02*
X204153695Y-137993628D01*
X204153695Y-137993628D02*
X204153695Y-137946009D01*
X204153695Y-137946009D02*
X204106076Y-137850771D01*
X204106076Y-137850771D02*
X204010838Y-137803152D01*
X204010838Y-137803152D02*
X203867981Y-137803152D01*
X203867981Y-137803152D02*
X203772743Y-137850771D01*
X202867981Y-138422200D02*
X202963219Y-138469819D01*
X202963219Y-138469819D02*
X203153695Y-138469819D01*
X203153695Y-138469819D02*
X203248933Y-138422200D01*
X203248933Y-138422200D02*
X203296552Y-138374580D01*
X203296552Y-138374580D02*
X203344171Y-138279342D01*
X203344171Y-138279342D02*
X203344171Y-137993628D01*
X203344171Y-137993628D02*
X203296552Y-137898390D01*
X203296552Y-137898390D02*
X203248933Y-137850771D01*
X203248933Y-137850771D02*
X203153695Y-137803152D01*
X203153695Y-137803152D02*
X202963219Y-137803152D01*
X202963219Y-137803152D02*
X202867981Y-137850771D01*
X202296552Y-138469819D02*
X202391790Y-138422200D01*
X202391790Y-138422200D02*
X202439409Y-138374580D01*
X202439409Y-138374580D02*
X202487028Y-138279342D01*
X202487028Y-138279342D02*
X202487028Y-137993628D01*
X202487028Y-137993628D02*
X202439409Y-137898390D01*
X202439409Y-137898390D02*
X202391790Y-137850771D01*
X202391790Y-137850771D02*
X202296552Y-137803152D01*
X202296552Y-137803152D02*
X202153695Y-137803152D01*
X202153695Y-137803152D02*
X202058457Y-137850771D01*
X202058457Y-137850771D02*
X202010838Y-137898390D01*
X202010838Y-137898390D02*
X201963219Y-137993628D01*
X201963219Y-137993628D02*
X201963219Y-138279342D01*
X201963219Y-138279342D02*
X202010838Y-138374580D01*
X202010838Y-138374580D02*
X202058457Y-138422200D01*
X202058457Y-138422200D02*
X202153695Y-138469819D01*
X202153695Y-138469819D02*
X202296552Y-138469819D01*
X201534647Y-138469819D02*
X201534647Y-137803152D01*
X201534647Y-137993628D02*
X201487028Y-137898390D01*
X201487028Y-137898390D02*
X201439409Y-137850771D01*
X201439409Y-137850771D02*
X201344171Y-137803152D01*
X201344171Y-137803152D02*
X201248933Y-137803152D01*
X200534647Y-138422200D02*
X200629885Y-138469819D01*
X200629885Y-138469819D02*
X200820361Y-138469819D01*
X200820361Y-138469819D02*
X200915599Y-138422200D01*
X200915599Y-138422200D02*
X200963218Y-138326961D01*
X200963218Y-138326961D02*
X200963218Y-137946009D01*
X200963218Y-137946009D02*
X200915599Y-137850771D01*
X200915599Y-137850771D02*
X200820361Y-137803152D01*
X200820361Y-137803152D02*
X200629885Y-137803152D01*
X200629885Y-137803152D02*
X200534647Y-137850771D01*
X200534647Y-137850771D02*
X200487028Y-137946009D01*
X200487028Y-137946009D02*
X200487028Y-138041247D01*
X200487028Y-138041247D02*
X200963218Y-138136485D01*
X200106075Y-138422200D02*
X200010837Y-138469819D01*
X200010837Y-138469819D02*
X199820361Y-138469819D01*
X199820361Y-138469819D02*
X199725123Y-138422200D01*
X199725123Y-138422200D02*
X199677504Y-138326961D01*
X199677504Y-138326961D02*
X199677504Y-138279342D01*
X199677504Y-138279342D02*
X199725123Y-138184104D01*
X199725123Y-138184104D02*
X199820361Y-138136485D01*
X199820361Y-138136485D02*
X199963218Y-138136485D01*
X199963218Y-138136485D02*
X200058456Y-138088866D01*
X200058456Y-138088866D02*
X200106075Y-137993628D01*
X200106075Y-137993628D02*
X200106075Y-137946009D01*
X200106075Y-137946009D02*
X200058456Y-137850771D01*
X200058456Y-137850771D02*
X199963218Y-137803152D01*
X199963218Y-137803152D02*
X199820361Y-137803152D01*
X199820361Y-137803152D02*
X199725123Y-137850771D01*
X214110839Y-99269819D02*
X214110839Y-99460295D01*
X213729887Y-99269819D02*
X213729887Y-99460295D01*
X213301315Y-100269819D02*
X213301315Y-99269819D01*
X212301316Y-99317438D02*
X212396554Y-99269819D01*
X212396554Y-99269819D02*
X212539411Y-99269819D01*
X212539411Y-99269819D02*
X212682268Y-99317438D01*
X212682268Y-99317438D02*
X212777506Y-99412676D01*
X212777506Y-99412676D02*
X212825125Y-99507914D01*
X212825125Y-99507914D02*
X212872744Y-99698390D01*
X212872744Y-99698390D02*
X212872744Y-99841247D01*
X212872744Y-99841247D02*
X212825125Y-100031723D01*
X212825125Y-100031723D02*
X212777506Y-100126961D01*
X212777506Y-100126961D02*
X212682268Y-100222200D01*
X212682268Y-100222200D02*
X212539411Y-100269819D01*
X212539411Y-100269819D02*
X212444173Y-100269819D01*
X212444173Y-100269819D02*
X212301316Y-100222200D01*
X212301316Y-100222200D02*
X212253697Y-100174580D01*
X212253697Y-100174580D02*
X212253697Y-99841247D01*
X212253697Y-99841247D02*
X212444173Y-99841247D01*
X211301316Y-99317438D02*
X211396554Y-99269819D01*
X211396554Y-99269819D02*
X211539411Y-99269819D01*
X211539411Y-99269819D02*
X211682268Y-99317438D01*
X211682268Y-99317438D02*
X211777506Y-99412676D01*
X211777506Y-99412676D02*
X211825125Y-99507914D01*
X211825125Y-99507914D02*
X211872744Y-99698390D01*
X211872744Y-99698390D02*
X211872744Y-99841247D01*
X211872744Y-99841247D02*
X211825125Y-100031723D01*
X211825125Y-100031723D02*
X211777506Y-100126961D01*
X211777506Y-100126961D02*
X211682268Y-100222200D01*
X211682268Y-100222200D02*
X211539411Y-100269819D01*
X211539411Y-100269819D02*
X211444173Y-100269819D01*
X211444173Y-100269819D02*
X211301316Y-100222200D01*
X211301316Y-100222200D02*
X211253697Y-100174580D01*
X211253697Y-100174580D02*
X211253697Y-99841247D01*
X211253697Y-99841247D02*
X211444173Y-99841247D01*
X210825125Y-100269819D02*
X210825125Y-99269819D01*
X210825125Y-99269819D02*
X210491792Y-99984104D01*
X210491792Y-99984104D02*
X210158459Y-99269819D01*
X210158459Y-99269819D02*
X210158459Y-100269819D01*
X209063220Y-99269819D02*
X208491792Y-99269819D01*
X208777506Y-100269819D02*
X208777506Y-99269819D01*
X208158458Y-100269819D02*
X208158458Y-99269819D01*
X208158458Y-99746009D02*
X207587030Y-99746009D01*
X207587030Y-100269819D02*
X207587030Y-99269819D01*
X206587030Y-99317438D02*
X206682268Y-99269819D01*
X206682268Y-99269819D02*
X206825125Y-99269819D01*
X206825125Y-99269819D02*
X206967982Y-99317438D01*
X206967982Y-99317438D02*
X207063220Y-99412676D01*
X207063220Y-99412676D02*
X207110839Y-99507914D01*
X207110839Y-99507914D02*
X207158458Y-99698390D01*
X207158458Y-99698390D02*
X207158458Y-99841247D01*
X207158458Y-99841247D02*
X207110839Y-100031723D01*
X207110839Y-100031723D02*
X207063220Y-100126961D01*
X207063220Y-100126961D02*
X206967982Y-100222200D01*
X206967982Y-100222200D02*
X206825125Y-100269819D01*
X206825125Y-100269819D02*
X206729887Y-100269819D01*
X206729887Y-100269819D02*
X206587030Y-100222200D01*
X206587030Y-100222200D02*
X206539411Y-100174580D01*
X206539411Y-100174580D02*
X206539411Y-99841247D01*
X206539411Y-99841247D02*
X206729887Y-99841247D01*
X206110839Y-100269819D02*
X206110839Y-99269819D01*
X206110839Y-99746009D02*
X205539411Y-99746009D01*
X205539411Y-100269819D02*
X205539411Y-99269819D01*
X204301315Y-100269819D02*
X204301315Y-99269819D01*
X204301315Y-99269819D02*
X203967982Y-99984104D01*
X203967982Y-99984104D02*
X203634649Y-99269819D01*
X203634649Y-99269819D02*
X203634649Y-100269819D01*
X202587030Y-100269819D02*
X202920363Y-99793628D01*
X203158458Y-100269819D02*
X203158458Y-99269819D01*
X203158458Y-99269819D02*
X202777506Y-99269819D01*
X202777506Y-99269819D02*
X202682268Y-99317438D01*
X202682268Y-99317438D02*
X202634649Y-99365057D01*
X202634649Y-99365057D02*
X202587030Y-99460295D01*
X202587030Y-99460295D02*
X202587030Y-99603152D01*
X202587030Y-99603152D02*
X202634649Y-99698390D01*
X202634649Y-99698390D02*
X202682268Y-99746009D01*
X202682268Y-99746009D02*
X202777506Y-99793628D01*
X202777506Y-99793628D02*
X203158458Y-99793628D01*
X201587030Y-100269819D02*
X201920363Y-99793628D01*
X202158458Y-100269819D02*
X202158458Y-99269819D01*
X202158458Y-99269819D02*
X201777506Y-99269819D01*
X201777506Y-99269819D02*
X201682268Y-99317438D01*
X201682268Y-99317438D02*
X201634649Y-99365057D01*
X201634649Y-99365057D02*
X201587030Y-99460295D01*
X201587030Y-99460295D02*
X201587030Y-99603152D01*
X201587030Y-99603152D02*
X201634649Y-99698390D01*
X201634649Y-99698390D02*
X201682268Y-99746009D01*
X201682268Y-99746009D02*
X201777506Y-99793628D01*
X201777506Y-99793628D02*
X202158458Y-99793628D01*
X200634649Y-99317438D02*
X200729887Y-99269819D01*
X200729887Y-99269819D02*
X200872744Y-99269819D01*
X200872744Y-99269819D02*
X201015601Y-99317438D01*
X201015601Y-99317438D02*
X201110839Y-99412676D01*
X201110839Y-99412676D02*
X201158458Y-99507914D01*
X201158458Y-99507914D02*
X201206077Y-99698390D01*
X201206077Y-99698390D02*
X201206077Y-99841247D01*
X201206077Y-99841247D02*
X201158458Y-100031723D01*
X201158458Y-100031723D02*
X201110839Y-100126961D01*
X201110839Y-100126961D02*
X201015601Y-100222200D01*
X201015601Y-100222200D02*
X200872744Y-100269819D01*
X200872744Y-100269819D02*
X200777506Y-100269819D01*
X200777506Y-100269819D02*
X200634649Y-100222200D01*
X200634649Y-100222200D02*
X200587030Y-100174580D01*
X200587030Y-100174580D02*
X200587030Y-99841247D01*
X200587030Y-99841247D02*
X200777506Y-99841247D01*
X200158458Y-100269819D02*
X200158458Y-99269819D01*
X200158458Y-99746009D02*
X199587030Y-99746009D01*
X199587030Y-100269819D02*
X199587030Y-99269819D01*
X199110839Y-100269819D02*
X199110839Y-99269819D01*
X199110839Y-99746009D02*
X198539411Y-99746009D01*
X198539411Y-100269819D02*
X198539411Y-99269819D01*
X197539411Y-99317438D02*
X197634649Y-99269819D01*
X197634649Y-99269819D02*
X197777506Y-99269819D01*
X197777506Y-99269819D02*
X197920363Y-99317438D01*
X197920363Y-99317438D02*
X198015601Y-99412676D01*
X198015601Y-99412676D02*
X198063220Y-99507914D01*
X198063220Y-99507914D02*
X198110839Y-99698390D01*
X198110839Y-99698390D02*
X198110839Y-99841247D01*
X198110839Y-99841247D02*
X198063220Y-100031723D01*
X198063220Y-100031723D02*
X198015601Y-100126961D01*
X198015601Y-100126961D02*
X197920363Y-100222200D01*
X197920363Y-100222200D02*
X197777506Y-100269819D01*
X197777506Y-100269819D02*
X197682268Y-100269819D01*
X197682268Y-100269819D02*
X197539411Y-100222200D01*
X197539411Y-100222200D02*
X197491792Y-100174580D01*
X197491792Y-100174580D02*
X197491792Y-99841247D01*
X197491792Y-99841247D02*
X197682268Y-99841247D01*
X196587030Y-100269819D02*
X197063220Y-100269819D01*
X197063220Y-100269819D02*
X197063220Y-99269819D01*
X195777506Y-100269819D02*
X196253696Y-100269819D01*
X196253696Y-100269819D02*
X196253696Y-99269819D01*
X194348934Y-99746009D02*
X194206077Y-99793628D01*
X194206077Y-99793628D02*
X194158458Y-99841247D01*
X194158458Y-99841247D02*
X194110839Y-99936485D01*
X194110839Y-99936485D02*
X194110839Y-100079342D01*
X194110839Y-100079342D02*
X194158458Y-100174580D01*
X194158458Y-100174580D02*
X194206077Y-100222200D01*
X194206077Y-100222200D02*
X194301315Y-100269819D01*
X194301315Y-100269819D02*
X194682267Y-100269819D01*
X194682267Y-100269819D02*
X194682267Y-99269819D01*
X194682267Y-99269819D02*
X194348934Y-99269819D01*
X194348934Y-99269819D02*
X194253696Y-99317438D01*
X194253696Y-99317438D02*
X194206077Y-99365057D01*
X194206077Y-99365057D02*
X194158458Y-99460295D01*
X194158458Y-99460295D02*
X194158458Y-99555533D01*
X194158458Y-99555533D02*
X194206077Y-99650771D01*
X194206077Y-99650771D02*
X194253696Y-99698390D01*
X194253696Y-99698390D02*
X194348934Y-99746009D01*
X194348934Y-99746009D02*
X194682267Y-99746009D01*
X193158458Y-99317438D02*
X193253696Y-99269819D01*
X193253696Y-99269819D02*
X193396553Y-99269819D01*
X193396553Y-99269819D02*
X193539410Y-99317438D01*
X193539410Y-99317438D02*
X193634648Y-99412676D01*
X193634648Y-99412676D02*
X193682267Y-99507914D01*
X193682267Y-99507914D02*
X193729886Y-99698390D01*
X193729886Y-99698390D02*
X193729886Y-99841247D01*
X193729886Y-99841247D02*
X193682267Y-100031723D01*
X193682267Y-100031723D02*
X193634648Y-100126961D01*
X193634648Y-100126961D02*
X193539410Y-100222200D01*
X193539410Y-100222200D02*
X193396553Y-100269819D01*
X193396553Y-100269819D02*
X193301315Y-100269819D01*
X193301315Y-100269819D02*
X193158458Y-100222200D01*
X193158458Y-100222200D02*
X193110839Y-100174580D01*
X193110839Y-100174580D02*
X193110839Y-99841247D01*
X193110839Y-99841247D02*
X193301315Y-99841247D01*
X192158458Y-99317438D02*
X192253696Y-99269819D01*
X192253696Y-99269819D02*
X192396553Y-99269819D01*
X192396553Y-99269819D02*
X192539410Y-99317438D01*
X192539410Y-99317438D02*
X192634648Y-99412676D01*
X192634648Y-99412676D02*
X192682267Y-99507914D01*
X192682267Y-99507914D02*
X192729886Y-99698390D01*
X192729886Y-99698390D02*
X192729886Y-99841247D01*
X192729886Y-99841247D02*
X192682267Y-100031723D01*
X192682267Y-100031723D02*
X192634648Y-100126961D01*
X192634648Y-100126961D02*
X192539410Y-100222200D01*
X192539410Y-100222200D02*
X192396553Y-100269819D01*
X192396553Y-100269819D02*
X192301315Y-100269819D01*
X192301315Y-100269819D02*
X192158458Y-100222200D01*
X192158458Y-100222200D02*
X192110839Y-100174580D01*
X192110839Y-100174580D02*
X192110839Y-99841247D01*
X192110839Y-99841247D02*
X192301315Y-99841247D01*
X191158458Y-99317438D02*
X191253696Y-99269819D01*
X191253696Y-99269819D02*
X191396553Y-99269819D01*
X191396553Y-99269819D02*
X191539410Y-99317438D01*
X191539410Y-99317438D02*
X191634648Y-99412676D01*
X191634648Y-99412676D02*
X191682267Y-99507914D01*
X191682267Y-99507914D02*
X191729886Y-99698390D01*
X191729886Y-99698390D02*
X191729886Y-99841247D01*
X191729886Y-99841247D02*
X191682267Y-100031723D01*
X191682267Y-100031723D02*
X191634648Y-100126961D01*
X191634648Y-100126961D02*
X191539410Y-100222200D01*
X191539410Y-100222200D02*
X191396553Y-100269819D01*
X191396553Y-100269819D02*
X191301315Y-100269819D01*
X191301315Y-100269819D02*
X191158458Y-100222200D01*
X191158458Y-100222200D02*
X191110839Y-100174580D01*
X191110839Y-100174580D02*
X191110839Y-99841247D01*
X191110839Y-99841247D02*
X191301315Y-99841247D01*
X190206077Y-100269819D02*
X190682267Y-100269819D01*
X190682267Y-100269819D02*
X190682267Y-99269819D01*
X189872743Y-100174580D02*
X189825124Y-100222200D01*
X189825124Y-100222200D02*
X189872743Y-100269819D01*
X189872743Y-100269819D02*
X189920362Y-100222200D01*
X189920362Y-100222200D02*
X189872743Y-100174580D01*
X189872743Y-100174580D02*
X189872743Y-100269819D01*
X189872743Y-99888866D02*
X189920362Y-99317438D01*
X189920362Y-99317438D02*
X189872743Y-99269819D01*
X189872743Y-99269819D02*
X189825124Y-99317438D01*
X189825124Y-99317438D02*
X189872743Y-99888866D01*
X189872743Y-99888866D02*
X189872743Y-99269819D01*
X189444172Y-99269819D02*
X189444172Y-99460295D01*
X189063220Y-99269819D02*
X189063220Y-99460295D01*
X184479580Y-126957142D02*
X184527200Y-126909523D01*
X184527200Y-126909523D02*
X184574819Y-126766666D01*
X184574819Y-126766666D02*
X184574819Y-126671428D01*
X184574819Y-126671428D02*
X184527200Y-126528571D01*
X184527200Y-126528571D02*
X184431961Y-126433333D01*
X184431961Y-126433333D02*
X184336723Y-126385714D01*
X184336723Y-126385714D02*
X184146247Y-126338095D01*
X184146247Y-126338095D02*
X184003390Y-126338095D01*
X184003390Y-126338095D02*
X183812914Y-126385714D01*
X183812914Y-126385714D02*
X183717676Y-126433333D01*
X183717676Y-126433333D02*
X183622438Y-126528571D01*
X183622438Y-126528571D02*
X183574819Y-126671428D01*
X183574819Y-126671428D02*
X183574819Y-126766666D01*
X183574819Y-126766666D02*
X183622438Y-126909523D01*
X183622438Y-126909523D02*
X183670057Y-126957142D01*
X183670057Y-127338095D02*
X183622438Y-127385714D01*
X183622438Y-127385714D02*
X183574819Y-127480952D01*
X183574819Y-127480952D02*
X183574819Y-127719047D01*
X183574819Y-127719047D02*
X183622438Y-127814285D01*
X183622438Y-127814285D02*
X183670057Y-127861904D01*
X183670057Y-127861904D02*
X183765295Y-127909523D01*
X183765295Y-127909523D02*
X183860533Y-127909523D01*
X183860533Y-127909523D02*
X184003390Y-127861904D01*
X184003390Y-127861904D02*
X184574819Y-127290476D01*
X184574819Y-127290476D02*
X184574819Y-127909523D01*
X183574819Y-128814285D02*
X183574819Y-128338095D01*
X183574819Y-128338095D02*
X184051009Y-128290476D01*
X184051009Y-128290476D02*
X184003390Y-128338095D01*
X184003390Y-128338095D02*
X183955771Y-128433333D01*
X183955771Y-128433333D02*
X183955771Y-128671428D01*
X183955771Y-128671428D02*
X184003390Y-128766666D01*
X184003390Y-128766666D02*
X184051009Y-128814285D01*
X184051009Y-128814285D02*
X184146247Y-128861904D01*
X184146247Y-128861904D02*
X184384342Y-128861904D01*
X184384342Y-128861904D02*
X184479580Y-128814285D01*
X184479580Y-128814285D02*
X184527200Y-128766666D01*
X184527200Y-128766666D02*
X184574819Y-128671428D01*
X184574819Y-128671428D02*
X184574819Y-128433333D01*
X184574819Y-128433333D02*
X184527200Y-128338095D01*
X184527200Y-128338095D02*
X184479580Y-128290476D01*
X225158333Y-115056009D02*
X225491666Y-115056009D01*
X225491666Y-115579819D02*
X225491666Y-114579819D01*
X225491666Y-114579819D02*
X225015476Y-114579819D01*
X224110714Y-115579819D02*
X224682142Y-115579819D01*
X224396428Y-115579819D02*
X224396428Y-114579819D01*
X224396428Y-114579819D02*
X224491666Y-114722676D01*
X224491666Y-114722676D02*
X224586904Y-114817914D01*
X224586904Y-114817914D02*
X224682142Y-114865533D01*
D12*
%TO.C,C25*%
X185065000Y-127338748D02*
X185065000Y-127861252D01*
X186535000Y-127338748D02*
X186535000Y-127861252D01*
%TO.C,F1*%
X227366422Y-114415000D02*
X227883578Y-114415000D01*
X227366422Y-115835000D02*
X227883578Y-115835000D01*
D13*
%TO.C,G\u002A\u002A\u002A*%
G36*
X150739815Y-119588889D02*
G01*
X150661420Y-119667284D01*
X150583025Y-119588889D01*
X150661420Y-119510494D01*
X150739815Y-119588889D01*
G37*
G36*
X151523766Y-119902469D02*
G01*
X151445370Y-119980864D01*
X151366975Y-119902469D01*
X151445370Y-119824074D01*
X151523766Y-119902469D01*
G37*
G36*
X151680556Y-130720988D02*
G01*
X151602161Y-130799383D01*
X151523766Y-130720988D01*
X151602161Y-130642593D01*
X151680556Y-130720988D01*
G37*
G36*
X151837346Y-119275309D02*
G01*
X151758951Y-119353704D01*
X151680556Y-119275309D01*
X151758951Y-119196914D01*
X151837346Y-119275309D01*
G37*
G36*
X152464506Y-130720988D02*
G01*
X152386111Y-130799383D01*
X152307716Y-130720988D01*
X152386111Y-130642593D01*
X152464506Y-130720988D01*
G37*
G36*
X153091667Y-128055556D02*
G01*
X153013272Y-128133951D01*
X152934877Y-128055556D01*
X153013272Y-127977160D01*
X153091667Y-128055556D01*
G37*
G36*
X153248457Y-128839506D02*
G01*
X153170062Y-128917901D01*
X153091667Y-128839506D01*
X153170062Y-128761111D01*
X153248457Y-128839506D01*
G37*
G36*
X154032408Y-128839506D02*
G01*
X153954012Y-128917901D01*
X153875617Y-128839506D01*
X153954012Y-128761111D01*
X154032408Y-128839506D01*
G37*
G36*
X154189198Y-119432099D02*
G01*
X154110803Y-119510494D01*
X154032408Y-119432099D01*
X154110803Y-119353704D01*
X154189198Y-119432099D01*
G37*
G36*
X154345988Y-132602469D02*
G01*
X154267593Y-132680864D01*
X154189198Y-132602469D01*
X154267593Y-132524074D01*
X154345988Y-132602469D01*
G37*
G36*
X155129938Y-131818519D02*
G01*
X155051543Y-131896914D01*
X154973148Y-131818519D01*
X155051543Y-131740123D01*
X155129938Y-131818519D01*
G37*
G36*
X155286728Y-131504938D02*
G01*
X155208333Y-131583333D01*
X155129938Y-131504938D01*
X155208333Y-131426543D01*
X155286728Y-131504938D01*
G37*
G36*
X155443519Y-129309877D02*
G01*
X155365124Y-129388272D01*
X155286728Y-129309877D01*
X155365124Y-129231481D01*
X155443519Y-129309877D01*
G37*
G36*
X156384259Y-129309877D02*
G01*
X156305864Y-129388272D01*
X156227469Y-129309877D01*
X156305864Y-129231481D01*
X156384259Y-129309877D01*
G37*
G36*
X156384259Y-130720988D02*
G01*
X156305864Y-130799383D01*
X156227469Y-130720988D01*
X156305864Y-130642593D01*
X156384259Y-130720988D01*
G37*
G36*
X156541049Y-131818519D02*
G01*
X156462654Y-131896914D01*
X156384259Y-131818519D01*
X156462654Y-131740123D01*
X156541049Y-131818519D01*
G37*
G36*
X156854630Y-129780247D02*
G01*
X156776235Y-129858642D01*
X156697840Y-129780247D01*
X156776235Y-129701852D01*
X156854630Y-129780247D01*
G37*
G36*
X157011420Y-130877778D02*
G01*
X156933025Y-130956173D01*
X156854630Y-130877778D01*
X156933025Y-130799383D01*
X157011420Y-130877778D01*
G37*
G36*
X157325000Y-130250617D02*
G01*
X157246605Y-130329012D01*
X157168210Y-130250617D01*
X157246605Y-130172222D01*
X157325000Y-130250617D01*
G37*
G36*
X157952161Y-119745679D02*
G01*
X157873766Y-119824074D01*
X157795370Y-119745679D01*
X157873766Y-119667284D01*
X157952161Y-119745679D01*
G37*
G36*
X162499074Y-120059259D02*
G01*
X162420679Y-120137654D01*
X162342284Y-120059259D01*
X162420679Y-119980864D01*
X162499074Y-120059259D01*
G37*
G36*
X162655864Y-118648148D02*
G01*
X162577469Y-118726543D01*
X162499074Y-118648148D01*
X162577469Y-118569753D01*
X162655864Y-118648148D01*
G37*
G36*
X165164506Y-119745679D02*
G01*
X165086111Y-119824074D01*
X165007716Y-119745679D01*
X165086111Y-119667284D01*
X165164506Y-119745679D01*
G37*
G36*
X166732408Y-118648148D02*
G01*
X166654012Y-118726543D01*
X166575617Y-118648148D01*
X166654012Y-118569753D01*
X166732408Y-118648148D01*
G37*
G36*
X167829938Y-121783951D02*
G01*
X167751543Y-121862346D01*
X167673148Y-121783951D01*
X167751543Y-121705556D01*
X167829938Y-121783951D01*
G37*
G36*
X152150926Y-131112963D02*
G01*
X152139611Y-131195967D01*
X152046399Y-131217490D01*
X152027635Y-131194509D01*
X152046399Y-131008436D01*
X152093559Y-130983907D01*
X152150926Y-131112963D01*
G37*
G36*
X154164441Y-130015432D02*
G01*
X154142586Y-130231116D01*
X154085359Y-130211420D01*
X154064650Y-130140448D01*
X154085359Y-129819444D01*
X154139802Y-129792848D01*
X154164441Y-130015432D01*
G37*
G36*
X155548045Y-130694856D02*
G01*
X155572575Y-130742016D01*
X155443519Y-130799383D01*
X155360514Y-130788068D01*
X155338992Y-130694856D01*
X155361972Y-130676091D01*
X155548045Y-130694856D01*
G37*
G36*
X155861626Y-130224486D02*
G01*
X155886155Y-130271645D01*
X155757099Y-130329012D01*
X155674095Y-130317697D01*
X155652572Y-130224486D01*
X155675552Y-130205721D01*
X155861626Y-130224486D01*
G37*
G36*
X156070679Y-132837654D02*
G01*
X156059364Y-132920659D01*
X155966152Y-132942181D01*
X155947388Y-132919201D01*
X155966152Y-132733128D01*
X156013312Y-132708598D01*
X156070679Y-132837654D01*
G37*
G36*
X156384259Y-132210494D02*
G01*
X156372944Y-132293498D01*
X156279733Y-132315021D01*
X156260968Y-132292040D01*
X156279733Y-132105967D01*
X156326892Y-132081438D01*
X156384259Y-132210494D01*
G37*
G36*
X164066975Y-122959877D02*
G01*
X164055660Y-123042881D01*
X163962449Y-123064403D01*
X163943684Y-123041423D01*
X163962449Y-122855350D01*
X164009608Y-122830820D01*
X164066975Y-122959877D01*
G37*
G36*
X165425823Y-120033128D02*
G01*
X165450352Y-120080287D01*
X165321296Y-120137654D01*
X165238292Y-120126339D01*
X165216770Y-120033128D01*
X165239750Y-120014363D01*
X165425823Y-120033128D01*
G37*
G36*
X168131140Y-123652366D02*
G01*
X168120054Y-123811392D01*
X168048791Y-123858153D01*
X168017721Y-123802683D01*
X168036413Y-123557639D01*
X168092849Y-123485066D01*
X168131140Y-123652366D01*
G37*
G36*
X168143519Y-122489506D02*
G01*
X168132203Y-122572510D01*
X168038992Y-122594033D01*
X168020227Y-122571053D01*
X168038992Y-122384979D01*
X168086152Y-122360450D01*
X168143519Y-122489506D01*
G37*
G36*
X150519602Y-131088738D02*
G01*
X150498772Y-131120655D01*
X150343853Y-131265054D01*
X150269445Y-131200611D01*
X150283460Y-131165345D01*
X150450460Y-131019596D01*
X150538082Y-130981447D01*
X150519602Y-131088738D01*
G37*
G36*
X152137818Y-129678589D02*
G01*
X152096821Y-129930275D01*
X151990742Y-130135523D01*
X151916334Y-130127094D01*
X151950332Y-129852423D01*
X152017965Y-129672986D01*
X152111813Y-129610476D01*
X152137818Y-129678589D01*
G37*
G36*
X155249768Y-120691142D02*
G01*
X155213200Y-120913731D01*
X155161030Y-120970998D01*
X154948653Y-120984861D01*
X154879694Y-120914852D01*
X154956874Y-120718373D01*
X155098098Y-120631193D01*
X155249768Y-120691142D01*
G37*
G36*
X156138994Y-131158923D02*
G01*
X156060801Y-131305245D01*
X155944170Y-131352297D01*
X155927377Y-131276722D01*
X156051223Y-131071152D01*
X156071873Y-131050894D01*
X156186730Y-130975747D01*
X156138994Y-131158923D01*
G37*
G36*
X156634417Y-133283799D02*
G01*
X156586017Y-133353450D01*
X156453401Y-133464815D01*
X156431482Y-133463289D01*
X156396954Y-133372528D01*
X156565275Y-133214657D01*
X156652896Y-133176509D01*
X156634417Y-133283799D01*
G37*
G36*
X157461588Y-133001617D02*
G01*
X157328145Y-133225841D01*
X157127992Y-133433451D01*
X157069026Y-133416770D01*
X157200144Y-133158365D01*
X157337065Y-132979275D01*
X157459000Y-132919391D01*
X157461588Y-133001617D01*
G37*
G36*
X163194549Y-119713244D02*
G01*
X163116357Y-119859566D01*
X162999725Y-119906618D01*
X162982933Y-119831043D01*
X163106779Y-119625473D01*
X163127429Y-119605215D01*
X163242286Y-119530068D01*
X163194549Y-119713244D01*
G37*
G36*
X163580865Y-124481450D02*
G01*
X163422345Y-124693592D01*
X163298293Y-124752099D01*
X163318982Y-124635835D01*
X163505867Y-124406452D01*
X163664438Y-124258216D01*
X163714754Y-124246175D01*
X163580865Y-124481450D01*
G37*
G36*
X164109119Y-122031704D02*
G01*
X164024246Y-122233759D01*
X163943462Y-122197361D01*
X163930038Y-122097087D01*
X164040564Y-121826041D01*
X164047953Y-121818766D01*
X164144734Y-121789666D01*
X164109119Y-122031704D01*
G37*
G36*
X164686262Y-119270442D02*
G01*
X164743441Y-119322922D01*
X164755490Y-119538067D01*
X164682701Y-119603963D01*
X164526272Y-119492576D01*
X164468569Y-119380348D01*
X164479366Y-119216502D01*
X164686262Y-119270442D01*
G37*
G36*
X164787503Y-121210960D02*
G01*
X164766673Y-121242877D01*
X164611755Y-121387276D01*
X164537346Y-121322834D01*
X164551361Y-121287567D01*
X164718361Y-121141818D01*
X164805983Y-121103669D01*
X164787503Y-121210960D01*
G37*
G36*
X165140753Y-120549175D02*
G01*
X165092558Y-120754383D01*
X165018817Y-120857704D01*
X164913492Y-120900584D01*
X164953612Y-120679658D01*
X165012492Y-120565341D01*
X165121181Y-120512436D01*
X165140753Y-120549175D01*
G37*
G36*
X167649395Y-122117076D02*
G01*
X167601200Y-122322285D01*
X167527459Y-122425605D01*
X167422134Y-122468485D01*
X167462254Y-122247559D01*
X167521134Y-122133242D01*
X167629823Y-122080337D01*
X167649395Y-122117076D01*
G37*
G36*
X150224372Y-121662947D02*
G01*
X150175370Y-121925062D01*
X150105991Y-122058250D01*
X149995520Y-122111055D01*
X149969579Y-122030386D01*
X150018580Y-121768272D01*
X150087959Y-121635083D01*
X150198431Y-121582278D01*
X150224372Y-121662947D01*
G37*
G36*
X150421467Y-119053189D02*
G01*
X150412983Y-119172205D01*
X150321708Y-119405967D01*
X150188900Y-119476905D01*
X150149981Y-119353165D01*
X150250305Y-119091081D01*
X150284174Y-119033999D01*
X150391979Y-118907365D01*
X150421467Y-119053189D01*
G37*
G36*
X150964530Y-130205115D02*
G01*
X150953304Y-130407407D01*
X150894936Y-130517940D01*
X150727961Y-130642593D01*
X150671890Y-130609699D01*
X150683115Y-130407407D01*
X150741484Y-130296874D01*
X150908459Y-130172222D01*
X150964530Y-130205115D01*
G37*
G36*
X152216890Y-119366014D02*
G01*
X152229321Y-119510494D01*
X152197140Y-119557415D01*
X152063278Y-119667284D01*
X152047630Y-119663208D01*
X151994136Y-119510494D01*
X152000517Y-119467519D01*
X152160179Y-119353704D01*
X152216890Y-119366014D01*
G37*
G36*
X154119863Y-132844709D02*
G01*
X154267593Y-132994444D01*
X154296797Y-133049956D01*
X154286099Y-133151235D01*
X154258532Y-133144179D01*
X154110803Y-132994444D01*
X154081599Y-132938933D01*
X154092296Y-132837654D01*
X154119863Y-132844709D01*
G37*
G36*
X154816358Y-132358031D02*
G01*
X154810333Y-132403541D01*
X154659568Y-132524074D01*
X154624085Y-132522276D01*
X154502778Y-132454932D01*
X154509993Y-132429782D01*
X154659568Y-132288889D01*
X154720303Y-132264390D01*
X154816358Y-132358031D01*
G37*
G36*
X155828327Y-133163314D02*
G01*
X155835494Y-133308025D01*
X155803453Y-133350397D01*
X155581802Y-133464815D01*
X155529081Y-133452735D01*
X155521914Y-133308025D01*
X155553955Y-133265653D01*
X155775605Y-133151235D01*
X155828327Y-133163314D01*
G37*
G36*
X157903567Y-114705933D02*
G01*
X157934098Y-114778246D01*
X157898056Y-115035213D01*
X157753867Y-115231988D01*
X157570017Y-115252524D01*
X157481790Y-115051229D01*
X157537573Y-114856004D01*
X157716960Y-114685645D01*
X157903567Y-114705933D01*
G37*
G36*
X163060315Y-118799033D02*
G01*
X162946825Y-119079321D01*
X162826257Y-119337164D01*
X162699983Y-119505647D01*
X162655864Y-119383671D01*
X162709849Y-119234318D01*
X162893597Y-118952498D01*
X163034961Y-118779540D01*
X163060315Y-118799033D01*
G37*
G36*
X163543760Y-123604594D02*
G01*
X163417416Y-123878219D01*
X163361301Y-123963465D01*
X163194641Y-124137446D01*
X163157071Y-124052755D01*
X163283025Y-123743827D01*
X163421910Y-123538878D01*
X163541777Y-123479945D01*
X163543760Y-123604594D01*
G37*
G36*
X163591837Y-118896399D02*
G01*
X163583353Y-119015415D01*
X163492078Y-119249177D01*
X163359270Y-119320115D01*
X163320351Y-119196375D01*
X163420675Y-118934291D01*
X163454544Y-118877208D01*
X163562350Y-118750575D01*
X163591837Y-118896399D01*
G37*
G36*
X164197949Y-123591739D02*
G01*
X164066975Y-123822222D01*
X163934190Y-123949331D01*
X163787105Y-123986590D01*
X163779212Y-123895916D01*
X163910185Y-123665432D01*
X164042971Y-123538324D01*
X164190056Y-123501064D01*
X164197949Y-123591739D01*
G37*
G36*
X167895902Y-122815397D02*
G01*
X167908333Y-122959877D01*
X167876153Y-123006798D01*
X167742290Y-123116667D01*
X167726643Y-123112590D01*
X167673148Y-122959877D01*
X167679529Y-122916902D01*
X167839192Y-122803086D01*
X167895902Y-122815397D01*
G37*
G36*
X150840618Y-118925237D02*
G01*
X151122568Y-119092387D01*
X151128267Y-119096565D01*
X151292809Y-119254794D01*
X151184849Y-119301440D01*
X151049295Y-119274174D01*
X150765947Y-119092387D01*
X150678441Y-118973072D01*
X150703666Y-118883333D01*
X150840618Y-118925237D01*
G37*
G36*
X153860148Y-131883715D02*
G01*
X153713311Y-132220801D01*
X153602827Y-132404793D01*
X153492804Y-132524074D01*
X153463031Y-132465917D01*
X153508496Y-132240161D01*
X153616125Y-131973450D01*
X153737753Y-131806822D01*
X153826493Y-131770611D01*
X153860148Y-131883715D01*
G37*
G36*
X159520062Y-101401235D02*
G01*
X159728619Y-101625143D01*
X159833642Y-101823027D01*
X159760853Y-101872229D01*
X159520062Y-101793210D01*
X159331599Y-101641021D01*
X159206482Y-101371418D01*
X159214055Y-101256422D01*
X159293835Y-101219803D01*
X159520062Y-101401235D01*
G37*
G36*
X164184539Y-124347859D02*
G01*
X164071627Y-124675876D01*
X163985183Y-124827957D01*
X163854094Y-124986235D01*
X163837398Y-124869281D01*
X163945876Y-124492790D01*
X163974277Y-124415756D01*
X164100502Y-124174012D01*
X164183074Y-124170517D01*
X164184539Y-124347859D01*
G37*
G36*
X166357719Y-120972830D02*
G01*
X166348875Y-121221524D01*
X166289585Y-121288091D01*
X166016270Y-121391975D01*
X165964496Y-121390097D01*
X165869327Y-121317709D01*
X165982400Y-121082308D01*
X166136833Y-120912804D01*
X166315005Y-120911857D01*
X166357719Y-120972830D01*
G37*
G36*
X166537780Y-118961362D02*
G01*
X166502986Y-119058751D01*
X166596176Y-119300080D01*
X166678069Y-119413858D01*
X166692409Y-119510494D01*
X166623049Y-119476845D01*
X166430412Y-119289267D01*
X166328728Y-119105761D01*
X166450411Y-118950550D01*
X166539369Y-118908248D01*
X166537780Y-118961362D01*
G37*
G36*
X157676536Y-130649380D02*
G01*
X157789391Y-130803730D01*
X157700201Y-131178535D01*
X157634025Y-131301104D01*
X157459499Y-131426543D01*
X157399566Y-131370072D01*
X157470757Y-131133578D01*
X157544227Y-130940828D01*
X157528537Y-130741603D01*
X157504548Y-130703255D01*
X157612449Y-130642593D01*
X157676536Y-130649380D01*
G37*
G36*
X162910598Y-120151955D02*
G01*
X162887056Y-120330775D01*
X162772052Y-120616023D01*
X162612327Y-120882407D01*
X162559807Y-120948006D01*
X162416447Y-121075373D01*
X162421313Y-120954001D01*
X162577469Y-120608025D01*
X162600469Y-120564132D01*
X162779260Y-120261520D01*
X162890155Y-120137654D01*
X162910598Y-120151955D01*
G37*
G36*
X165046914Y-116618788D02*
G01*
X165084118Y-116630243D01*
X165386651Y-116744040D01*
X165447619Y-116884315D01*
X165321554Y-117158160D01*
X165218983Y-117336718D01*
X165096070Y-117402218D01*
X164921862Y-117210787D01*
X164867130Y-117135266D01*
X164703541Y-116795036D01*
X164766215Y-116609877D01*
X165046914Y-116618788D01*
G37*
G36*
X153912253Y-119758829D02*
G01*
X153868707Y-119966474D01*
X153754135Y-120303089D01*
X153603327Y-120670675D01*
X153451072Y-120971234D01*
X153431841Y-120997969D01*
X153297753Y-121023165D01*
X153292517Y-120925203D01*
X153385423Y-120631319D01*
X153550637Y-120259681D01*
X153735940Y-119923838D01*
X153889109Y-119737341D01*
X153912253Y-119758829D01*
G37*
G36*
X155694831Y-120806660D02*
G01*
X155608576Y-121135045D01*
X155470483Y-121423877D01*
X155275830Y-121530587D01*
X154973148Y-121391975D01*
X154922969Y-121358318D01*
X154854126Y-121262680D01*
X155072454Y-121237586D01*
X155289700Y-121181777D01*
X155497408Y-120889254D01*
X155576053Y-120688607D01*
X155676872Y-120632324D01*
X155694831Y-120806660D01*
G37*
G36*
X157389721Y-131609410D02*
G01*
X157349700Y-131803101D01*
X157211151Y-132130453D01*
X157018415Y-132494545D01*
X156815836Y-132798457D01*
X156718284Y-132914007D01*
X156617581Y-132977015D01*
X156678154Y-132771243D01*
X156900014Y-132296623D01*
X157027689Y-132054331D01*
X157234344Y-131723949D01*
X157368224Y-131591068D01*
X157389721Y-131609410D01*
G37*
G36*
X162279336Y-120297547D02*
G01*
X162249206Y-120451135D01*
X162107099Y-120764815D01*
X162084375Y-120808116D01*
X161902529Y-121111129D01*
X161785466Y-121235185D01*
X161778071Y-121232082D01*
X161808202Y-121078494D01*
X161950309Y-120764815D01*
X161973032Y-120721514D01*
X162154879Y-120418501D01*
X162271942Y-120294444D01*
X162279336Y-120297547D01*
G37*
G36*
X164444737Y-120124368D02*
G01*
X164231517Y-120592831D01*
X164126584Y-120784713D01*
X163906925Y-121107575D01*
X163750209Y-121235185D01*
X163648399Y-121220256D01*
X163617519Y-121122013D01*
X163732327Y-120882349D01*
X164011525Y-120444686D01*
X164111101Y-120297950D01*
X164371365Y-119968063D01*
X164486965Y-119913157D01*
X164444737Y-120124368D01*
G37*
G36*
X165808755Y-116828178D02*
G01*
X165835931Y-116854869D01*
X165891709Y-117095649D01*
X165776524Y-117533455D01*
X165735817Y-117639457D01*
X165579307Y-117915493D01*
X165458611Y-117911081D01*
X165440840Y-117661873D01*
X165561677Y-117305385D01*
X165694217Y-116979992D01*
X165708325Y-116785239D01*
X165695533Y-116755003D01*
X165808755Y-116828178D01*
G37*
G36*
X165952788Y-120231856D02*
G01*
X165883923Y-120524875D01*
X165709245Y-120929391D01*
X165692324Y-120961429D01*
X165488002Y-121266563D01*
X165322191Y-121391975D01*
X165320470Y-121391963D01*
X165245863Y-121270897D01*
X165362296Y-120924972D01*
X165663521Y-120372839D01*
X165790232Y-120189122D01*
X165920128Y-120102538D01*
X165952788Y-120231856D01*
G37*
G36*
X167823978Y-120722714D02*
G01*
X167737144Y-121066440D01*
X167403048Y-121532643D01*
X167300087Y-121648872D01*
X167056160Y-121913479D01*
X166942671Y-122019136D01*
X166957981Y-121954958D01*
X167067980Y-121676420D01*
X167251968Y-121252153D01*
X167398976Y-120951260D01*
X167589802Y-120645510D01*
X167712346Y-120555851D01*
X167823978Y-120722714D01*
G37*
G36*
X155736037Y-132005003D02*
G01*
X155648873Y-132294038D01*
X155474187Y-132671039D01*
X155249054Y-133042669D01*
X155210667Y-133095804D01*
X154992533Y-133345787D01*
X154863826Y-133407756D01*
X154864281Y-133346882D01*
X154967885Y-133085228D01*
X155157976Y-132711779D01*
X155380253Y-132324160D01*
X155580418Y-132019996D01*
X155704168Y-131896914D01*
X155736037Y-132005003D01*
G37*
G36*
X167499094Y-119951614D02*
G01*
X167399865Y-120246860D01*
X167164498Y-120781783D01*
X167016008Y-121082762D01*
X166815227Y-121418271D01*
X166683562Y-121548765D01*
X166631905Y-121495155D01*
X166658739Y-121245311D01*
X166781524Y-120871671D01*
X166963546Y-120463754D01*
X167168093Y-120111078D01*
X167358453Y-119903158D01*
X167470695Y-119857492D01*
X167499094Y-119951614D01*
G37*
G36*
X150753992Y-109985954D02*
G01*
X150900656Y-110431710D01*
X150978237Y-110916251D01*
X150869302Y-111674920D01*
X150471654Y-112334586D01*
X150319850Y-112466428D01*
X149912800Y-112590440D01*
X149525622Y-112465089D01*
X149264953Y-112110202D01*
X149230327Y-111676170D01*
X149378574Y-111103010D01*
X149678309Y-110537753D01*
X150084353Y-110091695D01*
X150335916Y-109907828D01*
X150588768Y-109820917D01*
X150753992Y-109985954D01*
G37*
G36*
X160612606Y-121128871D02*
G01*
X160611707Y-121140500D01*
X160524362Y-121361679D01*
X160331046Y-121744331D01*
X160083297Y-122194411D01*
X159832654Y-122617875D01*
X159630655Y-122920679D01*
X159491365Y-123085273D01*
X159428771Y-123087108D01*
X159512794Y-122843746D01*
X159740099Y-122371914D01*
X159820520Y-122218035D01*
X160107930Y-121711316D01*
X160360161Y-121326101D01*
X160540594Y-121114561D01*
X160612606Y-121128871D01*
G37*
G36*
X165079740Y-114294522D02*
G01*
X165351036Y-114436389D01*
X165967424Y-114781306D01*
X166495028Y-115102565D01*
X167124383Y-115512346D01*
X165321296Y-115598664D01*
X164655061Y-115632411D01*
X164040877Y-115667476D01*
X163607265Y-115696793D01*
X163420574Y-115716257D01*
X163419374Y-115716579D01*
X163439216Y-115601630D01*
X163578705Y-115280746D01*
X163808373Y-114821895D01*
X164293806Y-113896259D01*
X165079740Y-114294522D01*
G37*
G36*
X167009609Y-118697739D02*
G01*
X167172897Y-118996206D01*
X167279375Y-119244000D01*
X167314264Y-119506996D01*
X167184536Y-119723899D01*
X167165216Y-119745466D01*
X166917614Y-119954369D01*
X166819235Y-119894954D01*
X166893078Y-119578682D01*
X167010013Y-119220334D01*
X167027562Y-118962351D01*
X166890994Y-118960618D01*
X166815012Y-118969611D01*
X166840157Y-118784979D01*
X166905319Y-118663653D01*
X167009609Y-118697739D01*
G37*
G36*
X144151100Y-115157514D02*
G01*
X144376731Y-115377997D01*
X144400844Y-115443199D01*
X144428832Y-115613928D01*
X144327192Y-115733373D01*
X144037214Y-115841831D01*
X143500187Y-115979595D01*
X143038401Y-116091553D01*
X142668922Y-116169703D01*
X142506636Y-116168589D01*
X142496238Y-116084159D01*
X142582425Y-115912362D01*
X142597344Y-115885375D01*
X142916381Y-115511701D01*
X143337381Y-115249246D01*
X143776802Y-115122890D01*
X144151100Y-115157514D01*
G37*
G36*
X152931390Y-119242357D02*
G01*
X152920626Y-119298590D01*
X152810160Y-119583497D01*
X152618110Y-119987110D01*
X152439458Y-120327185D01*
X152285824Y-120554250D01*
X152185094Y-120555729D01*
X152091102Y-120364696D01*
X152063625Y-120242396D01*
X152152722Y-120217159D01*
X152221426Y-120238235D01*
X152311203Y-120107710D01*
X152360796Y-119946629D01*
X152510970Y-119677088D01*
X152699125Y-119409866D01*
X152860765Y-119234958D01*
X152931390Y-119242357D01*
G37*
G36*
X164012407Y-119090659D02*
G01*
X163978693Y-119270187D01*
X163829906Y-119645021D01*
X163596605Y-120137654D01*
X163577458Y-120175423D01*
X163328391Y-120637106D01*
X163133751Y-120946593D01*
X163034244Y-121038667D01*
X163032299Y-121036054D01*
X163068333Y-120857910D01*
X163217068Y-120483197D01*
X163448067Y-119989116D01*
X163468153Y-119948829D01*
X163714848Y-119486382D01*
X163909115Y-119177830D01*
X164010428Y-119088103D01*
X164012407Y-119090659D01*
G37*
G36*
X162499074Y-118938157D02*
G01*
X162444108Y-119128072D01*
X162236326Y-119557149D01*
X161899842Y-120151613D01*
X161462323Y-120860170D01*
X161427270Y-120914714D01*
X161108124Y-121383262D01*
X160900520Y-121640148D01*
X160823122Y-121675208D01*
X160894592Y-121478280D01*
X161133594Y-121039198D01*
X161221727Y-120887487D01*
X161561417Y-120293830D01*
X161868824Y-119745679D01*
X161985675Y-119538940D01*
X162254219Y-119111062D01*
X162433691Y-118900117D01*
X162499074Y-118938157D01*
G37*
G36*
X156965619Y-119326482D02*
G01*
X157011420Y-119449568D01*
X156932486Y-119515522D01*
X156658642Y-119551540D01*
X156510152Y-119560446D01*
X156384259Y-119695984D01*
X156326645Y-119873543D01*
X156124774Y-120164506D01*
X155948781Y-120350347D01*
X155832754Y-120451235D01*
X155823994Y-120449071D01*
X155804936Y-120295531D01*
X155858798Y-119990339D01*
X155956053Y-119661325D01*
X156067177Y-119436319D01*
X156145929Y-119372907D01*
X156417243Y-119286529D01*
X156729016Y-119271595D01*
X156965619Y-119326482D01*
G37*
G36*
X162116106Y-118448102D02*
G01*
X162092798Y-118592905D01*
X161933937Y-118929350D01*
X161672364Y-119375777D01*
X161422809Y-119783040D01*
X161175452Y-120216425D01*
X161041117Y-120490432D01*
X160963189Y-120637721D01*
X160787258Y-120764815D01*
X160770094Y-120746590D01*
X160823195Y-120537385D01*
X160999664Y-120143814D01*
X161272923Y-119628086D01*
X161418237Y-119369825D01*
X161706811Y-118861692D01*
X161887493Y-118562182D01*
X161993676Y-118424566D01*
X162058750Y-118402116D01*
X162116106Y-118448102D01*
G37*
G36*
X163198239Y-116915870D02*
G01*
X163489145Y-117241375D01*
X163907471Y-117765647D01*
X163399260Y-117692766D01*
X162947378Y-117626354D01*
X162499074Y-117557705D01*
X162203803Y-117518299D01*
X161797829Y-117483873D01*
X161629845Y-117466321D01*
X161628615Y-117389868D01*
X161876224Y-117200691D01*
X161886182Y-117193732D01*
X162153284Y-117020950D01*
X162263889Y-116976528D01*
X162375293Y-116966770D01*
X162667353Y-116870499D01*
X162696788Y-116859511D01*
X162970072Y-116804807D01*
X163198239Y-116915870D01*
G37*
G36*
X149269399Y-128179173D02*
G01*
X149306188Y-128375165D01*
X149189005Y-128789721D01*
X148921532Y-129357749D01*
X148524555Y-130027664D01*
X147912825Y-130974131D01*
X147479181Y-130665349D01*
X147160668Y-130401118D01*
X146722183Y-129987342D01*
X146266442Y-129519642D01*
X145487346Y-128682716D01*
X146036111Y-128641455D01*
X146106371Y-128635218D01*
X146574411Y-128574735D01*
X147207644Y-128474422D01*
X147889855Y-128352401D01*
X148119489Y-128310168D01*
X148683276Y-128219383D01*
X149091918Y-128172536D01*
X149269399Y-128179173D01*
G37*
G36*
X165074957Y-102059021D02*
G01*
X164838702Y-102322127D01*
X164448444Y-102703490D01*
X164252989Y-102876757D01*
X163552879Y-103379255D01*
X162880543Y-103701658D01*
X162799621Y-103728326D01*
X162170587Y-103914658D01*
X161796456Y-103972496D01*
X161649022Y-103901868D01*
X161700080Y-103702800D01*
X161780992Y-103594527D01*
X162183342Y-103308732D01*
X162834305Y-103020536D01*
X163688633Y-102751586D01*
X163793258Y-102720878D01*
X164300035Y-102511987D01*
X164692561Y-102264946D01*
X164708211Y-102251401D01*
X165024861Y-101996442D01*
X165142060Y-101941387D01*
X165074957Y-102059021D01*
G37*
G36*
X169135042Y-103097770D02*
G01*
X169094954Y-103222379D01*
X168849074Y-103453401D01*
X168739050Y-103543426D01*
X167851865Y-104124808D01*
X166967593Y-104468823D01*
X166626853Y-104532471D01*
X166130916Y-104583107D01*
X165657950Y-104596977D01*
X165303849Y-104572081D01*
X165164506Y-104506419D01*
X165173869Y-104444017D01*
X165361626Y-104155383D01*
X165712206Y-103852662D01*
X166121989Y-103613479D01*
X166487359Y-103515452D01*
X166769516Y-103494118D01*
X167314621Y-103410574D01*
X167908333Y-103285852D01*
X168499210Y-103150223D01*
X168944680Y-103075182D01*
X169135042Y-103097770D01*
G37*
G36*
X166379803Y-98139368D02*
G01*
X166264604Y-98376211D01*
X166024077Y-98725505D01*
X165897769Y-98898022D01*
X165724974Y-99175199D01*
X165705339Y-99284568D01*
X165721253Y-99320290D01*
X165623163Y-99534046D01*
X165403825Y-99877345D01*
X165111886Y-100276684D01*
X164795992Y-100658558D01*
X164558332Y-100861934D01*
X164353866Y-100880640D01*
X164297405Y-100672825D01*
X164431616Y-100282522D01*
X164563231Y-100070530D01*
X164853633Y-99680751D01*
X165220812Y-99234013D01*
X165610761Y-98791096D01*
X165969470Y-98412782D01*
X166242930Y-98159850D01*
X166377134Y-98093080D01*
X166379803Y-98139368D01*
G37*
G36*
X153627079Y-119365875D02*
G01*
X153595306Y-119544110D01*
X153426982Y-119867302D01*
X153404550Y-119903728D01*
X153130389Y-120364644D01*
X152903799Y-120768845D01*
X152738708Y-121069954D01*
X152572019Y-121352778D01*
X152547549Y-121384022D01*
X152340912Y-121511148D01*
X152106033Y-121560444D01*
X151994136Y-121494757D01*
X152000807Y-121477080D01*
X152134534Y-121290162D01*
X152385920Y-120985189D01*
X152452470Y-120906008D01*
X152684182Y-120594679D01*
X152777895Y-120405688D01*
X152791830Y-120341990D01*
X152939797Y-120072501D01*
X153181403Y-119745563D01*
X153431344Y-119469767D01*
X153604311Y-119353704D01*
X153627079Y-119365875D01*
G37*
G36*
X156070590Y-99861358D02*
G01*
X156298789Y-100121527D01*
X156604706Y-100518812D01*
X157256939Y-101313285D01*
X158047819Y-102018417D01*
X158973442Y-102577160D01*
X159297862Y-102740746D01*
X159658847Y-102925618D01*
X159829101Y-103016858D01*
X159832090Y-103067381D01*
X159672311Y-103218315D01*
X159438508Y-103290397D01*
X158966908Y-103293009D01*
X158419330Y-103203939D01*
X157918064Y-103035903D01*
X157859073Y-103005371D01*
X157443380Y-102659225D01*
X156997472Y-102107206D01*
X156578698Y-101429182D01*
X156244408Y-100705024D01*
X156109246Y-100327697D01*
X155998017Y-99960156D01*
X155977242Y-99796112D01*
X156070590Y-99861358D01*
G37*
G36*
X166352553Y-117334807D02*
G01*
X166378723Y-117511420D01*
X166375375Y-117520336D01*
X166193667Y-118055006D01*
X166151082Y-118324920D01*
X166245240Y-118344949D01*
X166312308Y-118285855D01*
X166418827Y-118011734D01*
X166434714Y-117912167D01*
X166573081Y-117785802D01*
X166602535Y-117803204D01*
X166590318Y-118003870D01*
X166455488Y-118356961D01*
X166379770Y-118508051D01*
X166216071Y-118739376D01*
X166132578Y-118668622D01*
X166079738Y-118545073D01*
X165919793Y-118509073D01*
X165830849Y-118506776D01*
X165853264Y-118275808D01*
X165916506Y-118054108D01*
X166037418Y-117629012D01*
X166120300Y-117445825D01*
X166289378Y-117315432D01*
X166352553Y-117334807D01*
G37*
G36*
X142713946Y-113228565D02*
G01*
X142763827Y-113321816D01*
X142883061Y-113266797D01*
X142897261Y-113249890D01*
X143045947Y-113294398D01*
X143248764Y-113562636D01*
X143280550Y-113618132D01*
X143423446Y-113899261D01*
X143388349Y-114006018D01*
X143158742Y-114022840D01*
X143149087Y-114022969D01*
X142816970Y-114078163D01*
X142303532Y-114214284D01*
X141715726Y-114403144D01*
X141640985Y-114429222D01*
X141116689Y-114610520D01*
X140730119Y-114741425D01*
X140560324Y-114795119D01*
X140537950Y-114790341D01*
X140613896Y-114665506D01*
X140853333Y-114419034D01*
X141196023Y-114106721D01*
X141581729Y-113784361D01*
X141950213Y-113507748D01*
X142268444Y-113301592D01*
X142580423Y-113164573D01*
X142713946Y-113228565D01*
G37*
G36*
X152278150Y-132311615D02*
G01*
X152231628Y-132432114D01*
X152070670Y-132690447D01*
X151906047Y-132672819D01*
X151810140Y-132614216D01*
X151504441Y-132574067D01*
X151414339Y-132592637D01*
X151407150Y-132563381D01*
X151429587Y-132547356D01*
X151448035Y-132371595D01*
X151450935Y-132305618D01*
X151642970Y-132267394D01*
X151822198Y-132220332D01*
X151965767Y-131936111D01*
X151998300Y-131818519D01*
X152150926Y-131818519D01*
X152229321Y-131896914D01*
X152307716Y-131818519D01*
X152229321Y-131740123D01*
X152150926Y-131818519D01*
X151998300Y-131818519D01*
X152026497Y-131716601D01*
X152150926Y-131583333D01*
X152250037Y-131505816D01*
X152353854Y-131230556D01*
X152385660Y-131085189D01*
X152420951Y-131062000D01*
X152443154Y-131337016D01*
X152404391Y-131807407D01*
X152401609Y-131818519D01*
X152278150Y-132311615D01*
G37*
G36*
X160708277Y-118277063D02*
G01*
X160561322Y-118615002D01*
X160284524Y-119198854D01*
X160103284Y-119578461D01*
X159843999Y-120123367D01*
X159651702Y-120529630D01*
X159547108Y-120737143D01*
X159275352Y-121227800D01*
X158966776Y-121744753D01*
X158765514Y-122051741D01*
X158527805Y-122367221D01*
X158389396Y-122489506D01*
X158367720Y-122484586D01*
X158345878Y-122329512D01*
X158448804Y-122034561D01*
X158642351Y-121705556D01*
X158863720Y-121374593D01*
X159112058Y-120898317D01*
X159206482Y-120550955D01*
X159242049Y-120406301D01*
X159440946Y-120138253D01*
X159481474Y-120098589D01*
X159682180Y-119779257D01*
X159856064Y-119340693D01*
X159877475Y-119274569D01*
X160118753Y-118775687D01*
X160427059Y-118379354D01*
X160433657Y-118373298D01*
X160638089Y-118192755D01*
X160731748Y-118148496D01*
X160708277Y-118277063D01*
G37*
G36*
X161517707Y-118292018D02*
G01*
X161514949Y-118420417D01*
X161396114Y-118708021D01*
X161152625Y-119217164D01*
X161106562Y-119312617D01*
X160835288Y-119861389D01*
X160596683Y-120304156D01*
X160321691Y-120763099D01*
X159941252Y-121360400D01*
X159801955Y-121583870D01*
X159532797Y-122057676D01*
X159360374Y-122418734D01*
X159294490Y-122567809D01*
X159084635Y-122792564D01*
X158854335Y-122712257D01*
X158854139Y-122627186D01*
X158979194Y-122341122D01*
X159220179Y-121944765D01*
X159381164Y-121691232D01*
X159593641Y-121292324D01*
X159676852Y-121035657D01*
X159709703Y-120888834D01*
X159905965Y-120613064D01*
X160052213Y-120447175D01*
X160235172Y-120084298D01*
X160286827Y-119919085D01*
X160526143Y-119305028D01*
X160799607Y-118776487D01*
X161065961Y-118405124D01*
X161283951Y-118262600D01*
X161412961Y-118260492D01*
X161517707Y-118292018D01*
G37*
G36*
X164082628Y-95393424D02*
G01*
X164375916Y-95541822D01*
X164788406Y-95774383D01*
X164979531Y-95892265D01*
X165315938Y-96169019D01*
X165352169Y-96362346D01*
X165280451Y-96456250D01*
X165040433Y-96768084D01*
X164731398Y-97167901D01*
X164490218Y-97506794D01*
X164003485Y-98321902D01*
X163527129Y-99263466D01*
X163117939Y-100215068D01*
X162832701Y-101060293D01*
X162702184Y-101505529D01*
X162547237Y-101854101D01*
X162343480Y-102052532D01*
X162028704Y-102188079D01*
X161935420Y-102217689D01*
X161592879Y-102283195D01*
X161427883Y-102241520D01*
X161427185Y-102239565D01*
X161445841Y-102019106D01*
X161544340Y-101567013D01*
X161705043Y-100947961D01*
X161910310Y-100226626D01*
X162142504Y-99467681D01*
X162383986Y-98735802D01*
X162571475Y-98240926D01*
X162829052Y-97631530D01*
X163120311Y-96987938D01*
X163414224Y-96374811D01*
X163679763Y-95856808D01*
X163885900Y-95498590D01*
X164001608Y-95364815D01*
X164082628Y-95393424D01*
G37*
G36*
X155280586Y-119525409D02*
G01*
X155171430Y-119892188D01*
X154944574Y-120412037D01*
X154933694Y-120434371D01*
X154677044Y-120917643D01*
X154455398Y-121261210D01*
X154315667Y-121391975D01*
X154288458Y-121330310D01*
X154369703Y-121066888D01*
X154567768Y-120666672D01*
X154666682Y-120489182D01*
X154880777Y-120087820D01*
X154946937Y-119899343D01*
X154871190Y-119878706D01*
X154659568Y-119980864D01*
X154472428Y-120142300D01*
X154345988Y-120456751D01*
X154320730Y-120633575D01*
X154207484Y-120764815D01*
X154111079Y-120824218D01*
X153986978Y-121078395D01*
X153905886Y-121261017D01*
X153727989Y-121391975D01*
X153637886Y-121313337D01*
X153746952Y-121039198D01*
X153878417Y-120790038D01*
X153957983Y-120608025D01*
X154011052Y-120402326D01*
X154176498Y-120008974D01*
X154385902Y-119670588D01*
X154593353Y-119443615D01*
X154752942Y-119384500D01*
X154818759Y-119549691D01*
X154843485Y-119651546D01*
X154957416Y-119530581D01*
X155043402Y-119434204D01*
X155256936Y-119373791D01*
X155280586Y-119525409D01*
G37*
G36*
X148875956Y-118476012D02*
G01*
X149054177Y-118478437D01*
X149104350Y-118466290D01*
X149355119Y-118529597D01*
X149691366Y-118672896D01*
X149986181Y-118837758D01*
X150112654Y-118965755D01*
X150049978Y-119009658D01*
X149789821Y-119040123D01*
X149611896Y-119006741D01*
X149563889Y-118883333D01*
X149588388Y-118822599D01*
X149494747Y-118726543D01*
X149434724Y-118735360D01*
X149331542Y-118884964D01*
X149394770Y-119127215D01*
X149603087Y-119341145D01*
X149733913Y-119441509D01*
X149695355Y-119505726D01*
X149602704Y-119539300D01*
X149566488Y-119725220D01*
X149635274Y-120137654D01*
X149703584Y-120113661D01*
X149882456Y-119911699D01*
X150037403Y-119753359D01*
X150112654Y-119784854D01*
X150103689Y-119847081D01*
X149942205Y-120067701D01*
X149860572Y-120176599D01*
X149849131Y-120468930D01*
X149867462Y-120640834D01*
X149784396Y-120764815D01*
X149732248Y-120751157D01*
X149639992Y-120568827D01*
X149638886Y-120554797D01*
X149558192Y-120298650D01*
X149375124Y-119859483D01*
X149125369Y-119323643D01*
X149066449Y-119201502D01*
X148866432Y-118755371D01*
X148767092Y-118476419D01*
X148789309Y-118420740D01*
X148875956Y-118476012D01*
G37*
G36*
X157169958Y-120333642D02*
G01*
X157114257Y-120453656D01*
X156848367Y-121006414D01*
X156730746Y-121235185D01*
X156622840Y-121445062D01*
X156481559Y-121683551D01*
X156373382Y-121788868D01*
X156259332Y-121722748D01*
X156214228Y-121650136D01*
X155973702Y-121548765D01*
X155907118Y-121544885D01*
X155825714Y-121458068D01*
X155934867Y-121195988D01*
X155955292Y-121153639D01*
X156260968Y-121153639D01*
X156279733Y-121339712D01*
X156326892Y-121364241D01*
X156384259Y-121235185D01*
X156372944Y-121152181D01*
X156279733Y-121130658D01*
X156260968Y-121153639D01*
X155955292Y-121153639D01*
X156054947Y-120947015D01*
X156111464Y-120764815D01*
X156153249Y-120624799D01*
X156384259Y-120624799D01*
X156409424Y-120878372D01*
X156498114Y-120854831D01*
X156665882Y-120537156D01*
X156728343Y-120392266D01*
X156756529Y-120223504D01*
X156612654Y-120240351D01*
X156490139Y-120333994D01*
X156384259Y-120624799D01*
X156153249Y-120624799D01*
X156179026Y-120538424D01*
X156379744Y-120222734D01*
X156623051Y-119944032D01*
X156817560Y-119824074D01*
X156826253Y-119823763D01*
X157073922Y-119705470D01*
X157371718Y-119438002D01*
X157738850Y-119142770D01*
X158187346Y-118944154D01*
X158657716Y-118836379D01*
X158348146Y-119185466D01*
X158335968Y-119199021D01*
X158108265Y-119384697D01*
X157982302Y-119365734D01*
X157962776Y-119314000D01*
X157855968Y-119210261D01*
X157701533Y-119329770D01*
X157479515Y-119696305D01*
X157223452Y-120223504D01*
X157169958Y-120333642D01*
G37*
G36*
X151360410Y-127832449D02*
G01*
X151493852Y-127942768D01*
X151449937Y-128249973D01*
X151344743Y-128562249D01*
X151221226Y-128759541D01*
X151100963Y-128892399D01*
X150914561Y-129192284D01*
X150861587Y-129297606D01*
X150813646Y-129496620D01*
X150960230Y-129545062D01*
X151192752Y-129482355D01*
X151296358Y-129324876D01*
X151171965Y-129178856D01*
X151084486Y-129125199D01*
X151219116Y-129087070D01*
X151441016Y-128956199D01*
X151646698Y-128643519D01*
X151830164Y-128212346D01*
X151778148Y-128638049D01*
X151789102Y-128944036D01*
X151899331Y-129128018D01*
X151975544Y-129201882D01*
X151853542Y-129407870D01*
X151740068Y-129501509D01*
X151738506Y-129438303D01*
X151769792Y-129356365D01*
X151716382Y-129175228D01*
X151703231Y-129169918D01*
X151554708Y-129272872D01*
X151380090Y-129572211D01*
X151362283Y-129611430D01*
X151188810Y-129879040D01*
X151058787Y-129867366D01*
X151033402Y-129848682D01*
X150869558Y-129934515D01*
X150632702Y-130186055D01*
X150385693Y-130520771D01*
X150191391Y-130856131D01*
X150112654Y-131109601D01*
X150107982Y-131149684D01*
X149966247Y-131269753D01*
X149886720Y-131374481D01*
X149892356Y-131669655D01*
X149920271Y-131858812D01*
X149873675Y-131988532D01*
X149655520Y-131903997D01*
X149379358Y-131724786D01*
X149254328Y-131497055D01*
X149416587Y-131261879D01*
X149446171Y-131234721D01*
X149681580Y-130904137D01*
X149959180Y-130375940D01*
X150241274Y-129740517D01*
X150490163Y-129088254D01*
X150668149Y-128509537D01*
X150737533Y-128094753D01*
X150821832Y-127897254D01*
X151148788Y-127820370D01*
X151360410Y-127832449D01*
G37*
G36*
X159009335Y-120358506D02*
G01*
X158674220Y-121000000D01*
X158418750Y-121484219D01*
X158206415Y-121876960D01*
X158194453Y-121899085D01*
X158064267Y-122127364D01*
X158032449Y-122168424D01*
X157827840Y-122235201D01*
X157439127Y-122140879D01*
X156968172Y-121922204D01*
X156794398Y-121679536D01*
X156826156Y-121600117D01*
X157221385Y-121600117D01*
X157263026Y-121665600D01*
X157481652Y-121825873D01*
X157686623Y-121912556D01*
X157864733Y-121876960D01*
X157844337Y-121802089D01*
X157652523Y-121674787D01*
X157396220Y-121586527D01*
X157221385Y-121600117D01*
X156826156Y-121600117D01*
X156907955Y-121395556D01*
X156957946Y-121327416D01*
X157166747Y-120976455D01*
X157391785Y-120529630D01*
X157513677Y-120291266D01*
X157675950Y-120085235D01*
X157750994Y-120134935D01*
X157721270Y-120406938D01*
X157569235Y-120867814D01*
X157326697Y-121470370D01*
X157501710Y-121262952D01*
X158025865Y-121262952D01*
X158062131Y-121341489D01*
X158208287Y-121148835D01*
X158450987Y-120669414D01*
X158588518Y-120368871D01*
X158765979Y-119984217D01*
X158859968Y-119784877D01*
X158870056Y-119755100D01*
X158770081Y-119667284D01*
X158678759Y-119739443D01*
X158493568Y-120033128D01*
X158285111Y-120475833D01*
X158112833Y-120928798D01*
X158025865Y-121262952D01*
X157501710Y-121262952D01*
X157649248Y-121088097D01*
X157889966Y-120714273D01*
X158059973Y-120264949D01*
X158151076Y-119958670D01*
X158253842Y-119824074D01*
X158273955Y-119816583D01*
X158403817Y-119631315D01*
X158557972Y-119275309D01*
X158564241Y-119258225D01*
X158778446Y-118871533D01*
X159020643Y-118728944D01*
X159152358Y-118750102D01*
X159116650Y-118846537D01*
X159005056Y-118963986D01*
X158842623Y-119275309D01*
X158844564Y-119356061D01*
X158992287Y-119263943D01*
X159275839Y-118965401D01*
X159491846Y-118729597D01*
X159758968Y-118485133D01*
X159897270Y-118424327D01*
X159894495Y-118529066D01*
X159781301Y-118845751D01*
X159572409Y-119283000D01*
X159359796Y-119688692D01*
X159325050Y-119755100D01*
X159009335Y-120358506D01*
G37*
G36*
X141213974Y-122436208D02*
G01*
X141740229Y-122795967D01*
X141814675Y-122857965D01*
X142474934Y-123250259D01*
X143363387Y-123585423D01*
X144407039Y-123840434D01*
X145532896Y-123992267D01*
X145941787Y-124013488D01*
X146811293Y-123977691D01*
X147765991Y-123824774D01*
X148868814Y-123542936D01*
X150182694Y-123120376D01*
X150339667Y-123070030D01*
X151005824Y-122899754D01*
X151801972Y-122741821D01*
X152588445Y-122624990D01*
X153461997Y-122551670D01*
X155000415Y-122598445D01*
X156466986Y-122899757D01*
X157952161Y-123469856D01*
X158605035Y-123866629D01*
X159409058Y-124562540D01*
X160218621Y-125452618D01*
X160993508Y-126478113D01*
X161693502Y-127580273D01*
X162278387Y-128700348D01*
X162707946Y-129779588D01*
X162941963Y-130759241D01*
X162957010Y-130871539D01*
X163011534Y-131366399D01*
X162995525Y-131658607D01*
X162889106Y-131839752D01*
X162672403Y-132001421D01*
X162550397Y-132071365D01*
X162117791Y-132275521D01*
X161522724Y-132524207D01*
X160856198Y-132778488D01*
X160498327Y-132906751D01*
X159918016Y-133106659D01*
X159483176Y-133245933D01*
X159268015Y-133300197D01*
X159184880Y-133219838D01*
X159079067Y-132898034D01*
X158999976Y-132404976D01*
X158948735Y-132005289D01*
X158626930Y-130727605D01*
X158082662Y-129666371D01*
X157310030Y-128812293D01*
X156303134Y-128156074D01*
X155530495Y-127779087D01*
X154809493Y-127444338D01*
X154267702Y-127212900D01*
X153954012Y-127106616D01*
X153921757Y-127099939D01*
X153635467Y-127037872D01*
X153150201Y-126931025D01*
X152550257Y-126797934D01*
X152122256Y-126709768D01*
X151629055Y-126635073D01*
X151103325Y-126594335D01*
X150475020Y-126584899D01*
X149674095Y-126604108D01*
X148630504Y-126649306D01*
X148157802Y-126671826D01*
X146919728Y-126725951D01*
X145936785Y-126757027D01*
X145165506Y-126762500D01*
X144562423Y-126739819D01*
X144084070Y-126686432D01*
X143686980Y-126599786D01*
X143327685Y-126477329D01*
X142962718Y-126316509D01*
X142954333Y-126312533D01*
X142115443Y-125821783D01*
X141395448Y-125223858D01*
X140827886Y-124565654D01*
X140446292Y-123894065D01*
X140284204Y-123255985D01*
X140375158Y-122698310D01*
X140463544Y-122548024D01*
X140781842Y-122353090D01*
X141213974Y-122436208D01*
G37*
G36*
X164537346Y-112690123D02*
G01*
X164400951Y-112814695D01*
X164126172Y-112925309D01*
X164020753Y-112957040D01*
X163910185Y-113173121D01*
X163895264Y-113256735D01*
X163740513Y-113605354D01*
X163458829Y-114087533D01*
X163101286Y-114624794D01*
X162718957Y-115138657D01*
X162362916Y-115550643D01*
X162162766Y-115749758D01*
X161594092Y-116244205D01*
X161100734Y-116570517D01*
X160740349Y-116688272D01*
X160590801Y-116708047D01*
X160460803Y-116814888D01*
X160439169Y-116873481D01*
X160188710Y-117056936D01*
X159697232Y-117269293D01*
X159014473Y-117495137D01*
X158190174Y-117719054D01*
X157274072Y-117925629D01*
X156315909Y-118099447D01*
X156220063Y-118113527D01*
X155259861Y-118171498D01*
X154118850Y-118125317D01*
X152879300Y-117988681D01*
X151623480Y-117775290D01*
X150433660Y-117498841D01*
X149392111Y-117173033D01*
X148581102Y-116811565D01*
X148558659Y-116798879D01*
X148010859Y-116449903D01*
X147372808Y-115989131D01*
X146778015Y-115512735D01*
X146472663Y-115243465D01*
X146007686Y-114764083D01*
X145681457Y-114281991D01*
X145408951Y-113683588D01*
X145288208Y-113361026D01*
X145129920Y-112765047D01*
X147819568Y-112765047D01*
X147832811Y-113734058D01*
X148044993Y-114604993D01*
X148467848Y-115316358D01*
X148586871Y-115444992D01*
X148852059Y-115639893D01*
X149202690Y-115731886D01*
X149752356Y-115760223D01*
X150661420Y-115772914D01*
X150034259Y-116069455D01*
X149870618Y-116146471D01*
X149480232Y-116327184D01*
X149250309Y-116429139D01*
X149187645Y-116491244D01*
X149280783Y-116691308D01*
X149369916Y-116767013D01*
X149596211Y-116803852D01*
X149976012Y-116679926D01*
X150141956Y-116615274D01*
X150427478Y-116556005D01*
X150546566Y-116657291D01*
X150578989Y-116721203D01*
X150792078Y-116841618D01*
X150925078Y-116824911D01*
X151405138Y-116651686D01*
X151996404Y-116330723D01*
X152614159Y-115911725D01*
X153173684Y-115444392D01*
X153979103Y-114682660D01*
X153476771Y-114443114D01*
X153166217Y-114256641D01*
X152809363Y-113884155D01*
X152749655Y-113765660D01*
X155620167Y-113765660D01*
X155641646Y-114331858D01*
X155664846Y-114507586D01*
X155705046Y-114682660D01*
X155787528Y-115041875D01*
X155978641Y-115651214D01*
X156208239Y-116260020D01*
X156446378Y-116792712D01*
X156663110Y-117173709D01*
X156828492Y-117327428D01*
X156916341Y-117340281D01*
X157207408Y-117391950D01*
X157441533Y-117381502D01*
X157432706Y-117218910D01*
X157168210Y-116923457D01*
X156958409Y-116707564D01*
X156854630Y-116538948D01*
X156977540Y-116498328D01*
X157335114Y-116483297D01*
X157845166Y-116501297D01*
X157958265Y-116508363D01*
X158469405Y-116524367D01*
X158806745Y-116469929D01*
X159088718Y-116307699D01*
X159433761Y-116000328D01*
X160031820Y-115436285D01*
X159956353Y-114260353D01*
X159933528Y-113615112D01*
X159974327Y-113094760D01*
X160092936Y-112781679D01*
X160485756Y-112451918D01*
X161069197Y-112251239D01*
X161729426Y-112200406D01*
X162361578Y-112307097D01*
X162860792Y-112578991D01*
X163033814Y-112721246D01*
X163103988Y-112687862D01*
X163063674Y-112389697D01*
X162994952Y-112074789D01*
X162937141Y-111919906D01*
X162836418Y-111863183D01*
X161872189Y-111384014D01*
X161106884Y-111135120D01*
X160531194Y-111113379D01*
X160491069Y-111121920D01*
X159973311Y-111364197D01*
X159354608Y-111853826D01*
X158669408Y-112559592D01*
X157952161Y-113450280D01*
X157689691Y-113769096D01*
X157184787Y-114187440D01*
X156717374Y-114323723D01*
X156312272Y-114174326D01*
X155994302Y-113735632D01*
X155967361Y-113678357D01*
X155793084Y-113421902D01*
X155674000Y-113456672D01*
X155620167Y-113765660D01*
X152749655Y-113765660D01*
X152541082Y-113351735D01*
X152348840Y-112621561D01*
X152220101Y-111655811D01*
X152142333Y-110416667D01*
X152092313Y-109474116D01*
X151994657Y-108483803D01*
X151848932Y-107755952D01*
X151642010Y-107262047D01*
X151360762Y-106973571D01*
X150992062Y-106862010D01*
X150522779Y-106898848D01*
X150186758Y-107048576D01*
X149818181Y-107335661D01*
X149492930Y-107681984D01*
X149283680Y-108010036D01*
X149263104Y-108242308D01*
X149277360Y-108258750D01*
X149513560Y-108343761D01*
X149907204Y-108378395D01*
X150467197Y-108378395D01*
X149670851Y-109012455D01*
X149521285Y-109138044D01*
X148856121Y-109884456D01*
X148342957Y-110778754D01*
X147993528Y-111759448D01*
X147819568Y-112765047D01*
X145129920Y-112765047D01*
X145065754Y-112523454D01*
X145043504Y-111765967D01*
X145227534Y-110986872D01*
X145623915Y-110084476D01*
X146163616Y-109157927D01*
X147214317Y-107832077D01*
X148485390Y-106668908D01*
X149934195Y-105695483D01*
X151518095Y-104938860D01*
X153194450Y-104426102D01*
X154920622Y-104184270D01*
X155438818Y-104158721D01*
X155988033Y-104155000D01*
X156395222Y-104203541D01*
X156760921Y-104319084D01*
X157185666Y-104516370D01*
X157602527Y-104708198D01*
X158229694Y-104891981D01*
X158824516Y-104884248D01*
X159516885Y-104694948D01*
X159813591Y-104594000D01*
X160111142Y-104543828D01*
X160334768Y-104646326D01*
X160618640Y-104930133D01*
X161056214Y-105281109D01*
X161582042Y-105412121D01*
X162060029Y-105429506D01*
X162549734Y-105456997D01*
X162874644Y-105442955D01*
X163074228Y-105356685D01*
X163076464Y-105353353D01*
X163275664Y-105298853D01*
X163634011Y-105330197D01*
X164020531Y-105425449D01*
X164304246Y-105562675D01*
X164390857Y-105611644D01*
X164734745Y-105741207D01*
X165202793Y-105876010D01*
X165863207Y-106140380D01*
X166505391Y-106593168D01*
X166700738Y-106765861D01*
X167053955Y-107022929D01*
X167292337Y-107124074D01*
X167389589Y-107135786D01*
X167517139Y-107241667D01*
X167521090Y-107254783D01*
X167680936Y-107417580D01*
X168027734Y-107691493D01*
X168497077Y-108025035D01*
X169427057Y-108710986D01*
X170726521Y-109898602D01*
X171768129Y-111169206D01*
X172524409Y-112492322D01*
X172634127Y-112769613D01*
X172820903Y-113348916D01*
X173021335Y-114067476D01*
X173221223Y-114862309D01*
X173406369Y-115670429D01*
X173562575Y-116428854D01*
X173675640Y-117074598D01*
X173731367Y-117544679D01*
X173715558Y-117776111D01*
X173697107Y-117838315D01*
X173820856Y-117979689D01*
X173888336Y-118055603D01*
X173928967Y-118280731D01*
X173932704Y-118693613D01*
X173899716Y-119335484D01*
X173830173Y-120247581D01*
X173758196Y-121037182D01*
X173647875Y-121919745D01*
X173500186Y-122703682D01*
X173290702Y-123512479D01*
X172994995Y-124469624D01*
X172977315Y-124524155D01*
X172697666Y-125360117D01*
X172414759Y-126163237D01*
X172160680Y-126844640D01*
X171967520Y-127315449D01*
X171806794Y-127678109D01*
X171652524Y-128046997D01*
X171592901Y-128220354D01*
X171555562Y-128342428D01*
X171349110Y-128698678D01*
X170998392Y-129202311D01*
X170544971Y-129800722D01*
X170030409Y-130441308D01*
X169496268Y-131071463D01*
X168984109Y-131638585D01*
X168535494Y-132090068D01*
X167548355Y-132892190D01*
X166192349Y-133744384D01*
X164704271Y-134466142D01*
X163179927Y-135011868D01*
X161715124Y-135335968D01*
X161563182Y-135357659D01*
X160855242Y-135464162D01*
X160211495Y-135568749D01*
X159755247Y-135651564D01*
X158880834Y-135770001D01*
X157551736Y-135798489D01*
X156068313Y-135694663D01*
X154498789Y-135468885D01*
X152911389Y-135131514D01*
X151374339Y-134692912D01*
X149955864Y-134163439D01*
X149693511Y-134051320D01*
X149061294Y-133781607D01*
X148529470Y-133555346D01*
X148191975Y-133412527D01*
X147889115Y-133250993D01*
X147760803Y-133112960D01*
X147757443Y-133088147D01*
X147609474Y-132994444D01*
X147519794Y-132962940D01*
X147201923Y-132794067D01*
X146726916Y-132512025D01*
X146159165Y-132154121D01*
X145731448Y-131859026D01*
X145021160Y-131282973D01*
X144416533Y-130685561D01*
X143957785Y-130113428D01*
X143685138Y-129613213D01*
X143638811Y-129231553D01*
X143707568Y-129047970D01*
X143829772Y-128917901D01*
X143845451Y-128919453D01*
X144084873Y-129068360D01*
X144484675Y-129444616D01*
X145021113Y-130026132D01*
X145057132Y-130066737D01*
X146313869Y-131248735D01*
X147803344Y-132250426D01*
X149485494Y-133044723D01*
X150637884Y-133477588D01*
X151876908Y-133899532D01*
X152964544Y-134204094D01*
X153971950Y-134404837D01*
X154970282Y-134515325D01*
X156030697Y-134549119D01*
X157224353Y-134519782D01*
X158318097Y-134448848D01*
X159982785Y-134230842D01*
X161376267Y-133892708D01*
X162488474Y-133436518D01*
X163530773Y-132836085D01*
X164728947Y-131988114D01*
X165814193Y-131007094D01*
X166848262Y-129835668D01*
X167892906Y-128416474D01*
X168280393Y-127801259D01*
X168877129Y-126486971D01*
X169175847Y-125129475D01*
X169186948Y-123690779D01*
X169134597Y-123115473D01*
X169009672Y-121995884D01*
X168863210Y-121077657D01*
X168678485Y-120282822D01*
X168438771Y-119533411D01*
X168127341Y-118751454D01*
X167927289Y-118283345D01*
X167678080Y-117697636D01*
X167492974Y-117259456D01*
X167401765Y-117039119D01*
X167398398Y-116994822D01*
X167558231Y-116920420D01*
X167912105Y-116929969D01*
X168380888Y-117016358D01*
X168885450Y-117172472D01*
X169290534Y-117275677D01*
X169713785Y-117310960D01*
X170046816Y-117277822D01*
X170181790Y-117175971D01*
X170092779Y-117017589D01*
X169819347Y-116696272D01*
X169417586Y-116276101D01*
X168944790Y-115813034D01*
X168458254Y-115363025D01*
X168015275Y-114982030D01*
X167673148Y-114726003D01*
X167611974Y-114685793D01*
X167140760Y-114329291D01*
X166744274Y-113963204D01*
X166704726Y-113921669D01*
X166392037Y-113659598D01*
X166147058Y-113552469D01*
X166057286Y-113531896D01*
X166036614Y-113379883D01*
X166228161Y-113284884D01*
X166594633Y-113297569D01*
X166796604Y-113326267D01*
X167015046Y-113276070D01*
X166960815Y-113089239D01*
X166632868Y-112779898D01*
X166426517Y-112654682D01*
X165921222Y-112497076D01*
X165361728Y-112447183D01*
X164862336Y-112509900D01*
X164541423Y-112687862D01*
X164537346Y-112690123D01*
G37*
G36*
X179528293Y-119432099D02*
G01*
X179662021Y-120490634D01*
X179708306Y-121807608D01*
X179645283Y-123145321D01*
X179480464Y-124422738D01*
X179221362Y-125558824D01*
X178875492Y-126472546D01*
X178871451Y-126480677D01*
X178713590Y-126848249D01*
X178647691Y-127099706D01*
X178591252Y-127338908D01*
X178384687Y-127820637D01*
X178059574Y-128451586D01*
X177650830Y-129172759D01*
X177193369Y-129925161D01*
X176722109Y-130649794D01*
X176271964Y-131287663D01*
X175877853Y-131779773D01*
X175696447Y-131991587D01*
X175451691Y-132309750D01*
X175355673Y-132485328D01*
X175349854Y-132512112D01*
X175216957Y-132735663D01*
X174963697Y-133058029D01*
X174897797Y-133136543D01*
X174665708Y-133451208D01*
X174571914Y-133645992D01*
X174569250Y-133671127D01*
X174425569Y-133778395D01*
X174284529Y-133853824D01*
X173981652Y-134102152D01*
X173602421Y-134463689D01*
X173569439Y-134496833D01*
X173003272Y-135015296D01*
X172321420Y-135570940D01*
X171609283Y-136100101D01*
X170952262Y-136539116D01*
X170435757Y-136824322D01*
X170144032Y-136945555D01*
X169597360Y-137153407D01*
X169005864Y-137362900D01*
X168685243Y-137471966D01*
X167588247Y-137848530D01*
X166766009Y-138137279D01*
X166199593Y-138344950D01*
X165870062Y-138478278D01*
X165745321Y-138528795D01*
X165171025Y-138698208D01*
X164364793Y-138876243D01*
X163387813Y-139051576D01*
X162301273Y-139212882D01*
X161166358Y-139348836D01*
X159754703Y-139458756D01*
X157905729Y-139499132D01*
X156053157Y-139433410D01*
X154248655Y-139268160D01*
X152543891Y-139009957D01*
X150990534Y-138665371D01*
X149640253Y-138240976D01*
X148544715Y-137743343D01*
X148488825Y-137712773D01*
X147985854Y-137478674D01*
X147525617Y-137319961D01*
X147051977Y-137175096D01*
X146545679Y-136980502D01*
X146499915Y-136960474D01*
X145981772Y-136734316D01*
X145448148Y-136502156D01*
X145104735Y-136350876D01*
X144520881Y-136089203D01*
X143919445Y-135815905D01*
X143452396Y-135605866D01*
X142889117Y-135361662D01*
X142472279Y-135191091D01*
X142276806Y-135097523D01*
X141765899Y-134745861D01*
X141232076Y-134268307D01*
X140782255Y-133755671D01*
X140705684Y-133654037D01*
X140454599Y-133324984D01*
X140140182Y-132916049D01*
X139652687Y-132236585D01*
X138958186Y-130983191D01*
X138496662Y-129660416D01*
X138484437Y-129613075D01*
X138341264Y-129013328D01*
X138239075Y-128504086D01*
X138199292Y-128191181D01*
X138099688Y-127902261D01*
X137821560Y-127610696D01*
X137666027Y-127501403D01*
X137009787Y-126900481D01*
X136395253Y-126139826D01*
X135919090Y-125335066D01*
X135738627Y-124878577D01*
X135510583Y-124001611D01*
X135359399Y-123018671D01*
X135294386Y-122029272D01*
X135324853Y-121132928D01*
X135460112Y-120429154D01*
X135561906Y-120149545D01*
X135723180Y-119802757D01*
X135840357Y-119667284D01*
X135957873Y-119548282D01*
X136075372Y-119237682D01*
X136195223Y-118920068D01*
X136366752Y-118693379D01*
X136474008Y-118523277D01*
X136372067Y-118291554D01*
X136096574Y-118084328D01*
X135711348Y-117971856D01*
X135686322Y-117969255D01*
X135354436Y-117909447D01*
X135217593Y-117836178D01*
X135257172Y-117697196D01*
X135411233Y-117330605D01*
X135644187Y-116830786D01*
X135915813Y-116278971D01*
X136034607Y-116049116D01*
X138510185Y-116049116D01*
X138510868Y-116124925D01*
X138533873Y-116276075D01*
X138624358Y-116354528D01*
X138828634Y-116355947D01*
X139193015Y-116275996D01*
X139763811Y-116110340D01*
X140587336Y-115854643D01*
X141331771Y-115621622D01*
X141038984Y-116037354D01*
X140863269Y-116301978D01*
X140563636Y-116820712D01*
X140320284Y-117320868D01*
X140171177Y-117720841D01*
X140154280Y-117939030D01*
X140273589Y-117963013D01*
X140607083Y-117883318D01*
X141061753Y-117701366D01*
X141354688Y-117576799D01*
X142071190Y-117328371D01*
X142743519Y-117155416D01*
X143049607Y-117095428D01*
X143713333Y-116959865D01*
X144274472Y-116838936D01*
X144320862Y-116828525D01*
X144888212Y-116720904D01*
X145291947Y-116720455D01*
X145661384Y-116846770D01*
X146125839Y-117119444D01*
X146347000Y-117272060D01*
X146644180Y-117542655D01*
X146928983Y-117911705D01*
X147247449Y-118442146D01*
X147645622Y-119196914D01*
X147688115Y-119280484D01*
X148142597Y-120226026D01*
X148493402Y-121054782D01*
X148727005Y-121728199D01*
X148829882Y-122207724D01*
X148788508Y-122454805D01*
X148787188Y-122456016D01*
X148587567Y-122499507D01*
X148141115Y-122535078D01*
X147512852Y-122559089D01*
X146767798Y-122567901D01*
X146045522Y-122565437D01*
X145440525Y-122547663D01*
X144993156Y-122499358D01*
X144620158Y-122405309D01*
X144238273Y-122250306D01*
X143764245Y-122019136D01*
X143141436Y-121674436D01*
X142384736Y-121194380D01*
X141739475Y-120725617D01*
X141657895Y-120660628D01*
X141205200Y-120315732D01*
X140853013Y-120072769D01*
X140671765Y-119980864D01*
X140541520Y-119997355D01*
X140115228Y-120197058D01*
X139694713Y-120553359D01*
X139393673Y-120977591D01*
X139162577Y-121730070D01*
X139119005Y-122710316D01*
X139292272Y-123762809D01*
X139665364Y-124824457D01*
X140221268Y-125832165D01*
X140942967Y-126722840D01*
X141170209Y-126958424D01*
X141518269Y-127363792D01*
X141666222Y-127635903D01*
X141643171Y-127820370D01*
X141536437Y-128042553D01*
X141474482Y-128653093D01*
X141653241Y-129370013D01*
X142051903Y-130156896D01*
X142649657Y-130977324D01*
X143425693Y-131794880D01*
X144359198Y-132573147D01*
X144406370Y-132608151D01*
X145096060Y-133110289D01*
X145676696Y-133502695D01*
X146228713Y-133829595D01*
X146832548Y-134135217D01*
X147568635Y-134463789D01*
X148517410Y-134859538D01*
X149945970Y-135425667D01*
X151381376Y-135937839D01*
X152676867Y-136327626D01*
X153901328Y-136615488D01*
X155123641Y-136821889D01*
X156182531Y-136935873D01*
X157376393Y-137010321D01*
X158615069Y-137044101D01*
X159809752Y-137036267D01*
X160871633Y-136985875D01*
X161711908Y-136891980D01*
X161729396Y-136889037D01*
X162418864Y-136728554D01*
X163390926Y-136434314D01*
X164645879Y-136006223D01*
X166184022Y-135444183D01*
X166944981Y-135095913D01*
X167903719Y-134532886D01*
X168877610Y-133854106D01*
X169770210Y-133127373D01*
X170485079Y-132420486D01*
X170681730Y-132193067D01*
X171235362Y-131519816D01*
X171813578Y-130778616D01*
X172359017Y-130045810D01*
X172814320Y-129397738D01*
X173122128Y-128910742D01*
X173195692Y-128783213D01*
X173514512Y-128262640D01*
X173851199Y-127747211D01*
X173965076Y-127576894D01*
X174505030Y-126647252D01*
X174923223Y-125664755D01*
X175251404Y-124542870D01*
X175521319Y-123195062D01*
X175736720Y-121515137D01*
X175829790Y-119044901D01*
X175673229Y-116576836D01*
X175269760Y-114208225D01*
X175229005Y-114040262D01*
X175050221Y-113416494D01*
X174832225Y-112771007D01*
X174605686Y-112184797D01*
X174401274Y-111738862D01*
X174249659Y-111514198D01*
X174190947Y-111436886D01*
X174025740Y-111133310D01*
X173821705Y-110697063D01*
X173743569Y-110527235D01*
X173092216Y-109444932D01*
X172164281Y-108316663D01*
X170983484Y-107168507D01*
X169573544Y-106026543D01*
X169488527Y-105962872D01*
X169051230Y-105624184D01*
X168743344Y-105366939D01*
X168626996Y-105242593D01*
X168723380Y-105127720D01*
X169005542Y-104871753D01*
X169408405Y-104537037D01*
X169758145Y-104256298D01*
X170335298Y-103793173D01*
X170826615Y-103399097D01*
X171024728Y-103254572D01*
X171605099Y-102925401D01*
X172161774Y-102712532D01*
X172376251Y-102649143D01*
X172700765Y-102499332D01*
X172802283Y-102360966D01*
X172731537Y-102285453D01*
X172425549Y-102130498D01*
X171972804Y-101982331D01*
X171720607Y-101924110D01*
X171115545Y-101847556D01*
X170413189Y-101848561D01*
X169563030Y-101931101D01*
X168514560Y-102099152D01*
X167217272Y-102356690D01*
X167163839Y-102367891D01*
X166841984Y-102415947D01*
X166745076Y-102339233D01*
X166801408Y-102092132D01*
X166952510Y-101568775D01*
X167158865Y-100645457D01*
X167282090Y-99779965D01*
X167320856Y-99020824D01*
X167273835Y-98416562D01*
X167139697Y-98015702D01*
X166917113Y-97866772D01*
X166841017Y-97825362D01*
X166950467Y-97631611D01*
X167320370Y-97274533D01*
X167593755Y-97018192D01*
X167876929Y-96703288D01*
X167986728Y-96507087D01*
X167930447Y-96397639D01*
X167677913Y-96116727D01*
X167278996Y-95739459D01*
X166796091Y-95319500D01*
X166291592Y-94910517D01*
X165827893Y-94566178D01*
X165467390Y-94340148D01*
X165190745Y-94161338D01*
X165042334Y-93901768D01*
X165007716Y-93460109D01*
X165007320Y-93349989D01*
X164986926Y-93016221D01*
X164911192Y-92928858D01*
X164746524Y-93032962D01*
X164704782Y-93067755D01*
X164592209Y-93155287D01*
X164542269Y-93143074D01*
X164557090Y-92979703D01*
X164638801Y-92613759D01*
X164789528Y-91993827D01*
X164794404Y-91973409D01*
X164822655Y-91672192D01*
X164715582Y-91634080D01*
X164491523Y-91849739D01*
X164168815Y-92309831D01*
X163996643Y-92566250D01*
X163678946Y-92974494D01*
X163425059Y-93225157D01*
X163258741Y-93380324D01*
X163226866Y-93531701D01*
X163232661Y-93693573D01*
X163096024Y-93988008D01*
X162810490Y-94512029D01*
X162455982Y-95310805D01*
X162082183Y-96273636D01*
X161714842Y-97326404D01*
X161379709Y-98394990D01*
X161102532Y-99405278D01*
X160909060Y-100283148D01*
X160713310Y-101360123D01*
X160495831Y-100753518D01*
X160384512Y-100299814D01*
X160340870Y-99652069D01*
X160375210Y-98775000D01*
X160392438Y-98490967D01*
X160407070Y-97933602D01*
X160389640Y-97547468D01*
X160341864Y-97403086D01*
X160292014Y-97425048D01*
X160061471Y-97652402D01*
X159694661Y-98102773D01*
X159214641Y-98746921D01*
X158644470Y-99555603D01*
X158470036Y-99797445D01*
X158219998Y-100101643D01*
X158073780Y-100221961D01*
X158071483Y-100221943D01*
X157925194Y-100094852D01*
X157734999Y-99794136D01*
X157663265Y-99666203D01*
X157080138Y-98969519D01*
X156273991Y-98403356D01*
X155312068Y-98006014D01*
X154261609Y-97815793D01*
X153816553Y-97796685D01*
X153169804Y-97828262D01*
X152762063Y-97935496D01*
X152611734Y-98105602D01*
X152737220Y-98325794D01*
X153156923Y-98583286D01*
X153400122Y-98727268D01*
X153954405Y-99277119D01*
X154466554Y-100099561D01*
X154917113Y-101166049D01*
X155274357Y-102185185D01*
X153751839Y-102370621D01*
X152181342Y-102658854D01*
X150448188Y-103240443D01*
X148805002Y-104100364D01*
X147212037Y-105256152D01*
X147194038Y-105271089D01*
X146251751Y-106129271D01*
X145361679Y-107079833D01*
X144564609Y-108068124D01*
X143901332Y-109039494D01*
X143412636Y-109939292D01*
X143139311Y-110712869D01*
X143133910Y-110736677D01*
X143017180Y-111065142D01*
X142887851Y-111200617D01*
X142854996Y-111204684D01*
X142743519Y-111355182D01*
X142743234Y-111358007D01*
X142626571Y-111522141D01*
X142322096Y-111866937D01*
X141864314Y-112355530D01*
X141287731Y-112951054D01*
X140626852Y-113616643D01*
X140288101Y-113956409D01*
X139526162Y-114746043D01*
X138968797Y-115366160D01*
X138626605Y-115804577D01*
X138510185Y-116049116D01*
X136034607Y-116049116D01*
X136185893Y-115756391D01*
X136414205Y-115344278D01*
X136560532Y-115123861D01*
X136596578Y-115082670D01*
X136820456Y-114786552D01*
X137141141Y-114328033D01*
X137501893Y-113787654D01*
X137616678Y-113613924D01*
X137950785Y-113132787D01*
X138216390Y-112785519D01*
X138364192Y-112637860D01*
X138418381Y-112603446D01*
X138510185Y-112376543D01*
X138518510Y-112295784D01*
X138627778Y-112115226D01*
X138672071Y-112089847D01*
X138937247Y-111846896D01*
X139296218Y-111437382D01*
X139689067Y-110939719D01*
X140055879Y-110432321D01*
X140336737Y-109993604D01*
X140471726Y-109701980D01*
X140570815Y-109318024D01*
X140700860Y-108927160D01*
X140752858Y-108795135D01*
X140911412Y-108372234D01*
X141093605Y-107868827D01*
X141195684Y-107601547D01*
X141355894Y-107258337D01*
X141463891Y-107124074D01*
X141594520Y-106997264D01*
X141760814Y-106691729D01*
X141838967Y-106542114D01*
X142113172Y-106127969D01*
X142498637Y-105619050D01*
X142945675Y-105073125D01*
X143404601Y-104547960D01*
X143825728Y-104101322D01*
X144159369Y-103790977D01*
X144355838Y-103674691D01*
X144395024Y-103666677D01*
X144647782Y-103530878D01*
X144994342Y-103280352D01*
X145012652Y-103265707D01*
X145361714Y-102987820D01*
X145631017Y-102781048D01*
X145905805Y-102584242D01*
X146271326Y-102336255D01*
X146812826Y-101975939D01*
X147180467Y-101746280D01*
X147774169Y-101405050D01*
X148462675Y-101030769D01*
X149184660Y-100654619D01*
X149878800Y-100307780D01*
X150483772Y-100021433D01*
X150938252Y-99826759D01*
X151180915Y-99754938D01*
X151190195Y-99754786D01*
X151339631Y-99678941D01*
X151414138Y-99440226D01*
X151413843Y-99003203D01*
X151338873Y-98332434D01*
X151189354Y-97392482D01*
X151182660Y-97353438D01*
X151064814Y-96626855D01*
X150979002Y-96022827D01*
X150933243Y-95603342D01*
X150935555Y-95430392D01*
X150944065Y-95423245D01*
X151189991Y-95345554D01*
X151670198Y-95268224D01*
X152312290Y-95197171D01*
X153043867Y-95138311D01*
X153792534Y-95097560D01*
X154485892Y-95080834D01*
X155051543Y-95094049D01*
X155649698Y-95145003D01*
X156417132Y-95280259D01*
X157052101Y-95510349D01*
X157664154Y-95867714D01*
X158081702Y-96150716D01*
X158722487Y-95191133D01*
X158768830Y-95121597D01*
X159070064Y-94662189D01*
X159282717Y-94325114D01*
X159363272Y-94179100D01*
X159364958Y-94172219D01*
X159481681Y-94012643D01*
X159725788Y-93735489D01*
X160088304Y-93344328D01*
X160538265Y-93730968D01*
X160614620Y-93794183D01*
X160931428Y-94007564D01*
X161134324Y-94068909D01*
X161189033Y-94020792D01*
X161339142Y-93745869D01*
X161496014Y-93320599D01*
X161568515Y-93086097D01*
X161842421Y-92223427D01*
X162064814Y-91578780D01*
X162262464Y-91083771D01*
X162462143Y-90670018D01*
X162690623Y-90269136D01*
X162900086Y-89924148D01*
X163107939Y-89587346D01*
X163204309Y-89438928D01*
X163269369Y-89434799D01*
X163564565Y-89481095D01*
X164008706Y-89579662D01*
X164320412Y-89664711D01*
X164921050Y-89873458D01*
X165442217Y-90107238D01*
X165809494Y-90330454D01*
X165948457Y-90507508D01*
X165955069Y-90550195D01*
X166115708Y-90661111D01*
X166240349Y-90691226D01*
X166641655Y-90928535D01*
X167247292Y-91401315D01*
X168056310Y-92108796D01*
X169067755Y-93050206D01*
X169168910Y-93152370D01*
X169476041Y-93488923D01*
X169826703Y-93896048D01*
X169980048Y-94079343D01*
X170352930Y-94524878D01*
X170645196Y-94873870D01*
X170881502Y-95204847D01*
X171050047Y-95540228D01*
X171124306Y-95706820D01*
X171265197Y-95835185D01*
X171296494Y-95846918D01*
X171467417Y-96036379D01*
X171682261Y-96383951D01*
X171745826Y-96497764D01*
X171949030Y-96808124D01*
X172082152Y-96932716D01*
X172143572Y-96962199D01*
X172278034Y-97171219D01*
X172285858Y-97244645D01*
X172158123Y-97423998D01*
X171804465Y-97654628D01*
X171189662Y-97962130D01*
X170009767Y-98514538D01*
X170056581Y-99409069D01*
X170103395Y-100303601D01*
X171038534Y-100419803D01*
X171773340Y-100543946D01*
X172596897Y-100746323D01*
X173331889Y-100986913D01*
X173866358Y-101233500D01*
X174075738Y-101343440D01*
X174527748Y-101550872D01*
X175059875Y-101773942D01*
X175425219Y-101943091D01*
X176003775Y-102289439D01*
X176442010Y-102643809D01*
X176944209Y-103161947D01*
X176267629Y-103330785D01*
X176019133Y-103387242D01*
X175373382Y-103507041D01*
X174728704Y-103599455D01*
X174404925Y-103643891D01*
X173827727Y-103752062D01*
X173395988Y-103868239D01*
X173288905Y-103913270D01*
X172906107Y-104142150D01*
X172498820Y-104457028D01*
X172138583Y-104793202D01*
X171896935Y-105085969D01*
X171845414Y-105270629D01*
X171869032Y-105300453D01*
X172056095Y-105325423D01*
X172140323Y-105292940D01*
X172507920Y-105345080D01*
X173004788Y-105599510D01*
X173579327Y-106025453D01*
X174179938Y-106592136D01*
X174191113Y-106603880D01*
X174757190Y-107202638D01*
X175138512Y-107617588D01*
X175368949Y-107888511D01*
X175482373Y-108055188D01*
X175512654Y-108157399D01*
X175579293Y-108283326D01*
X175801475Y-108516794D01*
X175912215Y-108622715D01*
X176307681Y-109080068D01*
X176779325Y-109705203D01*
X177273117Y-110418156D01*
X177735027Y-111138962D01*
X178111025Y-111787657D01*
X178347080Y-112284277D01*
X178443208Y-112551782D01*
X178767295Y-113641953D01*
X179029825Y-114815390D01*
X179206426Y-115949941D01*
X179272725Y-116923457D01*
X179274514Y-117046177D01*
X179318299Y-117780985D01*
X179408320Y-118629575D01*
X179470409Y-119044901D01*
X179528293Y-119432099D01*
G37*
%TD*%
M02*
