%TF.GenerationSoftware,KiCad,Pcbnew,9.0.2*%
%TF.CreationDate,2025-06-03T05:25:35-07:00*%
%TF.ProjectId,nightshade,6e696768-7473-4686-9164-652e6b696361,rev?*%
%TF.SameCoordinates,Original*%
%TF.FileFunction,Paste,Top*%
%TF.FilePolarity,Positive*%
%FSLAX46Y46*%
G04 Gerber Fmt 4.6, Leading zero omitted, Abs format (unit mm)*
G04 Created by KiCad (PCBNEW 9.0.2) date 2025-06-03 05:25:35*
%MOMM*%
%LPD*%
G01*
G04 APERTURE LIST*
G04 Aperture macros list*
%AMRoundRect*
0 Rectangle with rounded corners*
0 $1 Rounding radius*
0 $2 $3 $4 $5 $6 $7 $8 $9 X,Y pos of 4 corners*
0 Add a 4 corners polygon primitive as box body*
4,1,4,$2,$3,$4,$5,$6,$7,$8,$9,$2,$3,0*
0 Add four circle primitives for the rounded corners*
1,1,$1+$1,$2,$3*
1,1,$1+$1,$4,$5*
1,1,$1+$1,$6,$7*
1,1,$1+$1,$8,$9*
0 Add four rect primitives between the rounded corners*
20,1,$1+$1,$2,$3,$4,$5,0*
20,1,$1+$1,$4,$5,$6,$7,0*
20,1,$1+$1,$6,$7,$8,$9,0*
20,1,$1+$1,$8,$9,$2,$3,0*%
G04 Aperture macros list end*
%ADD10RoundRect,0.150000X-0.825000X-0.150000X0.825000X-0.150000X0.825000X0.150000X-0.825000X0.150000X0*%
%ADD11RoundRect,0.250000X-0.325000X-0.650000X0.325000X-0.650000X0.325000X0.650000X-0.325000X0.650000X0*%
%ADD12RoundRect,0.250000X0.475000X-0.250000X0.475000X0.250000X-0.475000X0.250000X-0.475000X-0.250000X0*%
%ADD13RoundRect,0.250000X0.325000X0.650000X-0.325000X0.650000X-0.325000X-0.650000X0.325000X-0.650000X0*%
%ADD14RoundRect,0.250000X-0.650000X0.325000X-0.650000X-0.325000X0.650000X-0.325000X0.650000X0.325000X0*%
%ADD15RoundRect,0.250000X-0.250000X-0.475000X0.250000X-0.475000X0.250000X0.475000X-0.250000X0.475000X0*%
%ADD16RoundRect,0.250000X-0.475000X0.250000X-0.475000X-0.250000X0.475000X-0.250000X0.475000X0.250000X0*%
%ADD17RoundRect,0.250000X0.512652X0.159099X0.159099X0.512652X-0.512652X-0.159099X-0.159099X-0.512652X0*%
%ADD18RoundRect,0.250000X0.159099X-0.512652X0.512652X-0.159099X-0.159099X0.512652X-0.512652X0.159099X0*%
%ADD19RoundRect,0.218750X0.218750X0.381250X-0.218750X0.381250X-0.218750X-0.381250X0.218750X-0.381250X0*%
%ADD20RoundRect,0.249998X-0.450002X0.262502X-0.450002X-0.262502X0.450002X-0.262502X0.450002X0.262502X0*%
%ADD21RoundRect,0.249998X-0.262502X-0.450002X0.262502X-0.450002X0.262502X0.450002X-0.262502X0.450002X0*%
%ADD22R,2.400000X3.500000*%
%ADD23RoundRect,0.100000X0.100000X-1.150000X0.100000X1.150000X-0.100000X1.150000X-0.100000X-1.150000X0*%
%ADD24RoundRect,0.100000X1.150000X-0.100000X1.150000X0.100000X-1.150000X0.100000X-1.150000X-0.100000X0*%
%ADD25RoundRect,0.249998X0.262502X0.450002X-0.262502X0.450002X-0.262502X-0.450002X0.262502X-0.450002X0*%
%ADD26RoundRect,0.150000X-1.475000X-0.150000X1.475000X-0.150000X1.475000X0.150000X-1.475000X0.150000X0*%
%ADD27RoundRect,0.250000X0.250000X0.475000X-0.250000X0.475000X-0.250000X-0.475000X0.250000X-0.475000X0*%
%ADD28RoundRect,0.249998X0.450002X-0.262502X0.450002X0.262502X-0.450002X0.262502X-0.450002X-0.262502X0*%
%ADD29RoundRect,0.250000X-0.450000X0.262500X-0.450000X-0.262500X0.450000X-0.262500X0.450000X0.262500X0*%
%ADD30RoundRect,0.250000X0.250000X-0.250000X0.250000X0.250000X-0.250000X0.250000X-0.250000X-0.250000X0*%
%ADD31RoundRect,0.162500X0.162500X-0.617500X0.162500X0.617500X-0.162500X0.617500X-0.162500X-0.617500X0*%
G04 APERTURE END LIST*
D10*
%TO.C,U4*%
X173525000Y-89845000D03*
X173525000Y-91115000D03*
X173525000Y-92385000D03*
X173525000Y-93655000D03*
X178475000Y-93655000D03*
X178475000Y-92385000D03*
X178475000Y-91115000D03*
X178475000Y-89845000D03*
%TD*%
D11*
%TO.C,C8*%
X161325000Y-93350000D03*
X164275000Y-93350000D03*
%TD*%
D12*
%TO.C,C9*%
X135000000Y-124250000D03*
X135000000Y-122350000D03*
%TD*%
%TO.C,C10*%
X174700000Y-110605000D03*
X174700000Y-108705000D03*
%TD*%
D13*
%TO.C,C19*%
X139475000Y-129000000D03*
X136525000Y-129000000D03*
%TD*%
D14*
%TO.C,C20*%
X94250000Y-133275000D03*
X94250000Y-136225000D03*
%TD*%
D15*
%TO.C,C30*%
X187675000Y-111425000D03*
X189575000Y-111425000D03*
%TD*%
%TO.C,C17*%
X194650000Y-118550000D03*
X196550000Y-118550000D03*
%TD*%
%TO.C,C34*%
X187675000Y-109450000D03*
X189575000Y-109450000D03*
%TD*%
D12*
%TO.C,C37*%
X135000000Y-114675000D03*
X135000000Y-112775000D03*
%TD*%
D16*
%TO.C,C39*%
X174700000Y-112110000D03*
X174700000Y-114010000D03*
%TD*%
D11*
%TO.C,C21*%
X195025000Y-110500000D03*
X197975000Y-110500000D03*
%TD*%
D15*
%TO.C,C40*%
X137300000Y-98000000D03*
X139200000Y-98000000D03*
%TD*%
D17*
%TO.C,C41*%
X172071751Y-97571751D03*
X170728249Y-96228249D03*
%TD*%
D18*
%TO.C,C42*%
X155478249Y-134671751D03*
X156821751Y-133328249D03*
%TD*%
D12*
%TO.C,C11*%
X133000000Y-132450000D03*
X133000000Y-130550000D03*
%TD*%
%TO.C,C12*%
X133000000Y-128950000D03*
X133000000Y-127050000D03*
%TD*%
%TO.C,C22*%
X213000000Y-108600000D03*
X213000000Y-106700000D03*
%TD*%
%TO.C,C24*%
X213000000Y-104250000D03*
X213000000Y-102350000D03*
%TD*%
%TO.C,C25*%
X213000000Y-99400000D03*
X213000000Y-97500000D03*
%TD*%
%TO.C,C26*%
X219250000Y-108600000D03*
X219250000Y-106700000D03*
%TD*%
%TO.C,C28*%
X219250000Y-104185000D03*
X219250000Y-102285000D03*
%TD*%
%TO.C,C29*%
X219500000Y-99450000D03*
X219500000Y-97550000D03*
%TD*%
%TO.C,C23*%
X185600000Y-145900000D03*
X185600000Y-144000000D03*
%TD*%
D19*
%TO.C,FB1*%
X217312500Y-97750000D03*
X215187500Y-97750000D03*
%TD*%
%TO.C,FB2*%
X217062500Y-102460000D03*
X214937500Y-102460000D03*
%TD*%
%TO.C,FB3*%
X217062500Y-107000000D03*
X214937500Y-107000000D03*
%TD*%
D20*
%TO.C,R13*%
X185975000Y-109537500D03*
X185975000Y-111362500D03*
%TD*%
D21*
%TO.C,R6*%
X168337500Y-92250000D03*
X170162500Y-92250000D03*
%TD*%
%TO.C,R5*%
X168337500Y-90000000D03*
X170162500Y-90000000D03*
%TD*%
%TO.C,R10*%
X185575000Y-142300000D03*
X187400000Y-142300000D03*
%TD*%
D22*
%TO.C,Y1*%
X129500000Y-131850000D03*
X129500000Y-126650000D03*
%TD*%
D23*
%TO.C,U1*%
X141930000Y-128071600D03*
X142580000Y-128071600D03*
X143230000Y-128071600D03*
X143880000Y-128071600D03*
X144530000Y-128071600D03*
X145180000Y-128071600D03*
X145830000Y-128071600D03*
X146480000Y-128071600D03*
X147130000Y-128071600D03*
X147780000Y-128071600D03*
X148430000Y-128071600D03*
X149080000Y-128071600D03*
X149730000Y-128071600D03*
X150380000Y-128071600D03*
X151030000Y-128071600D03*
X151680000Y-128071600D03*
X152330000Y-128071600D03*
X152980000Y-128071600D03*
X153630000Y-128071600D03*
X154280000Y-128071600D03*
X154930000Y-128071600D03*
X155580000Y-128071600D03*
X156230000Y-128071600D03*
X156880000Y-128071600D03*
X157530000Y-128071600D03*
X158180000Y-128071600D03*
X158830000Y-128071600D03*
X159480000Y-128071600D03*
X160130000Y-128071600D03*
X160780000Y-128071600D03*
X161430000Y-128071600D03*
X162080000Y-128071600D03*
X162730000Y-128071600D03*
X163380000Y-128071600D03*
X164030000Y-128071600D03*
X164680000Y-128071600D03*
X165330000Y-128071600D03*
X165980000Y-128071600D03*
X166630000Y-128071600D03*
X167280000Y-128071600D03*
D24*
X169940800Y-125390000D03*
X169940800Y-124740000D03*
X169940800Y-124090000D03*
X169940800Y-123440000D03*
X169940800Y-122790000D03*
X169940800Y-122140000D03*
X169940800Y-121490000D03*
X169940800Y-120840000D03*
X169940800Y-120190000D03*
X169940800Y-119540000D03*
X169940800Y-118890000D03*
X169940800Y-118240000D03*
X169940800Y-117590000D03*
X169940800Y-116940000D03*
X169940800Y-116290000D03*
X169940800Y-115640000D03*
X169940800Y-114990000D03*
X169940800Y-114340000D03*
X169940800Y-113690000D03*
X169940800Y-113040000D03*
X169940800Y-112390000D03*
X169940800Y-111740000D03*
X169940800Y-111090000D03*
X169940800Y-110440000D03*
X169940800Y-109790000D03*
X169940800Y-109140000D03*
X169940800Y-108490000D03*
X169940800Y-107840000D03*
X169940800Y-107190000D03*
X169940800Y-106540000D03*
X169940800Y-105890000D03*
X169940800Y-105240000D03*
X169940800Y-104590000D03*
X169940800Y-103940000D03*
X169940800Y-103290000D03*
X169940800Y-102640000D03*
X169940800Y-101990000D03*
X169940800Y-101340000D03*
X169940800Y-100690000D03*
X169940800Y-100040000D03*
D23*
X167280000Y-97371600D03*
X166630000Y-97371600D03*
X165980000Y-97371600D03*
X165330000Y-97371600D03*
X164680000Y-97371600D03*
X164030000Y-97371600D03*
X163380000Y-97371600D03*
X162730000Y-97371600D03*
X162080000Y-97371600D03*
X161430000Y-97371600D03*
X160780000Y-97371600D03*
X160130000Y-97371600D03*
X159480000Y-97371600D03*
X158830000Y-97371600D03*
X158180000Y-97371600D03*
X157530000Y-97371600D03*
X156880000Y-97371600D03*
X156230000Y-97371600D03*
X155580000Y-97371600D03*
X154930000Y-97371600D03*
X154280000Y-97371600D03*
X153630000Y-97371600D03*
X152980000Y-97371600D03*
X152330000Y-97371600D03*
X151680000Y-97371600D03*
X151030000Y-97371600D03*
X150380000Y-97371600D03*
X149730000Y-97371600D03*
X149080000Y-97371600D03*
X148430000Y-97371600D03*
X147780000Y-97371600D03*
X147130000Y-97371600D03*
X146480000Y-97371600D03*
X145830000Y-97371600D03*
X145180000Y-97371600D03*
X144530000Y-97371600D03*
X143880000Y-97371600D03*
X143230000Y-97371600D03*
X142580000Y-97371600D03*
X141930000Y-97371600D03*
D24*
X139140800Y-100040000D03*
X139140800Y-100690000D03*
X139140800Y-101340000D03*
X139140800Y-101990000D03*
X139140800Y-102640000D03*
X139140800Y-103290000D03*
X139140800Y-103940000D03*
X139140800Y-104590000D03*
X139140800Y-105240000D03*
X139140800Y-105890000D03*
X139140800Y-106540000D03*
X139140800Y-107190000D03*
X139140800Y-107840000D03*
X139140800Y-108490000D03*
X139140800Y-109140000D03*
X139140800Y-109790000D03*
X139140800Y-110440000D03*
X139140800Y-111090000D03*
X139140800Y-111740000D03*
X139140800Y-112390000D03*
X139140800Y-113040000D03*
X139140800Y-113690000D03*
X139140800Y-114340000D03*
X139140800Y-114990000D03*
X139140800Y-115640000D03*
X139140800Y-116290000D03*
X139140800Y-116940000D03*
X139140800Y-117590000D03*
X139140800Y-118240000D03*
X139140800Y-118890000D03*
X139140800Y-119540000D03*
X139140800Y-120190000D03*
X139140800Y-120840000D03*
X139140800Y-121490000D03*
X139140800Y-122140000D03*
X139140800Y-122790000D03*
X139140800Y-123440000D03*
X139140800Y-124090000D03*
X139140800Y-124740000D03*
X139140800Y-125390000D03*
%TD*%
D25*
%TO.C,R12*%
X179362500Y-113900000D03*
X177537500Y-113900000D03*
%TD*%
%TO.C,R11*%
X118962500Y-133250000D03*
X117137500Y-133250000D03*
%TD*%
D26*
%TO.C,U2*%
X116500000Y-98072000D03*
X116500000Y-99340000D03*
X116500000Y-100610000D03*
X116500000Y-101880000D03*
X116500000Y-103150000D03*
X116500000Y-104420000D03*
X116500000Y-105690000D03*
X116500000Y-106960000D03*
X116500000Y-108230000D03*
X116500000Y-109500000D03*
X116500000Y-110770000D03*
X116500000Y-112040000D03*
X116500000Y-113310000D03*
X116500000Y-114580000D03*
X116500000Y-115850000D03*
X116500000Y-117120000D03*
X116500000Y-118390000D03*
X116500000Y-119660000D03*
X116500000Y-120930000D03*
X116500000Y-122200000D03*
X126470000Y-122200000D03*
X126470000Y-120930000D03*
X126470000Y-119660000D03*
X126470000Y-118390000D03*
X126470000Y-117120000D03*
X126470000Y-115850000D03*
X126470000Y-114580000D03*
X126470000Y-113310000D03*
X126470000Y-112040000D03*
X126470000Y-110770000D03*
X126470000Y-109500000D03*
X126470000Y-108230000D03*
X126470000Y-106960000D03*
X126470000Y-105690000D03*
X126470000Y-104420000D03*
X126470000Y-103150000D03*
X126470000Y-101880000D03*
X126470000Y-100610000D03*
X126470000Y-99340000D03*
X126470000Y-98070000D03*
%TD*%
%TO.C,U3*%
X91830000Y-98072000D03*
X91830000Y-99340000D03*
X91830000Y-100610000D03*
X91830000Y-101880000D03*
X91830000Y-103150000D03*
X91830000Y-104420000D03*
X91830000Y-105690000D03*
X91830000Y-106960000D03*
X91830000Y-108230000D03*
X91830000Y-109500000D03*
X91830000Y-110770000D03*
X91830000Y-112040000D03*
X91830000Y-113310000D03*
X91830000Y-114580000D03*
X91830000Y-115850000D03*
X91830000Y-117120000D03*
X91830000Y-118390000D03*
X91830000Y-119660000D03*
X91830000Y-120930000D03*
X91830000Y-122200000D03*
X101800000Y-122200000D03*
X101800000Y-120930000D03*
X101800000Y-119660000D03*
X101800000Y-118390000D03*
X101800000Y-117120000D03*
X101800000Y-115850000D03*
X101800000Y-114580000D03*
X101800000Y-113310000D03*
X101800000Y-112040000D03*
X101800000Y-110770000D03*
X101800000Y-109500000D03*
X101800000Y-108230000D03*
X101800000Y-106960000D03*
X101800000Y-105690000D03*
X101800000Y-104420000D03*
X101800000Y-103150000D03*
X101800000Y-101880000D03*
X101800000Y-100610000D03*
X101800000Y-99340000D03*
X101800000Y-98070000D03*
%TD*%
D27*
%TO.C,C33*%
X189000000Y-120700000D03*
X187100000Y-120700000D03*
%TD*%
D14*
%TO.C,C27*%
X120900000Y-133275000D03*
X120900000Y-136225000D03*
%TD*%
D27*
%TO.C,C13*%
X181650000Y-141200000D03*
X179750000Y-141200000D03*
%TD*%
D16*
%TO.C,C14*%
X170800000Y-140250000D03*
X170800000Y-142150000D03*
%TD*%
D28*
%TO.C,R2*%
X170800000Y-145900000D03*
X170800000Y-144075000D03*
%TD*%
%TO.C,R3*%
X180725000Y-145850000D03*
X180725000Y-144025000D03*
%TD*%
D12*
%TO.C,C15*%
X173300000Y-147445000D03*
X173300000Y-145545000D03*
%TD*%
%TO.C,C16*%
X175550000Y-147450000D03*
X175550000Y-145550000D03*
%TD*%
D15*
%TO.C,C35*%
X180900000Y-113900000D03*
X182800000Y-113900000D03*
%TD*%
D29*
%TO.C,R4*%
X222250000Y-113587500D03*
X222250000Y-115412500D03*
%TD*%
D30*
%TO.C,D1*%
X182500000Y-93500000D03*
X182500000Y-91000000D03*
%TD*%
D31*
%TO.C,U5*%
X194750000Y-116100000D03*
X195700000Y-116100000D03*
X196650000Y-116100000D03*
X196650000Y-113400000D03*
X194750000Y-113400000D03*
%TD*%
M02*
