%TF.GenerationSoftware,KiCad,Pcbnew,9.0.6+1*%
%TF.CreationDate,2026-01-26T06:25:30-08:00*%
%TF.ProjectId,nightshade,6e696768-7473-4686-9164-652e6b696361,rev?*%
%TF.SameCoordinates,Original*%
%TF.FileFunction,Paste,Top*%
%TF.FilePolarity,Positive*%
%FSLAX46Y46*%
G04 Gerber Fmt 4.6, Leading zero omitted, Abs format (unit mm)*
G04 Created by KiCad (PCBNEW 9.0.6+1) date 2026-01-26 06:25:30*
%MOMM*%
%LPD*%
G01*
G04 APERTURE LIST*
G04 Aperture macros list*
%AMRoundRect*
0 Rectangle with rounded corners*
0 $1 Rounding radius*
0 $2 $3 $4 $5 $6 $7 $8 $9 X,Y pos of 4 corners*
0 Add a 4 corners polygon primitive as box body*
4,1,4,$2,$3,$4,$5,$6,$7,$8,$9,$2,$3,0*
0 Add four circle primitives for the rounded corners*
1,1,$1+$1,$2,$3*
1,1,$1+$1,$4,$5*
1,1,$1+$1,$6,$7*
1,1,$1+$1,$8,$9*
0 Add four rect primitives between the rounded corners*
20,1,$1+$1,$2,$3,$4,$5,0*
20,1,$1+$1,$4,$5,$6,$7,0*
20,1,$1+$1,$6,$7,$8,$9,0*
20,1,$1+$1,$8,$9,$2,$3,0*%
G04 Aperture macros list end*
%ADD10RoundRect,0.200000X-0.275000X0.200000X-0.275000X-0.200000X0.275000X-0.200000X0.275000X0.200000X0*%
%ADD11RoundRect,0.250000X0.325000X0.650000X-0.325000X0.650000X-0.325000X-0.650000X0.325000X-0.650000X0*%
%ADD12RoundRect,0.250000X-0.325000X-0.650000X0.325000X-0.650000X0.325000X0.650000X-0.325000X0.650000X0*%
%ADD13RoundRect,0.250000X0.250000X0.475000X-0.250000X0.475000X-0.250000X-0.475000X0.250000X-0.475000X0*%
%ADD14RoundRect,0.250000X0.475000X-0.250000X0.475000X0.250000X-0.475000X0.250000X-0.475000X-0.250000X0*%
%ADD15RoundRect,0.250000X-0.229810X0.689429X-0.689429X0.229810X0.229810X-0.689429X0.689429X-0.229810X0*%
%ADD16RoundRect,0.250000X-0.475000X0.250000X-0.475000X-0.250000X0.475000X-0.250000X0.475000X0.250000X0*%
%ADD17RoundRect,0.250000X-0.250000X-0.475000X0.250000X-0.475000X0.250000X0.475000X-0.250000X0.475000X0*%
%ADD18RoundRect,0.250000X0.159099X-0.512652X0.512652X-0.159099X-0.159099X0.512652X-0.512652X0.159099X0*%
%ADD19RoundRect,0.225000X0.250000X-0.225000X0.250000X0.225000X-0.250000X0.225000X-0.250000X-0.225000X0*%
%ADD20RoundRect,0.249998X-0.262502X-0.450002X0.262502X-0.450002X0.262502X0.450002X-0.262502X0.450002X0*%
%ADD21RoundRect,0.249998X0.262502X0.450002X-0.262502X0.450002X-0.262502X-0.450002X0.262502X-0.450002X0*%
%ADD22RoundRect,0.249998X-0.450002X0.262502X-0.450002X-0.262502X0.450002X-0.262502X0.450002X0.262502X0*%
%ADD23RoundRect,0.250100X0.449900X-0.262400X0.449900X0.262400X-0.449900X0.262400X-0.449900X-0.262400X0*%
%ADD24RoundRect,0.249998X0.450002X-0.262502X0.450002X0.262502X-0.450002X0.262502X-0.450002X-0.262502X0*%
%ADD25R,3.500000X2.400000*%
%ADD26RoundRect,0.100000X0.100000X-1.150000X0.100000X1.150000X-0.100000X1.150000X-0.100000X-1.150000X0*%
%ADD27RoundRect,0.100000X1.150000X-0.100000X1.150000X0.100000X-1.150000X0.100000X-1.150000X-0.100000X0*%
%ADD28RoundRect,0.250100X-0.449900X0.262400X-0.449900X-0.262400X0.449900X-0.262400X0.449900X0.262400X0*%
%ADD29RoundRect,0.200000X0.200000X0.275000X-0.200000X0.275000X-0.200000X-0.275000X0.200000X-0.275000X0*%
%ADD30RoundRect,0.150000X-1.475000X-0.150000X1.475000X-0.150000X1.475000X0.150000X-1.475000X0.150000X0*%
%ADD31RoundRect,0.250000X-0.650000X0.325000X-0.650000X-0.325000X0.650000X-0.325000X0.650000X0.325000X0*%
%ADD32RoundRect,0.150000X-1.350000X-0.150000X1.350000X-0.150000X1.350000X0.150000X-1.350000X0.150000X0*%
%ADD33RoundRect,0.151250X-1.348750X-0.151250X1.348750X-0.151250X1.348750X0.151250X-1.348750X0.151250X0*%
%ADD34RoundRect,0.200000X0.275000X-0.200000X0.275000X0.200000X-0.275000X0.200000X-0.275000X-0.200000X0*%
%ADD35RoundRect,0.250000X-0.375000X-1.075000X0.375000X-1.075000X0.375000X1.075000X-0.375000X1.075000X0*%
%ADD36RoundRect,0.250000X0.262500X0.450000X-0.262500X0.450000X-0.262500X-0.450000X0.262500X-0.450000X0*%
%ADD37RoundRect,0.250000X-0.262500X-0.450000X0.262500X-0.450000X0.262500X0.450000X-0.262500X0.450000X0*%
%ADD38RoundRect,0.250000X0.450000X-0.262500X0.450000X0.262500X-0.450000X0.262500X-0.450000X-0.262500X0*%
%ADD39RoundRect,0.250000X0.229810X-0.689429X0.689429X-0.229810X-0.229810X0.689429X-0.689429X0.229810X0*%
%ADD40RoundRect,0.150000X-0.150000X0.587500X-0.150000X-0.587500X0.150000X-0.587500X0.150000X0.587500X0*%
%ADD41RoundRect,0.100000X-1.075000X-0.100000X1.075000X-0.100000X1.075000X0.100000X-1.075000X0.100000X0*%
%ADD42RoundRect,0.250000X-1.250000X-0.550000X1.250000X-0.550000X1.250000X0.550000X-1.250000X0.550000X0*%
%ADD43RoundRect,0.250000X1.275000X1.125000X-1.275000X1.125000X-1.275000X-1.125000X1.275000X-1.125000X0*%
%ADD44RoundRect,0.250000X0.850000X0.350000X-0.850000X0.350000X-0.850000X-0.350000X0.850000X-0.350000X0*%
%ADD45RoundRect,0.150000X0.587500X0.150000X-0.587500X0.150000X-0.587500X-0.150000X0.587500X-0.150000X0*%
%ADD46RoundRect,0.100000X0.100000X-1.075000X0.100000X1.075000X-0.100000X1.075000X-0.100000X-1.075000X0*%
G04 APERTURE END LIST*
D10*
%TO.C,R23*%
X158900000Y-92225000D03*
X158900000Y-90575000D03*
%TD*%
D11*
%TO.C,C7*%
X178075000Y-105150000D03*
X175125000Y-105150000D03*
%TD*%
D12*
%TO.C,C8*%
X162295100Y-92329958D03*
X165245100Y-92329958D03*
%TD*%
D13*
%TO.C,C9*%
X123900000Y-127000000D03*
X122000000Y-127000000D03*
%TD*%
D14*
%TO.C,C10*%
X175500000Y-110650000D03*
X175500000Y-108750000D03*
%TD*%
D15*
%TO.C,C19*%
X139142983Y-130957017D03*
X137057017Y-133042983D03*
%TD*%
D12*
%TO.C,C20*%
X93525000Y-138250000D03*
X96475000Y-138250000D03*
%TD*%
D16*
%TO.C,C30*%
X184600000Y-108750000D03*
X184600000Y-110650000D03*
%TD*%
%TO.C,C31*%
X126250000Y-126950000D03*
X126250000Y-128850000D03*
%TD*%
D13*
%TO.C,C17*%
X208149999Y-107500000D03*
X206250001Y-107500000D03*
%TD*%
D16*
%TO.C,C34*%
X178500000Y-108750000D03*
X178500000Y-110650000D03*
%TD*%
%TO.C,C36*%
X131950000Y-126950000D03*
X131950000Y-128850000D03*
%TD*%
D14*
%TO.C,C37*%
X133300000Y-114750000D03*
X133300000Y-112850000D03*
%TD*%
D17*
%TO.C,C38*%
X145010001Y-92950000D03*
X146909999Y-92950000D03*
%TD*%
D16*
%TO.C,C39*%
X175500000Y-112200000D03*
X175500000Y-114100000D03*
%TD*%
%TO.C,C40*%
X133300000Y-97050000D03*
X133300000Y-98950000D03*
%TD*%
D13*
%TO.C,C41*%
X169699999Y-94250000D03*
X167800001Y-94250000D03*
%TD*%
D18*
%TO.C,C42*%
X155128249Y-134971751D03*
X156471751Y-133628249D03*
%TD*%
D14*
%TO.C,C11*%
X134200000Y-134050000D03*
X134200000Y-132150000D03*
%TD*%
%TO.C,C12*%
X122650000Y-134050000D03*
X122650000Y-132150000D03*
%TD*%
D19*
%TO.C,C26*%
X219800000Y-101775000D03*
X219800000Y-100225000D03*
%TD*%
%TO.C,C28*%
X219800000Y-98275000D03*
X219800000Y-96725000D03*
%TD*%
%TO.C,C29*%
X219800000Y-93975000D03*
X219800000Y-92425000D03*
%TD*%
D17*
%TO.C,C2*%
X115050000Y-94750000D03*
X116950000Y-94750000D03*
%TD*%
%TO.C,C1*%
X72950000Y-94750000D03*
X74850000Y-94750000D03*
%TD*%
D14*
%TO.C,C5*%
X114004656Y-128869835D03*
X114004656Y-126969835D03*
%TD*%
%TO.C,C4*%
X75500000Y-128700000D03*
X75500000Y-126800000D03*
%TD*%
D20*
%TO.C,R13*%
X180573113Y-108950000D03*
X182398113Y-108950000D03*
%TD*%
D21*
%TO.C,R14*%
X130000000Y-127000000D03*
X128175000Y-127000000D03*
%TD*%
D22*
%TO.C,R6*%
X180500000Y-92250000D03*
X180500000Y-94075000D03*
%TD*%
D20*
%TO.C,R5*%
X167837500Y-92250000D03*
X169662500Y-92250000D03*
%TD*%
D23*
%TO.C,R15*%
X51225000Y-107712500D03*
D24*
X51225000Y-105887500D03*
%TD*%
%TO.C,R18*%
X90109439Y-108047898D03*
X90109439Y-106222898D03*
%TD*%
%TO.C,R19*%
X90110332Y-111424586D03*
X90110332Y-109599586D03*
%TD*%
%TO.C,R16*%
X90110004Y-101198021D03*
X90110004Y-99373021D03*
%TD*%
D25*
%TO.C,Y1*%
X131050000Y-133000000D03*
X125850000Y-133000000D03*
%TD*%
D26*
%TO.C,U1*%
X141930000Y-128071600D03*
X142580000Y-128071600D03*
X143230000Y-128071600D03*
X143880000Y-128071600D03*
X144530000Y-128071600D03*
X145180000Y-128071600D03*
X145830000Y-128071600D03*
X146480000Y-128071600D03*
X147130000Y-128071600D03*
X147780000Y-128071600D03*
X148430000Y-128071600D03*
X149080000Y-128071600D03*
X149730000Y-128071600D03*
X150380000Y-128071600D03*
X151030000Y-128071600D03*
X151680000Y-128071600D03*
X152330000Y-128071600D03*
X152980000Y-128071600D03*
X153630000Y-128071600D03*
X154280000Y-128071600D03*
X154930000Y-128071600D03*
X155580000Y-128071600D03*
X156230000Y-128071600D03*
X156880000Y-128071600D03*
X157530000Y-128071600D03*
X158180000Y-128071600D03*
X158830000Y-128071600D03*
X159480000Y-128071600D03*
X160130000Y-128071600D03*
X160780000Y-128071600D03*
X161430000Y-128071600D03*
X162080000Y-128071600D03*
X162730000Y-128071600D03*
X163380000Y-128071600D03*
X164030000Y-128071600D03*
X164680000Y-128071600D03*
X165330000Y-128071600D03*
X165980000Y-128071600D03*
X166630000Y-128071600D03*
X167280000Y-128071600D03*
D27*
X169940800Y-125390000D03*
X169940800Y-124740000D03*
X169940800Y-124090000D03*
X169940800Y-123440000D03*
X169940800Y-122790000D03*
X169940800Y-122140000D03*
X169940800Y-121490000D03*
X169940800Y-120840000D03*
X169940800Y-120190000D03*
X169940800Y-119540000D03*
X169940800Y-118890000D03*
X169940800Y-118240000D03*
X169940800Y-117590000D03*
X169940800Y-116940000D03*
X169940800Y-116290000D03*
X169940800Y-115640000D03*
X169940800Y-114990000D03*
X169940800Y-114340000D03*
X169940800Y-113690000D03*
X169940800Y-113040000D03*
X169940800Y-112390000D03*
X169940800Y-111740000D03*
X169940800Y-111090000D03*
X169940800Y-110440000D03*
X169940800Y-109790000D03*
X169940800Y-109140000D03*
X169940800Y-108490000D03*
X169940800Y-107840000D03*
X169940800Y-107190000D03*
X169940800Y-106540000D03*
X169940800Y-105890000D03*
X169940800Y-105240000D03*
X169940800Y-104590000D03*
X169940800Y-103940000D03*
X169940800Y-103290000D03*
X169940800Y-102640000D03*
X169940800Y-101990000D03*
X169940800Y-101340000D03*
X169940800Y-100690000D03*
X169940800Y-100040000D03*
D26*
X167280000Y-97371600D03*
X166630000Y-97371600D03*
X165980000Y-97371600D03*
X165330000Y-97371600D03*
X164680000Y-97371600D03*
X164030000Y-97371600D03*
X163380000Y-97371600D03*
X162730000Y-97371600D03*
X162080000Y-97371600D03*
X161430000Y-97371600D03*
X160780000Y-97371600D03*
X160130000Y-97371600D03*
X159480000Y-97371600D03*
X158830000Y-97371600D03*
X158180000Y-97371600D03*
X157530000Y-97371600D03*
X156880000Y-97371600D03*
X156230000Y-97371600D03*
X155580000Y-97371600D03*
X154930000Y-97371600D03*
X154280000Y-97371600D03*
X153630000Y-97371600D03*
X152980000Y-97371600D03*
X152330000Y-97371600D03*
X151680000Y-97371600D03*
X151030000Y-97371600D03*
X150380000Y-97371600D03*
X149730000Y-97371600D03*
X149080000Y-97371600D03*
X148430000Y-97371600D03*
X147780000Y-97371600D03*
X147130000Y-97371600D03*
X146480000Y-97371600D03*
X145830000Y-97371600D03*
X145180000Y-97371600D03*
X144530000Y-97371600D03*
X143880000Y-97371600D03*
X143230000Y-97371600D03*
X142580000Y-97371600D03*
X141930000Y-97371600D03*
D27*
X139140800Y-100040000D03*
X139140800Y-100690000D03*
X139140800Y-101340000D03*
X139140800Y-101990000D03*
X139140800Y-102640000D03*
X139140800Y-103290000D03*
X139140800Y-103940000D03*
X139140800Y-104590000D03*
X139140800Y-105240000D03*
X139140800Y-105890000D03*
X139140800Y-106540000D03*
X139140800Y-107190000D03*
X139140800Y-107840000D03*
X139140800Y-108490000D03*
X139140800Y-109140000D03*
X139140800Y-109790000D03*
X139140800Y-110440000D03*
X139140800Y-111090000D03*
X139140800Y-111740000D03*
X139140800Y-112390000D03*
X139140800Y-113040000D03*
X139140800Y-113690000D03*
X139140800Y-114340000D03*
X139140800Y-114990000D03*
X139140800Y-115640000D03*
X139140800Y-116290000D03*
X139140800Y-116940000D03*
X139140800Y-117590000D03*
X139140800Y-118240000D03*
X139140800Y-118890000D03*
X139140800Y-119540000D03*
X139140800Y-120190000D03*
X139140800Y-120840000D03*
X139140800Y-121490000D03*
X139140800Y-122140000D03*
X139140800Y-122790000D03*
X139140800Y-123440000D03*
X139140800Y-124090000D03*
X139140800Y-124740000D03*
X139140800Y-125390000D03*
%TD*%
D28*
%TO.C,R17*%
X90107256Y-102784137D03*
D22*
X90107256Y-104609137D03*
%TD*%
D10*
%TO.C,R12*%
X178500000Y-112325000D03*
X178500000Y-113975000D03*
%TD*%
D29*
%TO.C,R11*%
X117401338Y-126999015D03*
X115751338Y-126999015D03*
%TD*%
D30*
%TO.C,U2*%
X116500000Y-98072000D03*
X116500000Y-99340000D03*
X116500000Y-100610000D03*
X116500000Y-101880000D03*
X116500000Y-103150000D03*
X116500000Y-104420000D03*
X116500000Y-105690000D03*
X116500000Y-106960000D03*
X116500000Y-108230000D03*
X116500000Y-109500000D03*
X116500000Y-110770000D03*
X116500000Y-112040000D03*
X116500000Y-113310000D03*
X116500000Y-114580000D03*
X116500000Y-115850000D03*
X116500000Y-117120000D03*
X116500000Y-118390000D03*
X116500000Y-119660000D03*
X116500000Y-120930000D03*
X116500000Y-122200000D03*
X126470000Y-122200000D03*
X126470000Y-120930000D03*
X126470000Y-119660000D03*
X126470000Y-118390000D03*
X126470000Y-117120000D03*
X126470000Y-115850000D03*
X126470000Y-114580000D03*
X126470000Y-113310000D03*
X126470000Y-112040000D03*
X126470000Y-110770000D03*
X126470000Y-109500000D03*
X126470000Y-108230000D03*
X126470000Y-106960000D03*
X126470000Y-105690000D03*
X126470000Y-104420000D03*
X126470000Y-103150000D03*
X126470000Y-101880000D03*
X126470000Y-100610000D03*
X126470000Y-99340000D03*
X126470000Y-98070000D03*
%TD*%
%TO.C,U3*%
X75450000Y-98060000D03*
X75450000Y-99328000D03*
X75450000Y-100598000D03*
X75450000Y-101868000D03*
X75450000Y-103138000D03*
X75450000Y-104408000D03*
X75450000Y-105678000D03*
X75450000Y-106948000D03*
X75450000Y-108218000D03*
X75450000Y-109488000D03*
X75450000Y-110758000D03*
X75450000Y-112028000D03*
X75450000Y-113298000D03*
X75450000Y-114568000D03*
X75450000Y-115838000D03*
X75450000Y-117108000D03*
X75450000Y-118378000D03*
X75450000Y-119648000D03*
X75450000Y-120918000D03*
X75450000Y-122188000D03*
X85420000Y-122188000D03*
X85420000Y-120918000D03*
X85420000Y-119648000D03*
X85420000Y-118378000D03*
X85420000Y-117108000D03*
X85420000Y-115838000D03*
X85420000Y-114568000D03*
X85420000Y-113298000D03*
X85420000Y-112028000D03*
X85420000Y-110758000D03*
X85420000Y-109488000D03*
X85420000Y-108218000D03*
X85420000Y-106948000D03*
X85420000Y-105678000D03*
X85420000Y-104408000D03*
X85420000Y-103138000D03*
X85420000Y-101868000D03*
X85420000Y-100598000D03*
X85420000Y-99328000D03*
X85420000Y-98058000D03*
%TD*%
D13*
%TO.C,C33*%
X190150000Y-107600000D03*
X188250000Y-107600000D03*
%TD*%
D31*
%TO.C,C27*%
X119500000Y-127025000D03*
X119500000Y-129975000D03*
%TD*%
D22*
%TO.C,R7*%
X179400000Y-99687500D03*
X179400000Y-101512500D03*
%TD*%
%TO.C,R8*%
X176900000Y-99725000D03*
X176900000Y-101550000D03*
%TD*%
%TO.C,R9*%
X174400000Y-99725000D03*
X174400000Y-101550000D03*
%TD*%
%TO.C,R1*%
X184600000Y-112212500D03*
X184600000Y-114037500D03*
%TD*%
D13*
%TO.C,C13*%
X181525000Y-141700000D03*
X179625000Y-141700000D03*
%TD*%
%TO.C,C14*%
X185650000Y-141700000D03*
X183750000Y-141700000D03*
%TD*%
D21*
%TO.C,R3*%
X181487500Y-143650000D03*
X179662500Y-143650000D03*
%TD*%
D32*
%TO.C,U5*%
X194025000Y-86070000D03*
X194025000Y-87340000D03*
X194025000Y-88610000D03*
X194025000Y-89880000D03*
D33*
X200025000Y-89877500D03*
D32*
X200025000Y-88610000D03*
X200025000Y-87340000D03*
D33*
X200025000Y-86072500D03*
%TD*%
D17*
%TO.C,C23*%
X179700000Y-146075000D03*
X181600000Y-146075000D03*
%TD*%
D34*
%TO.C,R20*%
X191300000Y-86600000D03*
X191300000Y-84950000D03*
%TD*%
D35*
%TO.C,L2*%
X215000000Y-97200000D03*
X217800000Y-97200000D03*
%TD*%
D36*
%TO.C,R26*%
X183912500Y-103100000D03*
X182087500Y-103100000D03*
%TD*%
D16*
%TO.C,C35*%
X181460613Y-112175000D03*
X181460613Y-114075000D03*
%TD*%
D30*
%TO.C,U11*%
X97450000Y-98060000D03*
X97450000Y-99328000D03*
X97450000Y-100598000D03*
X97450000Y-101868000D03*
X97450000Y-103138000D03*
X97450000Y-104408000D03*
X97450000Y-105678000D03*
X97450000Y-106948000D03*
X97450000Y-108218000D03*
X97450000Y-109488000D03*
X97450000Y-110758000D03*
X97450000Y-112028000D03*
X97450000Y-113298000D03*
X97450000Y-114568000D03*
X97450000Y-115838000D03*
X97450000Y-117108000D03*
X97450000Y-118378000D03*
X97450000Y-119648000D03*
X97450000Y-120918000D03*
X97450000Y-122188000D03*
X107420000Y-122188000D03*
X107420000Y-120918000D03*
X107420000Y-119648000D03*
X107420000Y-118378000D03*
X107420000Y-117108000D03*
X107420000Y-115838000D03*
X107420000Y-114568000D03*
X107420000Y-113298000D03*
X107420000Y-112028000D03*
X107420000Y-110758000D03*
X107420000Y-109488000D03*
X107420000Y-108218000D03*
X107420000Y-106948000D03*
X107420000Y-105678000D03*
X107420000Y-104408000D03*
X107420000Y-103138000D03*
X107420000Y-101868000D03*
X107420000Y-100598000D03*
X107420000Y-99328000D03*
X107420000Y-98058000D03*
%TD*%
D14*
%TO.C,C21*%
X57250000Y-128700000D03*
X57250000Y-126800000D03*
%TD*%
D30*
%TO.C,U12*%
X57200000Y-98060000D03*
X57200000Y-99328000D03*
X57200000Y-100598000D03*
X57200000Y-101868000D03*
X57200000Y-103138000D03*
X57200000Y-104408000D03*
X57200000Y-105678000D03*
X57200000Y-106948000D03*
X57200000Y-108218000D03*
X57200000Y-109488000D03*
X57200000Y-110758000D03*
X57200000Y-112028000D03*
X57200000Y-113298000D03*
X57200000Y-114568000D03*
X57200000Y-115838000D03*
X57200000Y-117108000D03*
X57200000Y-118378000D03*
X57200000Y-119648000D03*
X57200000Y-120918000D03*
X57200000Y-122188000D03*
X67170000Y-122188000D03*
X67170000Y-120918000D03*
X67170000Y-119648000D03*
X67170000Y-118378000D03*
X67170000Y-117108000D03*
X67170000Y-115838000D03*
X67170000Y-114568000D03*
X67170000Y-113298000D03*
X67170000Y-112028000D03*
X67170000Y-110758000D03*
X67170000Y-109488000D03*
X67170000Y-108218000D03*
X67170000Y-106948000D03*
X67170000Y-105678000D03*
X67170000Y-104408000D03*
X67170000Y-103138000D03*
X67170000Y-101868000D03*
X67170000Y-100598000D03*
X67170000Y-99328000D03*
X67170000Y-98058000D03*
%TD*%
D35*
%TO.C,L3*%
X215000000Y-101200000D03*
X217800000Y-101200000D03*
%TD*%
D34*
%TO.C,R2*%
X160700000Y-92225000D03*
X160700000Y-90575000D03*
%TD*%
%TO.C,R4*%
X189325000Y-86600000D03*
X189325000Y-84950000D03*
%TD*%
D14*
%TO.C,C3*%
X97500000Y-128700000D03*
X97500000Y-126800000D03*
%TD*%
D37*
%TO.C,R22*%
X183787500Y-143650000D03*
X185612500Y-143650000D03*
%TD*%
D38*
%TO.C,R21*%
X51240000Y-117312500D03*
X51240000Y-115487500D03*
%TD*%
D14*
%TO.C,C24*%
X203300000Y-87950000D03*
X203300000Y-86050000D03*
%TD*%
D39*
%TO.C,C43*%
X144557017Y-145442983D03*
X146642983Y-143357017D03*
%TD*%
D13*
%TO.C,C32*%
X177150000Y-116200000D03*
X175250000Y-116200000D03*
%TD*%
D11*
%TO.C,C15*%
X231975000Y-139750000D03*
X229025000Y-139750000D03*
%TD*%
D14*
%TO.C,C22*%
X111900000Y-141050000D03*
X111900000Y-139150000D03*
%TD*%
D40*
%TO.C,U4*%
X184950000Y-92292500D03*
X183050000Y-92292500D03*
X184000000Y-94167500D03*
%TD*%
D41*
%TO.C,U10*%
X101675000Y-138900000D03*
X101675000Y-139550000D03*
X101675000Y-140200000D03*
X101675000Y-140850000D03*
X101675000Y-141500000D03*
X101675000Y-142150000D03*
X101675000Y-142800000D03*
X101675000Y-143450000D03*
X101675000Y-144100000D03*
X101675000Y-144750000D03*
X108230000Y-144750000D03*
X108230000Y-144100000D03*
X108230000Y-143450000D03*
X108230000Y-142800000D03*
X108230000Y-142150000D03*
X108230000Y-141500000D03*
X108230000Y-140850000D03*
X108230000Y-140200000D03*
X108230000Y-139550000D03*
X108230000Y-138895000D03*
%TD*%
D42*
%TO.C,C16*%
X213700000Y-105700000D03*
X218100000Y-105700000D03*
%TD*%
D36*
%TO.C,R25*%
X183925000Y-105775000D03*
X182100000Y-105775000D03*
%TD*%
D43*
%TO.C,U7*%
X203515000Y-104225000D03*
X203515000Y-101175000D03*
X200165000Y-104225000D03*
X200165000Y-101175000D03*
D44*
X208140000Y-104980000D03*
X208140000Y-100420000D03*
%TD*%
D45*
%TO.C,Q1*%
X176737500Y-94200000D03*
X176737500Y-92300000D03*
X174862500Y-93250000D03*
%TD*%
D37*
%TO.C,R10*%
X183912500Y-146125000D03*
X185737500Y-146125000D03*
%TD*%
D12*
%TO.C,C18*%
X223800000Y-139750000D03*
X226750000Y-139750000D03*
%TD*%
D17*
%TO.C,C44*%
X55550000Y-94800000D03*
X57450000Y-94800000D03*
%TD*%
D10*
%TO.C,R24*%
X157100000Y-90550000D03*
X157100000Y-92200000D03*
%TD*%
D13*
%TO.C,C6*%
X101950000Y-94750000D03*
X100050000Y-94750000D03*
%TD*%
D35*
%TO.C,L1*%
X215000000Y-93200000D03*
X217800000Y-93200000D03*
%TD*%
D46*
%TO.C,U8*%
X178775000Y-125775000D03*
X179425000Y-125775000D03*
X180075000Y-125775000D03*
X180725000Y-125775000D03*
X181375000Y-125775000D03*
X182025000Y-125775000D03*
X182675000Y-125775000D03*
X183325000Y-125775000D03*
X183975000Y-125775000D03*
X184625000Y-125775000D03*
X184625000Y-119220000D03*
X183975000Y-119220000D03*
X183325000Y-119220000D03*
X182675000Y-119220000D03*
X182025000Y-119220000D03*
X181375000Y-119220000D03*
X180725000Y-119220000D03*
X180075000Y-119220000D03*
X179425000Y-119220000D03*
X178770000Y-119220000D03*
%TD*%
M02*
