M48
; DRILL file {KiCad 9.0.6+1} date 2026-01-26T06:25:32-0800
; FORMAT={-:-/ absolute / metric / decimal}
; #@! TF.CreationDate,2026-01-26T06:25:32-08:00
; #@! TF.GenerationSoftware,Kicad,Pcbnew,9.0.6+1
; #@! TF.FileFunction,Plated,1,4,PTH
FMAT,2
METRIC
; #@! TA.AperFunction,Plated,PTH,ViaDrill
T1C0.400
; #@! TA.AperFunction,Plated,PTH,ComponentDrill
T2C0.800
; #@! TA.AperFunction,Plated,PTH,ComponentDrill
T3C1.000
; #@! TA.AperFunction,Plated,PTH,ComponentDrill
T4C1.130
; #@! TA.AperFunction,Plated,PTH,ComponentDrill
T5C3.230
%
G90
G05
T1
X48.0Y-102.0
X48.0Y-107.0
X48.0Y-112.0
X48.0Y-117.0
X48.0Y-122.0
X48.0Y-127.0
X48.0Y-132.0
X48.0Y-137.0
X48.0Y-142.0
X48.25Y-97.75
X50.0Y-93.25
X52.5Y-95.0
X54.0Y-89.0
X55.0Y-130.5
X55.0Y-144.5
X55.25Y-104.5
X57.25Y-123.0
X57.4Y-97.394
X59.0Y-85.25
X61.9Y-104.4
X61.9Y-111.4
X64.0Y-83.5
X64.053Y-114.4
X65.0Y-125.0
X65.0Y-137.25
X68.75Y-82.5
X70.0Y-95.0
X70.0Y-114.4
X70.6Y-111.0
X70.613Y-104.016
X72.25Y-104.289
X73.5Y-82.5
X74.9Y-97.4
X75.0Y-90.0
X75.0Y-130.5
X75.0Y-144.5
X75.5Y-123.0
X77.55Y-112.775
X78.2Y-105.4
X78.5Y-82.5
X78.951Y-116.967
X80.35Y-109.631
X80.673Y-117.749
X80.725Y-114.69
X80.956Y-104.475
X81.471Y-108.425
X81.6Y-147.4
X81.799Y-119.048
X82.242Y-106.793
X82.25Y-101.434
X82.673Y-120.423
X82.75Y-113.954
X83.069Y-102.916
X83.5Y-82.5
X84.794Y-95.294
X85.0Y-125.0
X85.5Y-96.9
X87.75Y-104.408
X87.75Y-110.75
X88.35Y-82.5
X88.375Y-141.725
X88.4Y-120.7
X88.871Y-95.225
X88.9Y-121.693
X90.0Y-90.0
X91.0Y-102.0
X91.9Y-105.6
X91.9Y-113.7
X91.945Y-119.414
X92.0Y-138.1
X92.5Y-87.5
X93.126Y-117.928
X93.35Y-82.5
X94.254Y-116.846
X94.679Y-99.8
X95.0Y-111.0
X95.0Y-132.5
X95.05Y-136.825
X95.05Y-140.35
X95.25Y-112.5
X95.4Y-104.4
X95.428Y-96.076
X95.8Y-147.2
X97.5Y-123.0
X98.25Y-96.5
X98.35Y-82.5
X98.8Y-140.975
X99.3Y-139.3
X99.3Y-144.1
X99.744Y-142.31
X100.25Y-146.25
X103.01Y-113.65
X103.25Y-82.5
X105.0Y-103.75
X105.0Y-125.0
X105.3Y-121.0
X105.6Y-147.75
X106.55Y-135.95
X106.55Y-139.55
X108.25Y-82.5
X109.0Y-147.75
X109.7Y-117.8
X109.825Y-115.981
X109.825Y-119.4
X109.85Y-121.05
X110.0Y-106.1
X110.2Y-142.245
X110.47Y-139.023
X110.529Y-140.693
X111.95Y-113.8
X111.989Y-143.314
X112.0Y-96.5
X112.1Y-134.1
X112.143Y-104.157
X112.5Y-111.0
X112.893Y-140.993
X113.25Y-82.5
X113.3Y-122.7
X113.302Y-144.225
X114.275Y-120.275
X114.4Y-117.0
X114.5Y-118.611
X115.75Y-125.5
X117.0Y-96.5
X118.0Y-136.0
X118.25Y-82.5
X118.8Y-119.525
X119.4Y-123.1
X119.476Y-106.475
X119.6Y-98.398
X119.612Y-112.887
X119.75Y-103.25
X119.8Y-115.1
X119.875Y-99.971
X120.0Y-101.524
X120.5Y-107.675
X120.7Y-145.35
X120.9Y-122.6
X121.0Y-126.999
X121.3Y-117.968
X121.5Y-98.15
X121.8Y-109.225
X122.3Y-118.75
X122.548Y-104.915
X122.75Y-125.5
X122.85Y-120.9
X123.0Y-82.5
X123.3Y-115.3
X123.8Y-110.8
X124.223Y-120.923
X124.45Y-128.7
X124.5Y-116.1
X124.905Y-148.453
X125.0Y-136.0
X126.028Y-148.45
X126.5Y-124.5
X128.0Y-82.5
X128.6Y-97.45
X128.661Y-121.444
X128.75Y-111.225
X129.15Y-114.87
X129.175Y-98.675
X129.213Y-99.971
X130.16Y-121.4
X130.333Y-100.833
X130.9Y-110.0
X131.4Y-107.738
X131.6Y-121.1
X132.0Y-136.0
X132.2Y-114.87
X132.552Y-110.123
X132.611Y-107.236
X132.889Y-111.168
X132.905Y-120.97
X133.0Y-82.5
X133.5Y-105.659
X133.5Y-128.7
X133.644Y-108.824
X134.55Y-122.0
X134.56Y-109.338
X134.8Y-143.2
X135.15Y-126.45
X135.419Y-108.7
X135.7Y-133.7
X136.048Y-109.735
X136.1Y-112.52
X137.098Y-109.732
X137.2Y-114.145
X138.0Y-82.5
X138.075Y-141.75
X138.85Y-99.4
X138.9Y-140.6
X139.5Y-126.4
X139.856Y-140.165
X140.8Y-99.05
X140.909Y-121.365
X141.245Y-104.595
X141.25Y-109.75
X141.5Y-115.75
X141.94Y-126.359
X141.95Y-101.3
X142.299Y-99.521
X143.0Y-82.5
X143.217Y-100.161
X143.25Y-122.75
X143.446Y-146.137
X143.93Y-100.932
X144.7Y-101.65
X144.942Y-124.905
X145.25Y-109.0
X145.25Y-115.25
X145.481Y-100.85
X145.732Y-143.957
X145.87Y-94.02
X146.0Y-125.68
X146.26Y-100.146
X146.969Y-100.921
X147.5Y-123.25
X148.01Y-101.55
X148.182Y-143.082
X148.5Y-117.5
X148.555Y-100.623
X148.9Y-148.0
X149.375Y-101.525
X150.15Y-100.725
X150.25Y-113.25
X150.3Y-139.875
X150.795Y-99.72
X151.25Y-109.0
X151.25Y-121.0
X153.0Y-104.0
X153.5Y-145.2
X153.5Y-148.0
X154.0Y-115.5
X155.0Y-99.675
X155.5Y-122.0
X156.363Y-91.667
X157.175Y-89.625
X157.8Y-122.668
X157.902Y-132.68
X158.2Y-125.9
X158.25Y-115.5
X158.3Y-142.3
X158.5Y-148.0
X158.502Y-124.894
X158.825Y-95.056
X158.931Y-132.387
X159.0Y-104.0
X159.0Y-118.25
X159.008Y-89.988
X159.25Y-123.25
X159.521Y-124.264
X159.863Y-131.71
X160.3Y-122.2
X161.104Y-123.0
X161.25Y-111.75
X161.5Y-99.75
X161.617Y-122.084
X161.9Y-91.3
X162.25Y-104.75
X162.3Y-120.9
X163.1Y-139.6
X163.3Y-148.0
X163.396Y-120.994
X163.984Y-95.2
X164.0Y-116.75
X164.4Y-121.3
X164.4Y-122.8
X164.7Y-99.1
X165.2Y-103.0
X165.25Y-113.5
X165.45Y-121.3
X165.7Y-100.9
X166.2Y-109.5
X166.249Y-94.647
X166.355Y-121.837
X166.5Y-90.8
X166.572Y-102.277
X166.573Y-103.327
X166.6Y-110.8
X166.65Y-93.603
X166.7Y-107.2
X166.755Y-95.6
X167.05Y-120.65
X167.7Y-139.875
X167.7Y-142.15
X167.75Y-116.0
X167.899Y-95.399
X167.973Y-124.525
X168.041Y-123.38
X168.041Y-113.4
X168.045Y-108.026
X168.046Y-111.285
X168.475Y-148.0
X168.5Y-97.25
X168.625Y-145.85
X170.3Y-131.8
X170.9Y-148.0
X171.0Y-142.1
X171.086Y-139.875
X171.753Y-113.235
X171.821Y-99.451
X172.0Y-111.5
X172.0Y-131.1
X172.3Y-94.2
X173.7Y-111.4
X173.9Y-148.01
X174.9Y-129.8
X174.9Y-139.2
X174.9Y-142.1
X175.5Y-111.5
X176.25Y-106.337
X176.85Y-104.985
X177.2Y-148.0
X177.5Y-139.2
X177.7Y-117.775
X177.7Y-123.821
X177.9Y-142.1
X178.0Y-94.2
X178.632Y-144.854
X178.853Y-117.209
X178.946Y-127.643
X179.0Y-123.7
X179.082Y-107.087
X179.55Y-113.85
X179.6Y-112.25
X179.75Y-95.5
X179.75Y-97.5
X179.957Y-116.477
X180.5Y-127.73
X181.499Y-116.763
X181.5Y-139.2
X182.123Y-128.037
X182.16Y-143.796
X182.2Y-99.5
X182.375Y-144.824
X182.675Y-142.171
X182.7Y-113.35
X182.769Y-102.467
X183.0Y-107.1
X183.05Y-116.848
X183.274Y-129.188
X183.425Y-144.8
X183.85Y-114.0
X184.1Y-92.3
X184.2Y-97.5
X184.835Y-117.275
X184.975Y-144.923
X185.0Y-101.75
X185.0Y-131.7
X185.475Y-111.875
X186.1Y-110.175
X186.858Y-114.42
X187.059Y-142.007
X187.15Y-122.75
X187.698Y-121.037
X188.02Y-113.8
X188.109Y-141.976
X188.152Y-120.091
X188.25Y-97.5
X188.5Y-85.0
X188.6Y-86.6
X188.82Y-119.135
X189.1Y-113.63
X189.174Y-123.945
X189.187Y-141.678
X189.21Y-112.05
X189.425Y-95.025
X189.5Y-90.5
X189.575Y-147.75
X189.6Y-127.1
X189.75Y-88.0
X190.0Y-99.5
X190.0Y-101.75
X190.14Y-113.06
X190.3Y-123.975
X190.5Y-85.0
X190.55Y-86.525
X190.654Y-120.353
X190.714Y-117.8
X190.9Y-131.7
X191.2Y-94.6
X191.525Y-147.75
X192.0Y-108.0
X192.315Y-112.016
X192.9Y-90.65
X193.31Y-139.56
X193.4Y-131.7
X194.0Y-85.5
X194.7Y-106.9
X195.15Y-123.5
X195.2Y-120.9
X195.9Y-103.1
X196.0Y-140.2
X196.041Y-85.477
X197.1Y-86.875
X197.1Y-89.4
X197.75Y-108.0
X197.821Y-119.916
X198.25Y-98.5
X198.5Y-140.8
X198.75Y-119.375
X199.5Y-117.82
X200.9Y-146.925
X201.2Y-102.15
X201.2Y-103.4
X201.2Y-140.8
X201.25Y-95.5
X201.328Y-131.036
X201.95Y-89.85
X202.25Y-112.0
X202.45Y-102.15
X202.45Y-103.4
X203.0Y-85.0
X203.75Y-120.5
X203.81Y-140.42
X204.25Y-82.5
X204.25Y-98.5
X205.4Y-93.25
X205.7Y-142.0
X205.9Y-148.45
X207.86Y-117.83
X208.4Y-123.5
X208.9Y-107.1
X209.25Y-82.5
X209.5Y-95.75
X209.5Y-98.5
X211.0Y-119.0
X211.0Y-148.45
X211.75Y-114.25
X211.75Y-123.5
X212.16Y-104.44
X212.5Y-108.5
X213.133Y-115.222
X214.149Y-115.484
X214.2Y-90.7
X214.25Y-82.5
X215.025Y-116.129
X216.5Y-95.25
X216.5Y-99.25
X216.5Y-113.0
X217.0Y-136.0
X217.71Y-108.52
X217.8Y-118.4
X218.25Y-141.5
X218.25Y-145.7
X219.25Y-82.5
X219.4Y-95.2
X219.4Y-123.5
X219.55Y-102.775
X220.8Y-100.2
X221.3Y-107.5
X221.4Y-96.8
X221.403Y-93.41
X221.8Y-99.2
X222.4Y-106.55
X222.675Y-102.025
X223.85Y-118.375
X224.0Y-108.25
X224.39Y-84.12
X224.825Y-99.875
X225.5Y-139.75
X227.0Y-89.1
X227.75Y-86.5
X230.448Y-144.236
X230.75Y-89.725
X231.375Y-117.025
X231.65Y-114.5
X233.7Y-96.5
X233.7Y-101.55
X233.7Y-106.05
X233.7Y-110.3
X233.7Y-114.5
X233.7Y-118.9
X233.7Y-123.4
X233.7Y-127.9
X233.7Y-132.4
X233.7Y-136.65
X233.7Y-143.4
T2
X188.25Y-110.16
X188.25Y-125.4
X188.25Y-128.56
X188.25Y-143.8
X190.79Y-110.16
X190.79Y-125.4
X190.79Y-128.56
X190.79Y-143.8
X193.33Y-110.16
X193.33Y-125.4
X193.33Y-128.56
X193.33Y-143.8
X195.87Y-110.16
X195.87Y-125.4
X195.87Y-128.56
X195.87Y-143.8
X198.41Y-110.16
X198.41Y-125.4
X198.41Y-128.56
X198.41Y-143.8
X200.95Y-110.16
X200.95Y-125.4
X200.95Y-128.56
X200.95Y-143.8
X203.49Y-110.16
X203.49Y-125.4
X203.49Y-128.56
X203.49Y-143.8
X206.03Y-110.16
X206.03Y-125.4
X206.03Y-128.56
X206.03Y-143.8
X208.57Y-110.16
X208.57Y-125.4
X208.57Y-128.56
X208.57Y-143.8
X211.11Y-110.16
X211.11Y-125.4
X211.11Y-128.56
X211.11Y-143.8
X213.65Y-110.16
X213.65Y-125.4
X213.65Y-128.56
X213.65Y-143.8
X216.19Y-110.16
X216.19Y-125.4
X216.19Y-128.56
X216.19Y-143.8
X218.73Y-110.16
X218.73Y-125.4
X218.73Y-128.56
X218.73Y-143.8
X221.27Y-110.16
X221.27Y-125.4
X221.27Y-128.56
X221.27Y-143.8
T3
X51.2Y-110.3
X51.2Y-112.84
X51.25Y-100.75
X51.25Y-103.29
X155.76Y-85.21
X155.76Y-87.75
X158.3Y-85.21
X158.3Y-87.75
X160.84Y-85.21
X160.84Y-87.75
X163.38Y-85.21
X163.38Y-87.75
X165.92Y-85.21
X165.92Y-87.75
X168.46Y-85.21
X168.46Y-87.75
X171.0Y-85.21
X171.0Y-87.75
X173.54Y-85.21
X173.54Y-87.75
X176.08Y-85.21
X176.08Y-87.75
X178.62Y-85.21
X178.62Y-87.75
X179.2Y-129.36
X179.2Y-131.9
X181.16Y-85.21
X181.16Y-87.75
X183.7Y-85.21
X183.7Y-87.75
X186.24Y-85.21
X186.24Y-87.75
T4
X226.0Y-103.14
X226.0Y-105.43
X226.0Y-107.72
X226.0Y-110.01
X226.0Y-112.3
X228.5Y-101.995
X228.5Y-104.285
X228.5Y-106.575
X228.5Y-108.865
X228.5Y-111.155
X231.0Y-103.14
X231.0Y-105.43
X231.0Y-107.72
X231.0Y-110.01
X231.0Y-112.3
T5
X228.5Y-95.0
X228.5Y-119.99
M30
