%TF.GenerationSoftware,KiCad,Pcbnew,8.0.5-dirty*%
%TF.CreationDate,2025-03-27T10:06:15-07:00*%
%TF.ProjectId,nightshade,6e696768-7473-4686-9164-652e6b696361,rev?*%
%TF.SameCoordinates,Original*%
%TF.FileFunction,Soldermask,Bot*%
%TF.FilePolarity,Negative*%
%FSLAX46Y46*%
G04 Gerber Fmt 4.6, Leading zero omitted, Abs format (unit mm)*
G04 Created by KiCad (PCBNEW 8.0.5-dirty) date 2025-03-27 10:06:15*
%MOMM*%
%LPD*%
G01*
G04 APERTURE LIST*
G04 Aperture macros list*
%AMRoundRect*
0 Rectangle with rounded corners*
0 $1 Rounding radius*
0 $2 $3 $4 $5 $6 $7 $8 $9 X,Y pos of 4 corners*
0 Add a 4 corners polygon primitive as box body*
4,1,4,$2,$3,$4,$5,$6,$7,$8,$9,$2,$3,0*
0 Add four circle primitives for the rounded corners*
1,1,$1+$1,$2,$3*
1,1,$1+$1,$4,$5*
1,1,$1+$1,$6,$7*
1,1,$1+$1,$8,$9*
0 Add four rect primitives between the rounded corners*
20,1,$1+$1,$2,$3,$4,$5,0*
20,1,$1+$1,$4,$5,$6,$7,0*
20,1,$1+$1,$6,$7,$8,$9,0*
20,1,$1+$1,$8,$9,$2,$3,0*%
G04 Aperture macros list end*
%ADD10R,1.780000X7.620000*%
%ADD11R,1.700000X1.700000*%
%ADD12O,1.700000X1.700000*%
%ADD13R,1.600000X1.600000*%
%ADD14O,1.600000X1.600000*%
%ADD15C,4.450000*%
%ADD16RoundRect,0.102000X0.847500X-0.847500X0.847500X0.847500X-0.847500X0.847500X-0.847500X-0.847500X0*%
%ADD17C,1.899000*%
%ADD18RoundRect,0.250000X-0.325000X-0.650000X0.325000X-0.650000X0.325000X0.650000X-0.325000X0.650000X0*%
%ADD19RoundRect,0.250000X-0.250000X-0.475000X0.250000X-0.475000X0.250000X0.475000X-0.250000X0.475000X0*%
%ADD20RoundRect,0.250000X-0.475000X0.250000X-0.475000X-0.250000X0.475000X-0.250000X0.475000X0.250000X0*%
%ADD21RoundRect,0.250000X0.250000X0.475000X-0.250000X0.475000X-0.250000X-0.475000X0.250000X-0.475000X0*%
%ADD22RoundRect,0.250000X0.475000X-0.250000X0.475000X0.250000X-0.475000X0.250000X-0.475000X-0.250000X0*%
%ADD23RoundRect,0.250000X-0.450000X0.262500X-0.450000X-0.262500X0.450000X-0.262500X0.450000X0.262500X0*%
%ADD24RoundRect,0.249998X0.450002X-0.262502X0.450002X0.262502X-0.450002X0.262502X-0.450002X-0.262502X0*%
%ADD25RoundRect,0.250100X0.449900X-0.262400X0.449900X0.262400X-0.449900X0.262400X-0.449900X-0.262400X0*%
%ADD26RoundRect,0.249998X-0.262502X-0.450002X0.262502X-0.450002X0.262502X0.450002X-0.262502X0.450002X0*%
%ADD27RoundRect,0.250100X-0.262400X-0.449900X0.262400X-0.449900X0.262400X0.449900X-0.262400X0.449900X0*%
%ADD28RoundRect,0.249998X0.262502X0.450002X-0.262502X0.450002X-0.262502X-0.450002X0.262502X-0.450002X0*%
%ADD29RoundRect,0.249998X-0.450002X0.262502X-0.450002X-0.262502X0.450002X-0.262502X0.450002X0.262502X0*%
%ADD30RoundRect,0.125000X-0.825000X-0.125000X0.825000X-0.125000X0.825000X0.125000X-0.825000X0.125000X0*%
G04 APERTURE END LIST*
D10*
%TO.C,J1*%
X212850000Y-152910000D03*
X210310000Y-152910000D03*
X207770000Y-152910000D03*
X205230000Y-152910000D03*
X202690000Y-152910000D03*
X200150000Y-152910000D03*
X197610000Y-152910000D03*
X195070000Y-152910000D03*
X192530000Y-152910000D03*
X189990000Y-152910000D03*
X187450000Y-152910000D03*
X184910000Y-152910000D03*
X182370000Y-152910000D03*
X179830000Y-152910000D03*
X177290000Y-152910000D03*
X174750000Y-152910000D03*
X172210000Y-152910000D03*
X169670000Y-152910000D03*
X167130000Y-152910000D03*
X164590000Y-152910000D03*
X162050000Y-152910000D03*
X159510000Y-152910000D03*
X156970000Y-152910000D03*
X154430000Y-152910000D03*
X151890000Y-152910000D03*
X149350000Y-152910000D03*
X146810000Y-152910000D03*
X144270000Y-152910000D03*
X141730000Y-152910000D03*
X139190000Y-152910000D03*
X136650000Y-152910000D03*
X126490000Y-152910000D03*
X123950000Y-152910000D03*
X121410000Y-152910000D03*
X118870000Y-152910000D03*
X116330000Y-152910000D03*
X113790000Y-152910000D03*
X111250000Y-152910000D03*
X108710000Y-152910000D03*
X106170000Y-152910000D03*
X103630000Y-152910000D03*
X101090000Y-152910000D03*
X98550000Y-152910000D03*
X96010000Y-152910000D03*
X93470000Y-152910000D03*
X90930000Y-152910000D03*
X88390000Y-152910000D03*
X85850000Y-152910000D03*
X83310000Y-152910000D03*
%TD*%
D11*
%TO.C,JP1*%
X194600000Y-144500000D03*
D12*
X192060000Y-144500000D03*
%TD*%
D13*
%TO.C,U6*%
X187100000Y-138490000D03*
D14*
X189640000Y-138490000D03*
X192180000Y-138490000D03*
X194720000Y-138490000D03*
X197260000Y-138490000D03*
X199800000Y-138490000D03*
X202340000Y-138490000D03*
X204880000Y-138490000D03*
X207420000Y-138490000D03*
X209960000Y-138490000D03*
X212500000Y-138490000D03*
X215040000Y-138490000D03*
X217580000Y-138490000D03*
X220120000Y-138490000D03*
X220120000Y-123250000D03*
X217580000Y-123250000D03*
X215040000Y-123250000D03*
X212500000Y-123250000D03*
X209960000Y-123250000D03*
X207420000Y-123250000D03*
X204880000Y-123250000D03*
X202340000Y-123250000D03*
X199800000Y-123250000D03*
X197260000Y-123250000D03*
X194720000Y-123250000D03*
X192180000Y-123250000D03*
X189640000Y-123250000D03*
X187100000Y-123250000D03*
%TD*%
D15*
%TO.C,J2*%
X228500000Y-119990000D03*
X228500000Y-95000000D03*
D16*
X226000000Y-103140000D03*
D17*
X226000000Y-105430000D03*
X226000000Y-107720000D03*
X226000000Y-110010000D03*
X226000000Y-112300000D03*
X228500000Y-101995000D03*
X228500000Y-104285000D03*
X228500000Y-106575000D03*
X228500000Y-108865000D03*
X228500000Y-111155000D03*
X231000000Y-103140000D03*
X231000000Y-105430000D03*
X231000000Y-107720000D03*
X231000000Y-110010000D03*
X231000000Y-112300000D03*
%TD*%
D18*
%TO.C,C7*%
X168025000Y-104250000D03*
X170975000Y-104250000D03*
%TD*%
D19*
%TO.C,C31*%
X144550000Y-120250000D03*
X146450000Y-120250000D03*
%TD*%
%TO.C,C36*%
X144550000Y-122220000D03*
X146450000Y-122220000D03*
%TD*%
D20*
%TO.C,C38*%
X151325000Y-93200000D03*
X151325000Y-95100000D03*
%TD*%
D18*
%TO.C,C18*%
X209725000Y-145000000D03*
X212675000Y-145000000D03*
%TD*%
D21*
%TO.C,C2*%
X115950000Y-98100000D03*
X114050000Y-98100000D03*
%TD*%
D19*
%TO.C,C3*%
X114550000Y-127750000D03*
X116450000Y-127750000D03*
%TD*%
D22*
%TO.C,C1*%
X93250000Y-99950000D03*
X93250000Y-98050000D03*
%TD*%
D21*
%TO.C,C5*%
X115950000Y-104300000D03*
X114050000Y-104300000D03*
%TD*%
D19*
%TO.C,C6*%
X91050000Y-104500000D03*
X92950000Y-104500000D03*
%TD*%
%TO.C,C4*%
X90050000Y-128000000D03*
X91950000Y-128000000D03*
%TD*%
D23*
%TO.C,JP2*%
X88500000Y-98750000D03*
X88500000Y-100575000D03*
%TD*%
D24*
%TO.C,R14*%
X142840000Y-122075000D03*
X142840000Y-120250000D03*
%TD*%
D25*
%TO.C,R15*%
X88500000Y-104075000D03*
D24*
X88500000Y-102250000D03*
%TD*%
D26*
%TO.C,R18*%
X96987500Y-107575000D03*
X98812500Y-107575000D03*
%TD*%
%TO.C,R19*%
X96987500Y-109475000D03*
X98812500Y-109475000D03*
%TD*%
%TO.C,R16*%
X97000000Y-103200000D03*
X98825000Y-103200000D03*
%TD*%
D27*
%TO.C,R17*%
X96987500Y-105675000D03*
D26*
X98812500Y-105675000D03*
%TD*%
D28*
%TO.C,R7*%
X179512500Y-103300000D03*
X177687500Y-103300000D03*
%TD*%
%TO.C,R8*%
X179512500Y-100600000D03*
X177687500Y-100600000D03*
%TD*%
%TO.C,R9*%
X179512500Y-97800000D03*
X177687500Y-97800000D03*
%TD*%
D29*
%TO.C,R1*%
X170325000Y-108300000D03*
X170325000Y-110125000D03*
%TD*%
D30*
%TO.C,U7*%
X216030000Y-133655000D03*
X216030000Y-133005000D03*
X216030000Y-132355000D03*
X216030000Y-131705000D03*
X216030000Y-131055000D03*
X216030000Y-130405000D03*
X216030000Y-129755000D03*
X216030000Y-129105000D03*
X216030000Y-128455000D03*
X216030000Y-127805000D03*
X223030000Y-127805000D03*
X223030000Y-128455000D03*
X223030000Y-129105000D03*
X223030000Y-129755000D03*
X223030000Y-130405000D03*
X223030000Y-131055000D03*
X223030000Y-131705000D03*
X223030000Y-132355000D03*
X223030000Y-133005000D03*
X223030000Y-133655000D03*
%TD*%
D22*
%TO.C,C32*%
X225570000Y-135590000D03*
X225570000Y-133690000D03*
%TD*%
G36*
X215117121Y-149120002D02*
G01*
X215163614Y-149173658D01*
X215175000Y-149226000D01*
X215175000Y-156956258D01*
X215154998Y-157024379D01*
X215147895Y-157034333D01*
X214462836Y-157902075D01*
X214404926Y-157943148D01*
X214363941Y-157950000D01*
X135106335Y-157950000D01*
X135038214Y-157929998D01*
X135012435Y-157908016D01*
X134232100Y-157035876D01*
X134201583Y-156971772D01*
X134200000Y-156951860D01*
X134200000Y-149226000D01*
X134220002Y-149157879D01*
X134273658Y-149111386D01*
X134326000Y-149100000D01*
X215049000Y-149100000D01*
X215117121Y-149120002D01*
G37*
G36*
X128867121Y-149120002D02*
G01*
X128913614Y-149173658D01*
X128925000Y-149226000D01*
X128925000Y-156951860D01*
X128904998Y-157019981D01*
X128892900Y-157035876D01*
X128112565Y-157908016D01*
X128052237Y-157945445D01*
X128018665Y-157950000D01*
X81806335Y-157950000D01*
X81738214Y-157929998D01*
X81712435Y-157908016D01*
X80932118Y-157035896D01*
X80901601Y-156971792D01*
X80900018Y-156951833D01*
X80902926Y-149225953D01*
X80922954Y-149157839D01*
X80976627Y-149111367D01*
X81028926Y-149100000D01*
X128799000Y-149100000D01*
X128867121Y-149120002D01*
G37*
M02*
