%TF.GenerationSoftware,KiCad,Pcbnew,8.0.5-dirty*%
%TF.CreationDate,2025-03-27T10:06:17-07:00*%
%TF.ProjectId,nightshade,6e696768-7473-4686-9164-652e6b696361,rev?*%
%TF.SameCoordinates,Original*%
%TF.FileFunction,Drillmap*%
%TF.FilePolarity,Positive*%
%FSLAX45Y45*%
G04 Gerber Fmt 4.5, Leading zero omitted, Abs format (unit mm)*
G04 Created by KiCad (PCBNEW 8.0.5-dirty) date 2025-03-27 10:06:17*
%MOMM*%
%LPD*%
G01*
G04 APERTURE LIST*
%ADD10C,0.050000*%
%ADD11C,0.200000*%
G04 APERTURE END LIST*
D10*
X23425000Y-9175000D02*
X23425000Y-14415000D01*
X23270000Y-14570000D01*
X21517500Y-14570000D01*
X21517500Y-15700000D01*
X21442500Y-15795000D01*
X13505000Y-15795000D01*
X13420000Y-15700000D01*
X13420000Y-14907500D01*
X12892500Y-14907500D01*
X12892500Y-15700000D01*
X12807500Y-15795000D01*
X8175000Y-15795000D01*
X8090000Y-15700000D01*
X8092500Y-9057500D01*
X8393500Y-8718500D01*
X23003500Y-8718500D01*
X23425000Y-9175000D01*
D11*
X8348277Y-16108984D02*
X8348277Y-15908984D01*
X8348277Y-15908984D02*
X8395896Y-15908984D01*
X8395896Y-15908984D02*
X8424467Y-15918508D01*
X8424467Y-15918508D02*
X8443515Y-15937555D01*
X8443515Y-15937555D02*
X8453039Y-15956603D01*
X8453039Y-15956603D02*
X8462563Y-15994698D01*
X8462563Y-15994698D02*
X8462563Y-16023269D01*
X8462563Y-16023269D02*
X8453039Y-16061365D01*
X8453039Y-16061365D02*
X8443515Y-16080412D01*
X8443515Y-16080412D02*
X8424467Y-16099460D01*
X8424467Y-16099460D02*
X8395896Y-16108984D01*
X8395896Y-16108984D02*
X8348277Y-16108984D01*
X8548277Y-16108984D02*
X8548277Y-15975650D01*
X8548277Y-16013746D02*
X8557801Y-15994698D01*
X8557801Y-15994698D02*
X8567324Y-15985174D01*
X8567324Y-15985174D02*
X8586372Y-15975650D01*
X8586372Y-15975650D02*
X8605420Y-15975650D01*
X8672086Y-16108984D02*
X8672086Y-15975650D01*
X8672086Y-15908984D02*
X8662563Y-15918508D01*
X8662563Y-15918508D02*
X8672086Y-15928031D01*
X8672086Y-15928031D02*
X8681610Y-15918508D01*
X8681610Y-15918508D02*
X8672086Y-15908984D01*
X8672086Y-15908984D02*
X8672086Y-15928031D01*
X8795896Y-16108984D02*
X8776848Y-16099460D01*
X8776848Y-16099460D02*
X8767324Y-16080412D01*
X8767324Y-16080412D02*
X8767324Y-15908984D01*
X8900658Y-16108984D02*
X8881610Y-16099460D01*
X8881610Y-16099460D02*
X8872086Y-16080412D01*
X8872086Y-16080412D02*
X8872086Y-15908984D01*
X9129229Y-16108984D02*
X9129229Y-15908984D01*
X9129229Y-15908984D02*
X9195896Y-16051841D01*
X9195896Y-16051841D02*
X9262563Y-15908984D01*
X9262563Y-15908984D02*
X9262563Y-16108984D01*
X9443515Y-16108984D02*
X9443515Y-16004222D01*
X9443515Y-16004222D02*
X9433991Y-15985174D01*
X9433991Y-15985174D02*
X9414944Y-15975650D01*
X9414944Y-15975650D02*
X9376848Y-15975650D01*
X9376848Y-15975650D02*
X9357801Y-15985174D01*
X9443515Y-16099460D02*
X9424467Y-16108984D01*
X9424467Y-16108984D02*
X9376848Y-16108984D01*
X9376848Y-16108984D02*
X9357801Y-16099460D01*
X9357801Y-16099460D02*
X9348277Y-16080412D01*
X9348277Y-16080412D02*
X9348277Y-16061365D01*
X9348277Y-16061365D02*
X9357801Y-16042317D01*
X9357801Y-16042317D02*
X9376848Y-16032793D01*
X9376848Y-16032793D02*
X9424467Y-16032793D01*
X9424467Y-16032793D02*
X9443515Y-16023269D01*
X9538753Y-15975650D02*
X9538753Y-16175650D01*
X9538753Y-15985174D02*
X9557801Y-15975650D01*
X9557801Y-15975650D02*
X9595896Y-15975650D01*
X9595896Y-15975650D02*
X9614944Y-15985174D01*
X9614944Y-15985174D02*
X9624467Y-15994698D01*
X9624467Y-15994698D02*
X9633991Y-16013746D01*
X9633991Y-16013746D02*
X9633991Y-16070888D01*
X9633991Y-16070888D02*
X9624467Y-16089936D01*
X9624467Y-16089936D02*
X9614944Y-16099460D01*
X9614944Y-16099460D02*
X9595896Y-16108984D01*
X9595896Y-16108984D02*
X9557801Y-16108984D01*
X9557801Y-16108984D02*
X9538753Y-16099460D01*
X9719705Y-16089936D02*
X9729229Y-16099460D01*
X9729229Y-16099460D02*
X9719705Y-16108984D01*
X9719705Y-16108984D02*
X9710182Y-16099460D01*
X9710182Y-16099460D02*
X9719705Y-16089936D01*
X9719705Y-16089936D02*
X9719705Y-16108984D01*
X9719705Y-15985174D02*
X9729229Y-15994698D01*
X9729229Y-15994698D02*
X9719705Y-16004222D01*
X9719705Y-16004222D02*
X9710182Y-15994698D01*
X9710182Y-15994698D02*
X9719705Y-15985174D01*
X9719705Y-15985174D02*
X9719705Y-16004222D01*
M02*
